<?xml version="1.0" encoding="utf-8"?>
<!-- Generator: Adobe Illustrator 24.0.0, SVG Export Plug-In . SVG Version: 6.00 Build 0)  -->
<svg version="1.1" id="图层_1" xmlns="http://www.w3.org/2000/svg" xmlns:xlink="http://www.w3.org/1999/xlink" x="0px" y="0px"
	 viewBox="0 0 1920 495" style="enable-background:new 0 0 1920 495;" xml:space="preserve">
<style type="text/css">
	.st0{fill:url(#路径_14538_1_);}
	.st1{fill:url(#椭圆_69_1_);}
	.st2{fill:url(#椭圆_70_1_);}
	.st3{opacity:0.65;fill:url(#椭圆_68_2_);enable-background:new    ;}
	.st4{fill:url(#路径_411_1_);}
	.st5{fill:url(#路径_411-2_1_);}
	.st6{fill:url(#路径_412_1_);}
	.st7{fill:url(#路径_413_1_);}
	.st8{fill:url(#路径_414_1_);}
	.st9{fill:url(#路径_413-2_1_);}
	.st10{opacity:0.4;}
	.st11{fill-rule:evenodd;clip-rule:evenodd;fill:url(#路径_14493_1_);}
	.st12{fill-rule:evenodd;clip-rule:evenodd;fill:url(#路径_14494_1_);}
	.st13{fill-rule:evenodd;clip-rule:evenodd;fill:url(#路径_14495_1_);}
	.st14{fill-rule:evenodd;clip-rule:evenodd;fill:url(#路径_14496_1_);}
	.st15{fill:url(#路径_14171_1_);}
	.st16{opacity:0.2;}
	.st17{fill:url(#路径_14172_1_);}
	.st18{opacity:0.12;fill:url(#路径_14173_1_);enable-background:new    ;}
	.st19{fill:url(#路径_14174_1_);}
	.st20{fill:url(#路径_14175_1_);}
	.st21{fill:url(#路径_14176_1_);}
	.st22{fill:url(#路径_14177_1_);}
	.st23{fill:url(#路径_14178_1_);}
	.st24{fill:url(#路径_14179_1_);}
	.st25{fill:url(#路径_14180_1_);}
	.st26{fill:url(#路径_14181_1_);}
	.st27{fill:url(#路径_14182_1_);}
	.st28{fill:#73E1FF;}
	.st29{opacity:0.8;fill:url(#路径_14539_1_);enable-background:new    ;}
	.st30{fill-rule:evenodd;clip-rule:evenodd;fill:url(#路径_14461_1_);}
	.st31{fill-rule:evenodd;clip-rule:evenodd;fill:url(#路径_14462_1_);}
	.st32{fill-rule:evenodd;clip-rule:evenodd;fill:url(#路径_14463_1_);}
	.st33{fill-rule:evenodd;clip-rule:evenodd;fill:url(#路径_14464_1_);}
	.st34{fill-rule:evenodd;clip-rule:evenodd;fill:url(#路径_14461-2_1_);}
	.st35{fill-rule:evenodd;clip-rule:evenodd;fill:url(#路径_14462-2_1_);}
	.st36{fill-rule:evenodd;clip-rule:evenodd;fill:url(#路径_14463-2_1_);}
	.st37{fill-rule:evenodd;clip-rule:evenodd;fill:url(#路径_14464-2_1_);}
	.st38{fill-rule:evenodd;clip-rule:evenodd;fill:url(#路径_14461-3_1_);}
	.st39{fill-rule:evenodd;clip-rule:evenodd;fill:url(#路径_14462-3_1_);}
	.st40{fill-rule:evenodd;clip-rule:evenodd;fill:url(#路径_14463-3_1_);}
	.st41{fill-rule:evenodd;clip-rule:evenodd;fill:url(#路径_14464-3_1_);}
	.st42{fill-rule:evenodd;clip-rule:evenodd;fill:url(#路径_14461-4_1_);}
	.st43{fill-rule:evenodd;clip-rule:evenodd;fill:url(#路径_14462-4_1_);}
	.st44{fill-rule:evenodd;clip-rule:evenodd;fill:url(#路径_14463-4_1_);}
	.st45{fill-rule:evenodd;clip-rule:evenodd;fill:url(#路径_14464-4_1_);}
	.st46{fill-rule:evenodd;clip-rule:evenodd;fill:url(#路径_14461-5_1_);}
	.st47{fill-rule:evenodd;clip-rule:evenodd;fill:url(#路径_14462-5_1_);}
	.st48{fill-rule:evenodd;clip-rule:evenodd;fill:url(#路径_14463-5_1_);}
	.st49{fill-rule:evenodd;clip-rule:evenodd;fill:url(#路径_14464-5_1_);}
	.st50{opacity:0.86;fill:url(#路径_14540_1_);enable-background:new    ;}
	.st51{opacity:0.85;fill:url(#路径_14541_1_);enable-background:new    ;}
	.st52{opacity:0.76;fill:url(#路径_14542_1_);enable-background:new    ;}
	.st53{opacity:0.85;fill:url(#路径_14543_1_);enable-background:new    ;}
	.st54{opacity:0.76;fill:url(#路径_14544_1_);enable-background:new    ;}
	.st55{opacity:0.85;fill:url(#路径_14545_1_);enable-background:new    ;}
	.st56{opacity:0.87;fill:url(#路径_14546_1_);enable-background:new    ;}
	.st57{fill:url(#路径_14547_1_);}
	.st58{fill:url(#椭圆_73_1_);}
	.st59{fill:url(#椭圆_74_1_);}
	.st60{fill:url(#路径_14548_1_);}
	.st61{fill:url(#椭圆_73-2_1_);}
	.st62{fill:url(#椭圆_74-2_1_);}
	.st63{fill:url(#路径_14549_1_);}
	.st64{fill:url(#椭圆_73-3_1_);}
	.st65{fill:url(#椭圆_74-3_1_);}
	.st66{fill:url(#椭圆_75_1_);}
	.st67{fill:url(#椭圆_76_1_);}
	.st68{fill:url(#椭圆_77_1_);}
	.st69{fill:url(#椭圆_78_1_);}
	.st70{fill:url(#椭圆_79_1_);}
	.st71{fill:url(#椭圆_80_1_);}
	.st72{fill:url(#椭圆_81_1_);}
	.st73{enable-background:new    ;}
	.st74{fill:#FFFFFF;stroke:#FFFFFF;stroke-width:0.5;stroke-miterlimit:10;}
	.st75{fill:#FFFFFF;}
</style>
<linearGradient id="路径_14538_1_" gradientUnits="userSpaceOnUse" x1="-0.1267" y1="779.9257" x2="0.8349" y2="779.0048" gradientTransform="matrix(1920.334 0 0 -485 287.947 378290)">
	<stop  offset="0" style="stop-color:#07092E"/>
	<stop  offset="1" style="stop-color:#060B54"/>
</linearGradient>
<path id="路径_14538" class="st0" d="M0.3,0h1920v495H0.3V0z"/>
<g id="组_9890" transform="translate(5798 -8510.979)">
	<g id="组_9883" transform="translate(-5798 8574.832)">
		
			<radialGradient id="椭圆_69_1_" cx="3.077" cy="718.916" r="0.5815" gradientTransform="matrix(435 0 0 -191.52 74 137976.7031)" gradientUnits="userSpaceOnUse">
			<stop  offset="0" style="stop-color:#0A1019;stop-opacity:0"/>
			<stop  offset="0.535" style="stop-color:#7187EC;stop-opacity:0"/>
			<stop  offset="0.946" style="stop-color:#4F6CF8;stop-opacity:0.18"/>
			<stop  offset="1" style="stop-color:#2046FF;stop-opacity:0.322"/>
		</radialGradient>
		<ellipse id="椭圆_69" class="st1" cx="1412.5" cy="289.9" rx="237.7" ry="114.8"/>
		
			<radialGradient id="椭圆_70_1_" cx="2.9505" cy="720.6801" r="0.5464" gradientTransform="matrix(457 0 0 -302 52 217816.1719)" gradientUnits="userSpaceOnUse">
			<stop  offset="0" style="stop-color:#505BFF;stop-opacity:0.6"/>
			<stop  offset="1" style="stop-color:#4E5AFF;stop-opacity:0"/>
		</radialGradient>
		<ellipse id="椭圆_70" class="st2" cx="1400.4" cy="170.8" rx="249.7" ry="165"/>
		
			<radialGradient id="椭圆_68_2_" cx="2.3463" cy="720.9672" r="0.5134" gradientTransform="matrix(602 0 0 -315.7477 0 227923.9063)" gradientUnits="userSpaceOnUse">
			<stop  offset="0" style="stop-color:#505BFF;stop-opacity:0.6"/>
			<stop  offset="1" style="stop-color:#4E5AFF;stop-opacity:0"/>
		</radialGradient>
		<path id="椭圆_68_1_" class="st3" d="M1193,430.4c-67.2-31.6-109.5-77.5-109.5-128.6c0-95.3,147.3-172.6,329-172.6
			s329,77.3,329,172.6c0,51.5-43,97.7-111.2,129.3"/>
		<g id="组_196" transform="translate(155.542 181.898)">
			
				<linearGradient id="路径_411_1_" gradientUnits="userSpaceOnUse" x1="-462.5424" y1="533.4625" x2="-461.4492" y2="533.4625" gradientTransform="matrix(271.4008 0 0 -109.0757 126642.6797 58270.1289)">
				<stop  offset="0" style="stop-color:#00CEFE"/>
				<stop  offset="1" style="stop-color:#355FFF"/>
			</linearGradient>
			<path id="路径_411" class="st4" d="M1304.1,138.9c-37.5,5-77.7,3.9-113.2-3.2s-62-19.4-74.7-34.5s-10-31.3,7.6-45.5
				s47.9-24.8,85.4-29.9s77.7-3.9,113.2,3.2s62,19.4,74.7,34.5s10,31.3-7.6,45.5S1341.6,133.8,1304.1,138.9z"/>
		</g>
		<g id="组_9874" transform="translate(184.97 195.198)">
			
				<linearGradient id="路径_411-2_1_" gradientUnits="userSpaceOnUse" x1="-549.6642" y1="517.1274" x2="-548.5712" y2="517.1274" gradientTransform="matrix(211.7975 0 0 -79.8176 117528.5547 41343.3672)">
				<stop  offset="0" style="stop-color:#00159C"/>
				<stop  offset="1" style="stop-color:#000856"/>
			</linearGradient>
			<path id="路径_411-2" class="st5" d="M1263.8,108.9c-29.4,3.7-59.2,2.9-88.3-2.4c-27.7-5.2-48.4-14.2-58.3-25.2
				s-7.8-22.9,5.9-33.3s37.4-18.2,66.7-21.9c29.4-3.7,59.2-2.9,88.3,2.4c27.7,5.2,48.4,14.2,58.3,25.2s7.8,22.9-5.9,33.3
				C1316.8,97.5,1293.1,105.2,1263.8,108.9z"/>
		</g>
		
			<linearGradient id="路径_412_1_" gradientUnits="userSpaceOnUse" x1="4.084" y1="711.0853" x2="5.1764" y2="711.0853" gradientTransform="matrix(271.4107 0 0 -72.2009 155.548 51643.3945)">
			<stop  offset="0" style="stop-color:#345FFF"/>
			<stop  offset="3.000000e-03" style="stop-color:#01CBFE"/>
			<stop  offset="1" style="stop-color:#0D42FF"/>
		</linearGradient>
		<path id="路径_412" class="st6" d="M1560.4,265.3c0,0.1,0,0.1,0,0.2c0,0.5-0.1,1-0.2,1.5c0,0,0,0,0,0.1c-0.1,0.5-0.2,1-0.3,1.6
			c0,0.1,0,0.1,0,0.2c-0.1,0.5-0.2,1-0.4,1.5c0,0.1,0,0.2-0.1,0.2c-0.1,0.5-0.3,0.9-0.4,1.4c-0.1,0.3-0.2,0.6-0.3,0.9
			c-0.1,0.3-0.2,0.5-0.3,0.8c-0.1,0.3-0.3,0.6-0.4,0.9s-0.2,0.5-0.4,0.8c-0.1,0.3-0.3,0.6-0.4,0.8s-0.3,0.6-0.5,0.8
			s-0.3,0.6-0.5,0.8c-0.2,0.3-0.3,0.5-0.5,0.8s-0.4,0.5-0.5,0.8c-0.2,0.3-0.4,0.6-0.6,0.8c-0.2,0.3-0.4,0.5-0.6,0.8
			s-0.4,0.6-0.6,0.8c-0.2,0.3-0.4,0.5-0.7,0.8c-0.2,0.3-0.5,0.5-0.7,0.8s-0.5,0.5-0.7,0.8s-0.5,0.5-0.8,0.8s-0.6,0.6-0.8,0.8
			c-0.3,0.3-0.5,0.5-0.8,0.8s-0.6,0.6-0.9,0.8s-0.6,0.5-0.9,0.8l-0.3,0.2c-0.5,0.5-1.1,1-1.7,1.4c-0.6,0.5-1.2,0.9-1.8,1.4
			c-0.1,0.1-0.2,0.2-0.4,0.3c-0.6,0.4-1.1,0.8-1.7,1.3c-0.2,0.2-0.5,0.3-0.7,0.5c-0.5,0.4-1,0.7-1.6,1.1c-0.2,0.2-0.5,0.3-0.7,0.5
			c-0.8,0.5-1.6,1-2.4,1.5c-0.1,0-0.2,0.1-0.2,0.1c-0.8,0.5-1.5,0.9-2.3,1.4c-0.4,0.2-0.8,0.4-1.2,0.7c-0.2,0.1-0.4,0.2-0.6,0.3
			c-0.6,0.4-1.3,0.7-2,1.1l-0.2,0.1c-0.6,0.3-1.2,0.6-1.8,0.9c-0.2,0.1-0.4,0.2-0.6,0.3c-0.5,0.2-0.9,0.5-1.4,0.7
			c-0.3,0.1-0.6,0.3-0.9,0.4c-0.4,0.2-0.9,0.4-1.3,0.6c-0.3,0.1-0.6,0.3-0.9,0.4c-0.5,0.2-1,0.4-1.4,0.6c-0.3,0.1-0.6,0.3-0.9,0.4
			c-0.6,0.2-1.1,0.5-1.7,0.7c-0.2,0.1-0.5,0.2-0.7,0.3c-0.3,0.1-0.5,0.2-0.8,0.3c-0.7,0.3-1.3,0.5-2,0.8c-0.3,0.1-0.7,0.3-1.1,0.4
			c-0.6,0.2-1.2,0.4-1.8,0.7c-0.4,0.1-0.8,0.3-1.2,0.4c-0.6,0.2-1.1,0.4-1.7,0.6c-0.4,0.1-0.8,0.3-1.2,0.4c-0.6,0.2-1.2,0.4-1.7,0.6
			s-1,0.3-1.4,0.5l-0.9,0.3c-0.6,0.2-1.3,0.4-1.9,0.6c-0.2,0.1-0.5,0.1-0.7,0.2c-0.9,0.3-1.8,0.5-2.6,0.8l-0.5,0.2
			c-0.7,0.2-1.4,0.4-2.2,0.6l-0.9,0.2c-0.6,0.2-1.3,0.3-1.9,0.5l-0.9,0.2c-0.8,0.2-1.6,0.4-2.4,0.6l-0.4,0.1
			c-0.9,0.2-1.9,0.4-2.8,0.7c-0.6,0.1-1.1,0.3-1.7,0.4c-0.5,0.1-1,0.2-1.5,0.3c-0.6,0.1-1.2,0.3-1.8,0.4c-0.5,0.1-1,0.2-1.5,0.3
			c-0.6,0.1-1.2,0.2-1.8,0.4c-0.5,0.1-1,0.2-1.5,0.3c-0.6,0.1-1.3,0.2-1.9,0.4c-0.5,0.1-1,0.2-1.5,0.3c-0.7,0.1-1.3,0.2-2,0.3
			c-0.5,0.1-0.9,0.2-1.4,0.2c-0.7,0.1-1.4,0.2-2.1,0.3c-0.4,0.1-0.9,0.1-1.3,0.2c-0.8,0.1-1.6,0.2-2.4,0.4c-0.4,0.1-0.8,0.1-1.1,0.2
			c-1.2,0.2-2.3,0.3-3.5,0.5c-2.1,0.3-4.2,0.5-6.3,0.8c-0.5,0.1-1,0.1-1.6,0.2c-1.4,0.2-2.7,0.3-4.1,0.4c-1.1,0.1-2.1,0.2-3.2,0.3
			c-1.3,0.1-2.6,0.2-3.8,0.3c-1,0.1-2.1,0.2-3.2,0.2c-2,0.1-4.1,0.3-6.1,0.4c-0.4,0-0.7,0-1.1,0c-1.5,0.1-3.1,0.1-4.6,0.2
			c-1.7,0.1-3.4,0.1-5.1,0.1c-1,0-1.9,0-2.9,0.1c-1.6,0-3.3,0-4.9,0c-0.9,0-1.8,0-2.8,0c-1.8,0-3.7-0.1-5.5-0.1c-0.7,0-1.4,0-2.1,0
			c-2.5-0.1-5.1-0.2-7.6-0.3c-0.6,0-1.1-0.1-1.7-0.1c-2-0.1-3.9-0.2-5.9-0.4c-0.9-0.1-1.8-0.1-2.7-0.2c-1.6-0.1-3.3-0.3-4.9-0.4
			c-1-0.1-2-0.2-3-0.3c-1.6-0.2-3.1-0.3-4.6-0.5c-1-0.1-2-0.2-3-0.4c-1.5-0.2-3.1-0.4-4.6-0.6c-1-0.1-2-0.3-3-0.4
			c-1.6-0.2-3.3-0.5-4.9-0.8c-1-0.2-2-0.3-3-0.5c-0.4-0.1-0.8-0.1-1.2-0.2c-2-0.4-4-0.7-6-1.1c-1.3-0.3-2.5-0.5-3.7-0.8
			c-0.4-0.1-0.8-0.2-1.2-0.3c-0.8-0.2-1.7-0.4-2.5-0.6c-0.4-0.1-0.8-0.2-1.2-0.3c-1-0.2-1.9-0.5-2.9-0.7c-0.3-0.1-0.6-0.2-0.9-0.2
			c-1.2-0.3-2.5-0.6-3.7-1c-0.2-0.1-0.4-0.1-0.7-0.2c-1.1-0.3-2.2-0.6-3.3-0.9l-1-0.3c-1.3-0.4-2.5-0.7-3.8-1.1
			c-0.9-0.3-1.8-0.6-2.6-0.8c-0.3-0.1-0.5-0.2-0.7-0.2c-0.6-0.2-1.2-0.4-1.8-0.6c-0.3-0.1-0.6-0.2-0.9-0.3c-0.5-0.2-1.1-0.4-1.6-0.6
			c-0.3-0.1-0.6-0.2-0.9-0.3c-0.5-0.2-0.9-0.3-1.4-0.5s-1-0.4-1.5-0.6c-0.4-0.2-0.8-0.3-1.2-0.5c-0.5-0.2-1-0.4-1.4-0.6
			s-0.8-0.3-1.2-0.5c-0.5-0.2-0.9-0.4-1.4-0.6c-0.4-0.2-0.8-0.3-1.2-0.5c-0.5-0.2-0.9-0.4-1.4-0.6c-0.4-0.2-0.8-0.3-1.1-0.5
			c-0.4-0.2-0.8-0.4-1.3-0.6c-0.4-0.2-0.8-0.4-1.1-0.5c-0.4-0.2-0.8-0.4-1.2-0.6c-0.4-0.2-0.7-0.4-1.1-0.5c-0.4-0.2-0.8-0.4-1.2-0.6
			c-0.4-0.2-0.7-0.4-1.1-0.6s-0.8-0.4-1.1-0.6c-0.3-0.2-0.7-0.4-1-0.6c-0.4-0.2-0.7-0.4-1.1-0.6c-0.3-0.2-0.7-0.4-1-0.6
			c-0.4-0.2-0.7-0.4-1.1-0.6c-0.3-0.2-0.6-0.4-1-0.6c-0.3-0.2-0.7-0.4-1-0.7c-0.3-0.2-0.6-0.4-0.9-0.6s-0.7-0.4-1-0.7
			c-0.3-0.2-0.6-0.4-0.9-0.6s-0.6-0.5-1-0.7c-0.3-0.2-0.6-0.4-0.8-0.6c-0.3-0.2-0.6-0.5-0.9-0.7s-0.5-0.4-0.8-0.6s-0.6-0.5-0.9-0.7
			c-0.2-0.2-0.5-0.4-0.7-0.6c-0.3-0.3-0.6-0.5-0.9-0.8c-0.2-0.2-0.5-0.4-0.7-0.6c-0.3-0.3-0.6-0.5-0.8-0.8c-0.2-0.2-0.4-0.4-0.6-0.6
			c-0.3-0.3-0.6-0.5-0.8-0.8c-0.2-0.2-0.4-0.4-0.6-0.6c-0.3-0.3-0.6-0.6-0.9-0.9c-0.1-0.2-0.3-0.3-0.4-0.5c-0.4-0.5-0.8-1-1.2-1.4
			c-1.6-1.9-3-3.8-4.2-5.9c-0.9-1.5-1.6-3.1-2.2-4.8c-0.1-0.4-0.3-0.8-0.4-1.2c-0.5-1.6-0.8-3.2-1-4.8c0-0.4-0.1-0.8-0.1-1.2
			c0-0.4,0-0.8,0-1.2l0,0l-0.1,18.8c0,6.4,2.6,12.9,7.9,19.2c0.4,0.5,0.8,1,1.2,1.4c0.1,0.2,0.3,0.3,0.4,0.5
			c0.3,0.3,0.6,0.6,0.9,0.9c0.2,0.2,0.4,0.4,0.6,0.6c0.3,0.3,0.5,0.6,0.8,0.8c0.2,0.2,0.4,0.4,0.6,0.6c0.3,0.3,0.6,0.5,0.8,0.8
			c0.2,0.2,0.5,0.4,0.7,0.6c0.3,0.3,0.6,0.5,0.9,0.8c0.2,0.2,0.5,0.4,0.7,0.6c0.3,0.2,0.6,0.5,0.9,0.7s0.5,0.4,0.8,0.6
			s0.6,0.5,0.9,0.7s0.6,0.4,0.8,0.6c0.3,0.2,0.6,0.5,1,0.7c0.3,0.2,0.6,0.4,0.9,0.6s0.7,0.5,1,0.7s0.6,0.4,0.9,0.6s0.7,0.4,1,0.7
			c0.3,0.2,0.6,0.4,1,0.6s0.7,0.4,1.1,0.6c0.3,0.2,0.7,0.4,1,0.6c0.4,0.2,0.7,0.4,1.1,0.6c0.3,0.2,0.7,0.4,1,0.6
			c0.4,0.2,0.8,0.4,1.1,0.6c0.4,0.2,0.7,0.4,1.1,0.6s0.8,0.4,1.2,0.6c0.4,0.2,0.7,0.4,1.1,0.6s0.8,0.4,1.2,0.6
			c0.4,0.2,0.8,0.4,1.1,0.5c0.4,0.2,0.8,0.4,1.2,0.6c0.2,0.1,0.3,0.1,0.5,0.2s0.5,0.2,0.7,0.3c0.4,0.2,0.9,0.4,1.3,0.6
			s0.8,0.3,1.2,0.5c0.5,0.2,0.9,0.4,1.4,0.6c0.4,0.2,0.8,0.3,1.2,0.5c0.5,0.2,0.9,0.4,1.4,0.6c0.4,0.2,0.8,0.3,1.2,0.5
			c0.5,0.2,1,0.4,1.5,0.6c0.3,0.1,0.5,0.2,0.8,0.3c0.2,0.1,0.4,0.1,0.6,0.2l0.9,0.3c0.5,0.2,1.1,0.4,1.6,0.6
			c0.3,0.1,0.6,0.2,0.9,0.3c0.6,0.2,1.2,0.4,1.8,0.6c0.2,0.1,0.5,0.2,0.7,0.2c0.8,0.3,1.7,0.6,2.6,0.8h0.1c1.2,0.4,2.5,0.8,3.8,1.1
			l1,0.3c1.1,0.3,2.2,0.6,3.3,0.9c0.2,0,0.3,0.1,0.5,0.1h0.2c1.2,0.3,2.4,0.6,3.7,1c0.3,0.1,0.6,0.2,0.9,0.2c1,0.2,1.9,0.5,2.9,0.7
			c0.2,0,0.4,0.1,0.6,0.2s0.4,0.1,0.6,0.1c0.8,0.2,1.7,0.4,2.5,0.6c0.4,0.1,0.8,0.2,1.2,0.3c1.2,0.3,2.5,0.5,3.7,0.8h0.2
			c1.9,0.4,3.9,0.7,5.8,1.1c0.4,0.1,0.8,0.1,1.2,0.2c0.4,0.1,0.7,0.1,1.1,0.2c0.6,0.1,1.3,0.2,1.9,0.3c1.6,0.3,3.2,0.5,4.9,0.8
			c0.4,0.1,0.8,0.1,1.2,0.2c0.6,0.1,1.1,0.1,1.7,0.2c1.5,0.2,3.1,0.4,4.6,0.6c0.6,0.1,1.1,0.2,1.7,0.2c0.4,0.1,0.9,0.1,1.4,0.1
			c1.5,0.2,3.1,0.3,4.6,0.5c0.7,0.1,1.3,0.2,2,0.2c0.3,0,0.6,0.1,1,0.1c1.6,0.2,3.3,0.3,4.9,0.4c0.7,0.1,1.4,0.1,2.1,0.2
			c0.2,0,0.4,0,0.5,0c2,0.1,3.9,0.3,5.9,0.4c0.5,0,1,0.1,1.5,0.1h0.2c2.5,0.1,5,0.2,7.6,0.3h0.2c0.6,0,1.2,0,1.9,0
			c1.8,0,3.7,0.1,5.5,0.1c0.2,0,0.4,0,0.5,0c0.7,0,1.5,0,2.2,0c1.6,0,3.3,0,4.9,0c0.3,0,0.6,0,0.9,0c0.7,0,1.3,0,2-0.1
			c1.7,0,3.4-0.1,5.1-0.1c0.5,0,0.9,0,1.4,0c1.1,0,2.2-0.1,3.2-0.2c0.4,0,0.7,0,1.1,0c1.7-0.1,3.5-0.2,5.2-0.3c0.3,0,0.6,0,0.9-0.1
			c1.1-0.1,2.1-0.2,3.2-0.2c1.3-0.1,2.6-0.2,3.8-0.3c1.1-0.1,2.1-0.2,3.2-0.3c0.9-0.1,1.7-0.2,2.6-0.2c0.5-0.1,1-0.1,1.5-0.2
			s1-0.1,1.6-0.2c2.1-0.2,4.2-0.5,6.3-0.8c1.2-0.2,2.4-0.3,3.5-0.5c0.4-0.1,0.8-0.1,1.2-0.2c0.8-0.1,1.5-0.2,2.3-0.3
			c0.5-0.1,0.9-0.2,1.4-0.2c0.7-0.1,1.4-0.2,2-0.3c0.5-0.1,1-0.2,1.5-0.3c0.6-0.1,1.3-0.2,1.9-0.3c0.5-0.1,1-0.2,1.5-0.3
			c0.6-0.1,1.2-0.2,1.9-0.3c0.5-0.1,1-0.2,1.5-0.3c0.6-0.1,1.2-0.2,1.8-0.4c0.5-0.1,1-0.2,1.5-0.3c0.6-0.1,1.2-0.2,1.7-0.4
			c0.5-0.1,1-0.2,1.5-0.3c0.6-0.1,1.1-0.3,1.7-0.4l0.3-0.1c0.8-0.2,1.7-0.4,2.5-0.6l0.4-0.1c0.8-0.2,1.6-0.4,2.4-0.6l0.9-0.2
			c0.6-0.2,1.3-0.3,1.9-0.5c0.3-0.1,0.6-0.2,0.9-0.2c0.7-0.2,1.5-0.4,2.2-0.6l0.5-0.1c0.9-0.3,1.8-0.5,2.6-0.8
			c0.2-0.1,0.5-0.1,0.7-0.2c0.6-0.2,1.3-0.4,1.9-0.6l0.9-0.3c0.2-0.1,0.5-0.2,0.7-0.2c0.2-0.1,0.5-0.2,0.7-0.2
			c0.6-0.2,1.2-0.4,1.7-0.6c0.4-0.1,0.8-0.3,1.2-0.4c0.6-0.2,1.2-0.4,1.7-0.6c0.4-0.1,0.8-0.3,1.2-0.4c0.6-0.2,1.2-0.4,1.8-0.7
			c0.3-0.1,0.7-0.3,1-0.4c0.7-0.3,1.3-0.5,2-0.8c0.2-0.1,0.4-0.2,0.7-0.3h0.1c0.2-0.1,0.5-0.2,0.7-0.3c0.6-0.2,1.1-0.5,1.7-0.7
			c0.3-0.1,0.6-0.3,0.9-0.4c0.5-0.2,1-0.4,1.4-0.6c0.3-0.1,0.6-0.3,0.9-0.4c0.5-0.2,0.9-0.4,1.3-0.6c0.3-0.1,0.6-0.3,0.9-0.4
			c0.2-0.1,0.4-0.2,0.6-0.3c0.3-0.1,0.5-0.2,0.8-0.4c0.2-0.1,0.4-0.2,0.7-0.3c0.6-0.3,1.2-0.6,1.8-0.9l0.2-0.1
			c0.7-0.3,1.3-0.7,2-1.1c0.2-0.1,0.4-0.2,0.6-0.3c0.3-0.2,0.6-0.3,0.8-0.5c0.1-0.1,0.2-0.1,0.3-0.2c0.8-0.4,1.6-0.9,2.3-1.4
			l0.2-0.1c0.8-0.5,1.6-1,2.4-1.5c0.1-0.1,0.2-0.1,0.3-0.2c0.1-0.1,0.3-0.2,0.4-0.3c0.5-0.4,1-0.7,1.6-1.1c0.2-0.2,0.5-0.3,0.7-0.5
			c0.6-0.4,1.2-0.8,1.7-1.3c0.1-0.1,0.2-0.1,0.3-0.2l0.1-0.1c0.6-0.5,1.2-0.9,1.8-1.4c0.6-0.5,1.1-0.9,1.7-1.4l0.3-0.2l0.2-0.2
			c0.2-0.2,0.4-0.4,0.7-0.6c0.3-0.3,0.6-0.6,0.9-0.8c0.3-0.3,0.5-0.5,0.8-0.8s0.6-0.6,0.8-0.8c0.1-0.1,0.1-0.1,0.2-0.2
			c0.2-0.2,0.4-0.4,0.6-0.6c0.2-0.3,0.5-0.5,0.7-0.8s0.5-0.5,0.7-0.8s0.5-0.5,0.7-0.8c0-0.1,0.1-0.1,0.1-0.2
			c0.2-0.2,0.3-0.4,0.5-0.6c0.2-0.3,0.4-0.5,0.6-0.8s0.4-0.6,0.6-0.8s0.4-0.5,0.6-0.8c0-0.1,0.1-0.1,0.1-0.2
			c0.1-0.2,0.3-0.4,0.4-0.7c0.2-0.3,0.3-0.6,0.5-0.8c0.2-0.3,0.3-0.6,0.5-0.8c0.1-0.3,0.3-0.6,0.4-0.8c0-0.1,0.1-0.1,0.1-0.2
			c0.1-0.2,0.2-0.4,0.3-0.6c0.1-0.3,0.3-0.6,0.4-0.9s0.2-0.5,0.3-0.8c0.1-0.3,0.2-0.6,0.3-0.9c0-0.1,0.1-0.1,0.1-0.2
			c0.1-0.4,0.2-0.8,0.4-1.1c0-0.1,0-0.2,0.1-0.2c0.1-0.5,0.3-1,0.4-1.5c0-0.1,0-0.1,0-0.2c0-0.2,0.1-0.4,0.1-0.6
			c0.1-0.3,0.1-0.7,0.2-1v-0.1c0.1-0.5,0.1-1,0.2-1.5c0-0.1,0-0.1,0-0.2c0-0.4,0-0.7,0.1-1.1c0-0.2,0-0.4,0-0.6l0.1-18.8
			C1560.5,264.2,1560.5,264.8,1560.4,265.3z"/>
		<g id="组_199" transform="translate(199.589 187.074)">
			<g id="组_198" transform="translate(0)">
				
					<linearGradient id="路径_413_1_" gradientUnits="userSpaceOnUse" x1="-592.6603" y1="523.2754" x2="-591.5676" y2="523.2754" gradientTransform="matrix(182.1633 0 0 -67.8675 109073.375 35573.7578)">
					<stop  offset="0" style="stop-color:#02CBFE"/>
					<stop  offset="0.497" style="stop-color:#1D92FF"/>
					<stop  offset="1" style="stop-color:#3068FF"/>
				</linearGradient>
				<path id="路径_413" class="st7" d="M1243.8,95.5c-25.3,3.1-50.9,2.5-76-2c-23.8-4.4-41.6-12-50.1-21.4s-6.7-19.4,5.1-28.3
					s32.2-15.5,57.3-18.6c25.3-3.1,50.9-2.4,76,2c23.8,4.4,41.6,12,50.1,21.4s6.7,19.4-5.1,28.3S1269,92.3,1243.8,95.5z"/>
			</g>
			
				<linearGradient id="路径_414_1_" gradientUnits="userSpaceOnUse" x1="-592.6603" y1="518.1973" x2="-591.5674" y2="518.1973" gradientTransform="matrix(182.1652 0 0 -49.2128 109074.5156 25585.9902)">
				<stop  offset="0" style="stop-color:#06C2FE"/>
				<stop  offset="1" style="stop-color:#1F309E"/>
				<stop  offset="1" style="stop-color:#CACCED"/>
			</linearGradient>
			<path id="路径_414" class="st8" d="M1311.5,58.3L1311.5,58.3c0,0.4-0.1,0.7-0.1,1l0,0c-0.1,0.3-0.1,0.6-0.2,1v0.1
				c-0.1,0.3-0.2,0.6-0.3,0.9v0.1c-0.1,0.3-0.2,0.6-0.3,0.8c-0.1,0.2-0.1,0.4-0.2,0.6c-0.1,0.2-0.1,0.3-0.2,0.5s-0.2,3.3-0.3,3.5
				c-0.1,0.2-0.2,0.3-0.3,0.5s-0.2,0.3-0.3,0.5s-0.2,0.3-0.3,0.5c-0.1,0.2-0.2,0.3-0.3,0.5s-0.2,0.3-0.3,0.5s-0.2,0.3-0.4,0.5
				c-0.1,0.2-0.3,0.3-0.4,0.5s-0.3,0.3-0.4,0.5s-0.3,0.3-0.4,0.5s-0.3,0.3-0.5,0.5s-0.3,0.3-0.5,0.5s-0.3,0.3-0.5,0.5
				s-0.3,0.3-0.5,0.5s-0.4,0.4-0.6,0.5c-0.2,0.2-0.3,0.3-0.5,0.5s-0.4,0.3-0.6,0.5s-0.4,0.3-0.6,0.5l-0.2,0.2
				c-0.4,0.3-0.7,0.6-1.1,0.9s-0.8,0.6-1.2,0.9c-0.1,0.1-0.2,0.1-0.2,0.2c-0.4,0.3-0.8,0.5-1.2,0.8c-0.2,0.1-0.3,0.2-0.5,0.3
				c-0.3,0.2-0.7,0.4-1,0.7c-0.2,0.1-0.3,0.2-0.5,0.3c-0.5,0.3-1.1,0.6-1.6,1l-0.2,0.1c-0.5,0.3-1,0.6-1.5,0.8
				c-0.3,0.1-0.5,0.3-0.8,0.4c-0.1,0.1-0.3,0.1-0.4,0.2c-0.4,0.2-0.9,0.4-1.3,0.7l-0.1,0.1c-0.4,0.2-0.8,0.4-1.2,0.6l-0.4,0.2
				c-0.3,0.1-0.6,0.3-0.9,0.4l-0.6,0.3c-0.3,0.1-0.6,0.3-0.9,0.4c-0.2,0.1-0.4,0.2-0.6,0.3c-0.3,0.1-0.6,0.3-1,0.4
				c-0.2,0.1-0.4,0.2-0.6,0.2c-0.4,0.1-0.8,0.3-1.1,0.4c-0.2,0.1-0.3,0.1-0.5,0.2l-0.5,0.2c-0.4,0.2-0.9,0.3-1.3,0.5
				c-0.2,0.1-0.5,0.2-0.7,0.2c-0.4,0.1-0.8,0.3-1.2,0.4c-0.3,0.1-0.5,0.2-0.8,0.3c-0.4,0.1-0.8,0.3-1.2,0.4l-0.8,0.3
				c-0.4,0.1-0.8,0.2-1.2,0.4c-0.3,0.1-0.6,0.2-1,0.3l-0.6,0.2c-0.4,0.1-0.9,0.3-1.3,0.4l-0.5,0.1c-0.6,0.2-1.2,0.3-1.8,0.5
				l-0.4,0.1c-0.5,0.1-1,0.3-1.5,0.4l-0.6,0.2c-0.4,0.1-0.9,0.2-1.3,0.3l-0.6,0.1c-0.5,0.1-1.1,0.2-1.6,0.4l-0.3,0.1
				c-0.6,0.1-1.2,0.3-1.9,0.4c-0.4,0.1-0.8,0.2-1.1,0.2c-0.3,0.1-0.7,0.1-1,0.2c-0.4,0.1-0.8,0.2-1.2,0.2c-0.3,0.1-0.7,0.1-1,0.2
				c-0.4,0.1-0.8,0.2-1.2,0.2c-0.3,0.1-0.7,0.1-1,0.2c-0.4,0.1-0.8,0.1-1.3,0.2c-0.3,0.1-0.6,0.1-1,0.2s-0.9,0.1-1.3,0.2
				c-0.3,0.1-0.6,0.1-0.9,0.2c-0.5,0.1-1,0.1-1.4,0.2c-0.3,0-0.6,0.1-0.9,0.1c-0.5,0.1-1.1,0.1-1.6,0.2c-0.3,0-0.5,0.1-0.8,0.1
				c-0.8,0.1-1.6,0.2-2.4,0.3c-1.4,0.2-2.8,0.3-4.2,0.5l-1.1,0.1c-0.9,0.1-1.8,0.2-2.8,0.3c-0.7,0.1-1.4,0.1-2.1,0.2
				c-0.9,0.1-1.7,0.1-2.6,0.2c-0.7,0.1-1.4,0.1-2.1,0.1c-1.4,0.1-2.7,0.2-4.1,0.2h-0.7c-1,0-2.1,0.1-3.1,0.1c-1.1,0-2.3,0.1-3.4,0.1
				c-0.6,0-1.3,0-1.9,0c-1.1,0-2.2,0-3.3,0c-0.6,0-1.2,0-1.9,0c-1.2,0-2.5,0-3.7-0.1c-0.5,0-0.9,0-1.4,0c-1.7,0-3.4-0.1-5.1-0.2
				c-0.4,0-0.7,0-1.1-0.1c-1.3-0.1-2.6-0.1-4-0.2c-0.6,0-1.2-0.1-1.8-0.1c-1.1-0.1-2.2-0.2-3.3-0.3c-0.7-0.1-1.3-0.1-2-0.2
				c-1-0.1-2.1-0.2-3.1-0.3c-0.7-0.1-1.4-0.1-2-0.2c-1-0.1-2.1-0.2-3.1-0.4c-0.7-0.1-1.3-0.2-2-0.3c-1.1-0.2-2.2-0.3-3.3-0.5
				c-0.7-0.1-1.4-0.2-2-0.3l-0.8-0.1c-1.4-0.2-2.7-0.5-4.1-0.7c-0.8-0.2-1.7-0.3-2.5-0.5l-0.8-0.2c-0.6-0.1-1.1-0.2-1.7-0.4
				l-0.8-0.2c-0.7-0.1-1.3-0.3-1.9-0.4l-0.6-0.1c-0.8-0.2-1.7-0.4-2.5-0.6c-0.1,0-0.3-0.1-0.4-0.1c-0.7-0.2-1.5-0.4-2.2-0.6
				l-0.7-0.2c-0.9-0.2-1.7-0.5-2.5-0.7c-0.6-0.2-1.2-0.3-1.8-0.5l-0.5-0.2c-0.4-0.1-0.8-0.3-1.2-0.4l-0.6-0.2
				c-0.4-0.1-0.7-0.2-1.1-0.4l-0.6-0.2c-0.3-0.1-0.6-0.2-0.9-0.3c-0.3-0.1-0.7-0.2-1-0.3c-0.3-0.1-0.6-0.2-0.8-0.3
				c-0.3-0.1-0.6-0.2-1-0.4c-0.3-0.1-0.5-0.2-0.8-0.3c-0.3-0.1-0.6-0.2-0.9-0.4c-0.3-0.1-0.5-0.2-0.8-0.3c-0.3-0.1-0.6-0.2-0.9-0.4
				c-0.3-0.1-0.5-0.2-0.8-0.3c-0.3-0.1-0.6-0.2-0.8-0.4c-0.3-0.1-0.5-0.2-0.8-0.3c-0.3-0.1-0.5-0.2-0.8-0.4
				c-0.2-0.1-0.5-0.2-0.7-0.3c-0.3-0.1-0.5-0.3-0.8-0.4c-0.2-0.1-0.5-0.2-0.7-0.3c-0.3-0.1-0.5-0.3-0.8-0.4
				c-0.2-0.1-0.5-0.2-0.7-0.4c-0.3-0.1-0.5-0.3-0.7-0.4s-0.4-0.2-0.7-0.4c-0.2-0.1-0.5-0.3-0.7-0.4s-0.4-0.2-0.6-0.4
				c-0.2-0.1-0.5-0.3-0.7-0.4s-0.4-0.2-0.6-0.4c-0.2-0.1-0.4-0.3-0.7-0.4c-0.2-0.1-0.4-0.2-0.6-0.4c-0.2-0.1-0.4-0.3-0.6-0.4
				s-0.4-0.3-0.6-0.4s-0.4-0.3-0.6-0.4s-0.4-0.3-0.5-0.4c-0.2-0.2-0.4-0.3-0.6-0.5c-0.2-0.1-0.3-0.3-0.5-0.4
				c-0.2-0.2-0.4-0.3-0.6-0.5c-0.2-0.1-0.3-0.3-0.5-0.4c-0.2-0.2-0.4-0.3-0.6-0.5c-0.1-0.1-0.3-0.2-0.4-0.4
				c-0.2-0.2-0.4-0.3-0.6-0.5c-0.1-0.1-0.3-0.2-0.4-0.4c-0.2-0.2-0.4-0.4-0.6-0.6c-0.1-0.1-0.2-0.2-0.3-0.3
				c-0.3-0.3-0.6-0.6-0.8-0.9c-1-1.1-2-2.4-2.8-3.7c-0.6-1-1.1-2-1.5-3c-0.1-0.2-0.2-0.5-0.3-0.8c-0.3-1-0.5-2-0.7-3
				c0-0.3,0-0.5-0.1-0.8c0-0.3,0-0.5,0-0.8l0,0l-0.1,16.8c0,4,1.7,5.1,5.3,9c0.3,0.3,0.5,0.6,0.8,0.9c0.1,0.1,0.2,0.2,0.3,0.3
				c0.2,0.2,0.4,0.4,0.6,0.6c0.1,0.1,0.3,0.2,0.4,0.4c0.2,0.2,0.4,0.3,0.6,0.5c0.1,0.1,0.3,0.2,0.4,0.4c0.2,0.2,0.4,0.3,0.6,0.5
				c0.2,0.1,0.3,0.3,0.5,0.4c0.2,0.2,0.4,0.3,0.6,0.5c0.2,0.1,0.3,0.3,0.5,0.4c0.2,0.2,0.4,0.3,0.6,0.5c0.2,0.1,0.4,0.3,0.5,0.4
				c0.2,0.1,0.4,0.3,0.6,0.4s0.4,0.3,0.6,0.4s0.4,0.3,0.6,0.4s0.4,0.3,0.6,0.4s0.4,0.3,0.7,0.4c0.2,0.1,0.4,0.2,0.6,0.4
				c0.2,0.1,0.5,0.3,0.7,0.4s0.4,0.2,0.6,0.4c0.2,0.1,0.5,0.3,0.7,0.4s0.4,0.2,0.7,0.4c0.2,0.1,0.5,0.3,0.7,0.4s0.5,0.2,0.7,0.4
				c0.3,0.1,0.5,0.3,0.8,0.4c0.2,0.1,0.5,0.2,0.7,0.3c0.3,0.1,0.5,0.3,0.8,0.4c0.2,0.1,0.5,0.2,0.7,0.3c0.3,0.1,0.5,0.2,0.8,0.4
				c0.3,0.1,0.5,0.2,0.8,0.3c0.3,0.1,0.6,0.2,0.8,0.4l0.3,0.1c0.1,0.1,0.3,0.1,0.5,0.2c0.3,0.1,0.6,0.2,0.9,0.4
				c0.3,0.1,0.5,0.2,0.8,0.3c0.3,0.1,0.6,0.2,0.9,0.4c0.3,0.1,0.5,0.2,0.8,0.3c0.3,0.1,0.6,0.2,1,0.4c0.3,0.1,0.6,0.2,0.8,0.3
				c0.3,0.1,0.7,0.2,1,0.3c0.2,0.1,0.3,0.1,0.5,0.2l0.4,0.1l0.6,0.2c0.4,0.1,0.7,0.2,1.1,0.4l0.6,0.2c0.4,0.1,0.8,0.3,1.2,0.4
				l0.5,0.2c0.6,0.2,1.1,0.3,1.7,0.5l0,0c0.8,0.2,1.7,0.5,2.5,0.7l0.7,0.2c0.7,0.2,1.5,0.4,2.2,0.6l0.3,0.1h0.1
				c0.8,0.2,1.6,0.4,2.5,0.6l0.6,0.1c0.6,0.1,1.3,0.3,1.9,0.4c0.1,0,0.3,0.1,0.4,0.1l0.4,0.1c0.6,0.1,1.1,0.2,1.7,0.4l0.8,0.2
				c0.8,0.2,1.7,0.3,2.5,0.5h0.1c1.3,0.2,2.6,0.5,3.9,0.7l0.8,0.1c0.2,0,0.5,0.1,0.7,0.1c0.4,0.1,0.9,0.1,1.3,0.2
				c1.1,0.2,2.2,0.3,3.3,0.5c0.3,0,0.5,0.1,0.8,0.1c0.4,0.1,0.8,0.1,1.2,0.1c1,0.1,2.1,0.3,3.1,0.4c0.4,0,0.7,0.1,1.1,0.1
				c0.3,0,0.6,0.1,0.9,0.1c1,0.1,2.1,0.2,3.1,0.3c0.4,0,0.9,0.1,1.3,0.1c0.2,0,0.4,0,0.6,0.1c1.1,0.1,2.2,0.2,3.3,0.3
				c0.5,0,1,0.1,1.4,0.1c0.1,0,0.2,0,0.4,0c1.3,0.1,2.6,0.2,4,0.2c0.3,0,0.7,0,1,0.1h0.1c1.7,0.1,3.4,0.1,5.1,0.2h0.1
				c0.4,0,0.8,0,1.3,0c1.2,0,2.5,0,3.7,0.1c0.1,0,0.2,0,0.4,0c0.5,0,1,0,1.5,0c1.1,0,2.2,0,3.3,0c0.2,0,0.4,0,0.6,0
				c0.4,0,0.9,0,1.3,0c1.1,0,2.3-0.1,3.4-0.1c0.3,0,0.6,0,0.9,0c0.7,0,1.5-0.1,2.2-0.1h0.7c1.2-0.1,2.3-0.1,3.5-0.2
				c0.2,0,0.4,0,0.6,0c0.7,0,1.4-0.1,2.1-0.1c0.9-0.1,1.7-0.1,2.6-0.2c0.7-0.1,1.4-0.1,2.1-0.2c0.6-0.1,1.2-0.1,1.7-0.2
				c0.3,0,0.7-0.1,1-0.1l1.1-0.1c1.4-0.2,2.8-0.3,4.2-0.5c0.8-0.1,1.6-0.2,2.4-0.3c0.3,0,0.5-0.1,0.8-0.1c0.5-0.1,1-0.1,1.5-0.2
				c0.3,0,0.6-0.1,0.9-0.1c0.5-0.1,0.9-0.1,1.4-0.2c0.3-0.1,0.7-0.1,1-0.2c0.4-0.1,0.9-0.1,1.3-0.2c0.3-0.1,0.7-0.1,1-0.2
				c0.4-0.1,0.8-0.1,1.2-0.2c0.3-0.1,0.7-0.1,1-0.2c0.4-0.1,0.8-0.1,1.2-0.2c0.3-0.1,0.7-0.1,1-0.2c0.4-0.1,0.8-0.2,1.2-0.2
				c0.3-0.1,0.7-0.1,1-0.2c0.4-0.1,0.8-0.2,1.1-0.2h0.2c0.6-0.1,1.1-0.2,1.7-0.4l0.3-0.1c0.5-0.1,1.1-0.2,1.6-0.4l0.6-0.1
				c0.4-0.1,0.9-0.2,1.3-0.3l0.6-0.2c0.5-0.1,1-0.2,1.5-0.4l0.4-0.1c0.6-0.2,1.2-0.3,1.8-0.5l0.5-0.1c0.4-0.1,0.9-0.2,1.3-0.4
				l0.6-0.2l0.5-0.1l0.5-0.1c0.4-0.1,0.8-0.2,1.2-0.4l0.8-0.3c0.4-0.1,0.8-0.3,1.2-0.4c0.3-0.1,0.5-0.2,0.8-0.3
				c0.4-0.1,0.8-0.3,1.2-0.4c0.2-0.1,0.5-0.2,0.7-0.2c0.4-0.2,0.9-0.3,1.3-0.5c0.1-0.1,0.3-0.1,0.4-0.2h0.1c0.2-0.1,0.3-0.1,0.5-0.2
				c0.4-0.1,0.7-0.3,1.1-0.4c0.2-0.1,0.4-0.2,0.6-0.2c0.3-0.1,0.6-0.3,1-0.4c0.2-0.1,0.4-0.2,0.6-0.3c0.3-0.1,0.6-0.3,0.9-0.4
				l0.6-0.3c0.1-0.1,0.3-0.1,0.4-0.2c0.2-0.1,0.3-0.2,0.5-0.2l0.4-0.2c0.4-0.2,0.8-0.4,1.2-0.6l0.1-0.1c0.4-0.2,0.9-0.4,1.3-0.7
				l0.4-0.2c0.2-0.1,0.4-0.2,0.6-0.3c0.1,0,0.1-0.1,0.2-0.1c0.5-0.3,1-0.6,1.6-0.8l0.2-0.1c0.6-0.3,1.1-0.6,1.6-1
				c0.1,0,0.1-0.1,0.2-0.1c0.1-0.1,0.2-0.1,0.3-0.2c0.4-0.2,0.7-0.4,1-0.7c0.2-0.1,0.3-0.2,0.5-0.3c0.4-0.3,0.8-0.5,1.2-0.8
				c0.1,0,0.1-0.1,0.2-0.1l0,0c0.4-0.3,0.8-0.6,1.2-0.9c0.4-0.3,0.8-0.6,1.1-0.9l0.2-0.2l0.1-0.1c0.2-0.1,0.3-0.3,0.5-0.4
				c0.2-0.2,0.4-0.3,0.6-0.5s0.4-0.3,0.5-0.5c0.2-0.2,0.4-0.4,0.6-0.5l0.1-0.1c0.1-0.1,0.3-0.3,0.4-0.4c0.2-0.2,0.3-0.3,0.5-0.5
				s0.3-0.3,0.5-0.5s0.3-0.3,0.5-0.5l0.1-0.1c0.1-0.1,0.2-0.3,0.3-0.4c0.1-0.2,0.3-0.3,0.4-0.5s0.3-0.3,0.4-0.5s0.3-0.3,0.4-0.5
				l0.1-0.1c0.1-0.1,0.2-0.3,0.3-0.4c0.1-0.2,0.2-0.3,0.3-0.5c0.1-0.2,0.2-0.3,0.3-0.5c0.1-0.2,0.2-0.3,0.3-0.5c0,0,0-0.1,0.1-0.1
				c0.1-0.1,0.1-0.3,0.2-0.4c0.1-0.2,0.2-0.4,0.3-0.6c0.1-0.2,0.1-0.3,0.2-0.5s0.2-0.4,0.2-0.6c0,0,0-0.1,0.1-0.1
				c0.1-0.2,0.2-0.5,0.2-0.7V78c0.1-0.3,0.2-0.6,0.3-0.9V77c0-0.1,0.1-0.2,0.1-0.3c0-0.2,0.1-0.4,0.1-0.6l0,0c0-0.3,0.1-0.6,0.1-0.9
				v-0.1c0-0.2,0-0.5,0-0.7c0-0.1,0-0.2,0-0.3l0.1-16.8C1311.5,57.6,1311.5,58,1311.5,58.3z"/>
			<g id="组_9880" transform="translate(31.815 9.944)">
				
					<radialGradient id="路径_413-2_1_" cx="-683.9326" cy="505.502" r="0.5468" gradientTransform="matrix(114.5958 0 0 -42.6993 79553.7891 21632.0313)" gradientUnits="userSpaceOnUse">
					<stop  offset="0" style="stop-color:#6AE1FF"/>
					<stop  offset="0.711" style="stop-color:#4DA9FF;stop-opacity:0.8"/>
					<stop  offset="1" style="stop-color:#7DA0FF;stop-opacity:0"/>
				</radialGradient>
				<path id="路径_413-2" class="st9" d="M1198,69.6c-15.9,2-32,1.5-47.8-1.3c-15-2.8-26.2-7.6-31.5-13.5
					c-5.4-5.9-4.2-12.2,3.2-17.8s20.2-9.7,36.1-11.7s32-1.5,47.8,1.3c15,2.8,26.2,7.6,31.5,13.5s4.2,12.2-3.2,17.8
					S1213.9,67.6,1198,69.6z"/>
			</g>
		</g>
		<g id="组_9841" transform="translate(175.843 160.219)" class="st10">
			<g id="组_9832" transform="translate(0 0)">
				<g id="组_9831">
					
						<linearGradient id="路径_14493_1_" gradientUnits="userSpaceOnUse" x1="-445.2138" y1="521.3268" x2="-444.1208" y2="521.3268" gradientTransform="matrix(13.502 0 0 -21.339 7135.6763 11165.1426)">
						<stop  offset="0" style="stop-color:#39FFFF"/>
						<stop  offset="1" style="stop-color:#2A79FF"/>
					</linearGradient>
					<path id="路径_14493" class="st11" d="M1124.7,37.1l-0.3,15.1l14.5-8.2l0.3-15.1L1124.7,37.1z"/>
					
						<linearGradient id="路径_14494_1_" gradientUnits="userSpaceOnUse" x1="-445.2138" y1="521.3268" x2="-444.1208" y2="521.3268" gradientTransform="matrix(13.502 0 0 -21.339 7135.6763 11165.1426)">
						<stop  offset="0" style="stop-color:#39FFFF"/>
						<stop  offset="1" style="stop-color:#2A79FF"/>
					</linearGradient>
					<path id="路径_14494" class="st12" d="M1124.7,37.1l-0.3,15.1l14.5-8.2l0.3-15.1L1124.7,37.1z"/>
					
						<linearGradient id="路径_14495_1_" gradientUnits="userSpaceOnUse" x1="-485.1982" y1="503.6008" x2="-484.1052" y2="503.6008" gradientTransform="matrix(26.228 0 0 -15 13836.2783 7582.9126)">
						<stop  offset="0" style="stop-color:#39FFFF"/>
						<stop  offset="1" style="stop-color:#2A79FF"/>
					</linearGradient>
					<path id="路径_14495" class="st13" d="M1124.7,37.1l-14.2-8.1l14.5-8.3l14.2,8.2L1124.7,37.1z"/>
					
						<linearGradient id="路径_14496_1_" gradientUnits="userSpaceOnUse" x1="-443.6002" y1="521.0645" x2="-442.5072" y2="521.0645" gradientTransform="matrix(13.228 0 0 -21.2059 6978.1616 11090.2412)">
						<stop  offset="0" style="stop-color:#39FFFF"/>
						<stop  offset="1" style="stop-color:#2A79FF"/>
					</linearGradient>
					<path id="路径_14496" class="st14" d="M1124.7,37.1l-0.3,15.1l-14.2-8.1l0.3-15.1L1124.7,37.1z"/>
				</g>
			</g>
		</g>
		<g id="组_9878" transform="translate(208.596 101.009)">
			<g id="组_9875" transform="translate(104.452 10.717) rotate(-49)">
				
					<linearGradient id="路径_14171_1_" gradientUnits="userSpaceOnUse" x1="-1498.8628" y1="-404.1479" x2="-1446.1152" y2="-397.7583" gradientTransform="matrix(2.0771 5.6656 2.3894 -4.925 4756.8994 7377.6123)">
					<stop  offset="0" style="stop-color:#29E6FB;stop-opacity:0.8"/>
					<stop  offset="0.264" style="stop-color:#2FB1FC;stop-opacity:0.8"/>
					<stop  offset="0.598" style="stop-color:#3676FD;stop-opacity:0.8"/>
					<stop  offset="0.854" style="stop-color:#3A52FE;stop-opacity:0.8"/>
					<stop  offset="1" style="stop-color:#3C45FF;stop-opacity:0.8"/>
				</linearGradient>
				<path id="路径_14171" class="st15" d="M727.8,858.1l0.1,6.3l-3.3,1.9l-0.1-6.3L727.8,858.1z"/>
			</g>
			<g id="组_9876" transform="translate(23.39 88.649) rotate(-49)">
				<g id="组_9629" transform="translate(1.737 11.083)" class="st16">
					
						<linearGradient id="路径_14172_1_" gradientUnits="userSpaceOnUse" x1="-1337.3975" y1="-214.7191" x2="-1336.3065" y2="-214.1223" gradientTransform="matrix(75.9258 46.2574 87.3427 -40.2108 121054.7891 54132.1367)">
						<stop  offset="0" style="stop-color:#1B00FF"/>
						<stop  offset="0.528" style="stop-color:#4C65FF"/>
						<stop  offset="1" style="stop-color:#383CFF"/>
					</linearGradient>
					<path id="路径_14172" class="st17" d="M777.9,894.2c9.3,8.1,8.2,18.9-3.6,25.6c-13.4,7.7-35.5,7.2-49.4-1.1
						c-13.9-8.2-14.2-21.1-0.8-28.8c12.4-7.1,32.1-7.2,46-0.7l54.4-31l8,4.8l-3.3,1.9l11.6,6.9l-9.6,5.5l-11.6-6.9l-4.5,2.5l7.1,4.2
						l-7.8,4.4l-7.1-4.2L777.9,894.2z M732.4,914.4c9.5,5.7,24.8,6,34,0.7s9-14.1-0.5-19.8s-24.8-6-34-0.7S722.9,908.7,732.4,914.4"
						/>
				</g>
				
					<linearGradient id="路径_14173_1_" gradientUnits="userSpaceOnUse" x1="-1320.3859" y1="-201.8228" x2="-1320.2733" y2="-201.3003" gradientTransform="matrix(73.3953 37.9695 84.4317 -33.0062 114722.1875 44388.6719)">
					<stop  offset="0" style="stop-color:#D43E5E"/>
					<stop  offset="5.400000e-02" style="stop-color:#D64564;stop-opacity:0.933"/>
					<stop  offset="0.157" style="stop-color:#DE5875;stop-opacity:0.757"/>
					<stop  offset="0.297" style="stop-color:#EA7791;stop-opacity:0.471"/>
					<stop  offset="0.469" style="stop-color:#FBA1B7;stop-opacity:7.800000e-02"/>
					<stop  offset="0.501" style="stop-color:#FFAABF;stop-opacity:0"/>
				</linearGradient>
				<path id="路径_14173" class="st18" d="M748.3,929.9l88.9-13l-4.1-42l-116.8,18.9l-1.4,14.9L748.3,929.9z"/>
				<g id="组_9630" transform="translate(92.281 11.121)">
					
						<linearGradient id="路径_14174_1_" gradientUnits="userSpaceOnUse" x1="-1458.0464" y1="-381.3913" x2="-1418.5447" y2="-375.4772" gradientTransform="matrix(2.7554 6.1094 3.1698 -5.3108 5909.8374 7756.8604)">
						<stop  offset="0" style="stop-color:#29E6FB;stop-opacity:0.8"/>
						<stop  offset="0.264" style="stop-color:#2FB1FC;stop-opacity:0.8"/>
						<stop  offset="0.598" style="stop-color:#3676FD;stop-opacity:0.8"/>
						<stop  offset="0.854" style="stop-color:#3A52FE;stop-opacity:0.8"/>
						<stop  offset="1" style="stop-color:#3C45FF;stop-opacity:0.8"/>
					</linearGradient>
					<path id="路径_14174" class="st19" d="M727.1,858.2l0.1,6.3l-4.5,2.5l-0.1-6.3L727.1,858.2z"/>
				</g>
				<g id="组_9631" transform="translate(106.954 12.421)">
					
						<linearGradient id="路径_14175_1_" gradientUnits="userSpaceOnUse" x1="-1533.2714" y1="-367.6406" x2="-1514.8228" y2="-363.2238" gradientTransform="matrix(5.8251 8.1237 6.7011 -7.0618 12075.8438 10737.8965)">
						<stop  offset="0" style="stop-color:#29E6FB;stop-opacity:0.8"/>
						<stop  offset="0.195" style="stop-color:#1FE6FB;stop-opacity:0.604"/>
						<stop  offset="0.477" style="stop-color:#12E7FD;stop-opacity:0.349"/>
						<stop  offset="0.715" style="stop-color:#08E8FE;stop-opacity:0.161"/>
						<stop  offset="0.896" style="stop-color:#03E8FE;stop-opacity:4.300000e-02"/>
						<stop  offset="1" style="stop-color:#01E9FF;stop-opacity:0"/>
					</linearGradient>
					<path id="路径_14175" class="st20" d="M733.6,858.4l0.1,6.3l-9.6,5.5l-0.1-6.3L733.6,858.4z"/>
				</g>
				<g id="组_9632" transform="translate(96.369 11.121)">
					
						<linearGradient id="路径_14176_1_" gradientUnits="userSpaceOnUse" x1="-1513.1158" y1="-344.5148" x2="-1514.55" y2="-342.9901" gradientTransform="matrix(7.0159 9.1048 8.0709 -7.9147 14126.5234 11916.2666)">
						<stop  offset="0" style="stop-color:#29E6FB;stop-opacity:0.8"/>
						<stop  offset="0.264" style="stop-color:#2FB1FC;stop-opacity:0.8"/>
						<stop  offset="0.598" style="stop-color:#3676FD;stop-opacity:0.8"/>
						<stop  offset="0.854" style="stop-color:#3A52FE;stop-opacity:0.8"/>
						<stop  offset="1" style="stop-color:#3C45FF;stop-opacity:0.8"/>
					</linearGradient>
					<path id="路径_14176" class="st21" d="M734.6,865.1l0.1,6.3l-11.6-6.9l-0.1-6.3L734.6,865.1z"/>
				</g>
				<g id="组_9633" transform="translate(85.154 17.514)">
					
						<linearGradient id="路径_14177_1_" gradientUnits="userSpaceOnUse" x1="-1462.699" y1="-361.8115" x2="-1465.0413" y2="-359.9064" gradientTransform="matrix(4.3195 7.2588 4.969 -6.31 8844.2021 9201.6797)">
						<stop  offset="0" style="stop-color:#29E6FB;stop-opacity:0.8"/>
						<stop  offset="0.264" style="stop-color:#2FB1FC;stop-opacity:0.8"/>
						<stop  offset="0.598" style="stop-color:#3676FD;stop-opacity:0.8"/>
						<stop  offset="0.854" style="stop-color:#3A52FE;stop-opacity:0.8"/>
						<stop  offset="1" style="stop-color:#3C45FF;stop-opacity:0.8"/>
					</linearGradient>
					<path id="路径_14177" class="st22" d="M729.1,863.1l0.1,6.3l-7.1-4.2l-0.1-6.3L729.1,863.1z"/>
				</g>
				<g id="组_9634" transform="translate(91.629 17.305)">
					
						<linearGradient id="路径_14178_1_" gradientUnits="userSpaceOnUse" x1="-1485.9253" y1="-369.9904" x2="-1463.2339" y2="-365.143" gradientTransform="matrix(4.7472 7.4173 5.4611 -6.4477 9760.5713 9511.8984)">
						<stop  offset="0" style="stop-color:#29E6FB;stop-opacity:0.8"/>
						<stop  offset="0.195" style="stop-color:#1FE6FB;stop-opacity:0.604"/>
						<stop  offset="0.477" style="stop-color:#12E7FD;stop-opacity:0.349"/>
						<stop  offset="0.715" style="stop-color:#08E8FE;stop-opacity:0.161"/>
						<stop  offset="0.896" style="stop-color:#03E8FE;stop-opacity:4.300000e-02"/>
						<stop  offset="1" style="stop-color:#01E9FF;stop-opacity:0"/>
					</linearGradient>
					<path id="路径_14178" class="st23" d="M730.4,858.8l0.1,6.3l-7.8,4.4l-0.1-6.3L730.4,858.8z"/>
				</g>
				<g id="组_9635" transform="translate(58.214 17.514)">
					
						<linearGradient id="路径_14179_1_" gradientUnits="userSpaceOnUse" x1="-1457.9855" y1="-294.7307" x2="-1451.973" y2="-292.502" gradientTransform="matrix(17.7457 15.9417 20.4141 -13.8579 32594.6953 20037.2617)">
						<stop  offset="0" style="stop-color:#29E6FB;stop-opacity:0.8"/>
						<stop  offset="0.264" style="stop-color:#2FB1FC;stop-opacity:0.8"/>
						<stop  offset="0.598" style="stop-color:#3676FD;stop-opacity:0.8"/>
						<stop  offset="0.854" style="stop-color:#3A52FE;stop-opacity:0.8"/>
						<stop  offset="1" style="stop-color:#3C45FF;stop-opacity:0.8"/>
					</linearGradient>
					<path id="路径_14179" class="st24" d="M748.9,858.8l0.1,6.3l-29.4,16.8l-0.1-6.3L748.9,858.8z"/>
				</g>
				<g id="组_9636" transform="translate(0.002 29.83)">
					
						<linearGradient id="路径_14180_1_" gradientUnits="userSpaceOnUse" x1="-1307.6962" y1="-271.9078" x2="-1306.6031" y2="-271.9078" gradientTransform="matrix(28.9401 14.4346 33.2918 -12.5478 47631.9609 16334.5303)">
						<stop  offset="0" style="stop-color:#29E6FB;stop-opacity:0.8"/>
						<stop  offset="0.264" style="stop-color:#2FB1FC;stop-opacity:0.8"/>
						<stop  offset="0.598" style="stop-color:#3676FD;stop-opacity:0.8"/>
						<stop  offset="0.854" style="stop-color:#3A52FE;stop-opacity:0.8"/>
						<stop  offset="1" style="stop-color:#3C45FF;stop-opacity:0.8"/>
					</linearGradient>
					<path id="路径_14180" class="st25" d="M725.1,878.9c0-0.1,0-0.2,0-0.3s0-0.2,0-0.4c0-0.1,0-0.2,0.1-0.3c0-0.1,0-0.2,0.1-0.4
						c0-0.1,0.1-0.2,0.1-0.3s0.1-0.2,0.1-0.3s0.1-0.2,0.1-0.3s0.1-0.2,0.1-0.4c0-0.1,0.1-0.2,0.1-0.3c0.1-0.1,0.1-0.2,0.2-0.4
						c0.1-0.1,0.1-0.3,0.2-0.4l0.1-0.1c0.1-0.2,0.2-0.4,0.3-0.5l0.1-0.1c0.1-0.2,0.3-0.4,0.4-0.5l0.1-0.1c0.1-0.2,0.2-0.3,0.4-0.5
						l0.1-0.1c0.2-0.2,0.3-0.3,0.5-0.5l0.1-0.1c0.1-0.1,0.3-0.3,0.4-0.4c0.1-0.1,0.2-0.2,0.3-0.3s0.2-0.2,0.3-0.3s0.2-0.2,0.4-0.3
						c0.1-0.1,0.2-0.2,0.4-0.3c0.1-0.1,0.3-0.2,0.4-0.3c0.1-0.1,0.2-0.2,0.4-0.3s0.3-0.2,0.4-0.3c0.2-0.1,0.4-0.2,0.5-0.3
						c0.3-0.1,0.5-0.3,0.8-0.4l0.2-0.1c0.2-0.1,0.5-0.2,0.7-0.4h0.1c0.3-0.1,0.6-0.2,0.8-0.4l0.2-0.1c0.2-0.1,0.5-0.2,0.7-0.3
						l0.2-0.1c0.3-0.1,0.6-0.2,0.9-0.3l0.2-0.1c0.2-0.1,0.4-0.1,0.6-0.2c0.2-0.1,0.4-0.1,0.6-0.2c0.2,0,0.3-0.1,0.5-0.1
						c0.2-0.1,0.4-0.1,0.6-0.1c0.2,0,0.3-0.1,0.5-0.1s0.4-0.1,0.6-0.1c0.2,0,0.3-0.1,0.5-0.1s0.4-0.1,0.6-0.1c0.2,0,0.3-0.1,0.5-0.1
						c0.4-0.1,0.9-0.1,1.4-0.2h0.2c0.4,0,0.8-0.1,1.2-0.1h0.5c0.3,0,0.5,0,0.8,0c0.2,0,0.3,0,0.5,0c0.3,0,0.5,0,0.8,0
						c0.2,0,0.3,0,0.5,0s0.5,0,0.7,0s0.3,0,0.5,0c0.3,0,0.5,0,0.7,0c0.1,0,0.3,0,0.4,0c0.2,0,0.5,0,0.7,0s0.3,0,0.5,0s0.5,0,0.7,0.1
						c0.1,0,0.3,0,0.4,0c0.3,0,0.6,0.1,0.9,0.1c0.1,0,0.2,0,0.3,0c0.4,0.1,0.8,0.1,1.2,0.2h0.2c0.3,0.1,0.7,0.1,1,0.2
						c0.1,0,0.3,0.1,0.4,0.1c0.2,0.1,0.5,0.1,0.7,0.2c0.1,0,0.3,0.1,0.4,0.1c0.3,0.1,0.5,0.1,0.8,0.2c0.1,0,0.3,0.1,0.4,0.1
						c0.2,0.1,0.5,0.1,0.7,0.2c0.2,0.1,0.4,0.1,0.6,0.2l0.2,0.1c0.3,0.1,0.6,0.2,0.9,0.3l0.2,0.1c0.3,0.1,0.5,0.2,0.8,0.3l0.3,0.1
						c0.2,0.1,0.4,0.2,0.6,0.2c0.1,0.1,0.3,0.1,0.4,0.2c0.2,0.1,0.4,0.2,0.6,0.3c0.1,0.1,0.2,0.1,0.4,0.2c0.2,0.1,0.4,0.2,0.6,0.3
						c0.1,0.1,0.2,0.1,0.3,0.2c0.3,0.2,0.6,0.3,0.9,0.5c4.8,2.9,7.2,6.5,7.3,10.1l-0.1-6.3c-0.1-3.6-2.5-7.3-7.3-10.1
						c-0.3-0.2-0.6-0.3-0.9-0.5c-0.1-0.1-0.2-0.1-0.3-0.2c-0.2-0.1-0.4-0.2-0.6-0.3c-0.1-0.1-0.2-0.1-0.4-0.2
						c-0.2-0.1-0.4-0.2-0.6-0.3c-0.1-0.1-0.3-0.1-0.4-0.2c-0.1-0.1-0.3-0.1-0.4-0.2l-0.2-0.1l-0.3-0.1c-0.2-0.1-0.5-0.2-0.8-0.3
						l-0.2-0.1c-0.3-0.1-0.6-0.2-0.9-0.3l-0.2-0.1c-0.1,0-0.3-0.1-0.4-0.1c-0.1,0-0.1,0-0.2-0.1c-0.2-0.1-0.5-0.1-0.7-0.2
						c-0.1,0-0.3-0.1-0.4-0.1c-0.3-0.1-0.5-0.1-0.8-0.2c-0.1,0-0.2-0.1-0.3-0.1h-0.1c-0.2-0.1-0.5-0.1-0.7-0.2
						c-0.1,0-0.3-0.1-0.4-0.1c-0.3-0.1-0.7-0.1-1-0.2h-0.2l0,0c-0.4-0.1-0.8-0.1-1.2-0.2c-0.1,0-0.2,0-0.3,0c-0.3,0-0.6-0.1-0.9-0.1
						l0,0c-0.1,0-0.3,0-0.4,0c-0.2,0-0.5,0-0.7-0.1c-0.2,0-0.3,0-0.5,0s-0.5,0-0.7,0h-0.1c-0.1,0-0.3,0-0.4,0c-0.3,0-0.5,0-0.8,0
						c-0.2,0-0.3,0-0.5,0s-0.5,0-0.7,0h-0.1c-0.1,0-0.2,0-0.3,0c-0.3,0-0.5,0-0.8,0c-0.2,0-0.3,0-0.5,0c-0.3,0-0.5,0-0.8,0
						c-0.1,0-0.2,0-0.3,0s-0.1,0-0.2,0c-0.4,0-0.8,0.1-1.2,0.1h-0.2c-0.5,0.1-0.9,0.1-1.4,0.2h-0.1c-0.1,0-0.2,0-0.4,0.1
						c-0.2,0-0.4,0.1-0.6,0.1c-0.2,0-0.3,0.1-0.5,0.1s-0.4,0.1-0.6,0.1c-0.2,0-0.3,0.1-0.5,0.1s-0.4,0.1-0.6,0.1
						c-0.2,0-0.3,0.1-0.5,0.1c-0.2,0.1-0.4,0.1-0.6,0.2c-0.1,0-0.2,0-0.3,0.1c-0.1,0-0.2,0.1-0.4,0.1l-0.2,0.1
						c-0.3,0.1-0.6,0.2-0.9,0.3l-0.2,0.1c-0.2,0.1-0.5,0.2-0.7,0.3l-0.2,0.1c-0.3,0.1-0.6,0.2-0.8,0.4h-0.1
						c-0.2,0.1-0.5,0.2-0.7,0.4l-0.2,0.1c-0.3,0.1-0.5,0.3-0.8,0.4l-0.3,0.2c-0.1,0.1-0.2,0.1-0.3,0.2c-0.1,0.1-0.3,0.2-0.4,0.3
						s-0.3,0.2-0.4,0.3c-0.1,0.1-0.3,0.2-0.4,0.3s-0.2,0.2-0.4,0.3c-0.1,0.1-0.2,0.2-0.4,0.3c-0.1,0.1-0.2,0.2-0.3,0.3
						s-0.2,0.2-0.3,0.3l-0.1,0.1c-0.1,0.1-0.2,0.2-0.3,0.3l-0.1,0.1c-0.2,0.2-0.3,0.3-0.5,0.5l-0.1,0.1c-0.1,0.2-0.3,0.3-0.4,0.5
						l-0.1,0.1l0,0c-0.1,0.2-0.2,0.3-0.4,0.5l-0.1,0.1c-0.1,0.2-0.2,0.4-0.3,0.5c0,0,0,0.1-0.1,0.1c0,0.1-0.1,0.1-0.1,0.2
						s-0.1,0.1-0.1,0.2c-0.1,0.1-0.1,0.2-0.2,0.4c0,0.1-0.1,0.2-0.1,0.3c-0.1,0.1-0.1,0.2-0.1,0.4c0,0.1,0,0.1-0.1,0.2
						c0,0.1,0,0.1,0,0.1c0,0.1-0.1,0.2-0.1,0.3s-0.1,0.2-0.1,0.3s-0.1,0.2-0.1,0.4c0,0.1,0,0.1,0,0.2v0.1c0,0.1,0,0.2,0,0.4
						s0,0.2,0,0.3s0,0.2,0,0.4c0,0.1,0,0.1,0,0.2c0,0.1,0,0.1,0,0.2l0.1,6.3c0-0.1,0-0.3,0-0.4C725.1,879.2,725.1,879,725.1,878.9z"
						/>
					
						<linearGradient id="路径_14181_1_" gradientUnits="userSpaceOnUse" x1="-1321.3966" y1="-260.2825" x2="-1320.3035" y2="-260.2825" gradientTransform="matrix(41.9886 18.9976 48.3024 -16.5143 68795.75 21691.8496)">
						<stop  offset="0" style="stop-color:#29E6FB;stop-opacity:0.8"/>
						<stop  offset="0.264" style="stop-color:#2FB1FC;stop-opacity:0.8"/>
						<stop  offset="0.598" style="stop-color:#3676FD;stop-opacity:0.8"/>
						<stop  offset="0.854" style="stop-color:#3A52FE;stop-opacity:0.8"/>
						<stop  offset="1" style="stop-color:#3C45FF;stop-opacity:0.8"/>
					</linearGradient>
					<path id="路径_14181" class="st26" d="M783.9,875.3c0,0.1,0,0.2,0,0.3s0,0.2,0,0.2c0,0.1,0,0.2,0,0.3s0,0.2,0,0.2
						c0,0.1,0,0.2,0,0.3s0,0.1,0,0.2c0,0.1,0,0.2,0,0.3s0,0.1,0,0.2s0,0.2-0.1,0.3c0,0.1,0,0.1,0,0.2c0,0.1,0,0.2-0.1,0.3
						c0,0.1,0,0.1-0.1,0.2c0,0.1-0.1,0.2-0.1,0.3s0,0.1-0.1,0.2c0,0.1-0.1,0.2-0.1,0.3s0,0.1-0.1,0.2c-0.1,0.1-0.1,0.3-0.2,0.4
						c0,0,0,0,0,0.1c-0.1,0.2-0.1,0.3-0.2,0.5c0,0,0,0.1-0.1,0.1c-0.1,0.1-0.1,0.2-0.2,0.3c0,0.1-0.1,0.1-0.1,0.2
						c-0.1,0.1-0.1,0.2-0.2,0.3c0,0.1-0.1,0.1-0.1,0.2c-0.1,0.1-0.1,0.2-0.2,0.3c0,0.1-0.1,0.1-0.1,0.2c-0.1,0.1-0.1,0.2-0.2,0.3
						c0,0.1-0.1,0.1-0.1,0.2c-0.1,0.1-0.1,0.2-0.2,0.3l-0.1,0.2c-0.1,0.1-0.1,0.2-0.2,0.3c0,0.1-0.1,0.1-0.1,0.2
						c-0.1,0.2-0.3,0.4-0.4,0.5l-0.1,0.1c-0.1,0.2-0.3,0.3-0.4,0.5l-0.1,0.2c-0.1,0.1-0.2,0.3-0.4,0.4l-0.1,0.1
						c-0.2,0.2-0.3,0.3-0.5,0.5c-0.1,0.1-0.1,0.1-0.2,0.2c-0.1,0.1-0.2,0.2-0.3,0.2c-0.1,0.1-0.1,0.1-0.2,0.2
						c-0.1,0.1-0.2,0.2-0.3,0.2c-0.1,0.1-0.2,0.1-0.2,0.2c-0.1,0.1-0.2,0.1-0.3,0.2s-0.2,0.1-0.2,0.2s-0.2,0.1-0.3,0.2
						c-0.1,0.1-0.2,0.1-0.3,0.2s-0.2,0.1-0.3,0.2l-0.3,0.2c-0.1,0.1-0.2,0.1-0.3,0.2c-0.1,0.1-0.2,0.1-0.3,0.2
						c-0.1,0.1-0.2,0.1-0.3,0.2l-0.3,0.2c-0.1,0.1-0.2,0.1-0.3,0.2c-0.2,0.1-0.3,0.2-0.5,0.3c-0.4,0.2-0.8,0.4-1.1,0.6l-0.3,0.2
						c-0.3,0.2-0.7,0.3-1.1,0.5l-0.1,0.1c-0.4,0.2-0.8,0.4-1.2,0.5l-0.3,0.1c-0.3,0.1-0.7,0.3-1.1,0.4l-0.2,0.1
						c-0.4,0.2-0.8,0.3-1.3,0.4L767,892c-0.3,0.1-0.6,0.2-0.9,0.3c-0.3,0.1-0.6,0.2-0.8,0.2c-0.2,0.1-0.5,0.1-0.7,0.2
						c-0.3,0.1-0.6,0.1-0.9,0.2c-0.2,0.1-0.5,0.1-0.7,0.2c-0.3,0.1-0.6,0.1-0.9,0.2c-0.2,0.1-0.5,0.1-0.7,0.1
						c-0.3,0.1-0.6,0.1-0.9,0.2c-0.3,0-0.5,0.1-0.8,0.1l-0.4,0.1c-0.4,0.1-0.8,0.1-1.3,0.2h-0.2c-0.5,0.1-1,0.1-1.4,0.2H756
						c-0.5,0-0.9,0.1-1.4,0.1h-0.1c-0.5,0-1,0.1-1.5,0.1h-0.3c-0.5,0-0.9,0-1.4,0c-0.3,0-0.7,0-1,0c-0.2,0-0.5,0-0.7,0
						c-0.4,0-0.7,0-1.1,0c-0.2,0-0.4,0-0.6,0c-0.3,0-0.7,0-1-0.1c-0.2,0-0.5,0-0.7,0c-0.4,0-0.7-0.1-1.1-0.1c-0.2,0-0.4,0-0.6-0.1
						c-0.4,0-0.9-0.1-1.3-0.2c-0.1,0-0.3,0-0.4,0c-0.6-0.1-1.1-0.2-1.7-0.2c-0.1,0-0.2,0-0.3,0c-0.5-0.1-1-0.2-1.4-0.3
						c-0.2,0-0.4-0.1-0.6-0.1c-0.4-0.1-0.7-0.1-1.1-0.2c-0.4-0.1-0.9-0.2-1.3-0.3l-0.3-0.1c-0.5-0.1-0.9-0.2-1.4-0.4l-0.2-0.1
						c-0.4-0.1-0.8-0.2-1.2-0.4l-0.3-0.1c-0.5-0.1-0.9-0.3-1.3-0.5l-0.3-0.1c-0.4-0.1-0.7-0.3-1.1-0.4l-0.4-0.1
						c-0.3-0.1-0.6-0.2-0.9-0.4c-0.2-0.1-0.4-0.2-0.6-0.3c-0.3-0.1-0.5-0.3-0.8-0.4c-0.2-0.1-0.4-0.2-0.5-0.3
						c-0.3-0.1-0.6-0.3-0.9-0.5c-0.1-0.1-0.3-0.1-0.4-0.2c-0.4-0.2-0.9-0.5-1.3-0.7c-7-4.1-10.5-9.5-10.6-14.7l0.1,6.3
						c0.1,5.2,3.7,10.6,10.6,14.7c0.4,0.2,0.8,0.5,1.3,0.7c0.1,0.1,0.3,0.2,0.4,0.2c0.3,0.2,0.6,0.3,0.9,0.5
						c0.2,0.1,0.4,0.2,0.5,0.3c0.3,0.1,0.5,0.3,0.8,0.4c0.2,0.1,0.4,0.2,0.6,0.3c0.2,0.1,0.4,0.2,0.6,0.2c0.1,0,0.2,0.1,0.3,0.1
						l0.4,0.1c0.4,0.1,0.7,0.3,1.1,0.4c0.1,0,0.2,0.1,0.3,0.1c0.4,0.2,0.9,0.3,1.3,0.5l0.3,0.1c0.2,0.1,0.4,0.1,0.6,0.2
						c0.2,0.1,0.4,0.1,0.6,0.2l0.2,0.1c0.5,0.1,0.9,0.3,1.4,0.4l0.3,0.1c0.4,0.1,0.8,0.2,1.2,0.3h0.1c0.4,0.1,0.7,0.2,1.1,0.2
						c0.2,0,0.4,0.1,0.6,0.1c0.5,0.1,0.9,0.2,1.4,0.3c0.1,0,0.2,0,0.3,0l0,0c0.6,0.1,1.1,0.2,1.7,0.2c0.1,0,0.3,0,0.4,0
						c0.4,0.1,0.9,0.1,1.3,0.2l0,0c0.2,0,0.4,0,0.6,0.1c0.4,0,0.7,0.1,1.1,0.1c0.2,0,0.5,0,0.7,0c0.3,0,0.7,0,1,0.1h0.1
						c0.2,0,0.4,0,0.6,0c0.4,0,0.7,0,1.1,0c0.2,0,0.5,0,0.7,0c0.3,0,0.7,0,1,0h0.2c0.4,0,0.8,0,1.2,0h0.3c0.5,0,1,0,1.5-0.1h0.1
						c0.3,0,0.6,0,0.9-0.1c0.2,0,0.3,0,0.5,0h0.4c0.5,0,1-0.1,1.4-0.2h0.2c0.4-0.1,0.8-0.1,1.3-0.2l0.4-0.1h0.3
						c0.2,0,0.3-0.1,0.5-0.1c0.3-0.1,0.6-0.1,0.9-0.2c0.2,0,0.5-0.1,0.7-0.1c0.3-0.1,0.6-0.1,0.9-0.2c0.2-0.1,0.5-0.1,0.7-0.2
						c0.3-0.1,0.6-0.1,0.9-0.2c0.2-0.1,0.5-0.1,0.7-0.2c0.3-0.1,0.6-0.2,0.8-0.2c0.1,0,0.2-0.1,0.4-0.1c0.2-0.1,0.3-0.1,0.5-0.2
						l0.3-0.1c0.4-0.1,0.9-0.3,1.3-0.4l0.2-0.1c0.4-0.1,0.7-0.3,1.1-0.4l0.3-0.1c0.4-0.2,0.8-0.3,1.2-0.5l0.1-0.1
						c0.4-0.2,0.7-0.3,1.1-0.5l0.3-0.2c0.4-0.2,0.8-0.4,1.1-0.6c0.1-0.1,0.3-0.2,0.4-0.3l0.1-0.1l0.3-0.2l0.3-0.2
						c0.1-0.1,0.2-0.1,0.3-0.2c0.1-0.1,0.2-0.1,0.3-0.2c0.1-0.1,0.2-0.1,0.3-0.2c0.1-0.1,0.2-0.1,0.3-0.2c0.1-0.1,0.2-0.1,0.3-0.2
						s0.2-0.1,0.3-0.2s0.2-0.1,0.3-0.2c0.1-0.1,0.2-0.1,0.2-0.2c0.1-0.1,0.2-0.1,0.3-0.2c0.1-0.1,0.2-0.1,0.2-0.2
						c0.1-0.1,0.2-0.2,0.3-0.2c0.1-0.1,0.1-0.1,0.2-0.2c0.1-0.1,0.2-0.2,0.3-0.2c0.1-0.1,0.1-0.1,0.2-0.2l0,0
						c0.2-0.2,0.4-0.3,0.5-0.5l0.1-0.1c0.1-0.1,0.2-0.3,0.4-0.4l0.1-0.2c0.1-0.2,0.3-0.3,0.4-0.5l0.1-0.1c0.1-0.2,0.3-0.4,0.4-0.5
						l0,0l0.1-0.1c0.1-0.1,0.1-0.2,0.2-0.3c0-0.1,0.1-0.1,0.1-0.2c0.1-0.1,0.1-0.2,0.2-0.3l0.1-0.2c0.1-0.1,0.1-0.2,0.2-0.3
						c0-0.1,0.1-0.1,0.1-0.2c0.1-0.1,0.1-0.2,0.2-0.3l0.1-0.1l0,0c0.1-0.1,0.1-0.2,0.2-0.3c0-0.1,0.1-0.1,0.1-0.2
						c0.1-0.1,0.1-0.2,0.2-0.3c0,0,0-0.1,0.1-0.1c0.1-0.2,0.1-0.3,0.2-0.5c0,0,0,0,0-0.1c0.1-0.1,0.1-0.3,0.2-0.4l0,0
						c0-0.1,0-0.1,0.1-0.2c0-0.1,0.1-0.2,0.1-0.3s0-0.1,0.1-0.2c0-0.1,0.1-0.2,0.1-0.3s0-0.1,0.1-0.2c0-0.1,0-0.2,0.1-0.3
						s0-0.1,0-0.2s0-0.2,0.1-0.3l0,0c0-0.1,0-0.1,0-0.2c0-0.1,0-0.2,0-0.3s0-0.1,0-0.2c0-0.1,0-0.2,0-0.3s0-0.2,0-0.2
						c0-0.1,0-0.2,0-0.3s0-0.2,0-0.2c0-0.1,0-0.2,0-0.3v-0.1c0-0.1,0-0.2,0-0.3l-0.1-6.3C783.9,875,783.9,875.1,783.9,875.3z"/>
				</g>
				<g id="组_9637" transform="translate(0 0)">
					
						<linearGradient id="路径_14182_1_" gradientUnits="userSpaceOnUse" x1="-1324.434" y1="-198.5024" x2="-1323.343" y2="-197.9056" gradientTransform="matrix(75.9258 46.2574 87.3427 -40.2108 118653.9609 54183.457)">
						<stop  offset="0" style="stop-color:#29E6FB;stop-opacity:0.8"/>
						<stop  offset="8.900001e-02" style="stop-color:#41E8FB;stop-opacity:0.8"/>
						<stop  offset="0.408" style="stop-color:#91F2FC;stop-opacity:0.8"/>
						<stop  offset="0.677" style="stop-color:#CDF9FE;stop-opacity:0.8"/>
						<stop  offset="0.883" style="stop-color:#F1FDFE;stop-opacity:0.8"/>
						<stop  offset="1" style="stop-color:#FFFFFF;stop-opacity:0.8"/>
					</linearGradient>
					<path id="路径_14182" class="st27" d="M777.7,893.1c9.3,8.1,8.2,18.9-3.6,25.6c-13.4,7.7-35.5,7.2-49.4-1.1
						c-13.9-8.2-14.2-21.1-0.8-28.8c12.4-7.1,32.1-7.2,46-0.7l54.4-31l8,4.8l-3.3,1.9l11.6,6.9l-9.6,5.5l-11.6-6.9l-4.5,2.5l7.1,4.2
						l-7.8,4.4l-7.1-4.2L777.7,893.1z M732.3,913.4c9.5,5.7,24.8,6,34,0.7s9-14.1-0.5-19.8s-24.8-6-34-0.7
						C722.5,898.8,722.7,907.7,732.3,913.4"/>
				</g>
			</g>
			<g id="组_9877" transform="translate(87.917 20.074) rotate(-49)">
				<g id="组_9639" transform="translate(0 0)">
					<path id="路径_14183" class="st28" d="M735.8,873.4l-13-7.8l14.2-8l13,7.8L735.8,873.4z"/>
				</g>
			</g>
			
				<linearGradient id="路径_14539_1_" gradientUnits="userSpaceOnUse" x1="-624.329" y1="605.8466" x2="-624.329" y2="606.9396" gradientTransform="matrix(38.2279 -43.9762 -66.5729 -57.871 65406.6523 7731.4033)">
				<stop  offset="0" style="stop-color:#FFFFFF"/>
				<stop  offset="0.109" style="stop-color:#FFFFFF;stop-opacity:0.831"/>
				<stop  offset="0.313" style="stop-color:#FFFFFF;stop-opacity:0.541"/>
				<stop  offset="0.496" style="stop-color:#FFFFFF;stop-opacity:0.31"/>
				<stop  offset="0.651" style="stop-color:#FFFFFF;stop-opacity:0.141"/>
				<stop  offset="0.771" style="stop-color:#FFFFFF;stop-opacity:3.900000e-02"/>
				<stop  offset="0.843" style="stop-color:#FFFFFF;stop-opacity:0"/>
			</linearGradient>
			<path id="路径_14539" class="st29" d="M1124.3,96.5c0.7,0,56.9,37.8,56.9,37.8l3.3,1.7h5.6l5.9-1.9l5.8-3.3l4.9-4.5l5-6.1
				l3.2-6.4l1.4-4.7v-4.4l-1.4-4.4l-2.7-2.6l-44.8-48.2l-33.1,13.3L1124.3,96.5z"/>
		</g>
		<g id="组_9844" transform="translate(300.791 105.308)">
			<g id="组_9808" transform="translate(0 0)">
				<g id="组_9807" transform="translate(0 0)">
					
						<linearGradient id="路径_14461_1_" gradientUnits="userSpaceOnUse" x1="-732.7476" y1="533.0181" x2="-731.6545" y2="533.0181" gradientTransform="matrix(6.6171 0 0 -10.459 5977.4424 5600.1357)">
						<stop  offset="0" style="stop-color:#39FFFF"/>
						<stop  offset="1" style="stop-color:#2A79FF"/>
					</linearGradient>
					<path id="路径_14461" class="st30" d="M1128.9,23.6l-0.1,7.4l7.1-4l0.1-7.4L1128.9,23.6z"/>
					
						<linearGradient id="路径_14462_1_" gradientUnits="userSpaceOnUse" x1="-732.7476" y1="533.0181" x2="-731.6545" y2="533.0181" gradientTransform="matrix(6.6171 0 0 -10.459 5977.4424 5600.1357)">
						<stop  offset="0" style="stop-color:#39FFFF"/>
						<stop  offset="1" style="stop-color:#2A79FF"/>
					</linearGradient>
					<path id="路径_14462" class="st31" d="M1128.9,23.6l-0.1,7.4l7.1-4l0.1-7.4L1128.9,23.6z"/>
					
						<linearGradient id="路径_14463_1_" gradientUnits="userSpaceOnUse" x1="-815.1039" y1="497.0188" x2="-814.0107" y2="497.0188" gradientTransform="matrix(12.855 0 0 -7.3521 11600.1211 3673.7319)">
						<stop  offset="0" style="stop-color:#39FFFF"/>
						<stop  offset="1" style="stop-color:#2A79FF"/>
					</linearGradient>
					<path id="路径_14463" class="st32" d="M1128.9,23.6l-7-3.9l7.1-4.1l7,4L1128.9,23.6z"/>
					
						<linearGradient id="路径_14464_1_" gradientUnits="userSpaceOnUse" x1="-729.384" y1="532.4826" x2="-728.2911" y2="532.4826" gradientTransform="matrix(6.485 0 0 -10.394 5851.8843 5559.9746)">
						<stop  offset="0" style="stop-color:#39FFFF"/>
						<stop  offset="1" style="stop-color:#2A79FF"/>
					</linearGradient>
					<path id="路径_14464" class="st33" d="M1128.9,23.6l-0.1,7.4l-7-3.9l0.1-7.4L1128.9,23.6z"/>
				</g>
			</g>
		</g>
		<g id="组_9839" transform="translate(250.962 171.242)">
			<g id="组_9808-2" transform="translate(0 0)">
				<g id="组_9807-2" transform="translate(0 0)">
					
						<linearGradient id="路径_14461-2_1_" gradientUnits="userSpaceOnUse" x1="-583.9609" y1="466.491" x2="-582.8679" y2="466.491" gradientTransform="matrix(6.6171 0 0 -10.459 4988.2744 4910.5288)">
						<stop  offset="0" style="stop-color:#39FFFF"/>
						<stop  offset="1" style="stop-color:#2A79FF"/>
					</linearGradient>
					<path id="路径_14461-2" class="st34" d="M1124.3,29.8l-0.1,7.4l7.1-4l0.1-7.4L1124.3,29.8z"/>
					
						<linearGradient id="路径_14462-2_1_" gradientUnits="userSpaceOnUse" x1="-583.9609" y1="466.491" x2="-582.8679" y2="466.491" gradientTransform="matrix(6.6171 0 0 -10.459 4988.2744 4910.5288)">
						<stop  offset="0" style="stop-color:#39FFFF"/>
						<stop  offset="1" style="stop-color:#2A79FF"/>
					</linearGradient>
					<path id="路径_14462-2" class="st35" d="M1124.3,29.8l-0.1,7.4l7.1-4l0.1-7.4L1124.3,29.8z"/>
					
						<linearGradient id="路径_14463-2_1_" gradientUnits="userSpaceOnUse" x1="-665.9774" y1="430.2419" x2="-664.8844" y2="430.2419" gradientTransform="matrix(12.855 0 0 -7.3521 9678.4678 3188.9817)">
						<stop  offset="0" style="stop-color:#39FFFF"/>
						<stop  offset="1" style="stop-color:#2A79FF"/>
					</linearGradient>
					<path id="路径_14463-2" class="st36" d="M1124.3,29.8l-7-3.9l7.1-4.1l7,4L1124.3,29.8z"/>
					
						<linearGradient id="路径_14464-2_1_" gradientUnits="userSpaceOnUse" x1="-580.611" y1="465.9519" x2="-579.518" y2="465.9519" gradientTransform="matrix(6.485 0 0 -10.394 4882.4624 4874.6538)">
						<stop  offset="0" style="stop-color:#39FFFF"/>
						<stop  offset="1" style="stop-color:#2A79FF"/>
					</linearGradient>
					<path id="路径_14464-2" class="st37" d="M1124.3,29.8l-0.1,7.4l-7-3.9l0.1-7.4L1124.3,29.8z"/>
				</g>
			</g>
		</g>
		<g id="组_9879" transform="translate(244.599 140.729)">
			<g id="组_9808-3" transform="translate(0 0)">
				<g id="组_9807-3" transform="translate(0 0)">
					
						<linearGradient id="路径_14461-3_1_" gradientUnits="userSpaceOnUse" x1="-504.2812" y1="466.4365" x2="-503.1882" y2="466.4365" gradientTransform="matrix(4.8669 0 0 -7.688 3576.0054 3612.0137)">
						<stop  offset="0" style="stop-color:#39FFFF"/>
						<stop  offset="1" style="stop-color:#2A79FF"/>
					</linearGradient>
					<path id="路径_14461-3" class="st38" d="M1121.8,24.8l-0.1,5.5l5.2-3l0.1-5.5L1121.8,24.8z"/>
					
						<linearGradient id="路径_14462-3_1_" gradientUnits="userSpaceOnUse" x1="-504.2812" y1="466.4365" x2="-503.1882" y2="466.4365" gradientTransform="matrix(4.8669 0 0 -7.688 3576.0054 3612.0137)">
						<stop  offset="0" style="stop-color:#39FFFF"/>
						<stop  offset="1" style="stop-color:#2A79FF"/>
					</linearGradient>
					<path id="路径_14462-3" class="st39" d="M1121.8,24.8l-0.1,5.5l5.2-3l0.1-5.5L1121.8,24.8z"/>
					
						<linearGradient id="路径_14463-3_1_" gradientUnits="userSpaceOnUse" x1="-615.6748" y1="417.3343" x2="-614.5818" y2="417.3343" gradientTransform="matrix(9.453 0 0 -5.406 6936.6738 2277.9592)">
						<stop  offset="0" style="stop-color:#39FFFF"/>
						<stop  offset="1" style="stop-color:#2A79FF"/>
					</linearGradient>
					<path id="路径_14463-3" class="st40" d="M1121.8,24.8l-5.1-2.9l5.2-3l5.1,3L1121.8,24.8z"/>
					
						<linearGradient id="路径_14464-3_1_" gradientUnits="userSpaceOnUse" x1="-499.7037" y1="465.761" x2="-498.6107" y2="465.761" gradientTransform="matrix(4.7699 0 0 -7.643 3500.1365 3585.811)">
						<stop  offset="0" style="stop-color:#39FFFF"/>
						<stop  offset="1" style="stop-color:#2A79FF"/>
					</linearGradient>
					<path id="路径_14464-3" class="st41" d="M1121.8,24.8l-0.1,5.4l-5.1-2.9l0.1-5.5L1121.8,24.8z"/>
				</g>
			</g>
		</g>
		<g id="组_9881" transform="translate(335.271 136.923)">
			<g id="组_9808-4" transform="translate(0 0)">
				<g id="组_9807-4" transform="translate(0 0)">
					
						<linearGradient id="路径_14461-4_1_" gradientUnits="userSpaceOnUse" x1="-774.5648" y1="470.2815" x2="-773.4718" y2="470.2815" gradientTransform="matrix(4.8669 0 0 -7.688 4899.8838 3641.2744)">
						<stop  offset="0" style="stop-color:#39FFFF"/>
						<stop  offset="1" style="stop-color:#2A79FF"/>
					</linearGradient>
					<path id="路径_14461-4" class="st42" d="M1130.2,24.5l-0.1,5.5l5.2-3l0.1-5.5L1130.2,24.5z"/>
					
						<linearGradient id="路径_14462-4_1_" gradientUnits="userSpaceOnUse" x1="-774.5648" y1="470.2815" x2="-773.4718" y2="470.2815" gradientTransform="matrix(4.8669 0 0 -7.688 4899.8838 3641.2744)">
						<stop  offset="0" style="stop-color:#39FFFF"/>
						<stop  offset="1" style="stop-color:#2A79FF"/>
					</linearGradient>
					<path id="路径_14462-4" class="st43" d="M1130.2,24.5l-0.1,5.5l5.2-3l0.1-5.5L1130.2,24.5z"/>
					
						<linearGradient id="路径_14463-4_1_" gradientUnits="userSpaceOnUse" x1="-886.7984" y1="421.1958" x2="-885.7054" y2="421.1958" gradientTransform="matrix(9.453 0 0 -5.406 9508.041 2298.5347)">
						<stop  offset="0" style="stop-color:#39FFFF"/>
						<stop  offset="1" style="stop-color:#2A79FF"/>
					</linearGradient>
					<path id="路径_14463-4" class="st44" d="M1130.2,24.5l-5.1-2.9l5.2-3l5.1,3L1130.2,24.5z"/>
					
						<linearGradient id="路径_14464-4_1_" gradientUnits="userSpaceOnUse" x1="-769.9511" y1="469.6062" x2="-768.8582" y2="469.6062" gradientTransform="matrix(4.7699 0 0 -7.643 4797.6255 3614.9004)">
						<stop  offset="0" style="stop-color:#39FFFF"/>
						<stop  offset="1" style="stop-color:#2A79FF"/>
					</linearGradient>
					<path id="路径_14464-4" class="st45" d="M1130.2,24.5l-0.1,5.4L1125,27l0.1-5.5L1130.2,24.5z"/>
				</g>
			</g>
		</g>
		<g id="组_9882" transform="translate(329.703 194.012)">
			<g id="组_9808-5" transform="translate(0 0)">
				<g id="组_9807-5" transform="translate(0 0)">
					
						<linearGradient id="路径_14461-5_1_" gradientUnits="userSpaceOnUse" x1="-757.9672" y1="412.5032" x2="-756.8742" y2="412.5032" gradientTransform="matrix(4.8669 0 0 -7.688 4818.5869 3202.3748)">
						<stop  offset="0" style="stop-color:#39FFFF"/>
						<stop  offset="1" style="stop-color:#2A79FF"/>
					</linearGradient>
					<path id="路径_14461-5" class="st46" d="M1129.7,29.8l-0.1,5.5l5.2-3l0.1-5.5L1129.7,29.8z"/>
					
						<linearGradient id="路径_14462-5_1_" gradientUnits="userSpaceOnUse" x1="-757.9672" y1="412.5032" x2="-756.8742" y2="412.5032" gradientTransform="matrix(4.8669 0 0 -7.688 4818.5869 3202.3748)">
						<stop  offset="0" style="stop-color:#39FFFF"/>
						<stop  offset="1" style="stop-color:#2A79FF"/>
					</linearGradient>
					<path id="路径_14462-5" class="st47" d="M1129.7,29.8l-0.1,5.5l5.2-3l0.1-5.5L1129.7,29.8z"/>
					
						<linearGradient id="路径_14463-5_1_" gradientUnits="userSpaceOnUse" x1="-870.1492" y1="363.1264" x2="-869.0562" y2="363.1264" gradientTransform="matrix(9.453 0 0 -5.406 9350.1387 1989.9111)">
						<stop  offset="0" style="stop-color:#39FFFF"/>
						<stop  offset="1" style="stop-color:#2A79FF"/>
					</linearGradient>
					<path id="路径_14463-5" class="st48" d="M1129.7,29.8l-5.1-2.9l5.2-3l5.1,3L1129.7,29.8z"/>
					
						<linearGradient id="路径_14464-5_1_" gradientUnits="userSpaceOnUse" x1="-753.3557" y1="411.8237" x2="-752.2627" y2="411.8237" gradientTransform="matrix(4.7699 0 0 -7.643 4717.9492 3178.5688)">
						<stop  offset="0" style="stop-color:#39FFFF"/>
						<stop  offset="1" style="stop-color:#2A79FF"/>
					</linearGradient>
					<path id="路径_14464-5" class="st49" d="M1129.7,29.8l-0.1,5.4l-5.1-2.9l0.1-5.5L1129.7,29.8z"/>
				</g>
			</g>
		</g>
		
			<radialGradient id="路径_14540_1_" cx="-3.1355" cy="720.111" r="0.5464" gradientTransform="matrix(1.941169e-14 -247.4565 -317.017 -1.515234e-14 229698.5625 -559.8045)" gradientUnits="userSpaceOnUse">
			<stop  offset="0" style="stop-color:#9AC6FF;stop-opacity:5.100000e-02"/>
			<stop  offset="0.711" style="stop-color:#A647DC;stop-opacity:0"/>
			<stop  offset="1" style="stop-color:#985DFF;stop-opacity:0.412"/>
		</radialGradient>
		<path id="路径_14540" class="st50" d="M1411.2,80.9c95.7,0,173.2,85.6,173.2,191.2s-346.5,105.6-346.5,0
			S1315.5,80.9,1411.2,80.9z"/>
	</g>
	<g id="组_9884" transform="translate(-5366.991 8662.208)">
		
			<linearGradient id="路径_14541_1_" gradientUnits="userSpaceOnUse" x1="-1264.974" y1="623.9824" x2="-1265.5293" y2="623.2119" gradientTransform="matrix(46.9647 11.7096 11.2635 -45.1756 53565.5586 43036.7695)">
			<stop  offset="0" style="stop-color:#1A94FF;stop-opacity:0.58"/>
			<stop  offset="0.117" style="stop-color:#2063FF;stop-opacity:0.51"/>
			<stop  offset="1" style="stop-color:#808080;stop-opacity:0"/>
		</linearGradient>
		<path id="路径_14541" class="st51" d="M1172.2,26.4c14.2,3.4,22.9,17.2,19.3,30.8s-17.9,21.9-32.1,18.5s-22.9-17.2-19.3-30.8
			C1143.6,31.2,1158,23,1172.2,26.4z"/>
		
			<radialGradient id="路径_14542_1_" cx="-1311.4666" cy="605.4691" r="0.4446" gradientTransform="matrix(-7.9781 -36.6407 -32.0266 -6.4339 10104.7588 -44117.3945)" gradientUnits="userSpaceOnUse">
			<stop  offset="0" style="stop-color:#97A8FF;stop-opacity:0.839"/>
			<stop  offset="1" style="stop-color:#808080;stop-opacity:0"/>
		</radialGradient>
		<path id="路径_14542" class="st52" d="M1164.4,21.5c6.5-3.9,17.3,1.3,24,11.6s6.9,21.9,0.4,25.8s-17.3-1.3-24-11.6
			C1158.1,36.9,1157.9,25.4,1164.4,21.5z"/>
	</g>
	<g id="组_9885" transform="translate(-5732.964 8719.733)">
		
			<linearGradient id="路径_14543_1_" gradientUnits="userSpaceOnUse" x1="-153.3891" y1="559.1811" x2="-153.9444" y2="558.4106" gradientTransform="matrix(30.496 7.6035 7.3142 -29.3356 1720.6327 17603.5469)">
			<stop  offset="0" style="stop-color:#1A94FF;stop-opacity:0.58"/>
			<stop  offset="0.222" style="stop-color:#4C41E4;stop-opacity:0.569"/>
			<stop  offset="1" style="stop-color:#808080;stop-opacity:0"/>
		</linearGradient>
		<path id="路径_14543" class="st53" d="M1124.7,27.4c9.2,2.2,14.8,11.1,12.5,20c-2.3,8.8-11.6,14.2-20.9,12
			c-9.2-2.2-14.8-11.1-12.5-20S1115.5,25.2,1124.7,27.4z"/>
		
			<radialGradient id="路径_14544_1_" cx="-224.2961" cy="533.1337" r="0.4444" gradientTransform="matrix(-5.1784 -23.7902 -20.7962 -4.1756 11053.2988 -3073.5964)" gradientUnits="userSpaceOnUse">
			<stop  offset="0" style="stop-color:#97A8FF;stop-opacity:0.839"/>
			<stop  offset="1" style="stop-color:#808080;stop-opacity:0"/>
		</radialGradient>
		<path id="路径_14544" class="st54" d="M1119.7,24.2c4.2-2.5,11.2,0.9,15.6,7.6s4.5,14.2,0.3,16.7s-11.2-0.9-15.6-7.6
			S1115.5,26.7,1119.7,24.2z"/>
	</g>
	<g id="组_9886" transform="translate(-5693.06 8581.694)">
		
			<linearGradient id="路径_14545_1_" gradientUnits="userSpaceOnUse" x1="-290.0703" y1="705.7626" x2="-290.6255" y2="704.992" gradientTransform="matrix(52.1901 13.0124 12.5177 -50.2059 7464.2104 39239.0625)">
			<stop  offset="0" style="stop-color:#1A94FF;stop-opacity:0.58"/>
			<stop  offset="0.222" style="stop-color:#4C41E4;stop-opacity:0.569"/>
			<stop  offset="1" style="stop-color:#808080;stop-opacity:0"/>
		</linearGradient>
		<path id="路径_14545" class="st55" d="M1146.1,20.8c15.8,3.8,25.4,19.1,21.5,34.2s-19.9,24.3-35.7,20.5
			c-15.8-3.8-25.4-19.1-21.5-34.2S1130.3,17.1,1146.1,20.8z"/>
		
			<radialGradient id="路径_14546_1_" cx="-328.5545" cy="693.9657" r="0.4441" gradientTransform="matrix(-10.7368 -48.1893 -41.835 -8.7374 26652.8164 -9728.5098)" gradientUnits="userSpaceOnUse">
			<stop  offset="0" style="stop-color:#23E8FF;stop-opacity:0.839"/>
			<stop  offset="1" style="stop-color:#808080;stop-opacity:0"/>
		</radialGradient>
		<path id="路径_14546" class="st56" d="M1132.3,16.2c8.5-5.1,22.5,1.9,31.4,15.5s9.2,28.8,0.8,33.8c-8.5,5.1-22.5-1.9-31.4-15.5
			S1123.8,21.3,1132.3,16.2z"/>
	</g>
	<g id="组_9887" transform="translate(-5401.14 8579.169)">
		
			<linearGradient id="路径_14547_1_" gradientUnits="userSpaceOnUse" x1="-906.5721" y1="720.5083" x2="-906.5721" y2="719.4155" gradientTransform="matrix(3.8844 3.2607 50.5334 -60.1999 -31688.6836 46338.5938)">
			<stop  offset="0" style="stop-color:#FFFFFF;stop-opacity:0"/>
			<stop  offset="0.309" style="stop-color:#BFFBFF;stop-opacity:0.169"/>
			<stop  offset="1" style="stop-color:#31F1FF"/>
		</linearGradient>
		<path id="路径_14547" class="st57" d="M1198.8,7.5l2.9,2.3l-56.6,64.5l-2.9-2.3L1198.8,7.5z"/>
		
			<radialGradient id="椭圆_73_1_" cx="-1139.5103" cy="684.6722" r="0.442" gradientTransform="matrix(23.928 1.6 2.256 -23.3 26865.6133 17849.623)" gradientUnits="userSpaceOnUse">
			<stop  offset="0" style="stop-color:#14F0FE"/>
			<stop  offset="0.192" style="stop-color:#0EF2FE"/>
			<stop  offset="0.452" style="stop-color:#03F6FF;stop-opacity:0.49"/>
			<stop  offset="1" style="stop-color:#808080;stop-opacity:0"/>
		</radialGradient>
		<ellipse id="椭圆_73" class="st58" cx="1144" cy="73.5" rx="13.1" ry="10.9"/>
		
			<radialGradient id="椭圆_74_1_" cx="-1119.2676" cy="676.5449" r="0.4415" gradientTransform="matrix(16.949 1.28 1.598 -18.64 19032.8496 14114.8174)" gradientUnits="userSpaceOnUse">
			<stop  offset="0" style="stop-color:#14F0FE"/>
			<stop  offset="0.192" style="stop-color:#0EF2FE"/>
			<stop  offset="0.452" style="stop-color:#03F6FF;stop-opacity:0.49"/>
			<stop  offset="1" style="stop-color:#808080;stop-opacity:0"/>
		</radialGradient>
		<ellipse id="椭圆_74" class="st59" cx="1143.5" cy="71.4" rx="9.3" ry="8.7"/>
	</g>
	<g id="组_9889" transform="translate(-5470.536 8563.83)">
		
			<linearGradient id="路径_14548_1_" gradientUnits="userSpaceOnUse" x1="-648.2063" y1="735.9205" x2="-648.2063" y2="734.8279" gradientTransform="matrix(3.2854 2.7578 42.7409 -50.9168 -28141.7188 39264.6445)">
			<stop  offset="0" style="stop-color:#D570FF;stop-opacity:0"/>
			<stop  offset="0.309" style="stop-color:#D385FF;stop-opacity:0.169"/>
			<stop  offset="1" style="stop-color:#9831FF"/>
		</linearGradient>
		<path id="路径_14548" class="st60" d="M1181.9,5.9l2.4,2l-47.9,54.6l-2.4-2L1181.9,5.9z"/>
		
			<radialGradient id="椭圆_73-2_1_" cx="-921.6367" cy="694.0662" r="0.442" gradientTransform="matrix(19.94 1.36 1.88 -19.805 18207.3242 15061.5098)" gradientUnits="userSpaceOnUse">
			<stop  offset="0" style="stop-color:#C857FF"/>
			<stop  offset="0.192" style="stop-color:#D04BFF"/>
			<stop  offset="0.452" style="stop-color:#EB36FF;stop-opacity:0.49"/>
			<stop  offset="1" style="stop-color:#808080;stop-opacity:0"/>
		</radialGradient>
		<ellipse id="椭圆_73-2" class="st61" cx="1134.7" cy="62.1" rx="10.9" ry="9.3"/>
		
			<radialGradient id="椭圆_74-2_1_" cx="-889.6921" cy="677.6365" r="0.442" gradientTransform="matrix(12.961 0.96 1.222 -13.98 11839.5996 10387.9277)" gradientUnits="userSpaceOnUse">
			<stop  offset="0" style="stop-color:#B114FE"/>
			<stop  offset="8.000000e-03" style="stop-color:#DE0EFE;stop-opacity:0.702"/>
			<stop  offset="0.452" style="stop-color:#EE03FF;stop-opacity:0.49"/>
			<stop  offset="1" style="stop-color:#808080;stop-opacity:0"/>
		</radialGradient>
		<ellipse id="椭圆_74-2" class="st62" cx="1136.4" cy="60.5" rx="7.1" ry="6.6"/>
	</g>
	<g id="组_9888" transform="translate(-5578.968 8510.979)">
		
			<linearGradient id="路径_14549_1_" gradientUnits="userSpaceOnUse" x1="-463.9178" y1="788.444" x2="-463.9178" y2="787.351" gradientTransform="matrix(5.6577 4.7492 73.6074 -87.6879 -54196.3281 71342.7109)">
			<stop  offset="0" style="stop-color:#FFFFFF;stop-opacity:0"/>
			<stop  offset="0.309" style="stop-color:#BFFBFF;stop-opacity:0.169"/>
			<stop  offset="1" style="stop-color:#31F1FF"/>
		</linearGradient>
		<path id="路径_14549" class="st63" d="M1213.2,1.7l4.2,3.4l-82.5,94l-4.2-3.4L1213.2,1.7z"/>
		
			<radialGradient id="椭圆_73-3_1_" cx="-622.3743" cy="763.6787" r="0.4422" gradientTransform="matrix(34.895 2.32 3.29 -33.785 20338.5527 27342.2598)" gradientUnits="userSpaceOnUse">
			<stop  offset="0" style="stop-color:#14F0FE"/>
			<stop  offset="0.192" style="stop-color:#0EF2FE"/>
			<stop  offset="0.452" style="stop-color:#03F6FF;stop-opacity:0.49"/>
			<stop  offset="1" style="stop-color:#808080;stop-opacity:0"/>
		</radialGradient>
		<ellipse id="椭圆_73-3" class="st64" cx="1133.3" cy="97.5" rx="19.1" ry="15.8"/>
		
			<radialGradient id="椭圆_74-3_1_" cx="-610.7356" cy="757.6608" r="0.4418" gradientTransform="matrix(25.922 1.84 2.444 -26.795 15113.6309 21519.4727)" gradientUnits="userSpaceOnUse">
			<stop  offset="0" style="stop-color:#14F0FE"/>
			<stop  offset="0.192" style="stop-color:#0EF2FE"/>
			<stop  offset="0.452" style="stop-color:#03F6FF;stop-opacity:0.49"/>
			<stop  offset="1" style="stop-color:#808080;stop-opacity:0"/>
		</radialGradient>
		<ellipse id="椭圆_74-3" class="st65" cx="1133.9" cy="94.2" rx="14.2" ry="12.6"/>
	</g>
	
		<radialGradient id="椭圆_75_1_" cx="-17292.168" cy="9217.3301" r="0.547" gradientTransform="matrix(11 0 0 -11 185754 110098.5313)" gradientUnits="userSpaceOnUse">
		<stop  offset="0" style="stop-color:#FFFFFF"/>
		<stop  offset="1" style="stop-color:#808080;stop-opacity:0"/>
	</radialGradient>
	<circle id="椭圆_75" class="st66" cx="-4459.9" cy="8707.9" r="6"/>
	
		<radialGradient id="椭圆_76_1_" cx="-17291.6445" cy="9217.5234" r="0.5466" gradientTransform="matrix(11 0 0 -11 185816 110075.5313)" gradientUnits="userSpaceOnUse">
		<stop  offset="0" style="stop-color:#FFFFFF"/>
		<stop  offset="1" style="stop-color:#808080;stop-opacity:0"/>
	</radialGradient>
	<circle id="椭圆_76" class="st67" cx="-4392.1" cy="8682.8" r="6"/>
	
		<radialGradient id="椭圆_77_1_" cx="-17205.207" cy="9170.5449" r="0.5462" gradientTransform="matrix(6 0 0 -7 98949 72935.6172)" gradientUnits="userSpaceOnUse">
		<stop  offset="0" style="stop-color:#FFFFFF"/>
		<stop  offset="1" style="stop-color:#808080;stop-opacity:0"/>
	</radialGradient>
	<ellipse id="椭圆_77" class="st68" cx="-4282.2" cy="8741.8" rx="3.3" ry="3.8"/>
	
		<radialGradient id="椭圆_78_1_" cx="-17166.5918" cy="9119.2617" r="0.5465" gradientTransform="matrix(5 0 0 -5 81607 54344.6563)" gradientUnits="userSpaceOnUse">
		<stop  offset="0" style="stop-color:#FFFFFF"/>
		<stop  offset="1" style="stop-color:#808080;stop-opacity:0"/>
	</radialGradient>
	<circle id="椭圆_78" class="st69" cx="-4226" cy="8748.3" r="2.7"/>
	
		<radialGradient id="椭圆_79_1_" cx="-17268.2969" cy="9187.415" r="0.5465" gradientTransform="matrix(9 0 0 -8 151098 82158.5938)" gradientUnits="userSpaceOnUse">
		<stop  offset="0" style="stop-color:#FFFFFF"/>
		<stop  offset="1" style="stop-color:#808080;stop-opacity:0"/>
	</radialGradient>
	<ellipse id="椭圆_79" class="st70" cx="-4316.7" cy="8659.3" rx="4.9" ry="4.4"/>
	
		<radialGradient id="椭圆_80_1_" cx="-17234.8633" cy="9150.3477" r="0.5465" gradientTransform="matrix(7 0 0 -6 116135 63564.6367)" gradientUnits="userSpaceOnUse">
		<stop  offset="0" style="stop-color:#FFFFFF"/>
		<stop  offset="1" style="stop-color:#808080;stop-opacity:0"/>
	</radialGradient>
	<ellipse id="椭圆_80" class="st71" cx="-4509" cy="8662.5" rx="3.8" ry="3.3"/>
	
		<radialGradient id="椭圆_81_1_" cx="-17172.3203" cy="9170.5449" r="0.5463" gradientTransform="matrix(5 0 0 -7 81299 72935.6172)" gradientUnits="userSpaceOnUse">
		<stop  offset="0" style="stop-color:#FFFFFF"/>
		<stop  offset="1" style="stop-color:#808080;stop-opacity:0"/>
	</radialGradient>
	<ellipse id="椭圆_81" class="st72" cx="-4562.6" cy="8741.8" rx="2.7" ry="3.8"/>
</g>
<g class="st73">
	<path class="st74" d="M362.1,316.5l2.1-2.4c2.6,1.8,5.1,3.7,7.3,5.5c-1,1.2-1.9,2.1-2.5,2.8C366.5,320,364.2,318.1,362.1,316.5z
		 M363.3,343.3c1.7-5,3.2-10.5,4.4-16.5c1.3,0.5,2.4,1,3.5,1.3c-1.5,5.6-2.8,11-4.1,16.3L363.3,343.3z M363.7,305l2.2-2.3
		c1.7,1.3,4.1,3.3,7.2,6c-1,0.9-1.8,1.8-2.5,2.5C367.4,308.3,365.2,306.2,363.7,305z M371.3,314.4c3.6-3.4,6.4-7.5,8.6-12.3h3.7
		c-0.7,1.5-1.4,2.9-2.2,4.3H404v3h-24.5c-1.8,2.9-3.9,5.4-6.1,7.6C372.8,316.1,372.1,315.2,371.3,314.4z M371.6,323.8h4.4l1.5-10.7
		h23.2c-0.1,4-0.2,7.6-0.3,10.7h4.5v3h-4.6c-0.1,3.1-0.2,5.7-0.3,7.9h3.5v2.9h-3.7c-0.2,2.1-0.8,3.7-1.7,4.7c-1,1.2-2.9,1.8-5.5,1.8
		c-1.5,0-3.4-0.1-5.8-0.2c-0.1-1-0.3-2.1-0.6-3.5c2.8,0.3,4.9,0.4,6.4,0.4c2.2,0,3.5-1.1,3.9-3.2h-22.1v-3.2l1.1-7.6h-4V323.8z
		 M397.1,326.8h-18.2l-1.1,7.9h18.9C396.9,332.3,397,329.7,397.1,326.8z M397.4,315.9h-17l-1.1,7.8h17.9
		C397.3,321.3,397.3,318.7,397.4,315.9z M384.1,329.4l2-1.9c1.9,1.5,3.7,2.9,5.4,4.4l-2.2,2.2C387.5,332.5,385.8,330.9,384.1,329.4z
		 M384.6,318.4l1.9-1.9c1.8,1.4,3.6,2.9,5.4,4.4l-2.2,2.2C388,321.4,386.3,319.8,384.6,318.4z"/>
	<path class="st74" d="M406.6,307.5h19.3v-4.9h3.5v4.9h18.8v3.1h-18.8v4.4h16.5v24.4c0,3.4-1.7,5-5,5.1c-1.9,0-4.3,0-7.1-0.1
		c-0.2-1.1-0.4-2.2-0.6-3.5c2.8,0.2,5,0.3,6.5,0.3c1.9,0,2.8-0.8,2.8-2.5V318h-29.7v26.6h-3.4V315h16.5v-4.4h-19.3V307.5z
		 M414.4,332.6h11.5v-4.7h-10.1V325h13.5c1.4-2.1,2.8-4.3,4.2-6.8l3.2,1.8c-1.4,1.9-2.7,3.6-3.8,5h6.6v2.8h-10.1v4.7h11.5v2.8h-11.5
		v8.3h-3.4v-8.3h-11.5V332.6z M418.6,320l2.5-1.7c1.5,1.7,2.8,3.3,4,4.9l-2.8,1.8C421.2,323.3,419.9,321.6,418.6,320z"/>
	<path class="st74" d="M450.2,320.4c13.7-2.7,24.5-5.7,32.5-8.9l1.7,2.9c-5.7,2.1-13,4.3-21.7,6.4h25.2v23.5h-3.2v-1.9h-24.1v2h-3.2
		V322c-1.9,0.4-3.9,0.9-6,1.3C451,322.4,450.6,321.4,450.2,320.4z M463.4,304.9l2.4,2.5c-4.1,3.2-8.3,6.2-12.5,9.1
		c-0.6-0.9-1.3-1.8-2-2.8C455.7,310.9,459.8,307.9,463.4,304.9z M484.7,323.7h-24.1v3.4h24.1V323.7z M460.5,333.2h24.1v-3.4h-24.1
		V333.2z M460.5,339.4h24.1V336h-24.1V339.4z M469.8,302.4h3.3v11.8h-3.3V302.4z M478.4,307.4l1.8-2.5c4.3,2.3,8.5,4.8,12.7,7.4
		l-2.1,3C486.9,312.6,482.8,310,478.4,307.4z"/>
	<path class="st74" d="M494.5,327.2h6.5c0.6-1.1,1.2-2.2,1.8-3.4l3.1,1c-0.5,0.8-0.9,1.6-1.4,2.4h10.5v2.8c-1.1,2.8-2.7,5.3-4.9,7.4
		c1.6,0.7,3.2,1.5,4.8,2.2l-1.9,3c-1.8-1-3.6-2-5.5-3c-3.2,2.3-7.3,4.2-12.2,5.5c-0.5-0.9-0.9-1.9-1.5-3c4.2-0.9,7.7-2.3,10.6-4.1
		c-2.5-1.3-5-2.5-7.7-3.9c0.9-1.3,1.8-2.7,2.7-4.1h-4.9V327.2z M495,312.4h9.9v-9.6h3.2v9.6h8.3v2.8H508v2.6l1.3-1.5
		c2.7,1.9,4.9,3.7,6.7,5.2l-2.1,2.4c-1.6-1.5-3.6-3.2-5.9-5v4.9h-3.2v-6c-2.6,2.7-5.6,5.1-9.1,7.2c-0.5-0.8-1.2-1.7-1.8-2.6
		c3.6-1.9,6.9-4.3,9.9-7.1H495V312.4z M496.1,305.7l2.4-1.7c1.3,1.6,2.6,3.3,4,5.1l-2.7,1.9C498.6,309.1,497.3,307.4,496.1,305.7z
		 M500.9,333.1c2,0.9,4.1,1.9,6.3,2.9c2-1.7,3.5-3.7,4.6-6h-8.9C502.3,331.1,501.6,332.1,500.9,333.1z M514.3,303.8l2.7,1.8
		c-1.6,2.1-3.2,4-4.7,5.7c-0.7-0.6-1.4-1.2-2.3-1.8C511.4,307.7,512.9,305.9,514.3,303.8z M522.2,302.4l3.4,0.5
		c-0.6,2.8-1.3,5.4-2.1,7.8h13.1v2.9h-2.7c-0.7,8.4-2.5,15.1-5.5,20.1c2.3,3.2,5.3,5.7,8.9,7.7c-0.9,1.3-1.7,2.4-2.3,3.4
		c-3.5-2.3-6.4-5-8.7-8.1c-2.6,3.3-5.8,6.1-9.4,8.5c-0.6-0.8-1.4-1.7-2.4-2.7c4-2.6,7.3-5.6,9.8-9c-2.3-4-3.9-8.6-4.6-13.9
		c-0.6,1.1-1.2,2-1.9,3c-0.6-0.8-1.3-1.7-2.1-2.8C518.8,315.1,521,309.2,522.2,302.4z M530.5,313.6h-8c-0.1,0.4-0.3,0.7-0.5,1.1
		c0.5,6.1,1.9,11.3,4.3,15.6C528.6,326.1,530,320.5,530.5,313.6z"/>
	<path class="st74" d="M538.1,325.3c2-0.6,4-1.1,5.9-1.7v-9.8h-5.4v-3.1h5.4v-8.2h3.2v8.2h4.7v3.1h-4.7v8.8c1.4-0.4,2.7-0.9,4-1.3
		c0,1.3,0.1,2.4,0.3,3.4c-1.5,0.5-2.9,0.9-4.3,1.4v13c0,3.2-1.4,4.9-4.3,4.9c-0.9,0-2.2,0-4,0c-0.1-1.1-0.3-2.3-0.5-3.6
		c1.6,0.2,2.8,0.3,3.6,0.3c1.3,0,1.9-0.7,1.9-2.2v-11.3c-2,0.7-3.8,1.3-5.5,1.9L538.1,325.3z M557.4,329.6h8.9v-5.5h-10
		c-0.3,8.8-2.3,15.6-6.1,20.4c-0.7-0.9-1.5-1.8-2.3-2.7c3.6-4.4,5.4-11.2,5.4-20.3v-16.8h25.4v12.5h-3.1v-1.3h-19.2v5.3h10v-4.5h3.1
		v4.5h11.3v2.9h-11.3v5.5h8.9v14.5h-3.1v-2.5h-14.7v2.5h-3.1V329.6z M575.4,307.6h-19.2v5.5h19.2V307.6z M575.2,332.5h-14.7v6.4
		h14.7V332.5z"/>
	<path class="st74" d="M586.6,319.5h20.3c1.9-2.8,3.7-5.7,5.2-8.5l3.3,2.1c-1.5,2.1-3.1,4.3-4.8,6.4h12.7v3h-33.3v3
		c0,5.1-0.4,8.9-1.2,11.3c-0.8,2.8-2.3,5.4-4.6,7.8c-0.7-0.9-1.5-1.9-2.3-2.9c1.7-1.8,2.9-3.9,3.6-6.4c0.7-2.4,1-5.7,1-9.9V319.5z
		 M583,307.2h19.6c-0.6-1.2-1.3-2.4-2.1-3.6l3.2-1.6c0.9,1.5,1.9,3.3,2.9,5.2h17.9v3.1H583V307.2z M592,312.7l2.8-1.9
		c1.8,2.2,3.4,4.4,4.7,6.4l-3.1,2.1C595.4,317.4,593.9,315.2,592,312.7z"/>
	<path class="st74" d="M628.4,324.7h16.4v19.9h-3.3v-2.9h-9.8v2.9h-3.3V324.7z M641.5,327.7h-9.8v11h9.8V327.7z M632.6,304.1h29.6
		v17h-3.4v-1.4h-22.8v1.4h-3.4V304.1z M658.8,307.1h-22.8v9.6h22.8V307.1z M650.1,324.7h16.4v19.9h-3.3v-2.9h-9.9v2.9h-3.3V324.7z
		 M663.3,327.7h-9.9v11.1h9.9V327.7z"/>
	<path class="st74" d="M670.2,340.6c2.2-3.8,3.4-9.6,3.5-17.2l3.2,0.2c-0.1,2.8-0.3,5.4-0.6,7.7c1,2.2,2.4,4,4.1,5.4v-15.9h-9.9
		v-3.1h8.6v-6.1h-7.1v-3.1h7.1v-6.1h3.4v6.1h6.4v3.1h-6.4v6.1h7v3.1h-5.8v6.7h6.1v3.1h-6.1v8c2.1,0.9,4.5,1.3,7.2,1.3
		c5.4,0.1,12.8,0,22.1-0.2c-0.5,1.3-0.9,2.4-1.2,3.4c-8.7,0-16,0-22-0.1c-6.9-0.1-11.6-2.6-14.1-7.5c-0.8,3.7-2,6.8-3.5,9.1
		C671.5,343.3,670.9,342,670.2,340.6z M689.9,307.1v-2.9h20.5c-0.1,3.9-0.3,7.2-0.6,9.9c-0.3,3.3-2,5-5.1,5.1c-1.5,0-3.3,0-5.4-0.1
		c-0.2-1.1-0.4-2.2-0.6-3.4c2.1,0.3,3.9,0.5,5.4,0.5c1.6,0,2.5-0.9,2.7-2.8c0.2-1.6,0.3-3.7,0.4-6.2H699c-0.2,6.5-2.7,11-7.2,13.6
		c-0.5-0.9-1.2-1.8-2.1-2.8c4-2.2,6-5.8,6.1-10.8H689.9z M692,322h18v15.4h-3.2v-1.8h-11.6v2.1H692V322z M706.8,324.9h-11.6v7.7
		h11.6V324.9z"/>
	<path class="st74" d="M721.8,340.1h-3.4v-22.2h15.3V312h-19v-3.3h20c-0.9-1.8-1.9-3.6-3.1-5.4l3.3-1.5c1.2,1.8,2.4,3.7,3.4,5.5
		l-2.8,1.4h20.8v3.3h-19.2v5.9h15.6V334c0,3.6-1.7,5.4-5.1,5.4c-1.6,0-3.6,0-6.1-0.1c-0.1-0.9-0.3-2.1-0.6-3.4
		c2.4,0.1,4.3,0.2,5.7,0.2c1.9,0,2.8-0.9,2.8-2.8v-12.2h-12.2v23.5h-3.4v-23.5h-12V340.1z"/>
	<path class="st74" d="M786.3,320.7l3.3,1.4c-2.1,4.9-4.7,8.8-7.6,11.8c4.3,3.2,10.4,5.4,18.3,6.8c-1.1,1.4-1.9,2.6-2.6,3.6
		c-7.6-1.9-13.7-4.6-18.3-8.1c-3.9,3.1-10.2,5.9-18.8,8.4c-0.6-1-1.3-2.1-2.1-3.3c8.1-2,14.1-4.5,18.2-7.4
		c-2.8-2.9-5.3-6.7-7.3-11.3l2.9-1.6c1.9,4.3,4.3,7.8,7.1,10.7C782,329.1,784.3,325.4,786.3,320.7z M758.8,308.7h20.1
		c-0.7-1.4-1.6-3.1-2.9-5.1l3.2-1.5c1.2,1.7,2.3,3.5,3.3,5.4l-2.4,1.2h20v3.2h-41.3V308.7z M771.5,313.8l2.8,2.2
		c-4,4.2-8.2,8-12.5,11.3c-0.7-0.9-1.5-1.8-2.4-2.8C763.7,321.6,767.7,318,771.5,313.8z M786.9,313.6c5.2,4.1,9.3,7.6,12.3,10.4
		c-0.8,0.8-1.7,1.7-2.6,2.8c-3.2-3.3-7.3-7-12.1-10.9L786.9,313.6z"/>
	<path class="st74" d="M802.2,331.3c4.6-2.5,8.5-5.9,11.6-10.1l3.1,1.2c-0.6,0.8-1.1,1.5-1.7,2.2h26.7c-0.3,5.4-0.5,9.6-0.8,12.5
		c-0.4,4.6-2.7,6.9-7,7c-2.4,0-4.9,0-7.4,0c-0.2-1.2-0.4-2.4-0.6-3.7c2.5,0.2,4.9,0.3,7.2,0.3c2.7,0,4.2-1.3,4.5-4
		c0.3-2.6,0.5-5.6,0.6-9.2h-6.6c-1.7,7.5-6.8,13.3-15.3,17.4c-0.7-0.9-1.5-1.9-2.4-2.9c8-3.3,12.8-8.1,14.3-14.4h-6.5
		c-2.1,6.1-7.6,10.9-16.6,14.4c-0.7-0.9-1.5-1.9-2.4-2.9c8.5-3.2,13.6-7,15.4-11.5h-5.8c-2.4,2.5-5.1,4.6-8.1,6.5
		C803.8,333.2,803.1,332.3,802.2,331.3z M807.8,304.3h31.6v17.9H836v-1.7h-28.3V304.3z M836,307.3h-24.9v3.5H836V307.3z
		 M811.1,317.4H836v-3.6h-24.9V317.4z"/>
	<path class="st74" d="M846.6,325.5h19v-18h-17.1v-3.3h38v3.3h-17.3v18h19.2v3.3h-19.2v15.8h-3.6v-15.8h-19V325.5z M850.7,312.3
		l2.7-1.9c3.2,3.8,6,7.4,8.3,10.9l-3.1,2.3C856.5,320,853.8,316.2,850.7,312.3z M872.6,321.2c3.2-3.3,6-7,8.5-11l3.2,2.1
		c-3.2,4.4-6.3,8.2-9.1,11.2L872.6,321.2z"/>
	<path class="st74" d="M920.5,307.9c4.5,4.2,8.8,8.5,12.8,12.8l-3.1,2.5c-1.1-1.3-2.3-2.7-3.5-4c-12.9,0.5-22.7,1-29.5,1.4
		c-1.6,0.1-3.1,0.3-4.6,0.7l-1.4-3.7c1.3-0.5,2.5-1.2,3.6-2c4.9-4,9.4-8.6,13.4-13.9l3.2,2c-4.3,5-8.8,9.5-13.4,13.4
		c8.8-0.3,17.4-0.6,25.9-0.9c-2-2.1-4-4.2-6-6.2L920.5,307.9z M926.8,324.9v19.5h-3.5v-2.8h-23.6v2.8h-3.5v-19.5H926.8z
		 M923.3,328.1h-23.6v10.4h23.6V328.1z"/>
	<path class="st74" d="M934.6,338.5h16.8V303h3.9v12.9H973v3.4h-17.7v19.1h21.1v3.4h-41.8V338.5z"/>
	<path class="st74" d="M983.6,328.2c2.5-0.4,5.6-0.9,9-1.5c-0.2,1.1-0.3,2.2-0.4,3.3c-4.8,0.7-9,1.4-12.6,2l-0.7-3.2
		c2-2.1,4.2-5.2,6.6-9.1c-2.3,0.1-4.5,0.3-6.6,0.5l-0.8-2.9c2.7-3.6,5.4-8.7,8.2-15.3l3.3,1.3c-3,5.8-5.5,10.4-7.6,13.8
		c1.7-0.1,3.4-0.1,5.2-0.2c1-1.8,2-3.7,3.1-5.7l3.2,1.6C990,318.8,986.7,323.9,983.6,328.2z M978.2,338.2c5-1.1,10.1-2.3,15.3-3.6
		c-0.1,1.1-0.1,2.2-0.1,3.3c-4.8,1.1-9.5,2.3-14.2,3.6L978.2,338.2z M991,341.2c5.4-1.9,10-4.2,14-6.7c-1-2.6-1.8-5.7-2.4-9.2
		l-9.2,1.3l-0.5-3.1l9.3-1.3c-0.2-2-0.4-4.1-0.5-6.4l-7.8,0.9l-0.5-3.1l8.1-0.9c-0.2-3-0.3-6.4-0.4-10.3h3.5c0.1,3.7,0.2,7,0.3,9.9
		l14.4-1.6l0.4,3.1l-14.6,1.7c0.1,2.3,0.3,4.4,0.5,6.4l14.8-2.1l0.4,3.1l-14.8,2.1c0.5,3,1.1,5.5,2,7.7c3-2.3,5.6-4.8,7.6-7.5
		l2.8,2.1c-2.6,3.1-5.6,5.9-9,8.4c1.1,2,2.4,3.5,4,4.5c1.9,1.1,3.1,0.5,3.7-1.7c0.4-1.8,0.7-3.9,0.9-6.1c1.3,0.6,2.4,1,3.3,1.2
		c-0.5,3.1-1,5.4-1.5,7c-0.8,2.4-2.2,3.7-4.3,3.7c-2.1,0-4-0.9-5.8-2.6c-1.2-1.1-2.2-2.5-3.1-4.1c-3.9,2.5-8.4,4.8-13.3,6.6
		C992.6,343.3,991.9,342.4,991,341.2z M1008.1,304.6l1.8-2.1c2,1.3,4.2,2.8,6.5,4.6l-2.1,2.5C1012.1,307.6,1010,305.9,1008.1,304.6z
		"/>
	<path class="st74" d="M1035.5,329.6c0.1,1.6,0.3,3,0.5,4.2c-1.9,1.8-3.8,3.7-5.8,5.7c-0.9,0.9-1.6,1.8-2.2,2.6l-2.4-2.8
		c1-1.1,1.5-2.5,1.5-4.1v-15.8h-5v-3.1h8.3v18.5C1031.9,333.4,1033.6,331.7,1035.5,329.6z M1026.3,303.3c2.6,2.5,4.8,4.9,6.8,7.1
		l-2.8,2.4c-1.8-2.4-3.9-4.8-6.4-7.4L1026.3,303.3z M1033.8,338.4c2.2-0.3,4.4-0.6,6.8-1v-13.3h-6.1V321h14.9v3.1h-5.5v12.8
		c2.2-0.4,4.6-0.8,7-1.2c-0.1,1.1-0.1,2.3-0.1,3.4c-6.3,1-11.6,1.9-16,2.7L1033.8,338.4z M1034.6,310.8h15.7c0-2.6,0-5.5,0-8.6h3.4
		c-0.1,3.4-0.1,6.3,0,8.6h10.6v3.1h-10.5c0.3,12.1,1.6,20.4,4.1,24.8c0.9,1.5,1.6,2.2,2.2,2.2c0.5,0,0.8-0.6,1-1.7
		c0.3-1.7,0.5-4,0.6-6.8c1.2,0.5,2.3,0.9,3.2,1.1c-0.4,3.2-0.7,5.7-1.1,7.4c-0.5,2.4-1.7,3.6-3.6,3.6c-1.6,0-3.2-1.1-4.8-3.3
		c-2.9-4.2-4.6-13.3-5-27.2h-15.8V310.8z M1055.3,305.2l2-2.1c2.3,1.7,4.1,3.2,5.5,4.5l-2.4,2.4
		C1058.8,308.3,1057.1,306.7,1055.3,305.2z"/>
	<path class="st74" d="M1084.4,339.8l12.6,0.3l11.9-0.5c-0.5,1.2-0.9,2.3-1.4,3.4l-12.8,0.1l-11-0.1c-4.6-0.1-8-1.8-10.3-5
		c-1.8,1.5-3.6,3.4-5.4,5.6l-1.8-3.7c0.1-0.1,2-1.7,5.7-4.9v-14.7h-5.5v-3.2h8.9v18.4C1077.5,338.3,1080.5,339.7,1084.4,339.8z
		 M1070.9,302.5c2.2,2.7,4.4,5.4,6.5,8.3l-3.1,2.1c-1.9-2.9-4-5.7-6.1-8.4L1070.9,302.5z M1095.1,323.7l2.7-1.7
		c3.2,4.2,6.1,8.3,8.6,12.2l-3.1,2.1c-0.6-1.1-1.3-2.2-2-3.3c-8.1,0.5-14,1-17.5,1.5c-1,0.1-2,0.4-3.1,0.7l-1.6-3.1
		c1.1-0.8,2-1.7,2.8-2.8c1.9-3,3.9-6.4,5.8-10.3h-9.2v-3.3h29.4v3.3h-16.2c-2.5,4.6-4.9,8.6-7.2,12c4.4-0.3,9.3-0.6,14.8-0.9
		C1098.1,328,1096.7,325.9,1095.1,323.7z M1081.5,304.8h24.1v3.3h-24.1V304.8z"/>
	<path class="st74" d="M1110.1,328c4.4-3.6,8.5-8.8,12.1-15.3l3,1.8c-1.5,2.5-3,4.9-4.7,7.2v22.8h-3.6v-18.3
		c-1.7,1.9-3.5,3.7-5.4,5.4C1111.2,330.2,1110.7,329.1,1110.1,328z M1110.4,314.4c4.6-3.5,8.2-7.6,11-12.3l3.1,1.9
		c-3.3,5.1-7.4,9.7-12.4,13.7C1111.6,316.6,1111,315.5,1110.4,314.4z M1125.7,318.3h27.2v3.2h-8.3v16.8c0,3.6-1.8,5.3-5.4,5.3
		c-2.4,0-4.9,0-7.3,0c-0.2-1.1-0.4-2.4-0.6-3.9c2.2,0.2,4.5,0.3,6.7,0.3c2,0,3-1,3-2.9v-15.6h-15.2V318.3z M1128.2,305.4h22.3v3.2
		h-22.3V305.4z"/>
</g>
<g class="st73">
	<path class="st75" d="M547.2,207.7l-5.3,13.4h-14.5l5.5-13.4H547.2z M560.2,154.8l-3.1,5.6h-5.2V171l7.8-2v5.8l-7.8,1.9v24.7h-18
		l-3.2-5.6h7.6V180l-9.6,2.4v-5.6l9.6-2.4v-13.9h-9.6v-5.6h9.6v-6.8h13.7v6.8H560.2z M571,207.7l5.4,13.4h-14.3l-5.5-13.4H571z
		 M618.5,154.8v40.9h8.9l-3.1,5.6h-19.4v-40.9h-15.1l-5,20.5l6,1.3v5.8l-7.3-1.7l-3.6,15h-13.7l4.4-18l-5.6-1.3v-5.8l7,1.7l4.2-17.5
		h-8.6v-5.6h10.1l1.7-6.8h13.7l-1.7,6.8H618.5z M596.2,207.7l5.4,13.4h-14.4l-5.5-13.4H596.2z M621.3,207.7l5.4,13.4h-14.3
		l-5.5-13.4H621.3z"/>
	<path class="st75" d="M699.1,180.6l-29.5,20.2h-16.7l32.5-24.4v-11.2h-38.2l8.2-11.6h-9.6v-5.6H708l-3.2,5.6h-33.7l-4.6,6.2h32.6
		V180.6z M654.3,204.7h13.9l-7.7,16.4h-14L654.3,204.7z M654.4,187.3l-6.1-16.2h13.9l6,16.2H654.4z M692.2,204.7l7.6,16.4h-13.9
		l-7.8-16.4H692.2z M716.7,204.7l7.5,16.4H710l-7.7-16.4H716.7z M724.1,189.1h-13.3v-35h13.3V189.1z M719.9,195.1h15v-47.3h13.7
		v52.9h-26.1L719.9,195.1z M748.9,221.1h-13.9l-7.6-16.4h13.8L748.9,221.1z"/>
	<path class="st75" d="M827.7,153.1h38.8l-4.2,5.6h-75.4v43.2l-4.7,19.6h-13.7l4.4-20.1v-48.3h41v-5.5h13.7V153.1z M824.8,165.4
		l17.3,0.1l-6.4,9.4h28.4l-3,6h-29.4l-26.5,39.4h-17.6l26.6-39.4h-23.5v-6h27.6L824.8,165.4z M865.6,220.3h-17.5l-19-25.4h17.6
		L865.6,220.3z"/>
	<path class="st75" d="M925.7,155.6l-13.4,25.1l0.1,0.6h7.7l5.5,21.5h-10.6l-0.8-3.2v21.8h-13.2v-20l-1.1,2.2h-13.1l22-42.1h-18.4
		v-5.8l10.7,0.1v-8h13.3v8L925.7,155.6z M975.1,215.8h13l-3.1,5.4h-23.5v-31.7h-12.1V209l-9.3,12.2h-13.6l9.2-12.2v-19.4h-8.2v-40.7
		H972l-3.1,6h-27.7v28.8H972v-34.8h13.7v40.7h-10.6V215.8z"/>
</g>
</svg>
