<svg xmlns="http://www.w3.org/2000/svg" xmlns:xlink="http://www.w3.org/1999/xlink" width="1920" height="495" viewBox="0 0 1920 495">
  <defs>
    <linearGradient id="linear-gradient" x1="0.197" y1="1.67" x2="0.764" y2="-0.46" gradientUnits="objectBoundingBox">
      <stop offset="0" stop-color="#29e6fb"/>
      <stop offset="0.048" stop-color="#26e6fb" stop-opacity="0.937"/>
      <stop offset="0.319" stop-color="#19e7fc" stop-opacity="0.608"/>
      <stop offset="0.56" stop-color="#0ee7fd" stop-opacity="0.349"/>
      <stop offset="0.76" stop-color="#07e8fe" stop-opacity="0.161"/>
      <stop offset="0.913" stop-color="#02e8fe" stop-opacity="0.043"/>
      <stop offset="1" stop-color="#01e9ff" stop-opacity="0"/>
    </linearGradient>
    <linearGradient id="linear-gradient-2" x1="0.303" y1="1.172" x2="0.572" y2="0.228" gradientUnits="objectBoundingBox">
      <stop offset="0" stop-color="#29e6fb" stop-opacity="0.502"/>
      <stop offset="1" stop-color="#01e9ff" stop-opacity="0.102"/>
    </linearGradient>
    <linearGradient id="linear-gradient-3" x1="0.15" y1="0.809" x2="1.548" y2="-0.273" gradientUnits="objectBoundingBox">
      <stop offset="0" stop-color="#29e6fb" stop-opacity="0.302"/>
      <stop offset="1" stop-color="#01e9ff" stop-opacity="0"/>
    </linearGradient>
    <linearGradient id="linear-gradient-4" x1="1.011" y1="1" x2="0.016" y2="0.025" gradientUnits="objectBoundingBox">
      <stop offset="0" stop-color="#2578eb"/>
      <stop offset="1" stop-color="#114fa5"/>
    </linearGradient>
    <linearGradient id="linear-gradient-5" x1="-12.833" y1="0.5" x2="-11.833" y2="0.5" gradientUnits="objectBoundingBox">
      <stop offset="0" stop-color="#55ffe9"/>
      <stop offset="1" stop-color="#4c65f6"/>
    </linearGradient>
    <linearGradient id="linear-gradient-6" x1="-13.23" y1="0.5" x2="-12.23" y2="0.5" xlink:href="#linear-gradient-5"/>
    <linearGradient id="linear-gradient-7" x1="-35.318" y1="0.5" x2="-34.318" y2="0.5" gradientUnits="objectBoundingBox">
      <stop offset="0" stop-color="#fff" stop-opacity="0.8"/>
      <stop offset="0.204" stop-color="#bef9ff" stop-opacity="0.596"/>
      <stop offset="0.483" stop-color="#6df2ff" stop-opacity="0.341"/>
      <stop offset="0.718" stop-color="#32edff" stop-opacity="0.157"/>
      <stop offset="0.898" stop-color="#0eeaff" stop-opacity="0.043"/>
      <stop offset="1" stop-color="#01e9ff" stop-opacity="0"/>
    </linearGradient>
    <linearGradient id="linear-gradient-8" x1="-226.141" y1="0.5" x2="-225.141" y2="0.5" xlink:href="#linear-gradient-7"/>
    <clipPath id="clip-path">
      <path id="路径_13929" data-name="路径 13929" d="M1154.738,376.042q31.989,18.592,63.977,37.19c-8.7-5.06-19.9-5.816-32.438-1.592L1122.3,374.457C1134.834,370.24,1146.031,370.991,1154.738,376.042Z" transform="translate(-1122.296 -371.719)" fill="url(#linear-gradient)"/>
    </clipPath>
    <linearGradient id="linear-gradient-15" x1="0.904" y1="-0.009" x2="0.071" y2="0.817" gradientUnits="objectBoundingBox">
      <stop offset="0" stop-color="#29e6fb" stop-opacity="0.8"/>
      <stop offset="0.195" stop-color="#1fe6fb" stop-opacity="0.604"/>
      <stop offset="0.477" stop-color="#12e7fd" stop-opacity="0.349"/>
      <stop offset="0.715" stop-color="#08e8fe" stop-opacity="0.2"/>
      <stop offset="0.896" stop-color="#03e8fe" stop-opacity="0.149"/>
      <stop offset="1" stop-color="#01e9ff" stop-opacity="0.102"/>
    </linearGradient>
    <clipPath id="clip-path-2">
      <path id="路径_13934" data-name="路径 13934" d="M611.946,716.426l-63.979-37.177c3.1-28.175,22.573-59.747,46.3-73.7l63.987,37.183C634.517,656.677,615.053,688.254,611.946,716.426Z" transform="translate(-547.967 -605.547)" fill="url(#linear-gradient-2)"/>
    </clipPath>
    <clipPath id="clip-path-3">
      <path id="路径_13937" data-name="路径 13937" d="M489.935,979.838l-63.979-37.176c-8.321-4.841-13.474-15.115-13.517-29.737-.077-28.429,19.233-62.753,43.618-78.378l63.979,37.178c-24.385,15.635-43.7,49.958-43.616,78.385C476.464,964.717,481.622,975.007,489.935,979.838Z" transform="translate(-412.439 -834.547)" fill="url(#linear-gradient-3)"/>
    </clipPath>
    <linearGradient id="linear-gradient-20" x1="1" y1="0.5" x2="0" y2="0.5" gradientUnits="objectBoundingBox">
      <stop offset="0" stop-color="#29e6fb" stop-opacity="0.8"/>
      <stop offset="0.195" stop-color="#1fe6fb" stop-opacity="0.604"/>
      <stop offset="0.477" stop-color="#12e7fd" stop-opacity="0.349"/>
      <stop offset="0.715" stop-color="#08e8fe" stop-opacity="0.161"/>
      <stop offset="0.896" stop-color="#03e8fe" stop-opacity="0.043"/>
      <stop offset="1" stop-color="#01e9ff" stop-opacity="0"/>
    </linearGradient>
    <linearGradient id="linear-gradient-21" x1="-31.913" y1="4.426" x2="16.347" y2="-1.42" gradientUnits="objectBoundingBox">
      <stop offset="0" stop-color="#29e6fb" stop-opacity="0.8"/>
      <stop offset="0.264" stop-color="#2fb1fc" stop-opacity="0.8"/>
      <stop offset="0.598" stop-color="#3676fd" stop-opacity="0.8"/>
      <stop offset="0.854" stop-color="#3a52fe" stop-opacity="0.8"/>
      <stop offset="1" stop-color="#3c45ff" stop-opacity="0.8"/>
    </linearGradient>
    <linearGradient id="linear-gradient-22" y1="0.5" x2="1" y2="0.5" gradientUnits="objectBoundingBox">
      <stop offset="0" stop-color="#00c9ff"/>
      <stop offset="1" stop-color="#3f4cff"/>
    </linearGradient>
    <linearGradient id="linear-gradient-23" y1="0.5" x2="1" y2="0.5" gradientUnits="objectBoundingBox">
      <stop offset="0" stop-color="#3462ff"/>
      <stop offset="0.527" stop-color="#00c9ff"/>
      <stop offset="1" stop-color="#3f4cff"/>
    </linearGradient>
    <linearGradient id="linear-gradient-26" x1="0.548" y1="0.075" x2="0.44" y2="1.038" gradientUnits="objectBoundingBox">
      <stop offset="0" stop-color="#00e5db" stop-opacity="0"/>
      <stop offset="1" stop-color="#0082ff"/>
    </linearGradient>
    <linearGradient id="linear-gradient-27" x1="0.56" y1="0.075" x2="0.424" y2="1.038" gradientUnits="objectBoundingBox">
      <stop offset="0" stop-color="#00e5db" stop-opacity="0"/>
      <stop offset="0.988" stop-color="#0082ff"/>
    </linearGradient>
    <linearGradient id="linear-gradient-28" y1="0.5" x2="1" y2="0.5" gradientUnits="objectBoundingBox">
      <stop offset="0" stop-color="#00c9ff"/>
      <stop offset="1" stop-color="#00fff7"/>
    </linearGradient>
    <linearGradient id="linear-gradient-29" y1="0.5" x2="1" y2="0.5" gradientUnits="objectBoundingBox">
      <stop offset="0" stop-color="#00a2ff"/>
      <stop offset="1" stop-color="#00d0ff"/>
    </linearGradient>
    <linearGradient id="linear-gradient-38" y1="0.5" x2="1" y2="0.5" gradientUnits="objectBoundingBox">
      <stop offset="0" stop-color="#00f9ff" stop-opacity="0.6"/>
      <stop offset="1" stop-color="#0043ff" stop-opacity="0.8"/>
    </linearGradient>
    <linearGradient id="linear-gradient-40" y1="0.5" x2="1.868" y2="0.5" gradientUnits="objectBoundingBox">
      <stop offset="0" stop-color="#9efffc"/>
      <stop offset="1" stop-color="#fff"/>
    </linearGradient>
    <linearGradient id="linear-gradient-41" y1="0.5" x2="2.615" y2="0.5" gradientUnits="objectBoundingBox">
      <stop offset="0" stop-color="#00f9ff"/>
      <stop offset="1" stop-color="#0043ff"/>
    </linearGradient>
    <linearGradient id="linear-gradient-42" y1="0.5" x2="1" y2="0.5" gradientUnits="objectBoundingBox">
      <stop offset="0" stop-color="#8200ff"/>
      <stop offset="1" stop-color="#4400e8"/>
    </linearGradient>
    <linearGradient id="linear-gradient-44" x1="0" y1="0.5" x2="1" y2="0.5" xlink:href="#linear-gradient-40"/>
    <linearGradient id="linear-gradient-53" x1="0" y1="0.5" x2="1" y2="0.5" xlink:href="#linear-gradient-41"/>
    <linearGradient id="linear-gradient-54" x1="0.246" y1="0.54" x2="3.241" y2="-0.031" xlink:href="#linear-gradient-40"/>
    <linearGradient id="linear-gradient-55" y1="0.5" x2="1" y2="0.5" gradientUnits="objectBoundingBox">
      <stop offset="0" stop-color="#abffff"/>
      <stop offset="1" stop-color="#38b5f2"/>
    </linearGradient>
    <linearGradient id="linear-gradient-58" y1="0.5" x2="1" y2="0.5" gradientUnits="objectBoundingBox">
      <stop offset="0" stop-color="#00e9d9"/>
      <stop offset="1" stop-color="#0082ff"/>
    </linearGradient>
    <linearGradient id="linear-gradient-59" x1="0.457" y1="0.167" x2="0.547" y2="0.865" xlink:href="#linear-gradient-58"/>
    <linearGradient id="linear-gradient-62" x1="0.457" y1="0.167" x2="0.547" y2="0.865" xlink:href="#linear-gradient-58"/>
  </defs>
  <g id="banner1" transform="translate(0 -116)">
    <g id="图层_2" data-name="图层 2" transform="translate(3243 111)">
      <rect id="矩形_371" data-name="矩形 371" width="1920" height="495" transform="translate(-3243 5)" fill="url(#linear-gradient-4)"/>
    </g>
    <g id="组_9862" data-name="组 9862" transform="translate(12690.613 -7947.608)">
      <g id="图层_1" data-name="图层 1" transform="translate(-11474.168 8157.37)">
        <g id="组_9590" data-name="组 9590" transform="translate(131.543 95.548)">
          <g id="组_9586" data-name="组 9586" opacity="0.34">
            <path id="路径_14006" data-name="路径 14006" d="M892.066,677.407a7.555,7.555,0,0,0-3.415,5.914l.167,58.7c.006,2.165,1.553,3.046,3.437,1.958l77.761-44.9a7.554,7.554,0,0,0,3.416-5.915l-.167-58.7c-.006-2.165-1.553-3.047-3.438-1.958Z" transform="translate(-888.651 -632.045)" fill="url(#linear-gradient-5)"/>
          </g>
          <g id="组_9587" data-name="组 9587" transform="translate(16.839 5.086)" opacity="0.24">
            <path id="路径_14007" data-name="路径 14007" d="M944.386,693.21a7.554,7.554,0,0,0-3.415,5.914l.167,58.7c.006,2.165,1.553,3.046,3.437,1.958l77.761-44.9a7.554,7.554,0,0,0,3.415-5.915l-.166-58.7c-.006-2.165-1.553-3.046-3.438-1.958Z" transform="translate(-940.971 -647.848)" fill="url(#linear-gradient-6)"/>
          </g>
          <g id="组_9588" data-name="组 9588" transform="translate(24.403 37.937)" opacity="0.18">
            <path id="路径_14008" data-name="路径 14008" d="M966.643,806.533l26.6-15.4c1.2-.691,2.179-.131,2.183,1.243l.106,1.587a4.8,4.8,0,0,1-2.169,3.756l-26.6,15.4c-1.2.691-2.178.131-2.182-1.244l-.106-1.587A4.8,4.8,0,0,1,966.643,806.533Z" transform="translate(-964.475 -777.665)" fill="#55faff"/>
            <path id="路径_14009" data-name="路径 14009" d="M1069.18,779.8l.571-.328c1.2-.691,2.179-.131,2.183,1.243l.106,1.587a4.8,4.8,0,0,1-2.169,3.756l-.572.328c-1.2.691-2.178.131-2.182-1.244l-.105-1.587A4.794,4.794,0,0,1,1069.18,779.8Z" transform="translate(-1034.011 -769.757)" fill="#55faff"/>
            <path id="路径_14010" data-name="路径 14010" d="M993.368,768.463l-26.6,15.4c-1.2.691-2.178.131-2.182-1.244l-.106-1.587a4.8,4.8,0,0,1,2.168-3.755l26.6-15.4c1.2-.691,2.179-.131,2.183,1.243l.106,1.587A4.8,4.8,0,0,1,993.368,768.463Z" transform="translate(-964.475 -757.827)" fill="#55faff"/>
            <path id="路径_14011" data-name="路径 14011" d="M1069.18,750.544l.571-.328c1.2-.691,2.179-.131,2.183,1.243l.106,1.587a4.8,4.8,0,0,1-2.169,3.755l-.572.328c-1.2.691-2.178.131-2.182-1.244l-.105-1.587A4.8,4.8,0,0,1,1069.18,750.544Z" transform="translate(-1034.011 -749.92)" fill="#55faff"/>
            <path id="路径_14012" data-name="路径 14012" d="M1069.18,807.077l.571-.328c1.2-.691,2.179-.131,2.183,1.243l.106,1.587a4.8,4.8,0,0,1-2.169,3.756l-.572.328c-1.2.691-2.178.131-2.182-1.243l-.105-1.587A4.8,4.8,0,0,1,1069.18,807.077Z" transform="translate(-1034.011 -788.258)" fill="#55faff"/>
            <path id="路径_14013" data-name="路径 14013" d="M966.643,832.047l26.6-15.4c1.2-.691,2.179-.131,2.183,1.243l.106,1.587a4.8,4.8,0,0,1-2.169,3.756l-26.6,15.4c-1.2.691-2.178.131-2.182-1.243l-.106-1.587A4.8,4.8,0,0,1,966.643,832.047Z" transform="translate(-964.475 -794.968)" fill="#55faff"/>
          </g>
          <g id="组_9589" data-name="组 9589" transform="translate(31.37 40.663)">
            <path id="路径_14014" data-name="路径 14014" d="M988.29,815l26.6-15.4c1.2-.691,2.179-.131,2.183,1.243l.106,1.587a4.8,4.8,0,0,1-2.169,3.755l-26.6,15.4c-1.2.691-2.178.131-2.182-1.244l-.106-1.587A4.8,4.8,0,0,1,988.29,815Z" transform="translate(-986.122 -786.136)" fill="url(#linear-gradient-7)"/>
            <path id="路径_14015" data-name="路径 14015" d="M1090.827,788.267l.572-.328c1.2-.691,2.179-.131,2.183,1.243l.105,1.587a4.8,4.8,0,0,1-2.168,3.755l-.572.328c-1.2.691-2.178.131-2.182-1.243l-.105-1.587A4.8,4.8,0,0,1,1090.827,788.267Z" transform="translate(-1055.659 -778.228)" fill="url(#linear-gradient-8)"/>
            <path id="路径_14016" data-name="路径 14016" d="M1015.015,776.935l-26.6,15.4c-1.2.691-2.178.131-2.182-1.244l-.106-1.587a4.8,4.8,0,0,1,2.168-3.755l26.6-15.4c1.2-.691,2.179-.131,2.183,1.243l.106,1.587A4.8,4.8,0,0,1,1015.015,776.935Z" transform="translate(-986.122 -766.3)" fill="url(#linear-gradient-7)"/>
            <path id="路径_14017" data-name="路径 14017" d="M1090.827,759.016l.572-.328c1.2-.691,2.179-.131,2.183,1.243l.105,1.587a4.8,4.8,0,0,1-2.168,3.756l-.572.328c-1.2.691-2.178.131-2.182-1.244l-.105-1.587A4.8,4.8,0,0,1,1090.827,759.016Z" transform="translate(-1055.659 -758.392)" fill="url(#linear-gradient-8)"/>
            <path id="路径_14018" data-name="路径 14018" d="M1090.827,815.549l.572-.328c1.2-.691,2.179-.132,2.183,1.243l.105,1.587a4.8,4.8,0,0,1-2.168,3.755l-.572.328c-1.2.69-2.178.13-2.182-1.244l-.105-1.587A4.8,4.8,0,0,1,1090.827,815.549Z" transform="translate(-1055.659 -796.73)" fill="url(#linear-gradient-8)"/>
            <path id="路径_14019" data-name="路径 14019" d="M988.29,840.518l26.6-15.4c1.2-.691,2.179-.131,2.183,1.243l.106,1.587a4.8,4.8,0,0,1-2.169,3.755l-26.6,15.4c-1.2.691-2.178.131-2.182-1.243l-.106-1.587A4.8,4.8,0,0,1,988.29,840.518Z" transform="translate(-986.122 -803.44)" fill="url(#linear-gradient-7)"/>
          </g>
        </g>
        <g id="组_9513" data-name="组 9513" transform="translate(0 0)">
          <g id="组_9504" data-name="组 9504" transform="translate(228.46 32.737)">
            <path id="路径_13927" data-name="路径 13927" d="M1154.738,376.042q31.989,18.592,63.977,37.19c-8.7-5.06-19.9-5.816-32.438-1.592L1122.3,374.457C1134.834,370.24,1146.031,370.991,1154.738,376.042Z" transform="translate(-1122.296 -371.719)" fill="url(#linear-gradient)"/>
            <g id="组_9503" data-name="组 9503" clip-path="url(#clip-path)">
              <g id="组_9502" data-name="组 9502">
                <path id="路径_13928" data-name="路径 13928" d="M1186.277,411.64,1122.3,374.457c12.538-4.217,23.734-3.466,32.442,1.585l63.977,37.19c-8.7-5.06-19.9-5.816-32.438-1.592Z" transform="translate(-1122.296 -371.719)" fill="url(#linear-gradient)"/>
              </g>
            </g>
          </g>
          <path id="路径_13931" data-name="路径 13931" d="M811.03,274.827c-13.024-7.561-31.05-6.491-50.945,4.994-32.2,18.59-59.348,58.725-68.263,97.527l63.987,37.183c8.912-38.8,36.063-78.939,68.261-97.524,19.89-11.495,37.92-12.56,50.928-5Q843.019,293.416,811.03,274.827Z" transform="translate(-601.906 -270)" fill="url(#linear-gradient-15)"/>
          <g id="组_9508" data-name="组 9508" transform="translate(43.618 107.992)">
            <path id="路径_13932" data-name="路径 13932" d="M611.946,716.426l-63.979-37.177c3.1-28.175,22.573-59.747,46.3-73.7l63.987,37.183C634.517,656.677,615.053,688.254,611.946,716.426Z" transform="translate(-547.967 -605.547)" fill="url(#linear-gradient-2)"/>
            <g id="组_9507" data-name="组 9507" clip-path="url(#clip-path-2)">
              <g id="组_9506" data-name="组 9506">
                <path id="路径_13933" data-name="路径 13933" d="M611.946,716.426l-63.979-37.177c3.1-28.175,22.573-59.747,46.3-73.7l63.987,37.183c-23.735,13.947-43.2,45.524-46.306,73.7Z" transform="translate(-547.967 -605.547)" fill="url(#linear-gradient-2)"/>
              </g>
            </g>
          </g>
          <g id="组_9511" data-name="组 9511" transform="translate(0 181.693)">
            <path id="路径_13935" data-name="路径 13935" d="M489.935,979.838l-63.979-37.176c-8.321-4.841-13.474-15.115-13.517-29.737-.077-28.429,19.233-62.753,43.618-78.378l63.979,37.178c-24.385,15.635-43.7,49.958-43.616,78.385C476.464,964.717,481.622,975.007,489.935,979.838Z" transform="translate(-412.439 -834.547)" fill="url(#linear-gradient-3)"/>
            <g id="组_9510" data-name="组 9510" clip-path="url(#clip-path-3)">
              <g id="组_9509" data-name="组 9509">
                <path id="路径_13936" data-name="路径 13936" d="M489.935,979.838l-63.979-37.176c-8.321-4.841-13.474-15.115-13.517-29.737-.077-28.429,19.233-62.753,43.618-78.378l63.979,37.178c-24.385,15.635-43.7,49.958-43.616,78.385.044,14.608,5.2,24.9,13.515,29.728Z" transform="translate(-412.439 -834.547)" fill="url(#linear-gradient-3)"/>
              </g>
            </g>
          </g>
          <g id="组_9512" data-name="组 9512" transform="translate(63.981 37.826)">
            <path id="路径_13938" data-name="路径 13938" d="M769.42,397.357c34.536-19.942,63.426-8.5,70.277,25.008,29.108-9.8,51.038,7.2,51.135,42.708.115,40.706-28.484,90.255-63.907,110.7-27.159,15.677-146.207,84.414-169.191,97.685-25.6,14.782-46.411,2.919-46.5-26.5-.079-28.427,19.231-62.75,43.616-78.385,3.107-28.172,22.572-59.749,46.306-73.7C710.072,456.076,737.222,415.942,769.42,397.357Z" transform="translate(-611.237 -387.532)" fill="none" stroke="#05f" stroke-miterlimit="10" stroke-width="2"/>
          </g>
          <path id="路径_13939" data-name="路径 13939" d="M839.924,428.3c-3.421-16.728-11.068-28.081-25.013-33.2,8.168,7.651,13.117,20.907,13.163,37.593.115,40.706-28.484,90.255-63.907,110.7-22.385,12.921-107.19,61.886-149.183,86.133a79.368,79.368,0,0,0-3.746,23.351c.085,29.42,23.806,36.945,46,24.9,22.984-13.27,141.151-81.752,168.31-97.428,34.036-17.985,65.4-68.657,65.29-109.363C890.735,435.488,871.62,417.841,839.924,428.3Z" transform="translate(-548.359 -354.203)" fill="url(#linear-gradient-20)"/>
        </g>
        <g id="组_9628" data-name="组 9628" transform="translate(376.243 288.387)">
          <path id="路径_14171" data-name="路径 14171" d="M1585.493,1166.058l-.021,7.388-3.992,2.32.021-7.388Z" transform="translate(-1581.479 -1166.058)" fill="url(#linear-gradient-21)"/>
        </g>
        <g id="组_9849" data-name="组 9849" transform="translate(240.237 159.152)">
          <g id="组_9846" data-name="组 9846" transform="translate(0.026 117.864)">
            <path id="路径_3787" data-name="路径 3787" d="M1591.913,1473.648c5.215,3.011,5.243,7.939.059,10.951l-38.25,22.229c-5.181,3.011-13.69,3.011-18.9,0l-38.5-22.23c-5.215-3.011-5.243-7.939-.062-10.95l38.25-22.229c5.184-3.012,13.692-3.012,18.907,0Z" transform="translate(-1492.384 -1449.16)" fill="url(#linear-gradient-22)"/>
          </g>
          <path id="路径_14518" data-name="路径 14518" d="M1595.788,1529.377c0,.068-.008.136-.015.2s-.014.117-.022.175-.02.135-.032.2-.024.117-.037.176-.03.132-.048.2-.033.117-.051.175-.042.131-.065.2-.042.115-.065.172-.056.136-.086.2-.051.113-.078.169-.068.135-.1.2-.058.108-.09.162c-.047.08-.1.16-.148.24-.03.047-.059.094-.091.14-.062.091-.129.182-.2.272-.026.033-.049.067-.074.1-.108.136-.225.271-.347.4-.033.036-.069.072-.1.107q-.143.15-.3.3-.07.067-.143.134c-.062.056-.126.111-.191.166s-.122.1-.184.154-.136.108-.206.161-.132.1-.2.15-.147.1-.222.156-.142.1-.215.145-.158.1-.238.151c-.1.063-.2.127-.309.189h0l-38.25,22.229c-.289.168-.591.323-.9.472-.08.039-.16.076-.241.114-.284.131-.573.255-.87.371-.032.013-.063.027-.1.039-.311.118-.632.225-.955.327-.224.07-.456.133-.686.2-.176.048-.35.1-.528.142-.241.058-.487.107-.734.157-.183.037-.363.078-.548.111-.079.014-.159.025-.238.038q-.457.075-.92.13c-.089.011-.178.023-.268.032q-.542.058-1.088.09l-.206.01c-.242.012-.485.015-.728.02s-.5.007-.743,0c-.2,0-.406-.009-.609-.017-.229-.009-.458-.021-.686-.037q-.309-.021-.615-.051-.339-.033-.675-.075-.3-.038-.6-.084c-.24-.037-.477-.079-.713-.124s-.484-.091-.722-.145l-.181-.041c-.341-.081-.677-.172-1.008-.27-.093-.027-.185-.057-.277-.086q-.412-.129-.81-.276c-.079-.029-.159-.056-.238-.087-.242-.093-.475-.2-.708-.3-.114-.051-.232-.1-.344-.149-.335-.159-.661-.328-.974-.508l-38.5-22.23c-2.624-1.515-3.935-3.516-3.929-5.513l-.026,9.158c-.006,2,1.3,4,3.929,5.514l38.5,22.23c.313.181.639.349.974.508.112.053.23.1.344.15.2.087.389.177.591.257.038.015.078.027.116.043.079.03.159.057.239.087q.4.146.809.275c.092.029.183.058.276.086.06.018.117.038.177.055.274.078.552.148.832.215l.181.041c.127.029.253.059.382.086.112.023.228.038.34.059.236.045.473.087.712.124.093.014.184.035.277.048s.214.022.321.036q.336.042.674.075c.1.01.208.026.312.035s.2.01.3.016c.228.016.456.028.686.037.113,0,.224.015.337.018.091,0,.182,0,.273,0,.248,0,.495,0,.742,0,.121,0,.243,0,.365,0s.243-.012.365-.018l.2-.011c.308-.018.617-.04.924-.071l.165-.02c.09-.009.178-.021.268-.032q.464-.055.922-.13c.079-.013.158-.024.237-.038l.12-.019c.145-.026.286-.063.429-.092.245-.05.492-.1.733-.156.179-.043.353-.094.529-.142.23-.062.459-.125.684-.195.051-.016.105-.028.156-.045.271-.088.537-.182.8-.282l.094-.039c.3-.115.587-.24.871-.371.081-.038.162-.075.242-.115.308-.149.61-.3.9-.471l38.251-22.229.161-.095c.051-.031.1-.063.148-.094.08-.05.161-.1.238-.151s.144-.1.214-.145.15-.1.222-.156.134-.1.2-.15.139-.107.206-.161.124-.1.185-.154.129-.11.191-.166c.024-.022.051-.043.074-.065s.045-.045.068-.068c.1-.1.2-.2.3-.3.034-.036.07-.071.1-.107.122-.133.238-.268.346-.4l.011-.013c.023-.029.042-.058.064-.087.069-.09.136-.181.2-.272.032-.046.061-.093.091-.14.052-.08.1-.16.149-.24.012-.02.026-.04.037-.061s.034-.068.053-.1c.036-.067.071-.135.1-.2s.053-.112.078-.168.059-.136.086-.2c.012-.029.026-.058.036-.087s.019-.057.028-.085c.024-.065.045-.131.065-.2s.036-.117.051-.175.033-.132.048-.2c.008-.034.018-.068.025-.1s.007-.049.012-.073q.018-.1.032-.2c.008-.058.016-.116.022-.174s.011-.136.015-.2c0-.039.007-.078.008-.117s0-.079,0-.118l.026-9.158C1595.8,1529.22,1595.793,1529.3,1595.788,1529.377Z" transform="translate(-1492.315 -1381.277)" fill="url(#linear-gradient-23)"/>
          <path id="路径_14519" data-name="路径 14519" d="M1598.455,1496.686c0,.063-.007.126-.013.189s-.013.108-.02.161-.018.125-.029.187-.022.108-.034.162-.028.122-.045.183-.031.108-.047.162-.038.121-.06.181-.039.106-.06.159-.052.126-.08.188-.047.1-.072.156-.063.125-.1.187-.054.1-.083.15c-.043.074-.089.148-.137.221-.027.043-.054.087-.084.13-.058.084-.12.168-.183.251-.023.031-.045.062-.069.092-.1.126-.207.25-.32.373l-.095.1c-.089.093-.18.184-.276.274-.044.041-.087.083-.132.123s-.116.1-.176.153-.112.1-.17.143-.126.1-.19.149-.122.092-.184.138-.136.1-.2.144-.131.09-.2.134-.146.093-.22.139c-.094.059-.187.118-.285.175h0l-35.311,20.521c-.266.155-.545.3-.83.435l-.223.105c-.262.121-.529.235-.8.342l-.089.036c-.287.109-.583.207-.881.3-.208.065-.421.123-.633.18-.162.044-.323.091-.487.131-.223.054-.45.1-.677.145-.169.034-.335.072-.506.1-.073.013-.147.023-.22.035q-.421.069-.849.119c-.083.01-.165.021-.248.03q-.5.054-1,.084l-.189.009c-.224.011-.448.015-.672.019s-.457.006-.686,0c-.188,0-.375-.008-.562-.015q-.318-.012-.634-.034-.285-.02-.568-.047-.313-.03-.623-.07c-.185-.023-.368-.049-.551-.077-.221-.034-.44-.073-.658-.114s-.447-.084-.666-.134l-.167-.038q-.472-.112-.931-.249c-.086-.025-.17-.052-.255-.079q-.379-.119-.747-.254c-.073-.027-.147-.053-.219-.08-.224-.086-.439-.182-.654-.277-.105-.047-.214-.089-.317-.138-.31-.147-.611-.3-.9-.469l-35.544-20.521c-2.423-1.4-3.633-3.246-3.627-5.09l-.024,8.455c-.005,1.844,1.2,3.691,3.627,5.089l35.544,20.521c.289.167.59.323.9.469.1.049.212.091.318.138.181.08.359.164.546.237.035.014.072.026.107.039.072.028.147.053.22.081q.367.135.747.254c.085.027.169.054.255.079.055.016.108.035.163.05.253.072.509.137.768.2l.167.038c.117.027.234.055.352.079.1.022.211.035.314.055.218.042.437.08.658.115.086.013.17.032.255.044s.2.021.3.033c.207.026.413.049.622.069.1.009.192.024.289.032s.186.008.28.015c.211.015.422.026.633.034.1,0,.207.014.311.016.084,0,.167,0,.251,0,.229,0,.457,0,.685,0,.112,0,.224,0,.337,0s.224-.012.337-.017l.189-.009c.285-.017.57-.037.852-.065.051-.005.1-.013.153-.018l.247-.029q.428-.051.851-.12c.073-.012.146-.022.219-.035l.111-.017c.134-.025.263-.058.4-.085.227-.046.454-.091.676-.145.165-.04.326-.086.489-.131.212-.058.424-.115.632-.18.047-.015.1-.026.144-.041q.376-.121.738-.26l.087-.035c.275-.107.542-.222.8-.343q.113-.051.224-.105c.284-.138.563-.281.829-.435l35.311-20.52.148-.088c.047-.028.091-.058.137-.087.074-.046.148-.092.22-.139s.133-.089.2-.134l.2-.144c.063-.046.124-.092.184-.139s.128-.1.19-.149.114-.095.17-.142.119-.1.176-.154c.023-.02.047-.04.069-.06s.041-.042.063-.063q.144-.136.276-.275l.095-.1c.113-.123.22-.247.32-.374l.01-.012c.021-.026.038-.054.059-.081.063-.083.125-.167.183-.251.03-.043.056-.086.084-.13.047-.073.094-.147.137-.221.011-.019.024-.037.034-.056s.032-.062.048-.094c.033-.062.066-.124.1-.187s.049-.1.072-.155.055-.126.08-.189c.01-.026.024-.052.034-.08s.017-.053.026-.079c.021-.06.041-.121.06-.181s.032-.108.047-.162.031-.122.045-.183c.007-.032.017-.063.023-.095s.007-.045.011-.067c.011-.062.021-.125.029-.187s.015-.108.02-.161.01-.126.013-.189c0-.036.007-.072.008-.108s0-.073,0-.109l.024-8.454C1598.464,1496.541,1598.459,1496.613,1598.455,1496.686Z" transform="translate(-1498.958 -1360.844)" fill="#171791"/>
          <g id="组_9847" data-name="组 9847" transform="translate(0.026 95.971)">
            <path id="路径_3790" data-name="路径 3790" d="M1591.913,1415.189c5.215,3.011,5.243,7.939.059,10.951l-38.25,22.229c-5.181,3.011-13.69,3.011-18.9,0l-38.5-22.23c-5.215-3.011-5.243-7.939-.062-10.95l38.25-22.229c5.184-3.012,13.692-3.012,18.907,0Z" transform="translate(-1492.384 -1390.701)" fill="url(#linear-gradient-22)"/>
          </g>
          <path id="路径_14520" data-name="路径 14520" d="M1595.788,1470.919c0,.068-.008.136-.015.2s-.014.117-.022.175-.02.135-.032.2-.024.117-.037.176-.03.132-.048.2-.033.117-.051.176-.042.131-.065.2-.042.115-.065.172-.056.136-.086.2-.051.112-.078.168-.068.135-.1.2-.058.108-.09.162c-.047.08-.1.16-.148.24-.03.047-.059.094-.091.141-.062.091-.129.181-.2.271-.026.033-.049.067-.074.1-.108.136-.225.271-.347.4-.033.036-.069.071-.1.107q-.143.15-.3.3l-.143.133c-.062.056-.126.111-.191.166s-.122.1-.184.154-.136.108-.206.161-.132.1-.2.15-.147.1-.222.156-.142.1-.215.145-.158.1-.238.151c-.1.063-.2.127-.309.189h0l-38.25,22.229c-.289.167-.591.322-.9.471l-.241.114c-.284.131-.573.255-.87.371l-.1.039c-.311.118-.632.224-.955.326-.224.071-.456.133-.686.2-.176.048-.35.1-.528.141-.241.059-.487.107-.734.157-.183.037-.363.078-.548.11-.079.014-.159.025-.238.038q-.457.074-.92.129l-.268.032q-.542.058-1.088.09l-.206.01c-.242.012-.485.016-.728.02s-.5.007-.743,0c-.2,0-.406-.009-.609-.017-.229-.009-.458-.021-.686-.037q-.309-.021-.615-.051-.339-.032-.675-.076c-.2-.025-.4-.053-.6-.083-.24-.037-.477-.079-.713-.124s-.484-.091-.722-.146l-.181-.041c-.341-.081-.677-.172-1.008-.269-.093-.028-.185-.057-.277-.086q-.412-.129-.81-.275c-.079-.029-.159-.057-.238-.087-.242-.093-.475-.2-.708-.3-.114-.05-.232-.1-.344-.149-.335-.159-.661-.327-.974-.508l-38.5-22.23c-2.624-1.515-3.935-3.516-3.929-5.513l-.026,9.158c-.006,2,1.3,4,3.929,5.514l38.5,22.23c.313.181.639.349.974.508.112.053.23.1.344.15.2.087.389.177.591.257.038.015.078.027.116.042.079.031.159.058.239.088q.4.147.809.275c.092.029.183.058.276.086.06.018.117.038.177.055.274.078.552.149.832.215l.181.041c.127.029.253.06.382.086.112.023.228.038.34.059.236.045.473.087.712.124.093.015.184.035.277.048s.214.022.321.036q.336.042.674.075c.1.01.208.027.312.035s.2.009.3.016c.228.016.456.028.686.037.113,0,.224.015.337.018.091,0,.182,0,.273,0,.248,0,.495,0,.742,0,.121,0,.243,0,.365,0s.243-.012.365-.018l.2-.01c.308-.018.617-.04.924-.071.055-.005.11-.014.165-.019l.268-.032q.464-.056.922-.13c.079-.013.158-.024.237-.038l.12-.019c.145-.026.286-.063.429-.092.245-.05.492-.1.733-.156.179-.043.353-.094.529-.142.23-.062.459-.124.684-.195.051-.016.105-.028.156-.045q.406-.132.8-.282l.094-.038c.3-.116.587-.24.871-.371.081-.038.162-.075.242-.114.308-.149.61-.3.9-.471l38.251-22.229.161-.1c.051-.031.1-.063.148-.094.08-.05.161-.1.238-.151s.144-.1.214-.145.15-.1.222-.156.134-.1.2-.15.139-.107.206-.161.124-.1.185-.154.129-.111.191-.166c.024-.022.051-.043.074-.065s.045-.046.068-.068c.1-.1.2-.2.3-.3.034-.036.07-.071.1-.107.122-.133.238-.268.346-.4l.011-.013c.023-.029.042-.058.064-.087.069-.09.136-.18.2-.272.032-.047.061-.094.091-.141.052-.079.1-.159.149-.24.012-.021.026-.04.037-.06s.034-.068.053-.1c.036-.067.071-.135.1-.2s.053-.112.078-.168.059-.136.086-.205c.012-.029.026-.057.036-.086s.019-.057.028-.085c.024-.065.045-.131.065-.2s.036-.117.051-.175.033-.132.048-.2c.008-.034.018-.068.025-.1s.007-.049.012-.073c.012-.068.023-.135.032-.2s.016-.116.022-.175.011-.136.015-.2c0-.039.007-.078.008-.117s0-.079,0-.118l.026-9.159C1595.8,1470.762,1595.793,1470.84,1595.788,1470.919Z" transform="translate(-1492.315 -1344.712)" fill="url(#linear-gradient-23)"/>
          <path id="路径_14521" data-name="路径 14521" d="M1608.514,1263.9l-27.425,15.991a10.588,10.588,0,0,1-10.664,0l-27.449-15.992V1151.924l27.6-16.088a10.259,10.259,0,0,1,10.334,0l27.6,16.088Z" transform="translate(-1524.003 -1134.44)" opacity="0.24" fill="url(#linear-gradient-26)"/>
          <path id="路径_14522" data-name="路径 14522" d="M1616.116,1279.983l-17.932,13.113a5.736,5.736,0,0,1-6.973,0l-17.948-13.114v-91.822l18.048-13.192a5.559,5.559,0,0,1,6.757,0l18.048,13.192Z" transform="translate(-1542.947 -1159.075)" opacity="0.5" fill="url(#linear-gradient-27)"/>
          <g id="组_9848" data-name="组 9848" transform="translate(20.818 108.014)">
            <path id="路径_4067" data-name="路径 4067" d="M1607.427,1437.5c3.118,1.8,3.135,4.748.035,6.55l-22.876,13.294a12.5,12.5,0,0,1-11.306,0l-23.028-13.295c-3.119-1.8-3.135-4.748-.037-6.549l22.876-13.294a12.506,12.506,0,0,1,11.307,0Z" transform="translate(-1547.903 -1422.859)" fill="url(#linear-gradient-28)"/>
            <g id="组_5421" data-name="组 5421" transform="translate(10.439 6.008)">
              <path id="路径_4068" data-name="路径 4068" d="M1615.216,1448.607c2.067,1.193,2.077,3.146.024,4.339l-15.158,8.809a8.283,8.283,0,0,1-7.491,0l-15.258-8.809c-2.066-1.193-2.077-3.146-.024-4.339l15.157-8.809a8.287,8.287,0,0,1,7.492,0Z" transform="translate(-1575.776 -1438.903)" fill="url(#linear-gradient-29)"/>
            </g>
          </g>
        </g>
        <g id="组_9850" data-name="组 9850" transform="translate(102.42 219.514)">
          <g id="组_9846-2" data-name="组 9846" transform="translate(0.01 46.514)">
            <path id="路径_3787-2" data-name="路径 3787" d="M1531.662,1458.824c2.058,1.188,2.069,3.133.023,4.322l-15.1,8.772a8.253,8.253,0,0,1-7.46,0l-15.195-8.773c-2.058-1.188-2.069-3.133-.024-4.322l15.1-8.772a8.254,8.254,0,0,1,7.461,0Z" transform="translate(-1492.384 -1449.161)" fill="url(#linear-gradient-22)"/>
          </g>
          <path id="路径_14518-2" data-name="路径 14518" d="M1533.15,1529.189c0,.027,0,.054-.006.081s-.006.046-.009.069-.007.053-.012.08-.009.046-.015.069-.012.052-.019.078-.013.046-.02.069-.016.052-.026.077-.016.046-.026.068-.022.054-.034.081l-.031.066q-.02.04-.041.08l-.036.064c-.019.032-.038.063-.059.095s-.023.037-.036.055c-.025.036-.051.072-.078.107l-.03.04c-.042.054-.089.107-.136.159l-.041.042q-.056.059-.118.117l-.057.053-.075.065-.073.061-.081.064c-.026.02-.052.04-.079.059l-.088.062-.084.057-.094.059c-.04.025-.08.05-.122.075h0l-15.1,8.772c-.114.066-.233.128-.355.186l-.1.045c-.112.052-.226.1-.343.146l-.038.015c-.123.047-.249.089-.377.129-.089.028-.18.052-.271.077-.069.019-.138.039-.208.056-.1.023-.193.042-.289.062-.072.015-.143.031-.216.044l-.094.015q-.18.03-.363.051l-.106.013q-.214.023-.43.036l-.081,0c-.1,0-.191.006-.287.008s-.2,0-.293,0c-.08,0-.16,0-.24-.007s-.181-.008-.271-.014-.162-.012-.243-.02-.178-.019-.266-.03-.157-.021-.235-.033q-.142-.022-.282-.049c-.1-.018-.191-.036-.285-.057l-.071-.016c-.135-.032-.267-.068-.4-.106l-.109-.034q-.163-.051-.32-.109l-.094-.034c-.1-.037-.187-.078-.279-.118-.045-.02-.092-.038-.136-.059-.132-.063-.261-.13-.385-.2l-15.195-8.773a2.634,2.634,0,0,1-1.551-2.176l-.01,3.614a2.635,2.635,0,0,0,1.551,2.176l15.195,8.773c.123.072.252.138.384.2.044.021.091.039.136.059.078.034.154.07.233.1l.046.017.094.034q.157.058.319.109l.109.034.07.022c.108.031.217.058.328.085l.071.016.151.034c.044.009.09.015.134.023.094.018.187.034.281.049.037.006.073.014.109.019s.085.009.127.014c.088.011.177.021.266.03.041,0,.082.01.123.014s.08,0,.12.006c.09.006.18.011.271.015.044,0,.088.006.132.007h.108c.1,0,.195,0,.293,0,.048,0,.1,0,.144,0l.144-.007.081,0c.122-.007.244-.016.365-.028l.065-.008.106-.013q.183-.021.364-.051l.094-.015.047-.008c.058-.01.113-.025.17-.036.1-.02.194-.039.289-.062.071-.017.139-.037.209-.056.09-.025.181-.049.27-.077l.062-.017q.161-.052.316-.111l.037-.015c.117-.045.232-.094.344-.146l.1-.045c.122-.059.241-.12.354-.186l15.1-8.772.064-.037.059-.037.094-.059.085-.058.088-.061.079-.059.081-.064c.025-.02.049-.04.073-.061l.075-.066.029-.026.027-.027c.041-.039.08-.078.118-.117l.04-.042c.048-.053.094-.106.137-.159l0-.005.025-.035c.027-.036.054-.071.078-.107l.036-.055c.02-.031.04-.063.059-.095l.015-.024.021-.04c.014-.026.028-.053.041-.08s.021-.044.031-.067.023-.054.034-.081c0-.011.01-.023.015-.034s.007-.022.011-.034.018-.052.026-.077.014-.046.02-.069.013-.052.019-.078.007-.027.01-.04,0-.02,0-.029c0-.027.009-.053.012-.08s.006-.046.009-.069,0-.054.006-.081,0-.031,0-.046,0-.031,0-.047l.01-3.614C1533.153,1529.127,1533.151,1529.158,1533.15,1529.189Z" transform="translate(-1492.315 -1470.743)" fill="url(#linear-gradient-23)"/>
          <path id="路径_14519-2" data-name="路径 14519" d="M1540.631,1496.511c0,.025,0,.05-.005.075s0,.042-.008.064-.007.049-.012.074-.009.042-.013.064-.011.048-.018.072-.012.043-.019.064-.015.048-.023.072l-.024.063-.031.074-.028.061c-.012.025-.025.049-.038.073l-.033.059c-.017.03-.035.058-.054.087s-.021.034-.033.051c-.023.033-.047.066-.072.1l-.027.036c-.039.05-.082.1-.126.147l-.037.039q-.053.055-.109.108l-.052.049-.069.061-.067.056-.075.059-.073.055-.081.057-.078.053-.087.055c-.037.023-.074.047-.113.069h0l-13.935,8.1c-.105.061-.215.117-.328.172l-.088.042c-.1.048-.209.093-.317.135l-.035.014c-.113.043-.23.082-.348.119-.082.026-.166.048-.25.071-.064.017-.127.036-.193.052-.088.021-.178.039-.267.057-.067.013-.132.028-.2.04l-.087.014q-.166.027-.335.047l-.1.012c-.131.014-.264.025-.4.033l-.075,0c-.088,0-.177.005-.265.007s-.181,0-.271,0c-.074,0-.148,0-.222-.006s-.167-.008-.25-.013-.15-.011-.224-.018-.164-.017-.246-.027-.145-.019-.217-.031c-.088-.013-.174-.029-.26-.045s-.176-.033-.263-.053l-.066-.015q-.187-.044-.367-.1l-.1-.031q-.15-.047-.3-.1l-.087-.032c-.088-.034-.173-.072-.258-.109-.042-.018-.085-.035-.125-.054-.122-.058-.241-.119-.355-.185l-14.027-8.1a2.433,2.433,0,0,1-1.432-2.009l-.01,3.337a2.432,2.432,0,0,0,1.432,2.008l14.027,8.1c.114.066.233.127.355.185.041.019.084.036.126.055.071.031.141.065.215.094l.042.015.087.032c.1.036.195.069.295.1l.1.031.064.02c.1.028.2.054.3.078l.066.015c.046.01.092.022.139.031s.083.014.124.022c.086.016.172.031.26.045.034.005.067.013.1.017s.078.008.116.013q.122.016.246.027l.114.013c.037,0,.074,0,.11.006.083.006.167.01.25.014l.123.007h.1c.09,0,.18,0,.27,0,.044,0,.089,0,.133,0l.133-.007.074,0c.113-.007.225-.015.336-.026l.06-.007.1-.012c.113-.013.224-.029.336-.047l.086-.014.044-.007c.053-.009.1-.023.156-.033.089-.018.179-.036.267-.057.065-.016.129-.034.193-.052.084-.023.167-.046.249-.071l.057-.016c.1-.032.2-.066.291-.1l.034-.014c.108-.042.214-.088.317-.135l.088-.042c.112-.054.222-.111.327-.172l13.935-8.1.058-.035.054-.034.087-.055.078-.053.081-.057.072-.055.075-.059.067-.056.069-.061.027-.024.025-.025c.038-.036.074-.072.109-.108l.037-.039c.045-.048.087-.1.126-.147l0,0,.023-.032c.025-.033.049-.066.072-.1.012-.017.022-.034.033-.051s.037-.058.054-.087l.014-.022c.007-.012.013-.025.019-.037s.026-.049.038-.074.02-.041.029-.061.021-.05.031-.075.009-.021.013-.032.007-.021.01-.031.016-.047.024-.072.013-.042.019-.064.012-.048.017-.072.007-.025.009-.037,0-.018,0-.027c0-.025.008-.049.011-.074s.006-.042.008-.064,0-.05.005-.074,0-.028,0-.043,0-.029,0-.043l.01-3.336C1540.634,1496.454,1540.632,1496.483,1540.631,1496.511Z" transform="translate(-1501.365 -1442.903)" fill="#171791"/>
          <g id="组_9847-2" data-name="组 9847" transform="translate(0.01 37.874)">
            <path id="路径_3790-2" data-name="路径 3790" d="M1531.662,1400.365c2.058,1.188,2.069,3.133.023,4.322l-15.1,8.772a8.253,8.253,0,0,1-7.46,0l-15.195-8.773c-2.058-1.188-2.069-3.133-.024-4.321l15.1-8.773a8.253,8.253,0,0,1,7.461,0Z" transform="translate(-1492.384 -1390.701)" fill="url(#linear-gradient-22)"/>
          </g>
          <path id="路径_14520-2" data-name="路径 14520" d="M1533.15,1470.73c0,.027,0,.054-.006.081s-.006.046-.009.069-.007.054-.012.08-.009.046-.015.069-.012.052-.019.078-.013.046-.02.069-.016.052-.026.077-.016.046-.026.068-.022.054-.034.081l-.031.066c-.013.027-.027.053-.041.08s-.023.043-.036.064-.038.063-.059.094-.023.037-.036.055c-.025.036-.051.072-.078.107l-.03.04c-.042.054-.089.107-.136.159l-.041.042q-.056.059-.118.117l-.057.053-.075.065-.073.061-.081.064-.079.059-.088.061-.084.058-.094.059c-.04.025-.08.051-.122.075h0l-15.1,8.772c-.114.066-.233.127-.355.186l-.1.045c-.112.052-.226.1-.343.146l-.038.015c-.123.047-.249.089-.377.129-.089.028-.18.053-.271.077-.069.019-.138.039-.208.056-.1.023-.193.042-.289.062-.072.014-.143.031-.216.044l-.094.015c-.12.019-.241.037-.363.051l-.106.013q-.214.023-.43.036l-.081,0c-.1,0-.191.006-.287.008s-.2,0-.293,0q-.12,0-.24-.006c-.09,0-.181-.008-.271-.014l-.243-.02q-.134-.013-.266-.03c-.079-.01-.157-.021-.235-.033q-.142-.023-.282-.049c-.1-.018-.191-.036-.285-.057l-.071-.016c-.135-.032-.267-.068-.4-.106l-.109-.034q-.163-.051-.32-.109l-.094-.034c-.1-.037-.187-.078-.279-.119-.045-.02-.092-.038-.136-.059-.132-.063-.261-.129-.385-.2l-15.195-8.773a2.634,2.634,0,0,1-1.551-2.176l-.01,3.614a2.635,2.635,0,0,0,1.551,2.176l15.195,8.773c.123.071.252.138.384.2.044.021.091.039.136.059.078.034.154.07.233.1l.046.017.094.034q.157.058.319.109l.109.034.07.022c.108.031.217.058.328.085l.071.016.151.034c.044.009.09.015.134.023.094.018.187.034.281.049.037.006.073.014.109.019s.085.009.127.014c.088.011.177.021.266.03.041,0,.082.01.123.014s.08,0,.12.007c.09.006.18.011.271.014.044,0,.088.006.132.007s.072,0,.108,0c.1,0,.195,0,.293,0,.048,0,.1,0,.144,0l.144-.007.081,0c.122-.007.244-.016.365-.028l.065-.008.106-.013c.122-.015.243-.032.364-.051l.094-.015.047-.008c.058-.01.113-.024.17-.036.1-.02.194-.039.289-.062.071-.017.139-.037.209-.056.09-.025.181-.049.27-.077l.062-.017c.107-.035.212-.072.316-.111l.037-.015c.117-.046.232-.1.344-.146l.1-.045c.122-.059.241-.12.354-.186l15.1-8.772.064-.037.059-.037.094-.059.085-.058.088-.061.079-.059.081-.064.073-.061.075-.066.029-.026.027-.027c.041-.039.08-.078.118-.117l.04-.042c.048-.052.094-.106.137-.159l0-.005.025-.035c.027-.036.054-.071.078-.107l.036-.056c.02-.031.04-.063.059-.094l.015-.024.021-.04q.021-.04.041-.08l.031-.067c.012-.027.023-.054.034-.081,0-.011.01-.023.015-.034s.007-.022.011-.034.018-.052.026-.078.014-.046.02-.069.013-.052.019-.078.007-.027.01-.041,0-.019,0-.029c0-.026.009-.053.012-.08s.006-.046.009-.069,0-.054.006-.081,0-.031,0-.046,0-.031,0-.047l.01-3.614C1533.153,1470.668,1533.151,1470.7,1533.15,1470.73Z" transform="translate(-1492.315 -1420.924)" fill="url(#linear-gradient-23)"/>
          <path id="路径_14521-2" data-name="路径 14521" d="M1568.84,1185.53l-10.823,6.31a4.178,4.178,0,0,1-4.208,0l-10.832-6.311v-44.19l10.893-6.349a4.048,4.048,0,0,1,4.078,0l10.893,6.349Z" transform="translate(-1535.489 -1134.44)" opacity="0.24" fill="url(#linear-gradient-26)"/>
          <path id="路径_14522-2" data-name="路径 14522" d="M1590.174,1215.719l-7.077,5.175a2.263,2.263,0,0,1-2.752,0l-7.083-5.175v-36.237l7.122-5.206a2.193,2.193,0,0,1,2.667,0l7.123,5.206Z" transform="translate(-1561.299 -1168.003)" opacity="0.5" fill="url(#linear-gradient-27)"/>
          <g id="组_9848-2" data-name="组 9848" transform="translate(8.215 42.626)">
            <path id="路径_4067-2" data-name="路径 4067" d="M1571.393,1428.639a1.368,1.368,0,0,1,.014,2.585l-9.028,5.246a4.936,4.936,0,0,1-4.462,0l-9.087-5.247a1.367,1.367,0,0,1-.015-2.584l9.028-5.246a4.935,4.935,0,0,1,4.462,0Z" transform="translate(-1547.903 -1422.859)" fill="url(#linear-gradient-28)"/>
            <g id="组_5421-2" data-name="组 5421" transform="translate(4.12 2.371)">
              <path id="路径_4068-2" data-name="路径 4068" d="M1591.341,1442.732a.906.906,0,0,1,.009,1.713l-5.982,3.476a3.268,3.268,0,0,1-2.956,0l-6.021-3.476a.906.906,0,0,1-.01-1.712l5.982-3.476a3.269,3.269,0,0,1,2.957,0Z" transform="translate(-1575.776 -1438.903)" fill="url(#linear-gradient-29)"/>
            </g>
          </g>
        </g>
      </g>
      <g id="屏幕" transform="translate(-11323.204 8288.73)">
        <g id="组_5708" data-name="组 5708" transform="translate(0 0)">
          <path id="路径_6171" data-name="路径 6171" d="M328.636,748.408c0-2.552-1.807-3.6-4.018-2.32l-88.246,50.949A8.914,8.914,0,0,0,232.353,804v70.133c0,2.552,1.809,3.6,4.018,2.32L324.617,825.5a8.915,8.915,0,0,0,4.018-6.961Z" transform="translate(-232.353 -745.543)" fill="url(#linear-gradient-38)"/>
          <path id="路径_6172" data-name="路径 6172" d="M235.6,875.99V805.857a8.916,8.916,0,0,1,4.018-6.961l88.246-50.949a4.585,4.585,0,0,1,.7-.329c-.342-1.96-1.986-2.66-3.95-1.527L236.371,797.04A8.914,8.914,0,0,0,232.353,804v70.133c0,2.275,1.438,3.347,3.317,2.649A4.607,4.607,0,0,1,235.6,875.99Z" transform="translate(-232.353 -745.546)" fill="url(#linear-gradient-38)"/>
        </g>
        <g id="组_5745" data-name="组 5745" transform="translate(28.741 18.328)">
          <path id="路径_6173" data-name="路径 6173" d="M402.761,807.066c0-2.056-1.456-2.9-3.237-1.869l-71.08,41.038a7.179,7.179,0,0,0-3.237,5.606v56.49c0,2.055,1.457,2.9,3.237,1.868l71.08-41.038a7.181,7.181,0,0,0,3.237-5.606Z" transform="translate(-325.208 -804.759)" fill="url(#linear-gradient-40)"/>
          <path id="路径_6174" data-name="路径 6174" d="M414.206,838.273c0-1.755-1.244-2.473-2.764-1.6l-60.364,35.135a6.127,6.127,0,0,0-2.764,4.786v45.225c0,1.755,1.243,2.473,2.764,1.6l60.364-35.135a6.132,6.132,0,0,0,2.764-4.786Z" transform="translate(-341.162 -826.54)" fill="url(#linear-gradient-41)"/>
          <path id="路径_6175" data-name="路径 6175" d="M327.824,909.83v-56.49a7.181,7.181,0,0,1,3.237-5.606l71.08-41.038a3.682,3.682,0,0,1,.565-.265c-.276-1.579-1.6-2.143-3.181-1.23l-71.08,41.038a7.179,7.179,0,0,0-3.237,5.606v56.49c0,1.832,1.158,2.7,2.671,2.133A3.705,3.705,0,0,1,327.824,909.83Z" transform="translate(-325.208 -804.761)" fill="url(#linear-gradient-42)"/>
          <g id="组_5709" data-name="组 5709" transform="translate(49.075 27.792)" opacity="0.3">
            <path id="路径_6176" data-name="路径 6176" d="M485.426,896.472l3.2-1.8c.912-.512,1.643.658,1.634,2.616s-.756,3.958-1.667,4.472l-3.2,1.8c-.912.513-1.643-.659-1.634-2.615S484.516,896.984,485.426,896.472Z" transform="translate(-483.759 -894.55)" fill="url(#linear-gradient-42)"/>
          </g>
          <g id="组_5737" data-name="组 5737" transform="translate(59.677 17.595)">
            <g id="组_5736" data-name="组 5736">
              <g id="组_5722" data-name="组 5722" transform="translate(0 1.742)">
                <g id="组_5712" data-name="组 5712">
                  <g id="组_5711" data-name="组 5711">
                    <g id="组_5710" data-name="组 5710">
                      <path id="路径_6177" data-name="路径 6177" d="M526.507,867.23v5.617l-8.494,4.925v-5.618Z" transform="translate(-518.014 -867.23)" fill="url(#linear-gradient-44)"/>
                    </g>
                  </g>
                </g>
                <g id="组_5715" data-name="组 5715" transform="translate(0.001 9.285)">
                  <g id="组_5714" data-name="组 5714">
                    <g id="组_5713" data-name="组 5713">
                      <path id="路径_6178" data-name="路径 6178" d="M526.509,897.227v5.618l-8.493,4.922v-5.616Z" transform="translate(-518.016 -897.227)" fill="url(#linear-gradient-44)"/>
                    </g>
                  </g>
                </g>
                <g id="组_5718" data-name="组 5718" transform="translate(0 18.568)">
                  <g id="组_5717" data-name="组 5717">
                    <g id="组_5716" data-name="组 5716">
                      <path id="路径_6179" data-name="路径 6179" d="M526.508,932.839l-8.492,4.924v-5.617l8.493-4.924Z" transform="translate(-518.015 -927.221)" fill="url(#linear-gradient-44)"/>
                    </g>
                  </g>
                </g>
                <g id="组_5721" data-name="组 5721" transform="translate(0 27.854)">
                  <g id="组_5720" data-name="组 5720">
                    <g id="组_5719" data-name="组 5719">
                      <path id="路径_6180" data-name="路径 6180" d="M526.508,962.836l-8.493,4.924v-5.617l8.493-4.923Z" transform="translate(-518.015 -957.22)" fill="url(#linear-gradient-44)"/>
                    </g>
                  </g>
                </g>
              </g>
              <g id="组_5735" data-name="组 5735" transform="translate(9.915)">
                <g id="组_5725" data-name="组 5725" transform="translate(0)">
                  <g id="组_5724" data-name="组 5724">
                    <g id="组_5723" data-name="组 5723">
                      <path id="路径_6181" data-name="路径 6181" d="M551.631,861.6v5.618l-1.583.917v-5.617Z" transform="translate(-550.049 -861.604)" fill="url(#linear-gradient-44)"/>
                    </g>
                  </g>
                </g>
                <g id="组_5728" data-name="组 5728" transform="translate(0 9.285)">
                  <g id="组_5727" data-name="组 5727">
                    <g id="组_5726" data-name="组 5726">
                      <path id="路径_6182" data-name="路径 6182" d="M551.631,897.219l-1.582.917v-5.616l1.582-.917Z" transform="translate(-550.049 -891.602)" fill="url(#linear-gradient-44)"/>
                    </g>
                  </g>
                </g>
                <g id="组_5731" data-name="组 5731" transform="translate(0 18.569)">
                  <g id="组_5730" data-name="组 5730">
                    <g id="组_5729" data-name="组 5729">
                      <path id="路径_6183" data-name="路径 6183" d="M551.631,927.214l-1.583.917v-5.617l1.582-.917Z" transform="translate(-550.049 -921.597)" fill="url(#linear-gradient-44)"/>
                    </g>
                  </g>
                </g>
                <g id="组_5734" data-name="组 5734" transform="translate(0 27.853)">
                  <g id="组_5733" data-name="组 5733">
                    <g id="组_5732" data-name="组 5732">
                      <path id="路径_6184" data-name="路径 6184" d="M551.63,951.591v5.617l-1.583.917V952.51Z" transform="translate(-550.048 -951.591)" fill="url(#linear-gradient-44)"/>
                    </g>
                  </g>
                </g>
              </g>
            </g>
          </g>
          <g id="组_5744" data-name="组 5744" transform="translate(10.324 38.574)">
            <g id="组_5739" data-name="组 5739">
              <g id="组_5738" data-name="组 5738">
                <path id="路径_6185" data-name="路径 6185" d="M366.216,945.122c5.088.917,3.24,18.61,8.885,15.068,6.447-4.046,13.144-26.868,17.972-30.258,6.6-4.636,10.745,21.677,10.745,21.677l-44.9,27.369C357.349,965.908,361.207,944.218,366.216,945.122Z" transform="translate(-358.564 -929.384)" fill="url(#linear-gradient-42)"/>
              </g>
            </g>
            <g id="组_5741" data-name="组 5741" transform="translate(2.301 6.879)">
              <g id="组_5740" data-name="组 5740">
                <path id="路径_6186" data-name="路径 6186" d="M371.751,979.2c3.229.572,3.862,8.994,6.081.84,1.67-6.14,4.467-29.259,8.991-28.412,7.149,1.339,1.434,19.262,7.53,20.364,4.289.776,5.8-15.506,10.7-14.592,3.843.716,5.923,12.843,5.923,12.843l-44.707,26.3C365.231,986.39,367.217,978.4,371.751,979.2Z" transform="translate(-366 -951.61)" fill="url(#linear-gradient-53)"/>
              </g>
            </g>
            <g id="组_5743" data-name="组 5743" transform="translate(4.554 20.204)">
              <g id="组_5742" data-name="组 5742">
                <path id="路径_6187" data-name="路径 6187" d="M376.112,1015.953c2.272-1.413,2.747,5.671,5.613,3.995,3.227-1.886,4.492-18.512,7.519-20.515,3.5-2.315,4.974,13.063,10.3,9.943,5.6-3.28,5.227-9.708,12.009-13.88,6.207-3.817,6.519,6.629,6.519,6.629l-44.681,25.48S372.412,1018.255,376.112,1015.953Z" transform="translate(-373.277 -994.658)" fill="url(#linear-gradient-54)"/>
              </g>
            </g>
          </g>
        </g>
      </g>
      <path id="路径_14532" data-name="路径 14532" d="M1308.525,665.476V739.8" transform="translate(-12525.079 7593.157)" fill="none" stroke="#d1fffd" stroke-miterlimit="10" stroke-width="2" stroke-dasharray="12"/>
      <ellipse id="椭圆_67" data-name="椭圆 67" cx="7.055" cy="7.055" rx="7.055" ry="7.055" transform="translate(-11223.609 8244.727)" fill="none" stroke="#d1fffd" stroke-miterlimit="10" stroke-width="2"/>
      <path id="路径_14533" data-name="路径 14533" d="M1404.179,653.433l-26.276-15.49a.257.257,0,0,1-.127-.219l-.084-7.465a.258.258,0,0,1,.39-.224l26.371,15.831a.257.257,0,0,1,.125.221l-.01,7.124A.258.258,0,0,1,1404.179,653.433Z" transform="translate(-12580.677 7621.676)" fill="url(#linear-gradient-55)"/>
      <path id="路径_14534" data-name="路径 14534" d="M1403.833,726.056l-26.276-15.49a.258.258,0,0,1-.127-.219l-.084-7.465a.258.258,0,0,1,.391-.224l26.37,15.831a.258.258,0,0,1,.125.221l-.01,7.124A.258.258,0,0,1,1403.833,726.056Z" transform="translate(-12580.399 7563.3)" fill="url(#linear-gradient-55)"/>
      <path id="路径_14535" data-name="路径 14535" d="M1401.886,794.059l-26.276-15.49a.257.257,0,0,1-.127-.219l-.084-7.465a.258.258,0,0,1,.391-.224l26.37,15.831a.258.258,0,0,1,.125.221l-.01,7.124A.258.258,0,0,1,1401.886,794.059Z" transform="translate(-12578.833 7508.637)" fill="url(#linear-gradient-55)"/>
      <g id="组_9861" data-name="组 9861" transform="translate(-11441.604 8154.315)">
        <g id="组_5410" data-name="组 5410" transform="translate(28.115 21.99)">
          <path id="路径_4058" data-name="路径 4058" d="M1644.521,1084.033l-.083,19.732-15.584,9.056.082-19.732Z" transform="translate(-1628.855 -1084.033)" fill="url(#linear-gradient-58)"/>
        </g>
        <g id="组_5411" data-name="组 5411" transform="translate(12.429 21.99)">
          <path id="路径_4059" data-name="路径 4059" d="M1602.739,1093.089l-.083,19.732-15.685-9.056.082-19.732Z" transform="translate(-1586.971 -1084.033)" fill="url(#linear-gradient-59)"/>
        </g>
        <g id="组_5412" data-name="组 5412" transform="translate(12.512 12.934)">
          <path id="路径_4060" data-name="路径 4060" d="M1618.461,1068.907l-15.584,9.056-15.686-9.056,15.583-9.056Z" transform="translate(-1587.191 -1059.851)" fill="url(#linear-gradient-58)"/>
        </g>
        <g id="组_5413" data-name="组 5413" transform="translate(28.74 16.593)" opacity="0.3">
          <path id="路径_4061" data-name="路径 4061" d="M1659.228,1069.622l-.151,36.154-28.553,16.593.151-36.153Z" transform="translate(-1630.524 -1069.622)" fill="url(#linear-gradient-58)"/>
        </g>
        <g id="组_5414" data-name="组 5414" transform="translate(0 16.593)" opacity="0.3">
          <path id="路径_4062" data-name="路径 4062" d="M1582.673,1086.216l-.151,36.154-28.74-16.593.151-36.154Z" transform="translate(-1553.782 -1069.623)" fill="url(#linear-gradient-62)"/>
        </g>
        <g id="组_5415" data-name="组 5415" transform="translate(0.151 0)" opacity="0.3">
          <path id="路径_4063" data-name="路径 4063" d="M1611.479,1041.909l-28.553,16.593-28.74-16.593,28.553-16.593Z" transform="translate(-1554.186 -1025.316)" fill="url(#linear-gradient-58)"/>
        </g>
      </g>
      <g id="组_9860" data-name="组 9860" transform="translate(-11162.813 8169.444)">
        <g id="组_5410-2" data-name="组 5410" transform="translate(15.755 12.323)">
          <path id="路径_4058-2" data-name="路径 4058" d="M1637.634,1084.033l-.046,11.057-8.733,5.075.046-11.057Z" transform="translate(-1628.855 -1084.033)" fill="url(#linear-gradient-58)"/>
        </g>
        <g id="组_5411-2" data-name="组 5411" transform="translate(6.965 12.323)">
          <path id="路径_4059-2" data-name="路径 4059" d="M1595.808,1089.108l-.046,11.057-8.79-5.075.046-11.057Z" transform="translate(-1586.971 -1084.033)" fill="url(#linear-gradient-59)"/>
        </g>
        <g id="组_5412-2" data-name="组 5412" transform="translate(7.011 7.248)">
          <path id="路径_4060-2" data-name="路径 4060" d="M1604.714,1064.926l-8.733,5.075-8.79-5.075,8.733-5.075Z" transform="translate(-1587.191 -1059.851)" fill="url(#linear-gradient-58)"/>
        </g>
        <g id="组_5413-2" data-name="组 5413" transform="translate(16.105 9.298)" opacity="0.3">
          <path id="路径_4061-2" data-name="路径 4061" d="M1646.609,1069.622l-.085,20.26-16,9.3.085-20.26Z" transform="translate(-1630.524 -1069.622)" fill="url(#linear-gradient-58)"/>
        </g>
        <g id="组_5414-2" data-name="组 5414" transform="translate(0 9.299)" opacity="0.3">
          <path id="路径_4062-2" data-name="路径 4062" d="M1569.972,1078.922l-.085,20.26-16.105-9.3.085-20.26Z" transform="translate(-1553.782 -1069.623)" fill="url(#linear-gradient-62)"/>
        </g>
        <g id="组_5415-2" data-name="组 5415" transform="translate(0.085 0)" opacity="0.3">
          <path id="路径_4063-2" data-name="路径 4063" d="M1586.292,1034.614l-16,9.3-16.105-9.3,16-9.3Z" transform="translate(-1554.186 -1025.316)" fill="url(#linear-gradient-58)"/>
        </g>
      </g>
      <path id="路径_14536" data-name="路径 14536" d="M-11145.523,5260.468v45.255h48.283" transform="translate(-267.359 2963.188)" fill="none" stroke="#05beff" stroke-width="1"/>
      <path id="路径_14537" data-name="路径 14537" d="M-10951.463,5853.244l57.406,38.272,20.486-11.481,36.7,22.737,11.257-6.979" transform="translate(-388.744 2592.408)" fill="none" stroke="#03c4ff" stroke-width="1"/>
    </g>
  </g>
</svg>
