<?xml version="1.0" encoding="utf-8"?>
<!-- Generator: Adobe Illustrator 24.0.0, SVG Export Plug-In . SVG Version: 6.00 Build 0)  -->
<svg version="1.1" id="图层_1" xmlns="http://www.w3.org/2000/svg" xmlns:xlink="http://www.w3.org/1999/xlink" x="0px" y="0px"
	 viewBox="0 0 1920 495" style="enable-background:new 0 0 1920 495;" xml:space="preserve">
<style type="text/css">
	.st0{fill:url(#路径_14517_1_);}
	.st1{opacity:0.32;fill:url(#SVGID_1_);enable-background:new    ;}
	.st2{opacity:0.16;fill:url(#路径_407_1_);enable-background:new    ;}
	.st3{fill:url(#路径_14554_1_);}
	.st4{opacity:0.8;}
	.st5{opacity:0.42;}
	.st6{fill:url(#路径_4064_1_);stroke:#3DFFE5;}
	.st7{opacity:0.45;}
	.st8{fill:url(#路径_4065_1_);stroke:#2AFFDB;}
	.st9{fill:url(#路径_4066_1_);stroke:#47FFFF;}
	.st10{opacity:0.6;}
	.st11{fill:url(#路径_4064-2_1_);stroke:#3DFFE5;}
	.st12{fill:url(#路径_4065-2_1_);stroke:#2AFFDB;}
	.st13{opacity:0.6;fill:url(#路径_14550_1_);stroke:#0EBBDF;enable-background:new    ;}
	.st14{opacity:0.6;fill:url(#路径_14553_1_);stroke:#47FFFF;enable-background:new    ;}
	.st15{fill:url(#路径_569_1_);}
	.st16{fill:url(#路径_570_1_);}
	.st17{opacity:0.6;fill:#F3F2F4;enable-background:new    ;}
	.st18{fill:url(#路径_572_1_);}
	.st19{fill:url(#路径_573_1_);}
	.st20{fill:url(#路径_574_1_);}
	.st21{opacity:0.49;fill:url(#路径_14552_1_);enable-background:new    ;}
	.st22{fill:url(#路径_1673_1_);}
	.st23{fill:url(#路径_1674_1_);}
	.st24{fill:url(#路径_1675_1_);}
	.st25{fill:url(#路径_1865_1_);}
	.st26{fill:#F3F8FE;}
	.st27{fill:url(#路径_1867_1_);}
	.st28{fill:url(#路径_1868_1_);}
	.st29{fill:url(#路径_1869_1_);}
	.st30{fill:url(#路径_1870_1_);}
	.st31{fill:url(#路径_1871_1_);}
	.st32{fill:url(#路径_1872_1_);}
	.st33{fill:#FFE120;}
	.st34{fill:none;stroke:#03C1BA;}
	.st35{opacity:0.44;fill:url(#椭圆_83_1_);enable-background:new    ;}
	.st36{opacity:0.44;fill:url(#椭圆_84_1_);enable-background:new    ;}
	.st37{opacity:0.44;fill:url(#椭圆_85_1_);enable-background:new    ;}
</style>
<linearGradient id="路径_14517_1_" gradientUnits="userSpaceOnUse" x1="-0.1268" y1="779.9257" x2="0.8347" y2="779.0048" gradientTransform="matrix(1920.334 0 0 -485 287.947 378290)">
	<stop  offset="0" style="stop-color:#1D26B5"/>
	<stop  offset="1" style="stop-color:#5230D1"/>
</linearGradient>
<path id="路径_14517" class="st0" d="M0,0h1920v495H0V0z"/>
<g id="_0000000" transform="translate(-624.851 -4627.842)">
	<g id="组_9897" transform="translate(6358 -4199)">
		
			<radialGradient id="SVGID_1_" cx="-10097.749" cy="134.1421" r="207.1674" gradientTransform="matrix(1 0 0 -1 5733.1489 9322.8418)" gradientUnits="userSpaceOnUse">
			<stop  offset="0" style="stop-color:#505BFF;stop-opacity:0.82"/>
			<stop  offset="1" style="stop-color:#0011FF;stop-opacity:0"/>
		</radialGradient>
		<path class="st1" d="M-4552,9321.8h374.9c45.5-28.3,73.5-66.8,73.5-109.2c0-86.7-116.9-157-261-157s-261,70.3-261,157
			C-4625.6,9255.1-4597.5,9293.6-4552,9321.8z"/>
		
			<linearGradient id="路径_407_1_" gradientUnits="userSpaceOnUse" x1="-11463.7129" y1="2.3457" x2="-11463.7129" y2="1.3895" gradientTransform="matrix(530.7 0 0 420.32 6079432 8242.875)">
			<stop  offset="0" style="stop-color:#3463F9;stop-opacity:0.502"/>
			<stop  offset="3.000000e-03" style="stop-color:#7D4EFF;stop-opacity:0.502"/>
			<stop  offset="0.999" style="stop-color:#3E9FFC;stop-opacity:0"/>
			<stop  offset="1" style="stop-color:#3E9FFC;stop-opacity:0"/>
		</linearGradient>
		<path id="路径_407" class="st2" d="M-4208.9,9147.4l-150.1,81.4l-147.8-81.4l-118.9-320.5h530.7L-4208.9,9147.4z"/>
		
			<linearGradient id="路径_14554_1_" gradientUnits="userSpaceOnUse" x1="-11463.7129" y1="2.3457" x2="-11463.7129" y2="1.3457" gradientTransform="matrix(530.7 0 0 420.32 6079431 8302.875)">
			<stop  offset="0" style="stop-color:#3463F9;stop-opacity:0.502"/>
			<stop  offset="3.000000e-03" style="stop-color:#7D4EFF;stop-opacity:0.502"/>
			<stop  offset="0.999" style="stop-color:#3E9FFC;stop-opacity:0"/>
			<stop  offset="1" style="stop-color:#3E9FFC;stop-opacity:0"/>
		</linearGradient>
		<path id="路径_14554" class="st3" d="M-4209.9,9203.7l-150.1,85.1l-147.8-85.1l-118.9-335.2h530.7L-4209.9,9203.7z"/>
		<g id="组_9895" transform="translate(56 -211)">
			<g id="组_5420" transform="translate(-6234 8730.36)" class="st4">
				<g id="组_5417" transform="translate(711.996 546.868)" class="st5">
					
						<linearGradient id="路径_4064_1_" gradientUnits="userSpaceOnUse" x1="-523.0201" y1="4.0814" x2="-522.087" y2="3.2254" gradientTransform="matrix(98.267 0 0 180.576 52503.0586 -584.0052)">
						<stop  offset="0" style="stop-color:#00E4D4"/>
						<stop  offset="1" style="stop-color:#0082FF"/>
					</linearGradient>
					<path id="路径_4064" class="st6" d="M1204.7-18.4l-0.5,123.8l-97.8,56.8l0.5-123.8L1204.7-18.4z"/>
				</g>
				<g id="组_5418" transform="translate(613.607 546.869)" class="st7">
					
						<linearGradient id="路径_4065_1_" gradientUnits="userSpaceOnUse" x1="-325.8682" y1="3.2993" x2="-325.7782" y2="3.9973" gradientTransform="matrix(98.903 0 0 180.575 33380.9531 -583.9918)">
						<stop  offset="0" style="stop-color:#00E9D9"/>
						<stop  offset="1" style="stop-color:#0082FF"/>
					</linearGradient>
					<path id="路径_4065" class="st8" d="M1205.3,38.4l-0.5,123.8l-98.4-56.8l0.5-123.8L1205.3,38.4z"/>
				</g>
				<g id="组_5419" transform="translate(614.123 490.063)" class="st7">
					
						<linearGradient id="路径_4066_1_" gradientUnits="userSpaceOnUse" x1="-332.9031" y1="5.4784" x2="-331.9028" y2="5.4784" gradientTransform="matrix(196.14 0 0 113.611 66402.0156 -584.001)">
						<stop  offset="0" style="stop-color:#00E9D9"/>
						<stop  offset="1" style="stop-color:#0082FF"/>
					</linearGradient>
					<path id="路径_4066" class="st9" d="M1302.6,38.4l-97.8,56.8l-98.4-56.8l97.8-56.8L1302.6,38.4z"/>
				</g>
			</g>
			<g id="组_5417-2" transform="translate(-5496.004 9290.229)" class="st10">
				
					<linearGradient id="路径_4064-2_1_" gradientUnits="userSpaceOnUse" x1="-575.0203" y1="4.0814" x2="-574.0873" y2="3.2255" gradientTransform="matrix(98.267 0 0 180.576 57612.9648 -584.0076)">
					<stop  offset="0" style="stop-color:#00E4D4"/>
					<stop  offset="1" style="stop-color:#0082FF"/>
				</linearGradient>
				<path id="路径_4064-2" class="st11" d="M1204.7-18.4l-0.5,123.8l-97.8,56.8l0.5-123.8L1204.7-18.4z"/>
			</g>
			<g id="组_5418-2" transform="translate(-5649.394 9286.229)" class="st10">
				
					<linearGradient id="路径_4065-2_1_" gradientUnits="userSpaceOnUse" x1="-267.8662" y1="3.2993" x2="-267.7762" y2="3.9973" gradientTransform="matrix(98.903 0 0 180.575 27644.3711 -583.9947)">
					<stop  offset="0" style="stop-color:#00E9D9"/>
					<stop  offset="1" style="stop-color:#0082FF"/>
				</linearGradient>
				<path id="路径_4065-2" class="st12" d="M1205.3,38.4l-0.5,123.8l-98.4-56.8l0.5-123.8L1205.3,38.4z"/>
			</g>
			<g id="组_9891" transform="translate(168 -4)">
				
					<linearGradient id="路径_14550_1_" gradientUnits="userSpaceOnUse" x1="-11908.5908" y1="9.4054" x2="-11907.5908" y2="9.4054" gradientTransform="matrix(193.844 0 0 63.525 2303727.5 8668.2227)">
					<stop  offset="0" style="stop-color:#00F9FF"/>
					<stop  offset="1" style="stop-color:#0043FF"/>
				</linearGradient>
				<path id="路径_14550" class="st13" d="M-4584.2,9289.9l-96.9-56l-0.1,7.6l96.9,56l96.9-56v-7.5L-4584.2,9289.9z"/>
				
					<linearGradient id="路径_14553_1_" gradientUnits="userSpaceOnUse" x1="-11908.5303" y1="5.5893" x2="-11907.5313" y2="5.5893" gradientTransform="matrix(191.841 0 0 111.119 2279864.25 8613.0273)">
					<stop  offset="0" style="stop-color:#00E9D9"/>
					<stop  offset="1" style="stop-color:#0082FF"/>
				</linearGradient>
				<path id="路径_14553" class="st14" d="M-4488.5,9234.1l-95.6,55.6l-96.2-55.6l95.6-55.6L-4488.5,9234.1z"/>
			</g>
			<g id="组_9892" transform="translate(-8091.155 8963.558)">
				<g id="组_349" transform="translate(2627.042 386.903)">
					
						<linearGradient id="路径_569_1_" gradientUnits="userSpaceOnUse" x1="-359.7238" y1="38.5611" x2="-359.7238" y2="37.6801" gradientTransform="matrix(3.8171 0 0 15.044 2493.1018 -542.39)">
						<stop  offset="0" style="stop-color:#1E6ADC"/>
						<stop  offset="1" style="stop-color:#12C2E9"/>
					</linearGradient>
					<path id="路径_569" class="st15" d="M1118.1,23.2V36l3.8,2.2V25.4L1118.1,23.2z"/>
					
						<linearGradient id="路径_570_1_" gradientUnits="userSpaceOnUse" x1="-622.0331" y1="12.0589" x2="-622.8762" y2="12.9888" gradientTransform="matrix(40.6211 0 0 46.6894 26406.6543 -584.019)">
						<stop  offset="0" style="stop-color:#36DFF2"/>
						<stop  offset="1" style="stop-color:#12C2E9"/>
					</linearGradient>
					<path id="路径_570" class="st16" d="M1143.3-17.9c-1.4-0.8-3.3-0.7-5.4,0.5L1114-3.6c-4.5,2.9-7.2,7.7-7.5,13v11.8
						c0,2.4,0.8,4.1,2.2,4.8l3.8,2.2c-1.4-0.8-2.2-2.5-2.2-4.8V11.6c0.3-5.3,3.1-10.1,7.5-13l24-13.8c2.1-1.2,4-1.3,5.4-0.5
						L1143.3-17.9z"/>
				</g>
				<path id="路径_571" class="st17" d="M3768.7,371.7c4.2-2.4,7.6-0.5,7.6,4.3v11.8c-0.3,5.3-3.1,10.1-7.5,13l-8.7,5l-11.1,19.3
					v-12.8l-4.1,2.4c-4.2,2.4-7.6,0.5-7.6-4.3v-11.8c0.3-5.3,3.1-10.1,7.5-13L3768.7,371.7z"/>
				<g id="组_353" transform="translate(2637.008 401.236)">
					<g id="组_350" transform="translate(21.271)">
						
							<linearGradient id="路径_572_1_" gradientUnits="userSpaceOnUse" x1="-515.7806" y1="78.626" x2="-514.7806" y2="78.626" gradientTransform="matrix(5.623 0 0 7.2397 4006.6689 -583.9789)">
							<stop  offset="0" style="stop-color:#1E70DC"/>
							<stop  offset="1" style="stop-color:#12C2E9"/>
						</linearGradient>
						<path id="路径_572" class="st18" d="M1109.2-18c-1.7,1.1-2.7,2.9-2.8,4.9c0,1.8,1.3,2.5,2.8,1.6c1.7-1.1,2.7-2.9,2.8-4.9
							C1112-18.2,1110.8-18.9,1109.2-18z"/>
					</g>
					<g id="组_351" transform="translate(10.64 6.215)">
						
							<linearGradient id="路径_573_1_" gradientUnits="userSpaceOnUse" x1="-494.8342" y1="78.6401" x2="-493.8342" y2="78.6401" gradientTransform="matrix(5.6321 0 0 7.2389 3893.3806 -584.0182)">
							<stop  offset="0" style="stop-color:#1E70DC"/>
							<stop  offset="1" style="stop-color:#12C2E9"/>
						</linearGradient>
						<path id="路径_573" class="st19" d="M1109.2-18c-1.7,1.1-2.7,2.9-2.8,4.9c0,1.8,1.3,2.5,2.8,1.6c1.7-1.1,2.7-2.9,2.8-4.9
							C1112.1-18.2,1110.8-18.9,1109.2-18z"/>
					</g>
					<g id="组_352" transform="translate(0 12.36)">
						
							<linearGradient id="路径_574_1_" gradientUnits="userSpaceOnUse" x1="-473.3752" y1="78.6289" x2="-472.3752" y2="78.6289" gradientTransform="matrix(5.627 0 0 7.2399 3770.1035 -584.0153)">
							<stop  offset="0" style="stop-color:#1E70DC"/>
							<stop  offset="1" style="stop-color:#12C2E9"/>
						</linearGradient>
						<path id="路径_574" class="st20" d="M1109.2-18c-1.7,1.1-2.7,2.9-2.8,4.9c0,1.8,1.3,2.5,2.8,1.6c1.7-1.1,2.7-2.9,2.8-4.9
							C1112-18.2,1110.8-18.9,1109.2-18z"/>
					</g>
				</g>
			</g>
			<g id="组_9893" transform="translate(-8211 7726.757)">
				
					<linearGradient id="路径_14552_1_" gradientUnits="userSpaceOnUse" x1="4863.6709" y1="8.5421" x2="4864.6709" y2="8.5421" gradientTransform="matrix(55.4089 0 0 70.322 -265799.0625 1016.3535)">
					<stop  offset="0" style="stop-color:#8FAAFF"/>
					<stop  offset="1" style="stop-color:#4C66E4"/>
				</linearGradient>
				<path id="路径_14552" class="st21" d="M3746.2,1613.4c0.5,0.3,0.8,0.9,0.8,1.4v37.4l-54.6-31.5c-0.5-0.3-0.8-0.9-0.8-1.4
					v-37.4L3746.2,1613.4z"/>
				
					<linearGradient id="路径_1673_1_" gradientUnits="userSpaceOnUse" x1="4828.9971" y1="8.335" x2="4829.9966" y2="8.335" gradientTransform="matrix(56.8472 0 0 72.2039 -272771.5938 1017.7789)">
					<stop  offset="0" style="stop-color:#020D83"/>
					<stop  offset="1" style="stop-color:#498DEA"/>
				</linearGradient>
				<path id="路径_1673" class="st22" d="M3685.6,1584.1c0-0.5,0.4-0.7,0.8-0.5l55.2,31.9c0.5,0.3,0.8,0.9,0.8,1.4v38.2
					c0,0.5-0.4,0.7-0.8,0.5l-55.2-31.9c-0.5-0.3-0.8-0.9-0.8-1.4V1584.1z"/>
				
					<linearGradient id="路径_1674_1_" gradientUnits="userSpaceOnUse" x1="4863.6709" y1="8.5421" x2="4864.6709" y2="8.5421" gradientTransform="matrix(55.4089 0 0 70.322 -265805.0625 1019.3535)">
					<stop  offset="0" style="stop-color:#8FC7FF"/>
					<stop  offset="1" style="stop-color:#76BBEF;stop-opacity:0.8"/>
				</linearGradient>
				<path id="路径_1674" class="st23" d="M3740.2,1616.4c0.5,0.3,0.8,0.9,0.8,1.4v37.4l-54.6-31.5c-0.5-0.3-0.8-0.9-0.8-1.4v-37.4
					L3740.2,1616.4z"/>
				
					<linearGradient id="路径_1675_1_" gradientUnits="userSpaceOnUse" x1="4827.5088" y1="14.8202" x2="4828.5088" y2="14.8202" gradientTransform="matrix(51.5029 0 0 39.5 -246883.8281 1045.5034)">
					<stop  offset="0" style="stop-color:#53F8F8"/>
					<stop  offset="0.403" style="stop-color:#60BBBB"/>
					<stop  offset="0.81" style="stop-color:#FFD871"/>
					<stop  offset="1" style="stop-color:#EECF7F"/>
				</linearGradient>
				<path id="路径_1675" class="st24" d="M3738.9,1650.6v-7.9l-6.1-8.7l-3.2,2.4l-6.5-12.9l-2.4,4.1h-3.4l-5.6-8.2l-3.2-2h-6.7
					l-4.3-6.2l-4.9,2.2l-5.1-0.2v8.1L3738.9,1650.6z"/>
			</g>
			<g id="组_9894" transform="translate(-5575.642 9215.863)">
				
					<linearGradient id="路径_1865_1_" gradientUnits="userSpaceOnUse" x1="-415.419" y1="9.475" x2="-416.4187" y2="9.475" gradientTransform="matrix(104.4279 0 0 63.0161 44592.168 -583.8159)">
					<stop  offset="0" style="stop-color:#E8EFF4"/>
					<stop  offset="0.389" style="stop-color:#D4E0EA"/>
					<stop  offset="1" style="stop-color:#B9CCDD"/>
				</linearGradient>
				<path id="路径_1865" class="st25" d="M1109.1,3.9l35.2-20.5c3.7-2.2,8.3-2.2,12,0l51.9,30.5c2.5,1.5,3.4,4.7,1.9,7.3
					c-0.5,0.8-1.1,1.5-1.9,1.9l-34.7,20.1c-3.7,2.1-8.2,2.1-11.9,0l-52.5-30.1c-2.5-1.5-3.4-4.7-2-7.3
					C1107.6,5,1108.3,4.4,1109.1,3.9z"/>
				<path id="路径_1866" class="st26" d="M1156.4-16.9l47.5,27.9c2.3,1.4,3.1,4.3,1.7,6.7c-0.4,0.7-1,1.3-1.8,1.8L1172,37.9
					c-3.4,1.9-7.5,1.9-10.9,0l-48-27.5c-2.3-1.3-3.1-4.3-1.8-6.7c0.4-0.7,1-1.4,1.8-1.8l32.2-18.8
					C1148.8-18.9,1153-18.9,1156.4-16.9z"/>
				
					<linearGradient id="路径_1867_1_" gradientUnits="userSpaceOnUse" x1="-414.4359" y1="17.0271" x2="-415.4355" y2="17.0271" gradientTransform="matrix(95.5602 0 0 34.2244 40809.8711 -560.5801)">
					<stop  offset="0" style="stop-color:#1067DB"/>
					<stop  offset="1" style="stop-color:#1CA2F9"/>
				</linearGradient>
				<path id="路径_1867" class="st27" d="M1113.2,8.3l48,27.5c3.4,1.9,7.5,1.9,10.9,0l31.8-18.4c1.2-0.7,2.1-1.9,2.3-3.2
					c0.4,2.1-0.5,4.2-2.3,5.2l-31.8,18.4c-3.4,1.9-7.5,1.9-10.9,0l-48-27.5c-1.8-1-2.8-3.2-2.3-5.2C1111.2,6.4,1112,7.6,1113.2,8.3z
					"/>
				
					<linearGradient id="路径_1868_1_" gradientUnits="userSpaceOnUse" x1="-369.1604" y1="50.8201" x2="-370.1604" y2="50.8201" gradientTransform="matrix(19.461 0 0 11.24 8382.085 -562.1179)">
					<stop  offset="0" style="stop-color:#4553E6"/>
					<stop  offset="1" style="stop-color:#6FF8F3"/>
				</linearGradient>
				<path id="路径_1868" class="st28" d="M1197.9,11.6l-14.1-8.1l-5.4,3.1l14.1,8.1L1197.9,11.6z"/>
				
					<linearGradient id="路径_1869_1_" gradientUnits="userSpaceOnUse" x1="-395.3774" y1="27.8936" x2="-396.377" y2="27.8936" gradientTransform="matrix(36.114 0 0 20.6482 15469.458 -567.2518)">
					<stop  offset="0" style="stop-color:#4553E6"/>
					<stop  offset="1" style="stop-color:#6FF8F3"/>
				</linearGradient>
				<path id="路径_1869" class="st29" d="M1190.8,15.9l-30.7-17.5l-5.4,3.1l30.7,17.5L1190.8,15.9z"/>
				
					<linearGradient id="路径_1870_1_" gradientUnits="userSpaceOnUse" x1="-384.9172" y1="36.8871" x2="-385.9163" y2="36.8871" gradientTransform="matrix(26.923 0 0 15.5449 11546.9258 -557.8558)">
					<stop  offset="0" style="stop-color:#4553E6"/>
					<stop  offset="1" style="stop-color:#6FF8F3"/>
				</linearGradient>
				<path id="路径_1870" class="st30" d="M1183.8,20.2l-21.5-12.4l-5.4,3.1l21.5,12.4L1183.8,20.2z"/>
				
					<linearGradient id="路径_1871_1_" gradientUnits="userSpaceOnUse" x1="-375.8062" y1="44.6009" x2="-376.8062" y2="44.6009" gradientTransform="matrix(22.037 0 0 12.825 9458.3799 -550.9065)">
					<stop  offset="0" style="stop-color:#4553E6"/>
					<stop  offset="1" style="stop-color:#6FF8F3"/>
				</linearGradient>
				<path id="路径_1871" class="st31" d="M1176.7,24.4l-16.7-9.7l-5.4,3.1l16.7,9.7L1176.7,24.4z"/>
				
					<linearGradient id="路径_1872_1_" gradientUnits="userSpaceOnUse" x1="-393.5681" y1="29.3087" x2="-394.5681" y2="29.3087" gradientTransform="matrix(34.101 0 0 19.6318 14590.7656 -553.3833)">
					<stop  offset="0" style="stop-color:#4553E6"/>
					<stop  offset="1" style="stop-color:#6FF8F3"/>
				</linearGradient>
				<path id="路径_1872" class="st32" d="M1169.7,28.7L1141,12.2l-5.4,3.1l28.7,16.5L1169.7,28.7z"/>
				<g id="组_1656" transform="translate(37.192 21.388)">
					<path id="路径_1873" class="st33" d="M1107.2,5l1.1-0.9l4.5-12h20.7l1.9-7.4h15l3.6-2.1l-0.6-1l-3.4,2h-15.6l-1.9,7.4h-20.6
						l-4.6,12.5l-0.8,0.7L1107.2,5z"/>
				</g>
			</g>
		</g>
		<line id="直线_13" class="st34" x1="-4457.1" y1="9172.1" x2="-4508.1" y2="9195.1"/>
		<line id="直线_14" class="st34" x1="-4208.1" y1="9200.1" x2="-4261.1" y2="9172.1"/>
		<line id="直线_15" class="st34" x1="-4360.1" y1="8929.1" x2="-4360.1" y2="8964.1"/>
		
			<radialGradient id="椭圆_83_1_" cx="-11460.499" cy="75.8342" r="0.5" gradientTransform="matrix(106.2887 -63.8647 7.2105 12.0003 1213264.75 -723754.75)" gradientUnits="userSpaceOnUse">
			<stop  offset="0" style="stop-color:#23E8FF;stop-opacity:0.812"/>
			<stop  offset="1" style="stop-color:#BAF8FF;stop-opacity:0"/>
		</radialGradient>
		<path id="椭圆_83" class="st35" d="M-4314.2,9070.3c29.4-17.6,54.8-29.2,56.7-25.9c2,3.3-20.2,20.3-49.5,37.9
			c-29.4,17.6-54.8,29.2-56.7,25.9S-4343.5,9088-4314.2,9070.3z"/>
		
			<radialGradient id="椭圆_84_1_" cx="-11455.7891" cy="-4.0271" r="0.4997" gradientTransform="matrix(107.3871 62 -7 12.1244 1225767.625 719383.6875)" gradientUnits="userSpaceOnUse">
			<stop  offset="0" style="stop-color:#23E8FF;stop-opacity:0.812"/>
			<stop  offset="1" style="stop-color:#BAF8FF;stop-opacity:0"/>
		</radialGradient>
		<path id="椭圆_84" class="st36" d="M-4405,9070.3c29.7,17.1,52.1,33.7,50.2,37.1c-1.9,3.3-27.5-7.8-57.2-24.9
			c-29.7-17.1-52.1-33.7-50.2-37.1C-4460.3,9042-4434.7,9053.1-4405,9070.3z"/>
		
			<radialGradient id="椭圆_85_1_" cx="-11461.2363" cy="-78.5303" r="0.5001" gradientTransform="matrix(7.592810e-15 124 -14 8.572528e-16 -5458.9648 1430357.625)" gradientUnits="userSpaceOnUse">
			<stop  offset="0" style="stop-color:#23E8FF;stop-opacity:0.812"/>
			<stop  offset="1" style="stop-color:#BAF8FF;stop-opacity:0"/>
		</radialGradient>
		<ellipse id="椭圆_85" class="st37" cx="-4359.5" cy="9164.3" rx="7" ry="62"/>
	</g>
</g>
</svg>
