<?xml version="1.0" encoding="UTF-8"?>
<svg width="37px" height="33px" viewBox="0 0 37 33" version="1.1" xmlns="http://www.w3.org/2000/svg" xmlns:xlink="http://www.w3.org/1999/xlink">
    <!-- Generator: Sketch 64 (93537) - https://sketch.com -->
    <title>联系我们</title>
    <desc>Created with Sketch.</desc>
    <g id="首页" stroke="none" stroke-width="1" fill="none" fill-rule="evenodd">
        <g id="首页12.6版本二" transform="translate(-1854.000000, -3468.000000)" fill="#FFFFFF" stroke="#FFFFFF" stroke-width="0.5">
            <g id="编组-9" transform="translate(20.000000, 3139.000000)">
                <path d="M1868.15626,341.014123 C1867.6762,340.708284 1867.14973,340.482222 1866.59736,340.344803 C1866.52157,340.074513 1866.43599,339.806915 1866.34085,339.542798 C1864.39016,333.991926 1859.1002,330 1852.89166,330 C1846.87906,330 1841.7236,333.750456 1839.63442,339.035169 C1839.46911,339.453413 1839.32464,339.881078 1839.19914,340.316354 C1838.76206,340.411726 1838.33913,340.563253 1837.94065,340.766852 C1836.19579,341.649007 1835,343.460608 1835,345.545932 L1835,348.61969 C1835,351.575566 1837.40096,353.97838 1840.35688,353.97838 L1840.40816,353.97838 C1841.84524,353.97838 1843.01439,352.809413 1843.01439,351.372153 L1843.01439,342.799085 C1843.01439,342.247784 1842.84323,341.738346 1842.55043,341.316343 C1842.23392,340.856052 1841.77725,340.509975 1841.24846,340.329766 C1841.39854,339.886694 1841.57151,339.455223 1841.76926,339.035169 C1843.733,334.858858 1847.97966,331.961689 1852.89547,331.961689 C1858.00141,331.961689 1862.39255,335.094526 1864.24587,339.542798 C1864.34668,339.786077 1864.44186,340.034972 1864.52721,340.287905 C1864.0762,340.417156 1863.66863,340.666793 1863.34868,341.010132 C1862.89364,341.493071 1862.64056,342.13176 1862.64149,342.795279 L1862.64149,351.372524 C1862.64149,352.163113 1862.995,352.872345 1863.5521,353.347487 C1862.12825,354.853062 1858.97657,357.519993 1854.5528,357.464904 C1854.15721,356.65617 1853.33543,356.143668 1852.43518,356.143854 C1851.13116,356.143854 1850.07427,357.200741 1850.07427,358.504759 C1850.07427,359.808777 1851.13116,360.865664 1852.43518,360.865664 C1853.36662,360.865664 1854.17461,360.323971 1854.55679,359.537002 L1854.68767,359.537002 C1860.7858,359.537002 1864.66973,355.328251 1865.77795,353.956057 C1868.50958,353.714401 1870.65946,351.410441 1870.65547,348.616255 L1870.65547,345.542127 C1870.65584,343.637336 1869.65784,341.962597 1868.15626,341.013937 L1868.15626,341.014123 Z M1840.94224,351.368347 C1840.94224,351.661146 1840.70277,351.902615 1840.40816,351.902615 L1840.35688,351.902615 C1838.54528,351.902615 1837.0701,350.429295 1837.0701,348.61607 L1837.0701,345.542127 C1837.0701,343.730526 1838.54528,342.257205 1840.35688,342.257205 L1840.40436,342.257205 C1840.70277,342.257205 1840.94243,342.498675 1840.94243,342.795279 L1840.94243,351.368347 L1840.94224,351.368347 Z M1868.58573,348.615884 C1868.58573,350.429295 1867.11074,351.90243 1865.29914,351.90243 L1865.24767,351.90243 C1864.95269,351.901733 1864.71341,351.663327 1864.7116,351.368208 L1864.7116,342.795093 C1864.7116,342.498489 1864.95306,342.25702 1865.25148,342.25702 L1865.29896,342.25702 C1867.1106,342.25702 1868.58573,343.730155 1868.58573,345.541941 L1868.58573,348.615884 Z" id="联系我们"></path>
            </g>
        </g>
    </g>
</svg>