<?xml version="1.0" encoding="UTF-8"?>
<svg width="29px" height="33px" viewBox="0 0 29 33" version="1.1" xmlns="http://www.w3.org/2000/svg" xmlns:xlink="http://www.w3.org/1999/xlink">
    <!-- Generator: Sketch 64 (93537) - https://sketch.com -->
    <title>置顶</title>
    <desc>Created with Sketch.</desc>
    <g id="首页" stroke="none" stroke-width="1" fill="none" fill-rule="evenodd">
        <g id="首页12.6版本二" transform="translate(-1858.000000, -3534.000000)" fill="#FFFFFF" fill-rule="nonzero">
            <g id="编组-9" transform="translate(20.000000, 3139.000000)">
                <g id="编组-12" transform="translate(1825.000000, 318.000000)">
                    <path d="M26.7408268,100.854133 C27.1448255,101.247663 27.7999687,101.247736 28.204043,100.854133 L38.4371914,90.8867502 C39.2459062,90.0989939 38.9736536,89.4609719 37.8297773,89.4609719 L31.6152057,89.4609719 L31.6152057,79.0137054 C31.6152057,77.9013781 30.688112,77 29.5445,77 L25.400332,77 C24.2568711,77 23.3295508,77.9015249 23.3295508,79.013632 L23.3295508,89.4609719 L17.1151302,89.4609719 C15.9711029,89.4609719 15.6992279,90.0993609 16.5076784,90.8867502 L26.7408646,100.85417 L26.7408268,100.854133 Z M39.9289544,105.194444 L15.0710456,105.194444 C13.9279245,105.194444 13,106.096116 13,107.208333 C13,108.320807 13.927207,109.222222 15.0710456,109.222222 L39.9289544,109.222222 C41.072,109.222222 42,108.32055 42,107.208333 C42,106.095859 41.072793,105.194444 39.9289544,105.194444 Z" id="置顶" transform="translate(27.500000, 93.111111) scale(1, -1) translate(-27.500000, -93.111111) "></path>
                </g>
            </g>
        </g>
    </g>
</svg>