<svg xmlns="http://www.w3.org/2000/svg" xmlns:xlink="http://www.w3.org/1999/xlink" width="416" height="278" viewBox="0 0 416 278">
  <defs>
    <linearGradient id="linear-gradient" x1="0.197" y1="1.67" x2="0.764" y2="-0.46" gradientUnits="objectBoundingBox">
      <stop offset="0" stop-color="#29e6fb"/>
      <stop offset="0.048" stop-color="#26e6fb" stop-opacity="0.937"/>
      <stop offset="0.319" stop-color="#19e7fc" stop-opacity="0.608"/>
      <stop offset="0.56" stop-color="#0ee7fd" stop-opacity="0.349"/>
      <stop offset="0.76" stop-color="#07e8fe" stop-opacity="0.161"/>
      <stop offset="0.913" stop-color="#02e8fe" stop-opacity="0.043"/>
      <stop offset="1" stop-color="#01e9ff" stop-opacity="0"/>
    </linearGradient>
    <linearGradient id="linear-gradient-2" x1="0.303" y1="1.172" x2="0.572" y2="0.228" gradientUnits="objectBoundingBox">
      <stop offset="0" stop-color="#29e6fb" stop-opacity="0.502"/>
      <stop offset="1" stop-color="#01e9ff" stop-opacity="0.102"/>
    </linearGradient>
    <linearGradient id="linear-gradient-3" x1="0.15" y1="0.809" x2="1.548" y2="-0.273" gradientUnits="objectBoundingBox">
      <stop offset="0" stop-color="#29e6fb" stop-opacity="0.302"/>
      <stop offset="1" stop-color="#01e9ff" stop-opacity="0"/>
    </linearGradient>
    <linearGradient id="linear-gradient-4" x1="1.011" y1="1" x2="0.016" y2="0.025" gradientUnits="objectBoundingBox">
      <stop offset="0" stop-color="#3d51ff"/>
      <stop offset="1" stop-color="#171e98"/>
    </linearGradient>
    <linearGradient id="linear-gradient-5" y1="0.5" x2="1" y2="0.5" gradientUnits="objectBoundingBox">
      <stop offset="0" stop-color="#00e9d9"/>
      <stop offset="1" stop-color="#0082ff"/>
    </linearGradient>
    <linearGradient id="linear-gradient-6" x1="0.457" y1="0.167" x2="0.547" y2="0.865" xlink:href="#linear-gradient-5"/>
    <linearGradient id="linear-gradient-9" x1="0.457" y1="0.167" x2="0.547" y2="0.865" xlink:href="#linear-gradient-5"/>
    <linearGradient id="linear-gradient-11" x1="-12.833" y1="0.5" x2="-11.833" y2="0.5" gradientUnits="objectBoundingBox">
      <stop offset="0" stop-color="#55ffe9"/>
      <stop offset="1" stop-color="#4c65f6"/>
    </linearGradient>
    <linearGradient id="linear-gradient-12" x1="-13.23" y1="0.5" x2="-12.23" y2="0.5" xlink:href="#linear-gradient-11"/>
    <linearGradient id="linear-gradient-13" x1="-35.318" y1="0.5" x2="-34.318" y2="0.5" gradientUnits="objectBoundingBox">
      <stop offset="0" stop-color="#fff" stop-opacity="0.8"/>
      <stop offset="0.204" stop-color="#bef9ff" stop-opacity="0.596"/>
      <stop offset="0.483" stop-color="#6df2ff" stop-opacity="0.341"/>
      <stop offset="0.718" stop-color="#32edff" stop-opacity="0.157"/>
      <stop offset="0.898" stop-color="#0eeaff" stop-opacity="0.043"/>
      <stop offset="1" stop-color="#01e9ff" stop-opacity="0"/>
    </linearGradient>
    <linearGradient id="linear-gradient-14" x1="-226.141" y1="0.5" x2="-225.141" y2="0.5" xlink:href="#linear-gradient-13"/>
    <clipPath id="clip-path">
      <path id="路径_13929" data-name="路径 13929" d="M1141.818,374.32q19.25,11.187,38.5,22.379c-5.235-3.045-11.973-3.5-19.52-.958l-38.5-22.375C1129.841,370.829,1136.578,371.28,1141.818,374.32Z" transform="translate(-1122.296 -371.719)" fill="url(#linear-gradient)"/>
    </clipPath>
    <linearGradient id="linear-gradient-21" x1="0.904" y1="-0.009" x2="0.071" y2="0.817" gradientUnits="objectBoundingBox">
      <stop offset="0" stop-color="#29e6fb" stop-opacity="0.8"/>
      <stop offset="0.195" stop-color="#1fe6fb" stop-opacity="0.604"/>
      <stop offset="0.477" stop-color="#12e7fd" stop-opacity="0.349"/>
      <stop offset="0.715" stop-color="#08e8fe" stop-opacity="0.2"/>
      <stop offset="0.896" stop-color="#03e8fe" stop-opacity="0.149"/>
      <stop offset="1" stop-color="#01e9ff" stop-opacity="0.102"/>
    </linearGradient>
    <clipPath id="clip-path-2">
      <path id="路径_13934" data-name="路径 13934" d="M586.466,672.268l-38.5-22.372c1.867-16.954,13.583-35.952,27.86-44.35l38.5,22.375C600.049,636.314,588.336,655.316,586.466,672.268Z" transform="translate(-547.967 -605.547)" fill="url(#linear-gradient-2)"/>
    </clipPath>
    <clipPath id="clip-path-3">
      <path id="路径_13937" data-name="路径 13937" d="M459.072,921.976l-38.5-22.37c-5.007-2.913-8.108-9.1-8.134-17.895-.046-17.107,11.573-37.762,26.247-47.164l38.5,22.372c-14.674,9.408-26.294,30.062-26.246,47.168C450.966,912.877,454.07,919.068,459.072,921.976Z" transform="translate(-412.439 -834.547)" fill="url(#linear-gradient-3)"/>
    </clipPath>
    <linearGradient id="linear-gradient-26" x1="1" y1="0.5" x2="0" y2="0.5" gradientUnits="objectBoundingBox">
      <stop offset="0" stop-color="#29e6fb" stop-opacity="0.8"/>
      <stop offset="0.195" stop-color="#1fe6fb" stop-opacity="0.604"/>
      <stop offset="0.477" stop-color="#12e7fd" stop-opacity="0.349"/>
      <stop offset="0.715" stop-color="#08e8fe" stop-opacity="0.161"/>
      <stop offset="0.896" stop-color="#03e8fe" stop-opacity="0.043"/>
      <stop offset="1" stop-color="#01e9ff" stop-opacity="0"/>
    </linearGradient>
    <linearGradient id="linear-gradient-27" x1="-31.913" y1="4.426" x2="16.347" y2="-1.42" gradientUnits="objectBoundingBox">
      <stop offset="0" stop-color="#29e6fb" stop-opacity="0.8"/>
      <stop offset="0.264" stop-color="#2fb1fc" stop-opacity="0.8"/>
      <stop offset="0.598" stop-color="#3676fd" stop-opacity="0.8"/>
      <stop offset="0.854" stop-color="#3a52fe" stop-opacity="0.8"/>
      <stop offset="1" stop-color="#3c45ff" stop-opacity="0.8"/>
    </linearGradient>
    <linearGradient id="linear-gradient-28" y1="0.5" x2="1" y2="0.5" gradientUnits="objectBoundingBox">
      <stop offset="0" stop-color="#00c9ff"/>
      <stop offset="1" stop-color="#3f4cff"/>
    </linearGradient>
    <linearGradient id="linear-gradient-29" y1="0.5" x2="1" y2="0.5" gradientUnits="objectBoundingBox">
      <stop offset="0" stop-color="#3462ff"/>
      <stop offset="0.527" stop-color="#00c9ff"/>
      <stop offset="1" stop-color="#3f4cff"/>
    </linearGradient>
    <linearGradient id="linear-gradient-32" x1="0.548" y1="0.075" x2="0.44" y2="1.038" gradientUnits="objectBoundingBox">
      <stop offset="0" stop-color="#00e5db" stop-opacity="0"/>
      <stop offset="1" stop-color="#0082ff"/>
    </linearGradient>
    <linearGradient id="linear-gradient-33" x1="0.56" y1="0.075" x2="0.424" y2="1.038" gradientUnits="objectBoundingBox">
      <stop offset="0" stop-color="#00e5db" stop-opacity="0"/>
      <stop offset="0.988" stop-color="#0082ff"/>
    </linearGradient>
    <linearGradient id="linear-gradient-34" y1="0.5" x2="1" y2="0.5" gradientUnits="objectBoundingBox">
      <stop offset="0" stop-color="#00c9ff"/>
      <stop offset="1" stop-color="#00fff7"/>
    </linearGradient>
    <linearGradient id="linear-gradient-35" y1="0.5" x2="1" y2="0.5" gradientUnits="objectBoundingBox">
      <stop offset="0" stop-color="#00a2ff"/>
      <stop offset="1" stop-color="#00d0ff"/>
    </linearGradient>
    <linearGradient id="linear-gradient-44" y1="0.5" x2="1" y2="0.5" gradientUnits="objectBoundingBox">
      <stop offset="0" stop-color="#00f9ff" stop-opacity="0.6"/>
      <stop offset="1" stop-color="#0043ff" stop-opacity="0.8"/>
    </linearGradient>
    <linearGradient id="linear-gradient-46" y1="0.5" x2="1.868" y2="0.5" gradientUnits="objectBoundingBox">
      <stop offset="0" stop-color="#9efffc"/>
      <stop offset="1" stop-color="#fff"/>
    </linearGradient>
    <linearGradient id="linear-gradient-47" y1="0.5" x2="2.615" y2="0.5" gradientUnits="objectBoundingBox">
      <stop offset="0" stop-color="#00f9ff"/>
      <stop offset="1" stop-color="#0043ff"/>
    </linearGradient>
    <linearGradient id="linear-gradient-48" y1="0.5" x2="1" y2="0.5" gradientUnits="objectBoundingBox">
      <stop offset="0" stop-color="#2727ff"/>
      <stop offset="1" stop-color="#4400e8"/>
    </linearGradient>
    <linearGradient id="linear-gradient-49" y1="0.5" x2="1" y2="0.5" gradientUnits="objectBoundingBox">
      <stop offset="0" stop-color="#8200ff"/>
      <stop offset="1" stop-color="#4400e8"/>
    </linearGradient>
    <linearGradient id="linear-gradient-50" x1="0" y1="0.5" x2="1" y2="0.5" xlink:href="#linear-gradient-46"/>
    <linearGradient id="linear-gradient-58" y1="0.5" x2="1" y2="0.5" gradientUnits="objectBoundingBox">
      <stop offset="0" stop-color="#2826ff"/>
      <stop offset="1" stop-color="#4400e8"/>
    </linearGradient>
    <linearGradient id="linear-gradient-59" x1="0" y1="0.5" x2="1" y2="0.5" xlink:href="#linear-gradient-47"/>
    <linearGradient id="linear-gradient-60" x1="0.246" y1="0.54" x2="3.241" y2="-0.031" xlink:href="#linear-gradient-46"/>
    <clipPath id="clip-数据报表_1">
      <rect width="416" height="278"/>
    </clipPath>
  </defs>
  <g id="数据报表_1" data-name="数据报表 – 1" clip-path="url(#clip-数据报表_1)">
    <rect width="416" height="278" fill="#fff"/>
    <g id="图层_2" data-name="图层 2" transform="translate(0.227 0.097)">
      <rect id="矩形_371" data-name="矩形 371" width="416" height="278" transform="translate(-0.227 -0.097)" fill="url(#linear-gradient-4)"/>
    </g>
    <g id="组_10430" data-name="组 10430" transform="translate(-16)">
      <g id="组_9851" data-name="组 9851" transform="translate(169.466 119.202)">
        <g id="组_5410" data-name="组 5410" transform="translate(11.913 9.318)">
          <path id="路径_4058" data-name="路径 4058" d="M1635.493,1084.033l-.035,8.361-6.6,3.837.035-8.361Z" transform="translate(-1628.855 -1084.033)" fill="url(#linear-gradient-5)"/>
        </g>
        <g id="组_5411" data-name="组 5411" transform="translate(5.267 9.318)">
          <path id="路径_4059" data-name="路径 4059" d="M1593.653,1087.87l-.035,8.361-6.646-3.837.035-8.361Z" transform="translate(-1586.971 -1084.033)" fill="url(#linear-gradient-6)"/>
        </g>
        <g id="组_5412" data-name="组 5412" transform="translate(5.301 5.48)">
          <path id="路径_4060" data-name="路径 4060" d="M1600.441,1063.689l-6.6,3.837-6.646-3.837,6.6-3.837Z" transform="translate(-1587.192 -1059.851)" fill="url(#linear-gradient-5)"/>
        </g>
        <g id="组_5413" data-name="组 5413" transform="translate(12.178 7.031)" opacity="0.3">
          <path id="路径_4061" data-name="路径 4061" d="M1642.686,1069.622l-.064,15.319-12.1,7.031.064-15.319Z" transform="translate(-1630.524 -1069.622)" fill="url(#linear-gradient-5)"/>
        </g>
        <g id="组_5414" data-name="组 5414" transform="translate(0 7.031)" opacity="0.3">
          <path id="路径_4062" data-name="路径 4062" d="M1566.024,1076.654l-.064,15.319-12.178-7.031.064-15.319Z" transform="translate(-1553.782 -1069.623)" fill="url(#linear-gradient-9)"/>
        </g>
        <g id="组_5415" data-name="组 5415" transform="translate(0.064 0)" opacity="0.3">
          <path id="路径_4063" data-name="路径 4063" d="M1578.462,1032.346l-12.1,7.031-12.177-7.031,12.1-7.031Z" transform="translate(-1554.186 -1025.316)" fill="url(#linear-gradient-5)"/>
        </g>
      </g>
      <path id="路径_14527" data-name="路径 14527" d="M-11334.834,5583.467v31.805h20.423" transform="translate(11516.47 -5434.884)" fill="none" stroke="#01c6ff" stroke-width="1"/>
      <g id="图层_1" data-name="图层 1" transform="translate(187.42 35.906)">
        <g id="组_9590" data-name="组 9590" transform="translate(79.156 57.496)">
          <g id="组_9586" data-name="组 9586" opacity="0.34">
            <path id="路径_14006" data-name="路径 14006" d="M890.706,659.341a4.546,4.546,0,0,0-2.055,3.559l.1,35.323c0,1.3.935,1.833,2.068,1.178l46.793-27.016a4.545,4.545,0,0,0,2.056-3.559l-.1-35.323c0-1.3-.934-1.833-2.069-1.178Z" transform="translate(-888.651 -632.045)" fill="url(#linear-gradient-11)"/>
          </g>
          <g id="组_9587" data-name="组 9587" transform="translate(10.133 3.061)" opacity="0.24">
            <path id="路径_14007" data-name="路径 14007" d="M943.026,675.145a4.546,4.546,0,0,0-2.055,3.559l.1,35.323c0,1.3.934,1.833,2.068,1.178l46.793-27.016a4.545,4.545,0,0,0,2.055-3.559l-.1-35.323c0-1.3-.934-1.833-2.069-1.178Z" transform="translate(-940.971 -647.848)" fill="url(#linear-gradient-12)"/>
          </g>
          <g id="组_9588" data-name="组 9588" transform="translate(14.685 22.828)" opacity="0.18">
            <path id="路径_14008" data-name="路径 14008" d="M965.779,800.28l16.009-9.269c.72-.416,1.311-.079,1.313.748l.064.955a2.887,2.887,0,0,1-1.305,2.26l-16.01,9.269c-.72.416-1.311.079-1.313-.748l-.064-.955A2.886,2.886,0,0,1,965.779,800.28Z" transform="translate(-964.475 -782.909)" fill="#55faff"/>
            <path id="路径_14009" data-name="路径 14009" d="M1068.317,779.547l.344-.2c.72-.416,1.311-.079,1.314.748l.063.955a2.886,2.886,0,0,1-1.3,2.26l-.344.2c-.72.416-1.311.079-1.313-.748l-.064-.955A2.885,2.885,0,0,1,1068.317,779.547Z" transform="translate(-1047.154 -773.506)" fill="#55faff"/>
            <path id="路径_14010" data-name="路径 14010" d="M981.861,765.722l-16.01,9.269c-.72.416-1.311.079-1.313-.748l-.064-.955a2.886,2.886,0,0,1,1.3-2.26l16.009-9.269c.72-.416,1.311-.079,1.313.748l.064.955A2.887,2.887,0,0,1,981.861,765.722Z" transform="translate(-964.475 -759.322)" fill="#55faff"/>
            <path id="路径_14011" data-name="路径 14011" d="M1068.317,750.3l.344-.2c.72-.416,1.311-.079,1.314.748l.063.955a2.886,2.886,0,0,1-1.3,2.26l-.344.2c-.72.416-1.311.079-1.313-.748l-.064-.955A2.886,2.886,0,0,1,1068.317,750.3Z" transform="translate(-1047.154 -749.92)" fill="#55faff"/>
            <path id="路径_14012" data-name="路径 14012" d="M1068.317,806.828l.344-.2c.72-.416,1.311-.079,1.314.748l.063.955a2.885,2.885,0,0,1-1.3,2.26l-.344.2c-.72.416-1.311.079-1.313-.748l-.064-.955A2.886,2.886,0,0,1,1068.317,806.828Z" transform="translate(-1047.154 -795.504)" fill="#55faff"/>
            <path id="路径_14013" data-name="路径 14013" d="M965.779,825.795l16.009-9.269c.72-.416,1.311-.079,1.313.748l.064.955a2.887,2.887,0,0,1-1.305,2.26l-16.01,9.269c-.72.416-1.311.079-1.313-.748l-.064-.955A2.886,2.886,0,0,1,965.779,825.795Z" transform="translate(-964.475 -803.483)" fill="#55faff"/>
          </g>
          <g id="组_9589" data-name="组 9589" transform="translate(18.877 24.469)">
            <path id="路径_14014" data-name="路径 14014" d="M987.427,808.751l16.009-9.269c.72-.416,1.311-.079,1.313.748l.064.955a2.887,2.887,0,0,1-1.305,2.26l-16.01,9.269c-.72.416-1.311.079-1.313-.748l-.064-.955A2.886,2.886,0,0,1,987.427,808.751Z" transform="translate(-986.122 -791.38)" fill="url(#linear-gradient-13)"/>
            <path id="路径_14015" data-name="路径 14015" d="M1089.964,788.018l.344-.2c.72-.416,1.311-.079,1.313.748l.064.955a2.886,2.886,0,0,1-1.305,2.26l-.344.2c-.72.416-1.311.079-1.313-.748l-.064-.955A2.886,2.886,0,0,1,1089.964,788.018Z" transform="translate(-1068.801 -781.978)" fill="url(#linear-gradient-14)"/>
            <path id="路径_14016" data-name="路径 14016" d="M1003.508,774.194l-16.01,9.269c-.72.416-1.311.079-1.313-.748l-.064-.955a2.886,2.886,0,0,1,1.3-2.26l16.009-9.269c.72-.416,1.311-.079,1.313.748l.064.955A2.887,2.887,0,0,1,1003.508,774.194Z" transform="translate(-986.122 -767.794)" fill="url(#linear-gradient-13)"/>
            <path id="路径_14017" data-name="路径 14017" d="M1089.964,758.767l.344-.2c.72-.416,1.311-.079,1.313.748l.064.955a2.887,2.887,0,0,1-1.305,2.26l-.344.2c-.72.416-1.311.079-1.313-.748l-.064-.955A2.886,2.886,0,0,1,1089.964,758.767Z" transform="translate(-1068.801 -758.392)" fill="url(#linear-gradient-14)"/>
            <path id="路径_14018" data-name="路径 14018" d="M1089.964,815.3l.344-.2c.72-.416,1.311-.079,1.313.748l.064.955a2.885,2.885,0,0,1-1.305,2.26l-.344.2c-.72.415-1.311.079-1.313-.748l-.064-.955A2.886,2.886,0,0,1,1089.964,815.3Z" transform="translate(-1068.801 -803.976)" fill="url(#linear-gradient-14)"/>
            <path id="路径_14019" data-name="路径 14019" d="M987.427,834.266,1003.436,825c.72-.416,1.311-.079,1.313.748l.064.955a2.887,2.887,0,0,1-1.305,2.26l-16.01,9.269c-.72.416-1.311.079-1.313-.748l-.064-.955A2.886,2.886,0,0,1,987.427,834.266Z" transform="translate(-986.122 -811.954)" fill="url(#linear-gradient-13)"/>
          </g>
        </g>
        <g id="组_9513" data-name="组 9513" transform="translate(0 0)">
          <g id="组_9504" data-name="组 9504" transform="translate(137.476 19.699)">
            <path id="路径_13927" data-name="路径 13927" d="M1141.818,374.32q19.25,11.187,38.5,22.379c-5.235-3.045-11.973-3.5-19.52-.958l-38.5-22.375C1129.841,370.829,1136.578,371.28,1141.818,374.32Z" transform="translate(-1122.296 -371.719)" fill="url(#linear-gradient)"/>
            <g id="组_9503" data-name="组 9503" clip-path="url(#clip-path)">
              <g id="组_9502" data-name="组 9502">
                <path id="路径_13928" data-name="路径 13928" d="M1160.8,395.742l-38.5-22.375c7.545-2.537,14.282-2.086,19.522.954l38.5,22.379c-5.235-3.045-11.973-3.5-19.52-.958Z" transform="translate(-1122.296 -371.719)" fill="url(#linear-gradient)"/>
              </g>
            </g>
          </g>
          <path id="路径_13931" data-name="路径 13931" d="M763.555,272.9c-7.837-4.55-18.684-3.906-30.656,3.005-19.376,11.186-35.712,35.338-41.077,58.687l38.5,22.375c5.363-23.351,21.7-47.5,41.076-58.685,11.969-6.917,22.819-7.558,30.646-3.008Q782.8,284.09,763.555,272.9Z" transform="translate(-637.715 -270)" fill="url(#linear-gradient-21)"/>
          <g id="组_9508" data-name="组 9508" transform="translate(26.247 64.984)">
            <path id="路径_13932" data-name="路径 13932" d="M586.466,672.268l-38.5-22.372c1.867-16.954,13.583-35.952,27.86-44.35l38.5,22.375C600.049,636.314,588.336,655.316,586.466,672.268Z" transform="translate(-547.967 -605.547)" fill="url(#linear-gradient-2)"/>
            <g id="组_9507" data-name="组 9507" clip-path="url(#clip-path-2)">
              <g id="组_9506" data-name="组 9506">
                <path id="路径_13933" data-name="路径 13933" d="M586.466,672.268l-38.5-22.372c1.867-16.954,13.583-35.952,27.86-44.35l38.5,22.375c-14.282,8.392-25.995,27.394-27.865,44.346Z" transform="translate(-547.967 -605.547)" fill="url(#linear-gradient-2)"/>
              </g>
            </g>
          </g>
          <g id="组_9511" data-name="组 9511" transform="translate(0 109.334)">
            <path id="路径_13935" data-name="路径 13935" d="M459.072,921.976l-38.5-22.37c-5.007-2.913-8.108-9.1-8.134-17.895-.046-17.107,11.573-37.762,26.247-47.164l38.5,22.372c-14.674,9.408-26.294,30.062-26.246,47.168C450.966,912.877,454.07,919.068,459.072,921.976Z" transform="translate(-412.439 -834.547)" fill="url(#linear-gradient-3)"/>
            <g id="组_9510" data-name="组 9510" clip-path="url(#clip-path-3)">
              <g id="组_9509" data-name="组 9509">
                <path id="路径_13936" data-name="路径 13936" d="M459.072,921.976l-38.5-22.37c-5.007-2.913-8.108-9.1-8.134-17.895-.046-17.107,11.573-37.762,26.247-47.164l38.5,22.372c-14.674,9.408-26.294,30.062-26.246,47.168.026,8.79,3.13,14.982,8.132,17.889Z" transform="translate(-412.439 -834.547)" fill="url(#linear-gradient-3)"/>
              </g>
            </g>
          </g>
          <g id="组_9512" data-name="组 9512" transform="translate(38.501 22.762)">
            <path id="路径_13938" data-name="路径 13938" d="M706.424,393.444c20.782-12,38.166-5.112,42.289,15.048,17.516-5.9,30.712,4.334,30.771,25.7.069,24.495-17.14,54.311-38.456,66.617-16.343,9.433-87.98,50.8-101.81,58.782-15.4,8.9-27.928,1.757-27.979-15.946-.048-17.106,11.572-37.76,26.246-47.168,1.87-16.953,13.582-35.954,27.865-44.346C670.711,428.779,687.049,404.628,706.424,393.444Z" transform="translate(-611.237 -387.532)" fill="none" stroke="#05f" stroke-miterlimit="10" stroke-width="2"/>
          </g>
          <path id="路径_13939" data-name="路径 13939" d="M748.713,415.271c-2.059-10.066-7.423-16.823-14.867-19.572,4.915,4.6,7.845,12.185,7.872,22.226.069,24.495-17.14,54.311-38.456,66.616-13.47,7.775-64.5,37.24-89.771,51.83a47.764,47.764,0,0,0-2.254,14.051c.051,17.7,12.575,24.842,27.979,15.946,13.831-7.985,85.468-49.348,101.81-58.782,21.316-12.305,38.525-42.121,38.456-66.616C779.424,419.605,766.228,409.376,748.713,415.271Z" transform="translate(-572.737 -371.355)" fill="url(#linear-gradient-26)"/>
        </g>
        <g id="组_9628" data-name="组 9628" transform="translate(226.404 173.537)">
          <path id="路径_14171" data-name="路径 14171" d="M1583.895,1166.058l-.013,4.445-2.4,1.4.012-4.446Z" transform="translate(-1581.479 -1166.058)" fill="url(#linear-gradient-27)"/>
        </g>
        <g id="组_9849" data-name="组 9849" transform="translate(144.562 95.769)">
          <g id="组_9846" data-name="组 9846" transform="translate(0.016 70.924)">
            <path id="路径_3787" data-name="路径 3787" d="M1552.275,1463.9c3.138,1.812,3.155,4.777.036,6.59l-23.017,13.376a12.585,12.585,0,0,1-11.376,0l-23.169-13.377c-3.138-1.812-3.155-4.777-.037-6.589l23.017-13.376a12.586,12.586,0,0,1,11.377,0Z" transform="translate(-1492.384 -1449.16)" fill="url(#linear-gradient-28)"/>
          </g>
          <path id="路径_14518" data-name="路径 14518" d="M1554.58,1529.253c0,.041,0,.082-.009.123s-.008.07-.013.105-.012.081-.019.122-.014.071-.022.106-.018.079-.029.119-.02.07-.031.105-.025.079-.039.118-.025.069-.039.1-.034.082-.052.123-.031.068-.047.1-.041.082-.063.122-.035.065-.054.1c-.028.048-.058.1-.089.145-.018.028-.036.056-.055.084-.038.055-.078.109-.12.164l-.044.06c-.065.082-.135.163-.209.243l-.062.064c-.058.06-.117.12-.18.179-.028.027-.057.054-.086.08s-.075.067-.114.1-.073.062-.111.093-.082.065-.124.1l-.12.09c-.043.031-.088.063-.133.094l-.129.087c-.047.031-.095.061-.143.091s-.122.077-.186.114h0l-23.017,13.376c-.174.1-.356.194-.541.284l-.145.068q-.256.119-.524.223l-.057.023c-.187.071-.38.135-.575.2-.135.042-.274.08-.412.118-.106.029-.21.059-.318.085-.145.035-.293.065-.442.094-.11.022-.218.047-.33.067l-.144.023q-.275.045-.554.078l-.161.019q-.326.035-.655.054l-.124.006c-.146.007-.292.009-.438.012s-.3,0-.447,0c-.122,0-.244-.005-.366-.01q-.207-.008-.413-.022-.185-.013-.37-.031-.2-.019-.406-.045-.18-.023-.359-.051c-.144-.022-.287-.047-.429-.074s-.291-.055-.434-.087l-.109-.025q-.308-.073-.607-.162l-.166-.052q-.248-.077-.487-.166c-.048-.018-.1-.034-.143-.052-.146-.056-.286-.118-.426-.18-.069-.03-.14-.058-.207-.09-.2-.1-.4-.2-.586-.306l-23.169-13.377a4.019,4.019,0,0,1-2.364-3.318l-.016,5.511a4.017,4.017,0,0,0,2.365,3.318l23.169,13.377c.188.109.384.21.586.306.067.032.138.06.207.09.118.052.234.107.356.155l.07.026.143.052c.16.059.322.114.487.166l.166.052.106.033c.164.047.332.089.5.129l.109.025c.076.017.152.036.23.052s.137.023.2.036c.142.027.285.052.428.075.056.008.111.021.167.029s.129.014.193.022c.135.017.27.032.406.045.063.006.125.016.188.021s.122.005.183.01c.137.01.275.017.413.022.068,0,.135.009.2.011s.11,0,.164,0c.149,0,.3,0,.446,0,.073,0,.146,0,.219,0s.146-.007.22-.011l.123-.006c.186-.011.371-.024.556-.043l.1-.012.161-.019q.279-.033.555-.078l.143-.023.072-.012c.088-.016.172-.038.258-.055.148-.03.3-.059.441-.094.108-.026.212-.057.318-.085.138-.038.276-.075.412-.117.031-.01.063-.017.094-.027q.245-.08.481-.17l.057-.023c.179-.069.353-.144.524-.223l.146-.069c.186-.09.367-.183.541-.284l23.018-13.376.1-.057c.031-.018.059-.038.089-.057.048-.03.1-.06.143-.091l.129-.087.133-.094c.041-.03.081-.06.12-.09s.084-.064.124-.1l.111-.093c.039-.033.078-.066.115-.1l.045-.039.041-.041c.063-.059.122-.118.18-.179l.062-.064c.074-.08.144-.161.208-.243l.007-.008c.014-.017.025-.035.038-.052.042-.054.082-.109.12-.164.019-.028.036-.056.055-.084.031-.048.061-.1.089-.145.007-.012.016-.024.022-.036s.021-.041.032-.061c.022-.041.043-.081.063-.122s.032-.067.047-.1.036-.082.052-.123c.007-.017.015-.035.022-.052s.011-.034.017-.051c.014-.039.027-.079.039-.118s.021-.07.031-.105.02-.079.029-.119c0-.021.011-.041.015-.062s0-.029.007-.044c.007-.041.014-.082.02-.123s.009-.07.013-.105.007-.082.009-.123c0-.024,0-.047,0-.071s0-.047,0-.071l.016-5.511C1554.586,1529.159,1554.582,1529.206,1554.58,1529.253Z" transform="translate(-1492.315 -1440.134)" fill="url(#linear-gradient-29)"/>
          <path id="路径_14519" data-name="路径 14519" d="M1560.414,1496.571c0,.038,0,.075-.008.113s-.008.065-.012.1-.011.075-.017.113-.013.065-.02.1-.017.073-.027.11-.019.065-.029.1-.023.073-.036.109l-.036.1c-.015.038-.031.076-.048.113s-.028.063-.043.094-.037.075-.058.112-.033.06-.05.09c-.026.045-.054.089-.083.133-.016.026-.032.052-.05.078-.035.051-.072.1-.11.151-.014.019-.027.037-.041.055-.06.076-.125.151-.193.225l-.057.059q-.08.083-.166.165l-.079.074c-.034.031-.07.062-.106.092l-.1.086-.115.089-.111.083-.123.087-.119.081-.132.084c-.057.035-.113.071-.172.105h0l-21.248,12.348c-.16.093-.328.179-.5.262l-.134.063c-.157.073-.318.142-.484.206l-.053.022c-.173.065-.351.125-.53.181-.125.039-.253.074-.381.109-.1.027-.194.055-.293.079-.134.032-.271.06-.408.087-.1.021-.2.043-.3.062l-.132.021c-.169.028-.34.051-.511.072l-.149.018q-.3.033-.6.05l-.114.006c-.134.007-.27.009-.4.011s-.275,0-.413,0q-.17,0-.338-.009c-.128,0-.255-.012-.382-.021s-.228-.017-.342-.028-.251-.026-.375-.042-.221-.03-.331-.046c-.133-.021-.265-.044-.4-.069s-.269-.051-.4-.081l-.1-.023c-.19-.045-.376-.095-.56-.15-.052-.015-.1-.031-.154-.048q-.229-.071-.45-.153l-.132-.048c-.134-.052-.264-.109-.393-.167-.063-.028-.129-.054-.191-.083-.186-.088-.367-.182-.541-.282l-21.388-12.349a3.708,3.708,0,0,1-2.183-3.063l-.015,5.088a3.709,3.709,0,0,0,2.183,3.063l21.388,12.349c.174.1.355.194.541.282.062.03.128.055.191.083.109.048.216.1.328.143l.065.023.133.049q.221.081.449.153l.153.048c.033.01.065.021.1.031.152.043.306.082.462.119l.1.023c.07.016.14.033.211.048s.127.021.189.033c.131.025.262.048.4.069.052.008.1.019.153.027s.119.012.178.02c.125.016.249.03.374.042.058.006.116.014.174.02s.112.005.168.009q.19.013.381.02c.063,0,.125.008.188.01s.1,0,.151,0c.137,0,.275,0,.412,0,.068,0,.135,0,.2,0s.135-.007.2-.01l.114-.006c.172-.01.343-.022.513-.039l.092-.011.149-.018q.258-.031.512-.072l.132-.021.067-.011c.081-.014.159-.034.239-.051.136-.027.273-.054.407-.087.1-.024.2-.052.294-.079.128-.035.255-.069.38-.109.029-.009.059-.015.087-.025q.226-.073.444-.156l.052-.021c.166-.064.326-.133.484-.206l.135-.063c.171-.083.339-.169.5-.262l21.248-12.348.089-.052.082-.053.132-.083.119-.081.123-.087c.038-.028.074-.055.111-.083l.115-.089.1-.085.105-.093.041-.036c.014-.012.025-.025.038-.038q.086-.082.166-.165l.057-.06c.068-.074.133-.149.193-.225l.006-.007c.013-.016.023-.032.035-.049.038-.05.075-.1.11-.151.018-.026.034-.052.05-.078.029-.044.057-.088.083-.133.007-.011.014-.022.021-.034s.019-.038.029-.056c.02-.037.04-.075.058-.112s.029-.062.043-.094.033-.076.048-.114c.006-.016.014-.031.021-.048s.01-.031.015-.047c.013-.036.025-.072.036-.109s.019-.065.028-.1.019-.073.027-.11c0-.019.01-.038.014-.057s0-.027.007-.04c.007-.038.012-.075.017-.113s.009-.064.012-.1.006-.076.008-.114c0-.022,0-.043,0-.065s0-.044,0-.066l.015-5.087C1560.419,1496.484,1560.417,1496.528,1560.414,1496.571Z" transform="translate(-1500.542 -1414.828)" fill="#171791"/>
          <g id="组_9847" data-name="组 9847" transform="translate(0.016 57.75)">
            <path id="路径_3790" data-name="路径 3790" d="M1552.275,1405.437c3.138,1.812,3.155,4.777.036,6.59l-23.017,13.376a12.584,12.584,0,0,1-11.376,0l-23.169-13.377c-3.138-1.812-3.155-4.777-.037-6.589l23.017-13.376a12.585,12.585,0,0,1,11.377,0Z" transform="translate(-1492.384 -1390.702)" fill="url(#linear-gradient-28)"/>
          </g>
          <path id="路径_14520" data-name="路径 14520" d="M1554.58,1470.795c0,.041,0,.082-.009.123s-.008.07-.013.105-.012.081-.019.122-.014.071-.022.106-.018.079-.029.119-.02.071-.031.106-.025.079-.039.118-.025.069-.039.1-.034.082-.052.123-.031.068-.047.1-.041.081-.063.122-.035.065-.054.1c-.028.048-.058.1-.089.144-.018.028-.036.056-.055.084-.038.055-.078.109-.12.163-.015.02-.029.04-.044.06-.065.082-.135.163-.209.243-.02.022-.041.043-.062.065-.058.06-.117.12-.18.179l-.086.08c-.037.033-.075.067-.114.1l-.111.093c-.04.032-.082.065-.124.1s-.079.061-.12.09-.088.063-.133.094-.085.059-.129.087-.095.061-.143.091-.122.077-.186.114h0L1529.24,1487.3c-.174.1-.356.194-.541.284l-.145.068c-.171.078-.345.153-.524.223l-.057.023c-.187.071-.38.135-.575.2-.135.042-.274.08-.412.118-.106.029-.21.059-.318.085-.145.035-.293.064-.442.095-.11.022-.218.047-.33.066l-.144.023q-.275.044-.554.078l-.161.02q-.326.035-.655.054l-.124.006c-.146.008-.292.01-.438.012s-.3,0-.447,0q-.184,0-.366-.01c-.138-.005-.276-.013-.413-.022s-.247-.019-.37-.03-.271-.029-.406-.046q-.18-.023-.359-.05-.217-.034-.429-.075c-.145-.027-.291-.055-.434-.088l-.109-.024c-.205-.049-.407-.1-.607-.162l-.166-.052q-.248-.077-.487-.166c-.048-.017-.1-.034-.143-.052-.146-.056-.286-.118-.426-.181-.069-.03-.14-.058-.207-.09-.2-.1-.4-.2-.586-.306l-23.169-13.377a4.018,4.018,0,0,1-2.364-3.318l-.016,5.511a4.017,4.017,0,0,0,2.365,3.317l23.169,13.377c.188.109.384.21.586.306.067.032.138.059.207.09.118.052.234.106.356.155l.07.026.143.052c.16.059.322.114.487.166.056.018.11.035.166.052.036.011.07.023.106.033.164.047.332.089.5.129l.109.025c.076.017.152.036.23.052s.137.023.2.036c.142.027.285.052.428.075.056.009.111.021.167.029s.129.013.193.021c.135.017.27.032.406.046.063.006.125.016.188.021s.122.005.183.01c.137.009.275.017.413.022.068,0,.135.009.2.011s.11,0,.164,0c.149,0,.3,0,.446,0,.073,0,.146,0,.219,0s.146-.007.22-.011l.123-.006c.186-.011.371-.024.556-.042l.1-.012.161-.019q.279-.034.555-.078l.143-.023.072-.012c.088-.016.172-.038.258-.055.148-.03.3-.059.441-.094.108-.026.212-.057.318-.085.138-.038.276-.075.412-.117.031-.01.063-.017.094-.027.163-.053.323-.11.481-.17l.057-.023c.179-.07.353-.145.524-.224l.146-.069c.186-.089.367-.183.541-.284l23.018-13.376.1-.057c.031-.018.059-.038.089-.056l.143-.091.129-.088c.045-.031.09-.062.133-.094s.081-.06.12-.09.084-.064.124-.1.074-.062.111-.093.078-.067.115-.1l.045-.039.041-.041q.094-.089.18-.179l.062-.064c.074-.08.144-.161.208-.243l.007-.008c.014-.017.025-.035.038-.052.042-.054.082-.109.12-.164.019-.028.036-.056.055-.084.031-.048.061-.1.089-.144.007-.013.016-.024.022-.036s.021-.041.032-.061c.022-.04.043-.081.063-.122s.032-.068.047-.1.036-.082.052-.123c.007-.017.015-.034.022-.052s.011-.034.017-.052c.014-.039.027-.078.039-.118s.021-.07.031-.105.02-.08.029-.119c0-.02.011-.041.015-.062s0-.029.007-.044c.007-.041.014-.081.02-.122s.009-.07.013-.105.007-.082.009-.123c0-.024,0-.047,0-.07s0-.048,0-.072l.016-5.511C1554.586,1470.7,1554.582,1470.747,1554.58,1470.795Z" transform="translate(-1492.315 -1394.849)" fill="url(#linear-gradient-29)"/>
          <path id="路径_14521" data-name="路径 14521" d="M1582.413,1212.343l-16.5,9.623a6.372,6.372,0,0,1-6.417,0l-16.517-9.623v-67.382l16.609-9.681a6.174,6.174,0,0,1,6.219,0l16.609,9.681Z" transform="translate(-1531.559 -1134.44)" opacity="0.24" fill="url(#linear-gradient-32)"/>
          <path id="路径_14522" data-name="路径 14522" d="M1599.049,1237.705l-10.791,7.891a3.451,3.451,0,0,1-4.2,0l-10.8-7.891v-55.254l10.86-7.938a3.345,3.345,0,0,1,4.066,0l10.861,7.938Z" transform="translate(-1555.02 -1164.948)" opacity="0.5" fill="url(#linear-gradient-33)"/>
          <g id="组_9848" data-name="组 9848" transform="translate(12.527 64.997)">
            <path id="路径_4067" data-name="路径 4067" d="M1583.721,1431.673c1.877,1.083,1.887,2.857.021,3.941l-13.766,8a7.526,7.526,0,0,1-6.8,0l-13.857-8c-1.877-1.084-1.887-2.857-.022-3.941l13.766-8a7.524,7.524,0,0,1,6.8,0Z" transform="translate(-1547.903 -1422.86)" fill="url(#linear-gradient-34)"/>
            <g id="组_5421" data-name="组 5421" transform="translate(6.282 3.615)">
              <path id="路径_4068" data-name="路径 4068" d="M1599.509,1444.742a1.382,1.382,0,0,1,.014,2.611l-9.121,5.3a4.984,4.984,0,0,1-4.507,0l-9.182-5.3a1.382,1.382,0,0,1-.015-2.611l9.121-5.3a4.987,4.987,0,0,1,4.508,0Z" transform="translate(-1575.776 -1438.903)" fill="url(#linear-gradient-35)"/>
            </g>
          </g>
        </g>
        <g id="组_9850" data-name="组 9850" transform="translate(61.631 132.093)">
          <g id="组_9846-2" data-name="组 9846" transform="translate(0.006 27.989)">
            <path id="路径_3787-2" data-name="路径 3787" d="M1516.019,1454.975a1.376,1.376,0,0,1,.014,2.6l-9.083,5.279a4.966,4.966,0,0,1-4.489,0l-9.144-5.279a1.376,1.376,0,0,1-.015-2.6l9.083-5.279a4.966,4.966,0,0,1,4.49,0Z" transform="translate(-1492.384 -1449.16)" fill="url(#linear-gradient-28)"/>
          </g>
          <path id="路径_14518-2" data-name="路径 14518" d="M1516.887,1529.14c0,.016,0,.032,0,.049s0,.028-.005.042,0,.032-.008.048-.006.028-.009.042-.007.031-.011.047l-.012.042c0,.016-.01.031-.015.047l-.015.041-.02.049-.019.04c-.008.016-.016.032-.025.048l-.021.038c-.011.019-.023.038-.035.057l-.022.033c-.015.022-.031.043-.047.064l-.018.024c-.026.033-.053.064-.082.1l-.025.025c-.023.024-.046.047-.071.071l-.034.032-.045.039-.044.037-.049.038-.047.035-.053.037-.051.034-.056.036-.074.045h0l-9.083,5.279c-.069.04-.14.077-.214.112l-.057.027c-.067.031-.136.061-.207.088l-.023.009c-.074.028-.15.053-.227.077-.053.017-.108.032-.163.047s-.083.023-.125.034c-.057.014-.116.025-.174.037s-.086.019-.13.026l-.057.009c-.072.012-.145.022-.219.031l-.064.007q-.129.014-.259.021l-.049,0c-.057,0-.115,0-.173,0h-.177l-.145,0-.163-.009-.146-.012-.16-.018-.142-.02c-.057-.009-.113-.019-.169-.029s-.115-.022-.171-.035l-.043-.01c-.081-.019-.161-.041-.239-.064l-.065-.02c-.065-.02-.13-.042-.193-.065l-.057-.021c-.057-.022-.113-.047-.168-.071l-.082-.035c-.079-.038-.157-.078-.231-.121l-9.143-5.279a1.587,1.587,0,0,1-.933-1.309l-.006,2.175a1.586,1.586,0,0,0,.933,1.31l9.144,5.279q.112.064.231.121l.082.036c.047.021.092.042.141.061l.027.01.057.021q.095.035.192.065l.066.021.042.013c.065.018.131.035.2.051l.043.01.091.02.081.014.169.029.066.011.076.009.16.018.074.008.072,0,.163.009.08,0h.327l.087,0,.049,0c.073,0,.147-.01.219-.017l.039,0,.064-.008q.11-.013.219-.031l.056-.009.029,0c.035-.006.068-.015.1-.022.058-.012.117-.023.174-.037l.126-.034c.055-.015.109-.03.162-.046l.037-.01c.064-.021.128-.043.19-.067l.022-.009c.071-.027.139-.057.207-.088l.058-.027c.073-.035.145-.072.213-.112l9.083-5.279.038-.023.035-.022.057-.036.051-.035.053-.037.047-.036.049-.038.044-.037.046-.039.017-.015.016-.016c.025-.023.048-.047.071-.071l.024-.025c.029-.032.057-.064.082-.1l0,0,.015-.021c.017-.022.032-.043.047-.065l.021-.033.036-.057.009-.014c0-.008.008-.016.013-.024s.017-.032.025-.048.013-.026.018-.04.014-.032.021-.049l.009-.021.007-.02c.006-.015.011-.031.015-.047s.008-.028.012-.042.008-.031.012-.047,0-.016.006-.024,0-.011,0-.017.005-.032.008-.048,0-.027.005-.041,0-.032,0-.049,0-.019,0-.028,0-.019,0-.028l.006-2.175C1516.889,1529.1,1516.888,1529.121,1516.887,1529.14Z" transform="translate(-1492.315 -1493.97)" fill="url(#linear-gradient-29)"/>
          <path id="路径_14519-2" data-name="路径 14519" d="M1525.618,1496.466c0,.015,0,.03,0,.045s0,.025,0,.038,0,.03-.007.045l-.008.038c0,.015-.007.029-.011.043s-.007.026-.011.038l-.014.043-.015.038c-.006.015-.012.03-.019.045s-.011.025-.017.037-.015.03-.023.044l-.02.035c-.01.018-.021.035-.033.053l-.02.031c-.014.02-.029.04-.043.06l-.016.022c-.024.03-.049.06-.076.088l-.022.024c-.021.022-.043.043-.066.065l-.031.029-.042.036-.041.034-.045.035-.044.032-.049.035-.047.032-.052.033-.068.042h0l-8.385,4.873c-.063.037-.13.071-.2.1l-.053.025c-.062.029-.126.056-.191.081l-.021.009c-.068.026-.138.049-.209.072-.049.015-.1.029-.15.043s-.077.022-.116.031-.107.023-.161.034-.08.017-.12.024l-.052.008c-.067.011-.134.02-.2.028l-.059.007q-.119.013-.239.02l-.045,0c-.053,0-.106,0-.159,0h-.163l-.133,0-.15-.008-.135-.011-.148-.016-.131-.019c-.052-.008-.1-.017-.156-.027s-.106-.02-.158-.032l-.04-.009c-.075-.018-.148-.038-.221-.059l-.061-.019c-.06-.019-.119-.039-.177-.06l-.052-.019c-.053-.02-.1-.043-.155-.066-.025-.011-.051-.021-.075-.033-.073-.035-.145-.072-.214-.111l-8.441-4.873a1.464,1.464,0,0,1-.861-1.209l-.006,2.008a1.464,1.464,0,0,0,.862,1.209l8.44,4.873c.069.04.14.077.214.112l.076.033c.043.019.085.039.13.056l.025.01.052.019c.058.021.117.042.177.06l.06.019.039.012c.06.017.121.032.182.047l.04.009.083.019.075.013.156.027.061.01.07.008.148.016.068.008.066,0,.151.008.074,0h.3l.08,0,.045,0c.068,0,.135-.009.2-.016l.036,0,.059-.007c.068-.008.135-.018.2-.029l.052-.008.026,0,.094-.02c.054-.011.108-.021.161-.034s.077-.021.116-.031.1-.027.15-.043l.034-.01c.059-.019.118-.04.175-.062l.021-.008c.065-.025.128-.053.191-.081l.053-.025c.067-.033.134-.067.2-.1l8.385-4.873.035-.021.032-.021.052-.033.047-.032.049-.034.044-.033.045-.035.041-.034.042-.036.016-.014.015-.015c.022-.021.044-.043.065-.065l.022-.024c.027-.029.052-.058.076-.088l0,0,.014-.019c.015-.02.03-.04.043-.06l.02-.031.033-.053.008-.013.011-.022c.008-.015.016-.03.023-.044l.017-.037c.007-.015.013-.03.019-.045l.008-.019c0-.006,0-.012.006-.019s.01-.029.014-.043l.011-.039c0-.014.007-.029.011-.043s0-.015.005-.022l0-.016c0-.015.005-.03.007-.045s0-.026,0-.039,0-.029,0-.045,0-.017,0-.026,0-.017,0-.026l.006-2.008C1525.621,1496.432,1525.619,1496.449,1525.618,1496.466Z" transform="translate(-1501.991 -1464.207)" fill="#171791"/>
          <g id="组_9847-2" data-name="组 9847" transform="translate(0.006 22.79)">
            <path id="路径_3790-2" data-name="路径 3790" d="M1516.019,1396.517a1.376,1.376,0,0,1,.014,2.6l-9.083,5.279a4.968,4.968,0,0,1-4.489,0l-9.144-5.279a1.376,1.376,0,0,1-.015-2.6l9.083-5.279a4.968,4.968,0,0,1,4.49,0Z" transform="translate(-1492.384 -1390.702)" fill="url(#linear-gradient-28)"/>
          </g>
          <path id="路径_14520-2" data-name="路径 14520" d="M1516.887,1470.681c0,.016,0,.032,0,.048s0,.028-.005.041,0,.032-.008.048-.006.028-.009.042-.007.031-.011.047l-.012.042c0,.015-.01.031-.015.047l-.015.041-.02.048-.019.04c-.008.016-.016.032-.025.048l-.021.039c-.011.019-.023.038-.035.057l-.022.033c-.015.021-.031.043-.047.064l-.018.024c-.026.032-.053.064-.082.1l-.025.025c-.023.024-.046.047-.071.07l-.034.031-.045.04-.044.037-.049.038-.047.036-.053.037-.051.035-.056.036-.074.045h0l-9.083,5.279c-.069.04-.14.077-.214.112l-.057.027c-.067.031-.136.061-.207.088l-.023.009c-.074.028-.15.053-.227.077-.053.017-.108.032-.163.047s-.083.023-.125.034c-.057.014-.116.025-.174.037s-.086.019-.13.026l-.057.009c-.072.012-.145.022-.219.031l-.064.008q-.129.014-.259.021l-.049,0c-.057,0-.115,0-.173,0s-.118,0-.177,0l-.145,0-.163-.009-.146-.012-.16-.018-.142-.02c-.057-.009-.113-.019-.169-.03s-.115-.021-.171-.034l-.043-.01c-.081-.019-.161-.041-.239-.064l-.065-.02q-.1-.031-.193-.065l-.057-.021c-.057-.022-.113-.047-.168-.071-.027-.012-.055-.023-.082-.036-.079-.038-.157-.078-.231-.121l-9.143-5.279a1.586,1.586,0,0,1-.933-1.309l-.006,2.175a1.586,1.586,0,0,0,.933,1.309l9.144,5.279c.075.043.152.083.231.121l.082.036c.047.021.092.042.141.061l.027.01.057.021q.095.035.192.065l.066.021.042.013c.065.018.131.035.2.051l.043.01.091.021.081.014.169.029.066.011.076.009.16.018.074.008.072,0,.163.009.08,0h.327l.087,0,.049,0c.073,0,.147-.009.219-.017l.039,0,.064-.008q.11-.013.219-.031l.056-.009.029,0c.035-.006.068-.015.1-.022.058-.012.117-.023.174-.037s.084-.022.126-.034.109-.03.162-.046l.037-.011c.064-.021.128-.043.19-.067l.022-.009c.071-.028.139-.057.207-.088l.058-.027c.073-.035.145-.072.213-.112l9.083-5.279.038-.022.035-.022.057-.036.051-.034.053-.037.047-.036.049-.038.044-.036.046-.039.017-.016.016-.016c.025-.024.048-.047.071-.071l.024-.026c.029-.031.057-.063.082-.1l0,0,.015-.021c.017-.022.032-.043.047-.065l.021-.033.036-.057.009-.014c0-.008.008-.016.013-.024s.017-.032.025-.048.013-.026.018-.04.014-.032.021-.049l.009-.02.007-.02c.006-.016.011-.031.015-.047s.008-.028.012-.042.008-.031.012-.047,0-.016.006-.025,0-.011,0-.017.005-.032.008-.048,0-.028.005-.042,0-.032,0-.049,0-.018,0-.028,0-.019,0-.028l.006-2.175C1516.889,1470.644,1516.888,1470.662,1516.887,1470.681Z" transform="translate(-1492.315 -1440.71)" fill="url(#linear-gradient-29)"/>
          <path id="路径_14521-2" data-name="路径 14521" d="M1558.539,1165.183l-6.513,3.8a2.515,2.515,0,0,1-2.532,0l-6.518-3.8v-26.591l6.555-3.821a2.436,2.436,0,0,1,2.454,0l6.554,3.821Z" transform="translate(-1538.47 -1134.44)" opacity="0.24" fill="url(#linear-gradient-32)"/>
          <path id="路径_14522-2" data-name="路径 14522" d="M1583.438,1199.034l-4.258,3.114a1.362,1.362,0,0,1-1.656,0l-4.262-3.114v-21.805l4.286-3.133a1.32,1.32,0,0,1,1.6,0l4.286,3.133Z" transform="translate(-1566.063 -1170.321)" opacity="0.5" fill="url(#linear-gradient-33)"/>
          <g id="组_9848-2" data-name="组 9848" transform="translate(4.944 25.65)">
            <path id="路径_4067-2" data-name="路径 4067" d="M1562.038,1426.338a.823.823,0,0,1,.008,1.555l-5.432,3.157a2.969,2.969,0,0,1-2.685,0l-5.468-3.157a.823.823,0,0,1-.009-1.555l5.432-3.157a2.97,2.97,0,0,1,2.685,0Z" transform="translate(-1547.903 -1422.86)" fill="url(#linear-gradient-34)"/>
            <g id="组_5421-2" data-name="组 5421" transform="translate(2.479 1.427)">
              <path id="路径_4068-2" data-name="路径 4068" d="M1585.142,1441.207a.545.545,0,0,1,.006,1.031l-3.6,2.092a1.966,1.966,0,0,1-1.779,0l-3.624-2.092a.545.545,0,0,1-.005-1.03l3.6-2.092a1.967,1.967,0,0,1,1.779,0Z" transform="translate(-1575.776 -1438.902)" fill="url(#linear-gradient-35)"/>
            </g>
          </g>
        </g>
      </g>
      <g id="屏幕" transform="translate(278.264 114.953)">
        <g id="组_5708" data-name="组 5708" transform="translate(0 0)">
          <path id="路径_6171" data-name="路径 6171" d="M290.291,747.267c0-1.535-1.088-2.164-2.418-1.4l-53.1,30.658a5.364,5.364,0,0,0-2.418,4.189v42.2c0,1.536,1.088,2.164,2.418,1.4l53.1-30.659a5.364,5.364,0,0,0,2.418-4.188Z" transform="translate(-232.353 -745.543)" fill="url(#linear-gradient-44)"/>
          <path id="路径_6172" data-name="路径 6172" d="M234.307,824.041v-42.2a5.365,5.365,0,0,1,2.418-4.188l53.1-30.659a2.757,2.757,0,0,1,.422-.2c-.206-1.179-1.2-1.6-2.377-.919l-53.1,30.658a5.364,5.364,0,0,0-2.418,4.189v42.2c0,1.369.865,2.014,2,1.594A2.772,2.772,0,0,1,234.307,824.041Z" transform="translate(-232.353 -745.547)" fill="url(#linear-gradient-44)"/>
        </g>
        <g id="组_5745" data-name="组 5745" transform="translate(17.295 11.029)">
          <path id="路径_6173" data-name="路径 6173" d="M371.876,806.148c0-1.237-.876-1.743-1.948-1.125l-42.772,24.695a4.32,4.32,0,0,0-1.948,3.374v33.993c0,1.237.877,1.743,1.948,1.124l42.772-24.695a4.32,4.32,0,0,0,1.948-3.373Z" transform="translate(-325.208 -804.759)" fill="url(#linear-gradient-46)"/>
          <path id="路径_6174" data-name="路径 6174" d="M387.964,837.489c0-1.056-.749-1.488-1.663-.96l-36.324,21.142a3.687,3.687,0,0,0-1.663,2.88v27.214c0,1.056.748,1.488,1.663.96L386.3,867.583a3.69,3.69,0,0,0,1.663-2.88Z" transform="translate(-344.01 -830.428)" fill="url(#linear-gradient-47)"/>
          <path id="路径_6175" data-name="路径 6175" d="M326.782,867.986V833.993a4.321,4.321,0,0,1,1.948-3.373L371.5,805.925a2.233,2.233,0,0,1,.34-.16c-.166-.95-.963-1.29-1.914-.74L327.156,829.72a4.32,4.32,0,0,0-1.948,3.374v33.993c0,1.1.7,1.622,1.607,1.284A2.231,2.231,0,0,1,326.782,867.986Z" transform="translate(-325.208 -804.761)" fill="url(#linear-gradient-48)"/>
          <g id="组_5709" data-name="组 5709" transform="translate(29.531 16.724)" opacity="0.3">
            <path id="路径_6176" data-name="路径 6176" d="M484.762,895.706l1.927-1.084c.549-.308.989.4.983,1.574a3.457,3.457,0,0,1-1,2.691l-1.926,1.083c-.549.309-.989-.4-.983-1.574A3.459,3.459,0,0,1,484.762,895.706Z" transform="translate(-483.759 -894.55)" fill="url(#linear-gradient-49)"/>
          </g>
          <g id="组_5737" data-name="组 5737" transform="translate(35.911 10.588)">
            <g id="组_5736" data-name="组 5736">
              <g id="组_5722" data-name="组 5722" transform="translate(0 1.048)">
                <g id="组_5712" data-name="组 5712">
                  <g id="组_5711" data-name="组 5711">
                    <g id="组_5710" data-name="组 5710">
                      <path id="路径_6177" data-name="路径 6177" d="M523.124,867.23v3.38l-5.111,2.964v-3.38Z" transform="translate(-518.014 -867.23)" fill="url(#linear-gradient-50)"/>
                    </g>
                  </g>
                </g>
                <g id="组_5715" data-name="组 5715" transform="translate(0 5.587)">
                  <g id="组_5714" data-name="组 5714">
                    <g id="组_5713" data-name="组 5713">
                      <path id="路径_6178" data-name="路径 6178" d="M523.126,897.227v3.381l-5.111,2.962v-3.379Z" transform="translate(-518.016 -897.227)" fill="url(#linear-gradient-50)"/>
                    </g>
                  </g>
                </g>
                <g id="组_5718" data-name="组 5718" transform="translate(0 11.174)">
                  <g id="组_5717" data-name="组 5717">
                    <g id="组_5716" data-name="组 5716">
                      <path id="路径_6179" data-name="路径 6179" d="M523.125,930.6l-5.11,2.963v-3.38l5.11-2.963Z" transform="translate(-518.015 -927.221)" fill="url(#linear-gradient-50)"/>
                    </g>
                  </g>
                </g>
                <g id="组_5721" data-name="组 5721" transform="translate(0 16.761)">
                  <g id="组_5720" data-name="组 5720">
                    <g id="组_5719" data-name="组 5719">
                      <path id="路径_6180" data-name="路径 6180" d="M523.126,960.6l-5.11,2.963v-3.38l5.111-2.963Z" transform="translate(-518.015 -957.22)" fill="url(#linear-gradient-50)"/>
                    </g>
                  </g>
                </g>
              </g>
              <g id="组_5735" data-name="组 5735" transform="translate(5.967)">
                <g id="组_5725" data-name="组 5725" transform="translate(0)">
                  <g id="组_5724" data-name="组 5724">
                    <g id="组_5723" data-name="组 5723">
                      <path id="路径_6181" data-name="路径 6181" d="M551,861.6v3.381l-.952.552v-3.38Z" transform="translate(-550.049 -861.603)" fill="url(#linear-gradient-50)"/>
                    </g>
                  </g>
                </g>
                <g id="组_5728" data-name="组 5728" transform="translate(0 5.587)">
                  <g id="组_5727" data-name="组 5727">
                    <g id="组_5726" data-name="组 5726">
                      <path id="路径_6182" data-name="路径 6182" d="M551,894.982l-.952.552v-3.38L551,891.6Z" transform="translate(-550.049 -891.602)" fill="url(#linear-gradient-50)"/>
                    </g>
                  </g>
                </g>
                <g id="组_5731" data-name="组 5731" transform="translate(0 11.174)">
                  <g id="组_5730" data-name="组 5730">
                    <g id="组_5729" data-name="组 5729">
                      <path id="路径_6183" data-name="路径 6183" d="M551,924.977l-.952.552v-3.38L551,921.6Z" transform="translate(-550.049 -921.597)" fill="url(#linear-gradient-50)"/>
                    </g>
                  </g>
                </g>
                <g id="组_5734" data-name="组 5734" transform="translate(0 16.761)">
                  <g id="组_5733" data-name="组 5733">
                    <g id="组_5732" data-name="组 5732">
                      <path id="路径_6184" data-name="路径 6184" d="M551,951.591v3.38l-.952.552v-3.38Z" transform="translate(-550.048 -951.591)" fill="url(#linear-gradient-50)"/>
                    </g>
                  </g>
                </g>
              </g>
            </g>
          </g>
          <g id="组_5744" data-name="组 5744" transform="translate(6.213 23.212)">
            <g id="组_5739" data-name="组 5739">
              <g id="组_5738" data-name="组 5738">
                <path id="路径_6185" data-name="路径 6185" d="M363.168,938.854c3.061.552,1.95,11.2,5.346,9.068,3.879-2.435,7.909-16.168,10.815-18.208,3.972-2.79,6.466,13.044,6.466,13.044l-27.018,16.469C357.833,951.362,360.154,938.311,363.168,938.854Z" transform="translate(-358.564 -929.384)" fill="url(#linear-gradient-58)"/>
              </g>
            </g>
            <g id="组_5741" data-name="组 5741" transform="translate(1.385 4.14)">
              <g id="组_5740" data-name="组 5740">
                <path id="路径_6186" data-name="路径 6186" d="M369.461,968.215c1.943.344,2.324,5.412,3.659.505,1.005-3.695,2.688-17.607,5.41-17.1,4.3.806.863,11.591,4.531,12.254,2.581.467,3.492-9.331,6.44-8.781,2.313.431,3.564,7.728,3.564,7.728l-26.9,15.824C365.537,972.539,366.732,967.732,369.461,968.215Z" transform="translate(-366 -951.61)" fill="url(#linear-gradient-59)"/>
              </g>
            </g>
            <g id="组_5743" data-name="组 5743" transform="translate(2.74 12.157)">
              <g id="组_5742" data-name="组 5742">
                <path id="路径_6187" data-name="路径 6187" d="M374.983,1007.472c1.367-.85,1.653,3.412,3.377,2.4,1.942-1.135,2.7-11.14,4.524-12.345,2.1-1.393,2.993,7.861,6.2,5.983,3.372-1.974,3.145-5.842,7.227-8.352,3.735-2.3,3.923,3.989,3.923,3.989l-26.886,15.333S372.756,1008.857,374.983,1007.472Z" transform="translate(-373.277 -994.658)" fill="url(#linear-gradient-60)"/>
              </g>
            </g>
          </g>
        </g>
      </g>
      <g id="组_9852" data-name="组 9852" transform="translate(207.016 34.068)">
        <g id="组_5410-2" data-name="组 5410" transform="translate(16.918 13.232)">
          <path id="路径_4058-2" data-name="路径 4058" d="M1638.282,1084.033l-.05,11.874-9.377,5.449.05-11.874Z" transform="translate(-1628.855 -1084.033)" fill="url(#linear-gradient-5)"/>
        </g>
        <g id="组_5411-2" data-name="组 5411" transform="translate(7.479 13.232)">
          <path id="路径_4059-2" data-name="路径 4059" d="M1596.46,1089.483l-.05,11.874-9.439-5.45.05-11.873Z" transform="translate(-1586.971 -1084.033)" fill="url(#linear-gradient-6)"/>
        </g>
        <g id="组_5412-2" data-name="组 5412" transform="translate(7.529 7.783)">
          <path id="路径_4060-2" data-name="路径 4060" d="M1606.008,1065.3l-9.377,5.45-9.439-5.449,9.377-5.45Z" transform="translate(-1587.192 -1059.851)" fill="url(#linear-gradient-5)"/>
        </g>
        <g id="组_5413-2" data-name="组 5413" transform="translate(17.294 9.985)" opacity="0.3">
          <path id="路径_4061-2" data-name="路径 4061" d="M1647.8,1069.622l-.091,21.756-17.182,9.985.091-21.755Z" transform="translate(-1630.524 -1069.622)" fill="url(#linear-gradient-5)"/>
        </g>
        <g id="组_5414-2" data-name="组 5414" transform="translate(0 9.985)" opacity="0.3">
          <path id="路径_4062-2" data-name="路径 4062" d="M1571.167,1079.608l-.091,21.756-17.294-9.985.091-21.755Z" transform="translate(-1553.782 -1069.623)" fill="url(#linear-gradient-9)"/>
        </g>
        <g id="组_5415-2" data-name="组 5415" transform="translate(0.091 0)" opacity="0.3">
          <path id="路径_4063-2" data-name="路径 4063" d="M1588.662,1035.3l-17.182,9.985-17.294-9.985,17.182-9.985Z" transform="translate(-1554.186 -1025.316)" fill="url(#linear-gradient-5)"/>
        </g>
      </g>
      <path id="路径_14528" data-name="路径 14528" d="M-11145.524,5260.467V5287.7h29.056" transform="translate(11369.823 -5184.674)" fill="none" stroke="#05beff" stroke-width="1"/>
      <path id="路径_14529" data-name="路径 14529" d="M-10951.464,5853.244l34.544,23.03,12.327-6.909,22.082,13.683,6.773-4.2" transform="translate(11219.495 -5643.865)" fill="none" stroke="#03c4ff" stroke-width="1"/>
    </g>
  </g>
</svg>
