<svg xmlns="http://www.w3.org/2000/svg" xmlns:xlink="http://www.w3.org/1999/xlink" width="416" height="278" viewBox="0 0 416 278">
  <defs>
    <linearGradient id="linear-gradient" x1="0.021" y1="0.055" x2="0.973" y2="0.967" gradientUnits="objectBoundingBox">
      <stop offset="0" stop-color="#6130ff"/>
      <stop offset="1" stop-color="#0986ff"/>
    </linearGradient>
    <linearGradient id="linear-gradient-2" x1="0.5" y1="1" x2="0.5" gradientUnits="objectBoundingBox">
      <stop offset="0.003" stop-color="#3463f9" stop-opacity="0.051"/>
      <stop offset="0.999" stop-color="#3e9ffc" stop-opacity="0"/>
    </linearGradient>
    <linearGradient id="linear-gradient-3" y1="0.5" x2="1" y2="0.5" gradientUnits="objectBoundingBox">
      <stop offset="0" stop-color="#00cefe"/>
      <stop offset="1" stop-color="#355fff"/>
    </linearGradient>
    <linearGradient id="linear-gradient-4" y1="0.5" x2="1" y2="0.5" gradientUnits="objectBoundingBox">
      <stop offset="0" stop-color="#345fff"/>
      <stop offset="0.003" stop-color="#01cbfe"/>
      <stop offset="1" stop-color="#0d42ff"/>
    </linearGradient>
    <linearGradient id="linear-gradient-5" y1="0.5" x2="1" y2="0.5" gradientUnits="objectBoundingBox">
      <stop offset="0.497" stop-color="#fff"/>
      <stop offset="1" stop-color="#dae2eb"/>
    </linearGradient>
    <linearGradient id="linear-gradient-6" y1="0.5" x2="1" y2="0.5" gradientUnits="objectBoundingBox">
      <stop offset="0" stop-color="#fff"/>
      <stop offset="1" stop-color="#cacced"/>
    </linearGradient>
    <linearGradient id="linear-gradient-8" y1="0.5" x2="1" y2="0.5" gradientUnits="objectBoundingBox">
      <stop offset="0" stop-color="#fff"/>
      <stop offset="1" stop-color="#2678ff"/>
    </linearGradient>
    <linearGradient id="linear-gradient-12" y1="0.5" x2="1" y2="0.5" gradientUnits="objectBoundingBox">
      <stop offset="0.003" stop-color="#3463f9"/>
      <stop offset="1" stop-color="#3e9ffc"/>
    </linearGradient>
    <linearGradient id="linear-gradient-13" x1="0.5" y1="1" x2="0.5" gradientUnits="objectBoundingBox">
      <stop offset="0" stop-color="#c5d3ff" stop-opacity="0.102"/>
      <stop offset="0.003" stop-color="#fbfcff" stop-opacity="0.302"/>
      <stop offset="0.999" stop-color="#abd6ff" stop-opacity="0"/>
      <stop offset="1" stop-color="#3e9ffc" stop-opacity="0"/>
    </linearGradient>
    <linearGradient id="linear-gradient-14" y1="0.5" x2="1" y2="0.5" gradientUnits="objectBoundingBox">
      <stop offset="0" stop-color="#39ffff"/>
      <stop offset="1" stop-color="#2a79ff"/>
    </linearGradient>
    <clipPath id="clip-数据服务_1">
      <rect width="416" height="278"/>
    </clipPath>
  </defs>
  <g id="数据服务_1" data-name="数据服务 – 1" clip-path="url(#clip-数据服务_1)">
    <rect width="416" height="278" fill="#fff"/>
    <path id="路径_14740" data-name="路径 14740" d="M0,0H416.852V277.957H0Z" fill="url(#linear-gradient)"/>
    <g id="组_10413" data-name="组 10413" transform="translate(-104.41 -327.565)">
      <path id="路径_407" data-name="路径 407" d="M263.534,288.673l-199.74,1.3L-29.021,83.072l386.745-.9Z" transform="translate(218.405 221.789)" fill="url(#linear-gradient-2)"/>
      <g id="组_197" data-name="组 197" transform="translate(283.32 448.284)">
        <g id="组_196" data-name="组 196" transform="translate(0 0)">
          <path id="路径_411" data-name="路径 411" d="M584.315,965.6c-26.694,4.6-55.3,3.552-80.547-2.955s-44.119-17.69-53.133-31.492-7.093-28.568,5.408-41.58,34.087-22.709,60.781-27.309,55.3-3.549,80.543,2.955,44.119,17.69,53.133,31.492,7.093,28.568-5.408,41.58S611,961,584.315,965.6Z" transform="translate(-445.036 -859.445)" fill="url(#linear-gradient-3)"/>
        </g>
        <path id="路径_412" data-name="路径 412" d="M653.58,1135.085c0,.058-.008.116-.011.174-.028.462-.066.923-.116,1.384,0,.022,0,.045-.007.067-.053.474-.121.947-.2,1.42-.01.059-.018.119-.029.178q-.116.682-.267,1.362c-.015.07-.03.14-.046.21-.094.415-.2.829-.313,1.243-.075.275-.159.549-.242.823-.074.245-.146.491-.227.735-.091.275-.192.549-.291.823-.088.244-.173.488-.268.731s-.209.511-.316.767-.209.506-.322.759-.238.509-.359.763-.238.5-.365.756-.26.494-.392.74-.27.509-.414.763-.288.49-.434.736-.3.506-.457.759-.32.494-.482.741-.325.5-.5.747-.349.492-.526.738-.352.493-.536.737-.4.517-.6.775c-.185.235-.367.471-.558.706-.21.258-.431.513-.649.77s-.417.5-.636.743l-.2.227c-.39.435-.787.869-1.2,1.3s-.826.849-1.253,1.268c-.086.084-.175.167-.262.25q-.6.583-1.225,1.156c-.162.149-.327.3-.492.443q-.545.489-1.109.971c-.163.14-.325.28-.49.418-.561.47-1.131.938-1.717,1.4-.057.045-.116.088-.173.133q-.805.628-1.643,1.242c-.273.2-.548.4-.826.6-.133.1-.266.192-.4.286q-.691.487-1.4.966l-.147.1q-.643.431-1.3.853c-.152.1-.305.194-.458.292q-.495.313-1,.622-.33.2-.663.4-.474.286-.956.567c-.22.129-.439.258-.661.385-.34.2-.684.389-1.03.581-.208.116-.415.233-.626.349-.4.218-.8.432-1.2.647-.164.087-.324.175-.489.261-.185.1-.374.191-.56.286-.463.239-.928.476-1.4.71-.247.122-.5.242-.747.364-.416.2-.833.4-1.256.6-.272.128-.548.254-.822.38q-.612.281-1.231.558-.431.192-.866.382-.617.269-1.243.533c-.341.144-.682.288-1.026.429l-.609.249q-.687.278-1.383.55c-.162.063-.322.127-.484.19q-.932.361-1.879.71l-.383.139q-.766.28-1.541.552c-.212.075-.425.148-.637.222q-.682.235-1.371.466l-.64.213q-.84.276-1.691.544l-.3.095q-.986.308-1.987.6c-.4.119-.807.235-1.212.352-.355.1-.708.206-1.066.306-.414.116-.834.229-1.252.342-.353.1-.7.193-1.058.287-.427.113-.859.221-1.29.331-.354.09-.705.182-1.061.271-.445.11-.895.216-1.343.324-.345.083-.688.167-1.035.248-.469.109-.943.213-1.415.319-.335.074-.666.151-1,.224-.5.109-1.01.213-1.517.319-.31.065-.618.131-.93.195-.557.112-1.119.219-1.68.327-.269.052-.535.106-.8.156q-1.248.234-2.512.453c-1.482.257-2.972.489-4.466.711q-.557.083-1.115.162c-.977.139-1.957.263-2.937.387-.753.1-1.506.193-2.261.279-.91.1-1.823.2-2.736.287-.747.075-1.493.154-2.241.22-1.441.128-2.884.244-4.329.34-.252.017-.5.03-.757.045-1.1.069-2.194.123-3.291.174-1.208.056-2.417.1-3.626.132-.685.019-1.369.043-2.054.056-1.162.021-2.324.024-3.485.024-.654,0-1.308.009-1.961,0-1.309-.012-2.617-.046-3.924-.083-.489-.014-.978-.018-1.467-.035q-2.7-.1-5.386-.267c-.4-.025-.794-.062-1.192-.09-1.4-.1-2.8-.2-4.2-.329-.638-.058-1.273-.13-1.909-.195-1.166-.118-2.332-.238-3.492-.377-.7-.084-1.4-.179-2.1-.271-1.1-.145-2.206-.294-3.3-.457-.719-.107-1.435-.221-2.151-.336q-1.642-.264-3.273-.557c-.7-.126-1.4-.253-2.1-.387-1.164-.223-2.32-.462-3.473-.707-.716-.152-1.435-.3-2.146-.457-.283-.064-.565-.13-.848-.2-1.442-.333-2.878-.678-4.3-1.046q-1.338-.346-2.65-.712c-.276-.076-.548-.155-.822-.233q-.907-.256-1.8-.52l-.882-.264q-1.041-.315-2.064-.641c-.224-.071-.451-.141-.674-.213q-1.325-.428-2.622-.875c-.158-.054-.313-.111-.47-.166q-1.19-.415-2.355-.846c-.239-.089-.479-.177-.716-.266-.9-.339-1.8-.683-2.674-1.035q-.941-.378-1.863-.766c-.178-.075-.354-.151-.531-.227q-.66-.281-1.312-.567c-.222-.1-.442-.2-.663-.3q-.586-.262-1.165-.529-.334-.154-.666-.309c-.324-.152-.644-.306-.964-.46-.35-.168-.7-.337-1.044-.508q-.441-.218-.876-.439-.512-.259-1.018-.522-.428-.222-.851-.448-.5-.266-.993-.536-.417-.228-.83-.459-.487-.273-.966-.549c-.272-.157-.544-.313-.812-.472-.3-.177-.6-.355-.892-.534-.269-.163-.538-.326-.8-.49-.291-.18-.578-.362-.865-.544-.262-.167-.524-.334-.783-.5-.282-.184-.56-.37-.838-.556-.254-.169-.507-.339-.757-.51-.274-.188-.544-.378-.813-.568-.245-.173-.491-.346-.732-.52-.265-.191-.526-.385-.786-.579-.237-.176-.475-.351-.707-.529-.258-.2-.51-.395-.762-.593-.227-.178-.456-.356-.679-.535-.249-.2-.493-.4-.737-.6-.218-.181-.438-.361-.653-.543-.24-.2-.474-.411-.71-.617-.21-.183-.421-.366-.627-.551-.232-.209-.458-.42-.685-.631-.2-.185-.4-.368-.6-.554-.226-.215-.445-.433-.666-.651-.187-.184-.378-.368-.561-.554-.219-.222-.43-.446-.644-.669-.176-.184-.356-.368-.528-.554-.212-.228-.415-.459-.622-.689-.165-.184-.333-.367-.495-.552-.206-.237-.4-.477-.6-.715-.152-.181-.307-.361-.455-.542-.2-.251-.4-.5-.6-.757-.135-.173-.275-.345-.407-.519-.215-.284-.421-.571-.627-.858-.1-.145-.214-.288-.316-.433q-.457-.65-.886-1.308a38.064,38.064,0,0,1-2.957-5.438,32.469,32.469,0,0,1-1.573-4.4q-.153-.551-.283-1.1a28.948,28.948,0,0,1-.7-4.421q-.044-.553-.065-1.106t-.021-1.105h0l-.06,17.144a32.018,32.018,0,0,0,5.6,17.571q.428.658.886,1.308c.1.145.212.288.316.433.207.286.412.573.627.857.132.174.272.346.407.519.2.253.392.506.6.757.148.182.3.361.455.542.2.239.4.479.6.716.161.185.33.368.495.552.206.23.41.461.622.689.172.186.352.369.528.553.213.224.425.448.644.669.184.186.374.369.561.554.221.217.44.435.666.65.2.186.4.37.6.555.227.211.453.422.685.631.206.185.417.368.627.551.235.206.47.413.71.617.215.183.436.364.655.545.243.2.485.4.733.6.225.181.456.361.686.54.251.2.5.393.756.588.234.178.472.354.71.531.26.193.52.387.785.578.242.174.488.348.734.521.269.19.537.379.81.566.252.173.507.343.762.514.276.185.553.37.833.552.26.169.523.337.787.5.285.181.57.362.859.541.268.166.54.331.812.5.293.177.586.353.883.528.114.067.224.136.338.2.158.092.322.182.482.274q.477.274.96.546.413.231.832.46.492.269.992.535.423.225.851.448.5.263,1.017.521.436.221.877.44.518.256,1.044.508c.182.088.36.178.544.265.138.065.28.129.419.195l.668.31q.577.266,1.162.528c.221.1.442.2.665.3q.65.286,1.311.567c.177.076.353.152.531.227q.907.381,1.83.753l.036.014c.878.352,1.771.7,2.672,1.034l.716.266q1.165.431,2.355.846c.117.041.229.084.346.125l.124.041q1.3.447,2.621.875c.223.072.45.142.675.214q1.024.325,2.065.641c.15.045.3.093.445.138s.292.083.436.126q.892.264,1.8.518c.277.078.553.158.832.235q1.312.363,2.646.711l.158.041c1.37.353,2.752.684,4.141,1,.283.065.565.131.849.2.262.059.521.122.783.18.45.1.91.181,1.362.277,1.153.245,2.31.484,3.474.707.294.056.583.124.878.179.4.075.816.135,1.222.208q1.631.293,3.273.557c.4.064.79.141,1.188.2.319.049.643.085.962.133,1.1.163,2.2.313,3.3.458.476.062.947.139,1.425.2.225.027.452.046.677.073,1.16.139,2.325.259,3.491.377.508.051,1.011.117,1.519.164.13.012.261.019.391.031,1.4.127,2.8.232,4.2.329.36.025.718.061,1.079.084l.113.006q2.687.17,5.385.267l.143.007c.442.016.885.016,1.328.028,1.3.037,2.61.072,3.917.083.127,0,.252.007.379.008.53,0,1.061-.011,1.592-.011,1.159,0,2.318,0,3.478-.024.213,0,.426,0,.639,0,.472-.01.943-.038,1.414-.051,1.21-.034,2.418-.075,3.627-.131.328-.015.657-.019.985-.036.771-.04,1.541-.09,2.311-.138.25-.016.5-.028.749-.045q1.863-.125,3.722-.281c.2-.018.406-.042.609-.06.748-.067,1.494-.145,2.241-.22.913-.092,1.826-.183,2.736-.287.755-.087,1.507-.184,2.26-.279.613-.078,1.229-.144,1.84-.227.367-.05.732-.108,1.1-.16s.743-.107,1.114-.162c1.493-.222,2.984-.454,4.466-.711q1.264-.219,2.511-.453c.286-.053.568-.111.852-.166.544-.1,1.089-.208,1.629-.317.338-.068.671-.141,1.007-.211.481-.1.964-.2,1.441-.3.354-.077.7-.158,1.056-.236.455-.1.911-.2,1.362-.307.357-.083.709-.17,1.064-.255.44-.105.882-.209,1.319-.318.36-.089.717-.182,1.075-.274.425-.108.851-.215,1.272-.327.362-.1.72-.195,1.08-.292.412-.112.825-.223,1.233-.337.359-.1.714-.2,1.07-.307.4-.116.809-.232,1.209-.351l.184-.053q.906-.271,1.8-.551l.309-.1q.848-.267,1.685-.542l.633-.211q.689-.231,1.371-.466l.641-.223q.776-.273,1.543-.553l.38-.137q.948-.35,1.879-.71l.488-.192q.692-.271,1.376-.547l.616-.252c.175-.072.353-.143.528-.216s.329-.142.494-.212q.625-.265,1.242-.533.435-.19.867-.382.62-.277,1.23-.559c.275-.126.551-.253.823-.381.423-.2.84-.4,1.257-.6.248-.121.5-.24.744-.362.477-.236.946-.477,1.414-.718.155-.08.315-.158.47-.238l.074-.04c.171-.089.337-.181.507-.27.4-.211.8-.423,1.187-.637.213-.117.422-.235.633-.353.344-.192.686-.384,1.025-.578.222-.128.442-.257.662-.385q.481-.282.957-.567.334-.2.664-.4c.153-.094.309-.186.46-.281.18-.112.356-.226.534-.339.155-.1.31-.2.464-.295q.653-.42,1.292-.847l.155-.1q.71-.478,1.4-.966c.135-.095.267-.191.4-.286.2-.141.4-.281.592-.423.08-.058.155-.119.235-.177q.839-.616,1.648-1.246c.055-.043.113-.085.168-.128.587-.461,1.158-.928,1.72-1.4.059-.05.122-.1.18-.147.105-.089.2-.18.307-.269q.564-.483,1.111-.973c.164-.147.329-.294.49-.442q.627-.575,1.23-1.16c.068-.066.141-.131.209-.2l.048-.048q.641-.629,1.254-1.268c.413-.432.81-.865,1.2-1.3.068-.076.136-.151.2-.227l.157-.175c.165-.189.317-.379.478-.568.218-.256.439-.512.649-.77.191-.234.373-.47.557-.706.2-.258.407-.516.6-.775.04-.053.084-.105.123-.158.143-.192.274-.386.413-.579.177-.246.356-.491.526-.738s.332-.5.5-.746.327-.494.483-.742c.034-.054.072-.108.106-.163.122-.2.232-.4.35-.593.146-.246.3-.492.435-.739s.276-.507.412-.76.268-.495.393-.743c.027-.052.057-.1.083-.157.1-.2.187-.4.281-.6.121-.255.245-.509.359-.764s.216-.5.321-.757.217-.512.317-.769c.021-.054.046-.107.066-.161.072-.189.132-.378.2-.567.1-.275.2-.55.292-.825.081-.245.153-.49.227-.735.083-.274.167-.548.242-.823.018-.067.042-.133.059-.2.092-.347.175-.694.254-1.042.016-.07.031-.14.046-.21.1-.454.189-.907.266-1.362.01-.059.019-.118.029-.177.028-.169.057-.338.081-.508q.066-.455.117-.912c0-.023,0-.047.007-.07.051-.46.088-.922.116-1.383,0-.058.008-.115.012-.173.018-.331.031-.661.037-.992q0-.253,0-.507l.06-17.144C653.622,1134.086,653.607,1134.586,653.58,1135.085Z" transform="translate(-442.561 -1078.994)" fill="url(#linear-gradient-4)"/>
      </g>
      <g id="组_199" data-name="组 199" transform="translate(340.326 465.819)">
        <g id="组_198" data-name="组 198" transform="translate(0)">
          <path id="路径_413" data-name="路径 413" d="M796.744,996.735a90.21,90.21,0,0,1-37.025-1.358c-11.606-2.991-20.28-8.131-24.423-14.476s-3.26-13.132,2.486-19.113,15.669-10.438,27.939-12.553a90.223,90.223,0,0,1,37.023,1.359c11.606,2.991,20.28,8.131,24.423,14.476s3.261,13.132-2.486,19.113S809.013,994.621,796.744,996.735Z" transform="translate(-732.723 -947.938)" fill="url(#linear-gradient-5)"/>
        </g>
        <path id="路径_414" data-name="路径 414" d="M828.583,1065.686c0,.027,0,.053-.005.08-.013.212-.03.424-.054.636,0,.01,0,.021,0,.031-.024.218-.056.435-.091.653,0,.027-.008.055-.013.082q-.053.313-.122.626c-.007.032-.014.064-.021.1-.043.191-.092.381-.144.571-.034.126-.073.252-.111.378s-.067.226-.1.338-.088,2.234-.133,2.36-.08.224-.123.336-.1.235-.145.352-.1.233-.148.349-.109.234-.165.351-.109.232-.168.348-.12.227-.18.34-.124.234-.19.351-.132.225-.2.338-.138.233-.21.348-.147.227-.221.341-.149.229-.228.343-.161.226-.242.339-.162.226-.246.339-.183.237-.276.356-.168.217-.256.324-.2.236-.3.354-.192.228-.292.341l-.094.1c-.179.2-.362.4-.552.6s-.38.39-.576.583c-.039.039-.081.077-.121.115q-.276.268-.563.531l-.226.2q-.251.225-.51.446c-.075.064-.149.128-.225.192-.258.217-.52.431-.79.643l-.08.061q-.37.288-.755.571-.188.139-.38.276l-.184.132c-.212.149-.426.3-.644.444l-.067.044q-.3.2-.6.392l-.211.134q-.228.144-.459.286l-.3.185c-.145.088-.292.174-.44.261l-.3.177q-.235.135-.474.267c-.1.053-.191.107-.287.16-.183.1-.368.2-.554.3l-.225.12-.257.131c-.213.11-.426.219-.643.327l-.344.167c-.191.093-.383.185-.577.277-.125.059-.252.117-.378.175q-.281.13-.566.257l-.4.175q-.284.124-.571.245c-.157.066-.313.132-.471.2l-.28.114q-.316.128-.636.253l-.223.087q-.428.165-.864.326l-.176.064q-.352.129-.708.254l-.293.1q-.313.108-.63.214l-.294.1q-.386.127-.777.25l-.136.043q-.453.142-.913.278c-.185.055-.371.108-.557.161-.163.047-.326.095-.49.141-.19.054-.383.1-.575.157-.162.044-.323.089-.486.132-.2.052-.395.1-.593.152-.163.042-.324.084-.488.124-.2.051-.411.1-.617.149-.159.038-.316.077-.476.114-.215.05-.433.1-.65.146l-.461.1c-.231.05-.464.1-.7.146l-.427.089c-.256.052-.514.1-.772.15-.123.024-.246.049-.37.072q-.574.107-1.155.208c-.681.118-1.366.225-2.053.327l-.513.074c-.449.064-.9.121-1.35.178-.346.044-.692.089-1.039.128-.418.048-.838.09-1.258.132-.343.034-.686.071-1.03.1q-.993.089-1.99.157l-.348.021c-.5.032-1.008.057-1.513.08-.555.026-1.111.045-1.667.06-.315.009-.629.02-.944.026-.534.01-1.068.011-1.6.011-.3,0-.6,0-.9,0-.6-.005-1.2-.021-1.8-.038-.225-.007-.45-.008-.674-.016q-1.24-.044-2.476-.123c-.183-.012-.365-.029-.548-.041-.645-.045-1.289-.093-1.931-.151-.293-.027-.585-.06-.878-.089-.536-.054-1.072-.11-1.6-.173-.323-.039-.644-.082-.966-.124-.508-.066-1.014-.135-1.519-.21-.331-.049-.66-.1-.989-.154q-.755-.121-1.5-.256c-.323-.058-.645-.116-.966-.178-.535-.1-1.066-.212-1.6-.325-.329-.07-.659-.136-.986-.21l-.39-.09c-.663-.153-1.323-.312-1.976-.481q-.615-.159-1.218-.327L757,1088.9q-.416-.118-.829-.239l-.405-.121q-.478-.145-.949-.295l-.31-.1q-.609-.2-1.205-.4l-.216-.076q-.547-.191-1.083-.389l-.329-.122q-.622-.233-1.229-.476-.432-.174-.857-.352l-.244-.1q-.3-.129-.6-.261l-.3-.136q-.27-.121-.536-.243l-.306-.142c-.149-.07-.3-.141-.443-.212s-.321-.155-.48-.234l-.4-.2c-.157-.079-.313-.159-.468-.24l-.391-.206q-.23-.122-.456-.246l-.382-.211q-.224-.125-.444-.252-.188-.108-.373-.217c-.138-.081-.274-.163-.41-.245s-.247-.15-.369-.225-.266-.167-.4-.25-.241-.153-.36-.231-.258-.17-.385-.255-.233-.156-.348-.235-.25-.174-.374-.261-.226-.159-.337-.239-.242-.177-.361-.266-.218-.162-.325-.243-.234-.181-.35-.272-.209-.164-.312-.246-.227-.185-.339-.278-.2-.166-.3-.249-.218-.189-.326-.284-.194-.168-.288-.253-.211-.193-.315-.29-.184-.169-.274-.255-.2-.2-.306-.3c-.086-.085-.174-.169-.258-.255-.1-.1-.2-.2-.3-.308-.081-.085-.164-.169-.243-.254-.1-.105-.191-.211-.286-.317-.076-.085-.153-.169-.227-.254-.095-.109-.186-.219-.278-.329-.07-.083-.141-.166-.209-.249-.094-.115-.183-.232-.274-.348-.062-.08-.126-.158-.187-.239-.1-.131-.193-.262-.288-.394-.048-.066-.1-.132-.145-.2q-.21-.3-.407-.6a17.512,17.512,0,0,1-1.359-2.5,14.93,14.93,0,0,1-.723-2.022q-.07-.253-.13-.507a13.339,13.339,0,0,1-.32-2.032q-.02-.254-.03-.508t-.01-.508h0l-.028,11.315c0,2.709.852,3.45,2.572,6.1q.2.3.407.6c.047.067.1.133.145.2.1.132.189.264.288.394.061.08.125.159.187.238.091.116.18.232.274.348.068.084.14.166.209.249.092.11.183.22.278.329.074.085.152.169.227.254.095.106.188.212.286.317.079.086.162.17.243.255.1.1.2.206.3.308.084.085.172.17.258.255.1.1.2.2.306.3s.182.17.274.255.208.194.315.29.192.169.288.253.216.19.326.284.2.167.3.25.223.185.337.277.21.166.315.248.23.181.348.271.217.163.326.244.239.178.361.266.224.16.337.24.247.174.372.26.233.158.35.236.254.17.383.254.24.155.362.232.262.166.395.249l.373.228c.134.081.269.162.406.243l.155.093c.073.042.148.083.222.126q.219.126.441.251.19.106.383.211.226.124.456.246l.391.206q.232.12.467.24.2.1.4.2.238.118.48.234c.084.04.166.082.25.122l.193.09.307.143q.265.122.534.242l.306.136q.3.131.6.26l.244.1q.417.175.841.346l.017.006c.4.162.814.32,1.228.476l.329.122q.536.2,1.083.389l.159.057.057.019q.6.205,1.2.4l.31.1q.471.15.949.294c.069.021.136.043.2.063l.2.058q.41.121.826.238l.382.108q.6.167,1.217.327l.073.019c.629.162,1.265.314,1.9.462l.39.089c.12.027.24.056.36.083.207.046.418.083.626.128.53.113,1.062.222,1.6.325.135.026.268.057.4.082.186.035.375.062.562.1q.75.134,1.5.256c.183.03.363.065.546.093.147.023.3.039.442.061.5.075,1.011.144,1.519.21.219.029.435.064.655.09.1.013.208.022.311.034.533.064,1.069.119,1.6.173.233.024.465.054.7.075l.18.014c.642.059,1.286.107,1.931.151.166.011.33.028.5.039l.052,0q1.235.078,2.475.123l.066,0c.2.007.407.007.61.013.6.018,1.2.033,1.8.039l.174,0c.244,0,.488-.005.732-.005.533,0,1.066,0,1.6-.011.1,0,.2,0,.294,0,.217,0,.433-.017.65-.024.556-.016,1.112-.034,1.667-.06.151-.007.3-.009.453-.016.354-.018.708-.041,1.062-.063l.345-.021q.856-.057,1.711-.13c.094-.008.187-.019.28-.027.344-.031.687-.067,1.03-.1.42-.042.839-.084,1.258-.132.347-.04.693-.085,1.039-.129.282-.036.565-.066.846-.1.169-.023.336-.05.5-.074l.512-.074c.686-.1,1.371-.209,2.053-.327q.581-.1,1.155-.208l.392-.076c.25-.048.5-.1.749-.146.155-.031.308-.065.463-.1.221-.046.443-.092.662-.139.163-.035.324-.073.485-.109.209-.047.419-.093.626-.141l.489-.117c.2-.048.405-.1.606-.146.166-.041.329-.084.494-.126.2-.05.391-.1.585-.15.167-.044.331-.09.5-.134.189-.051.379-.1.567-.155.165-.046.328-.094.492-.141.185-.054.372-.106.556-.161l.085-.025q.417-.125.827-.253l.142-.046q.39-.122.775-.249l.291-.1q.317-.106.63-.214l.295-.1q.357-.125.709-.254l.175-.063q.436-.161.864-.326l.224-.088q.318-.125.632-.252l.283-.116.243-.1.227-.1q.287-.121.571-.245l.4-.175q.285-.127.566-.256l.378-.175c.194-.091.386-.184.578-.277.114-.055.229-.11.342-.166.219-.109.435-.219.65-.33.071-.037.145-.073.216-.11l.035-.018c.078-.041.155-.083.233-.124.183-.1.365-.194.545-.293l.291-.162c.158-.088.315-.176.471-.266l.3-.177q.221-.13.44-.261l.3-.186.212-.129.245-.156.213-.135q.3-.193.594-.39l.071-.047q.326-.22.643-.444l.184-.131c.091-.065.183-.129.272-.194l.108-.082q.385-.283.757-.573l.077-.059c.27-.212.532-.427.79-.643l.083-.068c.048-.041.094-.083.141-.124q.26-.222.511-.447c.075-.068.151-.135.225-.2q.289-.264.566-.533c.031-.03.065-.06.1-.09l.022-.022q.294-.289.576-.583c.19-.2.372-.4.552-.6l.093-.1.072-.08c.076-.087.146-.174.22-.261.1-.118.2-.236.3-.354s.171-.216.256-.324.187-.237.277-.356c.018-.024.038-.048.057-.073.066-.089.126-.177.19-.266.081-.113.164-.226.242-.339s.153-.228.228-.343.151-.227.222-.341c.016-.025.033-.05.049-.075.056-.091.107-.182.161-.273.067-.113.136-.226.2-.34s.127-.233.189-.349.123-.227.181-.342c.012-.024.026-.048.038-.072.046-.092.086-.183.129-.275.056-.117.113-.234.165-.351s.1-.232.148-.348.1-.235.145-.354c.01-.025.021-.049.031-.074.033-.087.061-.174.092-.261.046-.126.092-.252.134-.379.037-.112.07-.225.1-.337s.077-.252.111-.378c.008-.031.019-.061.027-.092.042-.16.081-.319.117-.479l.021-.1c.045-.208.087-.417.122-.626,0-.027.008-.054.013-.082.013-.078.026-.156.037-.234q.03-.209.054-.419c0-.01,0-.021,0-.032.023-.212.041-.424.053-.636,0-.027,0-.053.005-.08.008-.152.014-.3.017-.456q0-.116,0-.233L828.6,1065Q828.6,1065.342,828.583,1065.686Z" transform="translate(-731.585 -1041.982)" fill="url(#linear-gradient-6)"/>
      </g>
      <g id="组_201" data-name="组 201" transform="translate(340.282 427.56)">
        <g id="组_200" data-name="组 200" transform="translate(0.045 0)">
          <path id="路径_415" data-name="路径 415" d="M796.744,803.658a90.212,90.212,0,0,1-37.025-1.358c-11.606-2.991-20.28-8.132-24.423-14.476s-3.26-13.132,2.486-19.113,15.669-10.439,27.939-12.553a90.219,90.219,0,0,1,37.023,1.359c11.606,2.991,20.28,8.131,24.423,14.475s3.261,13.132-2.486,19.113S809.013,801.544,796.744,803.658Z" transform="translate(-732.723 -754.861)" fill="url(#linear-gradient-5)"/>
        </g>
        <path id="路径_416" data-name="路径 416" d="M828.628,881.564c0,.026,0,.053-.005.08-.013.212-.03.424-.053.636,0,.01,0,.021,0,.031-.024.218-.056.436-.091.653,0,.027-.008.055-.013.082q-.053.313-.123.626l-.021.1c-.043.19-.092.381-.144.571-.034.126-.073.252-.111.378s-.067.225-.1.338-.088.252-.134.378-.08.224-.123.336-.1.235-.145.352-.1.233-.148.349-.109.234-.165.351-.109.232-.168.348-.12.227-.18.34-.124.234-.19.351-.132.225-.2.338-.138.233-.21.349-.147.227-.222.341-.15.229-.228.344-.161.226-.242.339-.162.226-.247.339-.184.237-.276.356-.169.217-.257.324-.2.236-.3.354-.192.228-.292.341l-.094.1c-.179.2-.362.4-.552.6s-.38.39-.576.583c-.039.039-.081.077-.121.115q-.276.268-.564.531c-.074.068-.15.136-.226.2q-.251.225-.51.447c-.075.064-.149.128-.225.192-.258.216-.52.431-.79.643l-.08.061q-.37.289-.756.571-.189.139-.38.276l-.184.131q-.318.224-.644.444l-.068.045q-.3.2-.6.392l-.211.134q-.228.144-.459.286l-.3.186c-.145.088-.292.174-.44.261l-.3.177q-.235.135-.474.267c-.1.053-.191.107-.288.16-.183.1-.368.2-.554.3l-.225.12-.258.131c-.213.11-.427.219-.643.326-.114.056-.229.112-.344.167-.192.093-.383.186-.578.277l-.378.175q-.281.13-.566.257l-.4.175q-.284.124-.572.245c-.157.066-.313.132-.472.2l-.28.115q-.316.128-.636.253l-.223.087q-.428.166-.864.326l-.176.064q-.352.129-.709.254l-.293.1q-.313.108-.63.214l-.294.1q-.386.127-.777.25l-.137.043q-.453.142-.914.278c-.185.055-.371.108-.557.162-.163.047-.326.095-.49.141-.19.054-.383.1-.576.157-.162.044-.323.089-.487.132-.2.052-.395.1-.593.152-.163.041-.324.084-.488.124-.2.051-.411.1-.618.149-.159.038-.316.077-.476.114-.216.05-.433.1-.651.146-.154.034-.307.07-.461.1-.231.05-.465.1-.7.146l-.428.089c-.256.052-.514.1-.773.151l-.37.072q-.574.107-1.155.208c-.682.118-1.367.225-2.054.327l-.513.074c-.449.064-.9.121-1.351.178-.346.044-.692.088-1.039.128-.419.048-.839.09-1.258.132-.343.035-.687.071-1.031.1-.663.059-1.326.112-1.991.157l-.348.021c-.5.032-1.009.056-1.513.08-.556.026-1.112.044-1.668.06-.315.009-.629.02-.944.026-.534.01-1.068.011-1.6.011-.3,0-.6,0-.9,0-.6-.005-1.2-.021-1.8-.038-.225-.007-.45-.008-.674-.016q-1.241-.045-2.477-.123c-.183-.012-.365-.029-.548-.041-.645-.045-1.29-.093-1.932-.151-.294-.027-.585-.06-.878-.089-.536-.054-1.072-.109-1.606-.173-.323-.039-.645-.082-.967-.124-.508-.066-1.015-.135-1.519-.21-.331-.049-.66-.1-.989-.154q-.755-.121-1.505-.256c-.323-.058-.645-.116-.966-.178-.535-.1-1.067-.212-1.6-.325-.329-.07-.66-.136-.987-.21l-.39-.09c-.663-.153-1.324-.312-1.977-.481-.41-.106-.816-.216-1.219-.327l-.378-.107q-.417-.118-.829-.239l-.405-.121q-.478-.144-.949-.294l-.31-.1q-.609-.2-1.206-.4l-.216-.076q-.547-.191-1.083-.389l-.329-.122q-.622-.234-1.23-.476-.433-.173-.857-.352l-.244-.1q-.3-.129-.6-.261l-.3-.136q-.27-.121-.536-.243l-.306-.142c-.149-.07-.3-.14-.443-.211s-.322-.155-.48-.234l-.4-.2-.468-.24-.391-.206q-.23-.122-.457-.246l-.382-.211q-.224-.125-.444-.252l-.373-.217q-.207-.122-.41-.245c-.124-.075-.247-.15-.37-.225s-.266-.166-.4-.25-.241-.154-.36-.231-.258-.17-.385-.255-.233-.156-.348-.235-.25-.174-.374-.261-.226-.159-.337-.239-.242-.177-.362-.266-.218-.162-.325-.243-.234-.181-.35-.272-.209-.163-.312-.246-.227-.185-.339-.279-.2-.166-.3-.249-.218-.189-.326-.284-.194-.169-.288-.253-.211-.193-.315-.29-.184-.169-.274-.255-.2-.2-.306-.3c-.086-.085-.174-.169-.258-.255-.1-.1-.2-.2-.3-.308-.081-.085-.164-.169-.243-.254-.1-.105-.191-.211-.286-.317-.076-.085-.153-.169-.227-.254-.095-.109-.186-.219-.278-.329-.07-.083-.141-.165-.209-.249-.094-.115-.183-.232-.274-.348-.062-.08-.126-.159-.187-.239-.1-.13-.193-.262-.288-.394-.048-.066-.1-.132-.145-.2q-.21-.3-.407-.6a17.517,17.517,0,0,1-1.36-2.5,14.923,14.923,0,0,1-.723-2.021q-.07-.254-.13-.507a13.322,13.322,0,0,1-.32-2.032q-.02-.254-.03-.508t-.01-.508h0l-.028,25.186a14.71,14.71,0,0,0,2.573,8.076q.2.3.407.6c.047.067.1.133.146.2.1.132.189.264.289.394.061.08.125.159.187.238.091.116.18.233.274.348.068.083.14.166.209.249.092.11.183.22.278.329.074.085.152.169.228.254.095.106.188.212.286.317.079.085.162.169.243.254.1.1.2.206.3.308.084.085.172.17.258.255.1.1.2.2.306.3s.182.17.274.255.208.194.315.29.192.169.288.253.216.19.326.284.2.167.3.251.223.185.337.277.21.166.315.249.23.181.348.27.217.163.326.244.239.178.361.266.224.16.338.24.247.174.372.26.233.158.351.236.254.17.383.254.24.155.362.232.262.166.395.249.248.152.374.228.269.162.406.243c.052.031.1.063.156.093.073.043.148.084.222.126q.219.126.441.251l.383.211c.151.083.3.164.456.246l.391.206q.232.121.468.239l.4.2q.238.118.48.234l.25.122.193.089.307.143q.265.122.534.243l.306.136q.3.132.6.26l.244.1q.417.175.841.346l.017.006c.4.162.814.32,1.229.476l.329.122q.536.2,1.083.389l.159.057.057.019q.6.205,1.205.4l.31.1q.471.15.949.295l.2.063.2.058q.41.121.826.238l.382.108q.6.167,1.217.327l.073.019c.63.162,1.266.315,1.9.462l.39.09c.121.027.24.056.36.083.207.045.418.083.626.127.53.112,1.062.222,1.6.325.135.026.268.057.4.082.186.035.375.062.562.1q.75.135,1.505.256c.183.029.363.065.547.093.147.023.3.039.443.061.5.075,1.011.144,1.519.21.219.029.436.064.655.091.1.013.208.022.312.034.534.064,1.069.119,1.606.173.233.024.465.054.7.075l.18.014c.642.058,1.287.107,1.932.151.166.012.33.028.5.039l.052,0q1.236.078,2.477.123l.066,0c.2.007.407.007.611.013.6.017,1.2.033,1.8.039l.174,0c.244,0,.488-.005.732-.005.533,0,1.066,0,1.6-.011.1,0,.2,0,.294,0,.217,0,.434-.017.651-.024.556-.016,1.112-.035,1.668-.06.151-.007.3-.009.453-.016.355-.018.709-.041,1.063-.064l.345-.021q.857-.057,1.712-.129c.094-.008.186-.019.28-.028.344-.031.687-.067,1.031-.1.42-.042.839-.084,1.258-.132.347-.04.693-.085,1.039-.129.282-.036.565-.066.846-.1.169-.023.337-.049.5-.073l.513-.074c.687-.1,1.372-.209,2.054-.327q.581-.1,1.155-.208l.392-.076c.25-.048.5-.1.749-.146.155-.031.309-.065.463-.1.221-.046.443-.091.663-.139.163-.035.324-.073.486-.109.209-.047.419-.093.626-.141.164-.038.326-.078.489-.117.2-.048.406-.1.607-.146.166-.041.329-.084.494-.126.2-.05.391-.1.585-.15.167-.044.331-.089.5-.135.189-.051.379-.1.567-.155.165-.046.328-.094.492-.142.186-.053.372-.106.556-.161l.085-.024q.417-.125.828-.253l.142-.045q.39-.123.775-.249l.291-.1q.317-.106.63-.214l.295-.1q.357-.126.709-.254l.175-.064q.436-.16.864-.326l.224-.088q.318-.125.633-.251l.283-.116.243-.1.227-.1q.287-.121.571-.245l.4-.175q.285-.127.566-.257l.379-.175c.194-.091.387-.184.578-.277.114-.055.229-.11.342-.166.219-.109.435-.219.65-.33l.216-.11.035-.018.233-.124c.183-.1.366-.194.546-.293.1-.054.194-.108.291-.162q.237-.132.471-.266l.3-.177q.221-.13.44-.261l.305-.186c.07-.043.142-.085.212-.129s.164-.1.246-.156l.214-.136q.3-.193.594-.389l.071-.047q.326-.22.643-.444l.184-.132c.091-.065.183-.129.272-.194l.108-.081q.386-.283.758-.573l.077-.059c.27-.212.533-.427.791-.643l.083-.068c.048-.041.094-.083.141-.124q.26-.222.511-.447c.075-.068.151-.135.226-.2q.289-.264.566-.533c.031-.03.065-.06.1-.091l.022-.022q.295-.289.577-.583c.19-.2.373-.4.552-.6l.093-.1.072-.08c.076-.087.146-.174.22-.261.1-.118.2-.236.3-.354s.171-.216.256-.324.187-.237.277-.356l.057-.073c.066-.088.126-.177.19-.266.081-.113.164-.226.242-.339s.152-.229.228-.343.151-.227.222-.341c.016-.025.033-.05.049-.075.056-.091.107-.182.161-.273.067-.113.136-.226.2-.339s.127-.233.189-.35.123-.227.181-.342c.012-.024.026-.048.038-.072.046-.092.086-.183.13-.275.056-.117.113-.234.165-.351s.1-.232.148-.348.1-.235.146-.354c.01-.025.021-.049.031-.074.033-.087.061-.174.092-.261.046-.126.092-.253.134-.379s.07-.225.1-.338.077-.252.112-.378c.008-.031.019-.061.027-.092.042-.159.08-.319.117-.479l.021-.1c.046-.208.087-.417.123-.626,0-.027.008-.055.013-.082.013-.078.026-.156.037-.234q.03-.209.054-.419c0-.011,0-.021,0-.032.023-.212.041-.424.053-.636,0-.026,0-.053.005-.08.008-.152.014-.3.017-.456q0-.116,0-.233l.028-25.186C828.647,881.1,828.64,881.334,828.628,881.564Z" transform="translate(-731.585 -855.878)" fill="url(#linear-gradient-8)"/>
      </g>
      <g id="组_203" data-name="组 203" transform="translate(351.734 415.364)">
        <g id="组_202" data-name="组 202" transform="translate(0 0)">
          <path id="路径_417" data-name="路径 417" d="M781.689,719.677a61.894,61.894,0,0,1-28.318-1.162c-8.877-2.558-15.511-6.956-18.68-12.382s-2.494-11.232,1.9-16.348,11.984-8.929,21.369-10.737a61.9,61.9,0,0,1,28.317,1.162c8.877,2.558,15.511,6.955,18.68,12.382s2.494,11.232-1.9,16.349S791.073,717.869,781.689,719.677Z" transform="translate(-732.723 -677.938)" fill="url(#linear-gradient-5)"/>
        </g>
        <path id="路径_418" data-name="路径 418" d="M805.773,795.586c0,.023,0,.045,0,.068q-.015.272-.041.544c0,.009,0,.018,0,.026-.019.186-.043.372-.07.559,0,.023-.007.047-.01.07q-.041.268-.094.536l-.016.082c-.033.163-.07.326-.11.489-.026.108-.056.216-.085.323s-.051.193-.08.289-.067,1.911-.1,2.019-.061.192-.094.287-.073.2-.111.3-.073.2-.113.3-.084.2-.126.3-.084.2-.128.3-.091.194-.138.291-.095.2-.146.3-.1.193-.152.289-.105.2-.161.3-.112.194-.169.291-.114.2-.174.294-.123.193-.185.29-.124.194-.188.29-.14.2-.211.3-.129.185-.2.278-.152.2-.228.3-.147.2-.224.292l-.072.089c-.137.171-.277.342-.422.511s-.29.334-.44.5l-.092.1q-.211.229-.431.454l-.173.174q-.192.192-.39.382l-.172.164c-.2.185-.4.369-.6.55l-.061.052q-.283.247-.578.488-.144.118-.291.236l-.141.113c-.162.128-.326.255-.492.38l-.052.038q-.226.169-.458.336l-.161.115q-.174.123-.351.245l-.233.159q-.167.112-.336.223l-.232.151c-.12.077-.241.153-.362.228l-.22.137c-.14.085-.282.17-.424.254l-.172.1-.2.113c-.163.094-.326.187-.492.279l-.263.143c-.146.08-.293.159-.442.237l-.289.149c-.143.074-.287.147-.433.22l-.3.15q-.217.106-.437.209c-.12.057-.24.113-.36.169l-.214.1q-.241.109-.486.216l-.17.075q-.328.142-.66.279l-.135.054q-.269.11-.542.217l-.224.087q-.24.093-.482.183l-.225.084q-.3.109-.594.214l-.1.037q-.347.121-.7.238l-.426.138c-.125.04-.249.081-.375.121-.146.046-.293.09-.44.134-.124.038-.247.076-.372.113-.15.044-.3.087-.453.13l-.373.106c-.156.043-.315.085-.472.127l-.364.1c-.165.043-.331.084-.5.125-.118.029-.234.06-.353.088-.177.043-.355.084-.533.125l-.327.077c-.2.044-.393.086-.591.129l-.283.062q-.439.092-.883.178c-.521.1-1.045.192-1.57.279l-.392.064c-.343.055-.688.1-1.033.152-.265.037-.529.076-.795.11-.32.041-.641.077-.962.113-.263.029-.525.06-.788.087-.506.05-1.014.1-1.522.134l-.266.018c-.385.027-.771.048-1.157.068-.425.022-.85.038-1.275.052-.241.008-.481.017-.722.022-.409.008-.817.009-1.225.009-.23,0-.46,0-.689,0-.46,0-.92-.018-1.38-.033-.172-.006-.344-.007-.516-.014q-.949-.038-1.893-.1c-.14-.01-.279-.025-.419-.036-.493-.038-.986-.079-1.477-.129-.224-.023-.448-.051-.671-.076-.41-.046-.82-.094-1.228-.148-.247-.033-.493-.07-.739-.106-.388-.057-.776-.116-1.161-.18-.253-.042-.5-.087-.756-.132q-.577-.1-1.151-.219c-.247-.049-.493-.1-.739-.152-.409-.088-.816-.182-1.221-.278-.252-.06-.5-.117-.754-.18l-.3-.077c-.507-.131-1.012-.267-1.512-.411-.314-.091-.624-.184-.932-.28l-.289-.091q-.319-.1-.634-.2l-.31-.1q-.366-.123-.726-.252l-.237-.084q-.466-.168-.922-.344l-.165-.065q-.419-.163-.828-.333l-.252-.1q-.476-.2-.94-.407-.331-.148-.655-.3l-.186-.089q-.232-.111-.461-.223l-.233-.116q-.206-.1-.41-.208l-.234-.122c-.114-.06-.226-.12-.339-.181s-.246-.133-.367-.2l-.308-.173q-.18-.1-.358-.205l-.3-.176-.349-.211-.292-.18q-.171-.107-.339-.216l-.286-.185c-.106-.07-.21-.14-.313-.21l-.283-.193c-.1-.071-.2-.143-.3-.214l-.275-.2c-.1-.073-.2-.145-.295-.218s-.178-.133-.266-.2-.191-.149-.286-.223-.173-.136-.258-.2-.185-.151-.276-.228-.167-.138-.249-.208-.179-.155-.268-.233-.16-.14-.239-.21-.173-.159-.259-.238-.154-.142-.229-.214-.167-.161-.249-.242-.148-.144-.22-.217-.161-.165-.241-.248-.141-.145-.209-.218-.156-.17-.234-.256-.133-.145-.2-.218-.151-.175-.226-.263c-.062-.072-.125-.145-.186-.218-.074-.09-.146-.18-.219-.271-.058-.072-.117-.144-.174-.217-.073-.093-.142-.187-.212-.281-.053-.071-.108-.142-.16-.213-.072-.1-.14-.2-.209-.3-.048-.068-.1-.136-.143-.2-.076-.112-.148-.225-.22-.337-.037-.057-.075-.113-.111-.17q-.161-.256-.311-.514a15.623,15.623,0,0,1-1.039-2.138,13.771,13.771,0,0,1-.553-1.729q-.054-.217-.1-.434a12.672,12.672,0,0,1-.245-1.738q-.015-.217-.023-.435c-.005-.145-.008-.29-.007-.434h0l-.021,9.679c0,2.317.652,2.951,1.967,5.214q.15.259.311.514c.036.057.074.114.111.171.073.113.145.225.221.337.046.069.1.136.143.2.069.1.138.2.209.3.052.071.107.142.16.213.07.094.14.188.212.281.057.073.116.145.174.217.072.09.144.181.219.271.061.073.124.145.186.218.075.088.149.176.226.263s.131.145.2.218.155.171.234.256.139.145.209.218.159.166.241.248.147.145.22.217.165.162.25.242.153.143.23.214.17.158.258.237.16.142.241.212.176.155.266.231.166.139.25.209.183.152.276.227.172.137.258.2.189.149.285.222.178.135.268.2.194.145.293.217l.276.2c.1.071.2.142.3.212s.19.13.285.195.206.139.31.208l.119.079c.056.036.113.072.169.108l.338.215q.145.091.293.181.173.106.349.211l.3.176q.177.1.357.2l.308.173c.121.067.244.134.367.2l.191.1.147.076.235.122q.2.1.409.208l.234.117q.229.112.461.223l.187.089q.319.15.643.3l.013.005c.309.139.623.274.939.407l.252.1q.41.169.828.333l.122.049.044.016q.455.176.921.344l.237.084q.36.128.726.252l.156.054.153.05q.314.1.632.2l.292.092q.461.143.93.28l.056.016c.481.139.968.269,1.456.4l.3.077.276.071c.158.039.32.071.479.109.405.1.812.19,1.221.278.1.022.205.049.309.07.142.03.287.053.43.082q.573.115,1.151.219c.14.025.278.055.418.079.112.019.226.034.338.052.386.064.773.123,1.162.18.167.025.333.055.5.078.079.011.159.018.238.029.408.054.818.1,1.228.148.178.02.355.046.534.064l.137.012c.491.05.984.091,1.477.13.127.01.253.024.38.033l.04,0q.944.067,1.893.105l.05,0c.156.006.311.006.467.011.459.015.918.028,1.377.033l.133,0c.187,0,.373,0,.56,0,.408,0,.815,0,1.223-.01.075,0,.15,0,.225,0,.166,0,.331-.015.5-.02.425-.013.85-.03,1.275-.052.115-.006.231-.007.346-.014.271-.016.542-.035.813-.054l.263-.018q.655-.049,1.309-.11l.214-.023c.263-.026.525-.057.788-.087.321-.036.642-.072.962-.113.265-.034.53-.072.794-.11.216-.03.432-.057.647-.089.129-.02.257-.042.386-.063l.392-.064c.525-.087,1.049-.179,1.57-.279q.444-.086.883-.178l.3-.065c.191-.041.383-.082.573-.125l.354-.083c.169-.039.339-.078.506-.119.125-.03.248-.062.371-.093.16-.04.32-.079.479-.121.126-.032.249-.067.374-.1.155-.042.31-.082.464-.125l.378-.108c.15-.043.3-.085.447-.128.127-.038.253-.077.38-.115.145-.044.29-.087.434-.132l.376-.121c.142-.046.284-.091.425-.138l.065-.021q.319-.106.633-.217l.109-.038q.3-.105.593-.213l.222-.083q.242-.09.482-.183l.226-.088q.273-.107.542-.217l.134-.054q.333-.137.661-.279l.172-.076q.243-.106.484-.215l.217-.1.186-.085.174-.083.437-.21.3-.15q.218-.109.433-.22l.289-.15c.149-.078.3-.158.442-.237l.262-.142c.167-.093.333-.187.5-.282l.165-.094.026-.016.178-.106c.14-.083.28-.166.417-.25l.223-.139c.121-.075.241-.151.36-.227l.233-.152q.169-.111.336-.223l.233-.159c.054-.037.109-.073.162-.11l.188-.133.163-.116q.23-.165.454-.333l.054-.04c.166-.125.33-.252.492-.379l.141-.113c.069-.055.14-.11.208-.166l.083-.07q.295-.242.579-.49l.059-.051c.206-.181.407-.365.6-.55l.063-.058c.037-.035.072-.071.108-.106q.2-.19.391-.382c.058-.058.116-.116.172-.174q.221-.226.432-.456c.024-.026.05-.051.074-.078l.017-.019q.225-.247.441-.5c.145-.17.285-.34.422-.512l.071-.089.055-.069c.058-.074.112-.149.168-.223.077-.1.154-.2.228-.3s.131-.185.2-.277.143-.2.212-.3l.043-.062c.05-.075.1-.152.145-.228.062-.1.125-.193.185-.29s.117-.2.174-.293.115-.194.17-.292c.012-.021.025-.043.037-.064.043-.078.082-.156.123-.234.052-.1.1-.193.153-.29s.1-.2.145-.3.094-.195.138-.292c.009-.021.02-.041.029-.062.035-.078.065-.157.1-.235.043-.1.086-.2.126-.3s.076-.2.113-.3.076-.2.111-.3c.007-.021.016-.042.023-.063.025-.074.046-.149.07-.223.035-.108.07-.216.1-.325s.054-.193.08-.289.059-.216.085-.323c.006-.026.015-.052.021-.079.032-.136.062-.273.089-.41l.016-.083c.035-.178.067-.357.094-.536,0-.023.007-.046.01-.07.01-.067.02-.133.029-.2q.023-.179.041-.358c0-.009,0-.018,0-.027.018-.181.031-.362.041-.544,0-.023,0-.045,0-.068.006-.13.011-.26.013-.39q0-.1,0-.2l.021-9.679Q805.788,795.292,805.773,795.586Z" transform="translate(-731.585 -775.62)" fill="url(#linear-gradient-6)"/>
      </g>
      <path id="路径_419" data-name="路径 419" d="M849.736,746.407a63.768,63.768,0,0,1-26.172-.96c-8.2-2.114-14.335-5.748-17.264-10.233s-2.3-9.282,1.757-13.51,11.076-7.379,19.749-8.873a63.775,63.775,0,0,1,26.171.96c8.2,2.114,14.335,5.748,17.264,10.232s2.3,9.283-1.757,13.511S858.408,744.912,849.736,746.407Z" transform="translate(-449.935 -292.863)" fill="url(#linear-gradient-5)"/>
      <path id="路径_420" data-name="路径 420" d="M884.924,762.3a40.621,40.621,0,0,1-17.031-.638c-5.339-1.407-9.329-3.823-11.235-6.807s-1.5-6.175,1.144-8.987,7.208-4.908,12.852-5.9a40.628,40.628,0,0,1,17.031.639c5.339,1.406,9.329,3.823,11.235,6.806s1.5,6.175-1.144,8.987S890.568,761.31,884.924,762.3Z" transform="translate(-489.185 -315.313)" fill="url(#linear-gradient-12)"/>
      <path id="路径_421" data-name="路径 421" d="M182.876,585.4c43.93,48.413,122.3,58.585,174.711,41.01,66.954-33.477,71.388-86.74,58.735-131.329-10.156-35.791-52.079-50.464-58.735-52.689" transform="translate(53.578 -76.749)" fill="none" stroke="#8591ff" stroke-linecap="round" stroke-linejoin="round" stroke-width="2"/>
      <path id="路径_422" data-name="路径 422" d="M730.274,728.227c-8.493,5.9-66.133,44.683-125.863,22.685-27.027-9.954-72.591-39.021-66.59-73.176,5.23-29.769,46.131-43.472,49.76-44.637" transform="translate(-235.682 -229.666)" fill="none" stroke="#3581ff" stroke-linecap="round" stroke-linejoin="round" stroke-width="2"/>
      <path id="路径_423" data-name="路径 423" d="M810.893,392.789l-.842,5.479-5.443,5.381-15.927,4.515-16.829-4.515-5.988-5.381v-4.861L745.248,300.09l86.569-.406Z" transform="translate(-399.574 41.078)" fill="url(#linear-gradient-13)"/>
      <g id="组_9838" data-name="组 9838" transform="translate(370.429 397.431)">
        <g id="组_9805" data-name="组 9805" transform="translate(0 0)">
          <g id="组_9804" data-name="组 9804">
            <path id="路径_14457" data-name="路径 14457" d="M522.253,279.354l-.122,6.97,6.386-3.778.122-6.97Z" transform="translate(-515.875 -271.799)" fill-rule="evenodd" fill="url(#linear-gradient-14)"/>
            <path id="路径_14458" data-name="路径 14458" d="M522.253,279.354l-.122,6.97,6.386-3.778.122-6.97Z" transform="translate(-515.875 -271.799)" fill-rule="evenodd" fill="url(#linear-gradient-14)"/>
            <path id="路径_14459" data-name="路径 14459" d="M473.623,249.406l-6.255-3.711,6.387-3.844,6.255,3.777Z" transform="translate(-467.245 -241.851)" fill-rule="evenodd" fill="url(#linear-gradient-14)"/>
            <path id="路径_14460" data-name="路径 14460" d="M472.656,279.884l-.122,6.97-6.256-3.711.122-6.97Z" transform="translate(-466.279 -272.329)" fill-rule="evenodd" fill="url(#linear-gradient-14)"/>
          </g>
        </g>
      </g>
      <g id="组_9842" data-name="组 9842" transform="translate(301.578 394.901)">
        <g id="组_9805-2" data-name="组 9805" transform="translate(0 0)">
          <g id="组_9804-2" data-name="组 9804">
            <path id="路径_14457-2" data-name="路径 14457" d="M522.253,279.354l-.122,6.97,6.386-3.778.122-6.97Z" transform="translate(-515.875 -271.799)" fill-rule="evenodd" fill="url(#linear-gradient-14)"/>
            <path id="路径_14458-2" data-name="路径 14458" d="M522.253,279.354l-.122,6.97,6.386-3.778.122-6.97Z" transform="translate(-515.875 -271.799)" fill-rule="evenodd" fill="url(#linear-gradient-14)"/>
            <path id="路径_14459-2" data-name="路径 14459" d="M473.623,249.406l-6.255-3.711,6.387-3.844,6.255,3.777Z" transform="translate(-467.245 -241.851)" fill-rule="evenodd" fill="url(#linear-gradient-14)"/>
            <path id="路径_14460-2" data-name="路径 14460" d="M472.656,279.884l-.122,6.97-6.256-3.711.122-6.97Z" transform="translate(-466.279 -272.329)" fill-rule="evenodd" fill="url(#linear-gradient-14)"/>
          </g>
        </g>
      </g>
      <g id="组_9839" data-name="组 9839" transform="translate(393.401 378.942)">
        <g id="组_9808" data-name="组 9808" transform="translate(0 0)">
          <g id="组_9807" data-name="组 9807" transform="translate(0 0)">
            <path id="路径_14461" data-name="路径 14461" d="M1622.194,654.055l-.1,5.512,5.05-2.987.1-5.512Z" transform="translate(-1617.151 -648.081)" fill-rule="evenodd" fill="url(#linear-gradient-14)"/>
            <path id="路径_14462" data-name="路径 14462" d="M1622.194,654.055l-.1,5.512,5.05-2.987.1-5.512Z" transform="translate(-1617.151 -648.081)" fill-rule="evenodd" fill="url(#linear-gradient-14)"/>
            <path id="路径_14463" data-name="路径 14463" d="M1600.2,640.512l-4.947-2.934,5.051-3.04,4.946,2.987Z" transform="translate(-1595.16 -634.538)" fill-rule="evenodd" fill="url(#linear-gradient-14)"/>
            <path id="路径_14464" data-name="路径 14464" d="M1599.766,654.294l-.1,5.512-4.947-2.934.1-5.512Z" transform="translate(-1594.723 -648.32)" fill-rule="evenodd" fill="url(#linear-gradient-14)"/>
          </g>
        </g>
      </g>
      <g id="组_9844" data-name="组 9844" transform="translate(463.697 365.569)">
        <g id="组_9808-2" data-name="组 9808" transform="translate(0 0)">
          <g id="组_9807-2" data-name="组 9807" transform="translate(0 0)">
            <path id="路径_14461-2" data-name="路径 14461" d="M1622.194,654.055l-.1,5.512,5.05-2.987.1-5.512Z" transform="translate(-1617.151 -648.081)" fill-rule="evenodd" fill="url(#linear-gradient-14)"/>
            <path id="路径_14462-2" data-name="路径 14462" d="M1622.194,654.055l-.1,5.512,5.05-2.987.1-5.512Z" transform="translate(-1617.151 -648.081)" fill-rule="evenodd" fill="url(#linear-gradient-14)"/>
            <path id="路径_14463-2" data-name="路径 14463" d="M1600.2,640.512l-4.947-2.934,5.051-3.04,4.946,2.987Z" transform="translate(-1595.16 -634.538)" fill-rule="evenodd" fill="url(#linear-gradient-14)"/>
            <path id="路径_14464-2" data-name="路径 14464" d="M1599.766,654.294l-.1,5.512-4.947-2.934.1-5.512Z" transform="translate(-1594.723 -648.32)" fill-rule="evenodd" fill="url(#linear-gradient-14)"/>
          </g>
        </g>
      </g>
      <g id="组_9840" data-name="组 9840" transform="translate(393.193 409.462)" opacity="0.5">
        <g id="组_9817" data-name="组 9817" transform="translate(0 0)">
          <g id="组_9816" data-name="组 9816">
            <path id="路径_14473" data-name="路径 14473" d="M1690.411,589.73l-.14,7.992,7.323-4.332.139-7.993Z" transform="translate(-1683.098 -581.067)" fill-rule="evenodd" fill="url(#linear-gradient-14)"/>
            <path id="路径_14474" data-name="路径 14474" d="M1690.411,589.73l-.14,7.992,7.323-4.332.139-7.993Z" transform="translate(-1683.098 -581.067)" fill-rule="evenodd" fill="url(#linear-gradient-14)"/>
            <path id="路径_14475" data-name="路径 14475" d="M1658.523,570.092l-7.173-4.255,7.324-4.408,7.172,4.332Z" transform="translate(-1651.209 -561.429)" fill-rule="evenodd" fill="url(#linear-gradient-14)"/>
            <path id="路径_14476" data-name="路径 14476" d="M1657.889,590.078l-.139,7.993-7.173-4.255.14-7.992Z" transform="translate(-1650.576 -581.414)" fill-rule="evenodd" fill="url(#linear-gradient-14)"/>
          </g>
        </g>
      </g>
      <g id="组_9843" data-name="组 9843" transform="translate(486.079 441.81)" opacity="0.5">
        <g id="组_9817-2" data-name="组 9817" transform="translate(0 0)">
          <g id="组_9816-2" data-name="组 9816">
            <path id="路径_14473-2" data-name="路径 14473" d="M1690.411,589.73l-.14,7.992,7.323-4.332.139-7.993Z" transform="translate(-1683.098 -581.067)" fill-rule="evenodd" fill="url(#linear-gradient-14)"/>
            <path id="路径_14474-2" data-name="路径 14474" d="M1690.411,589.73l-.14,7.992,7.323-4.332.139-7.993Z" transform="translate(-1683.098 -581.067)" fill-rule="evenodd" fill="url(#linear-gradient-14)"/>
            <path id="路径_14475-2" data-name="路径 14475" d="M1658.523,570.092l-7.173-4.255,7.324-4.408,7.172,4.332Z" transform="translate(-1651.209 -561.429)" fill-rule="evenodd" fill="url(#linear-gradient-14)"/>
            <path id="路径_14476-2" data-name="路径 14476" d="M1657.889,590.078l-.139,7.993-7.173-4.255.14-7.992Z" transform="translate(-1650.576 -581.414)" fill-rule="evenodd" fill="url(#linear-gradient-14)"/>
          </g>
        </g>
      </g>
      <g id="组_9841" data-name="组 9841" transform="translate(268.181 446.065)" opacity="0.4">
        <g id="组_9832" data-name="组 9832" transform="translate(0 0)">
          <g id="组_9831" data-name="组 9831">
            <path id="路径_14493" data-name="路径 14493" d="M608.846,609.8l-.2,11.246,10.3-6.095.2-11.245Z" transform="translate(-598.556 -597.606)" fill-rule="evenodd" fill="url(#linear-gradient-14)"/>
            <path id="路径_14494" data-name="路径 14494" d="M608.846,609.8l-.2,11.246,10.3-6.095.2-11.245Z" transform="translate(-598.556 -597.606)" fill-rule="evenodd" fill="url(#linear-gradient-14)"/>
            <path id="路径_14495" data-name="路径 14495" d="M563.978,582.164l-10.093-5.987,10.305-6.2,10.092,6.094Z" transform="translate(-553.689 -569.975)" fill-rule="evenodd" fill="url(#linear-gradient-14)"/>
            <path id="路径_14496" data-name="路径 14496" d="M563.086,610.284l-.2,11.246L552.8,615.543l.2-11.245Z" transform="translate(-552.797 -598.095)" fill-rule="evenodd" fill="url(#linear-gradient-14)"/>
          </g>
        </g>
      </g>
    </g>
  </g>
</svg>
