<svg xmlns="http://www.w3.org/2000/svg" viewBox="0 0 168 168"><title>fail</title><path d="M86.5,2.5a84,84,0,1,1-84,84A84,84,0,0,1,86.5,2.5Z" transform="translate(-2.5 -2.5)" style="fill:#ff7272;fill-rule:evenodd;opacity:0.08"/><path d="M86.5,18.5a68,68,0,1,1-68,68A68,68,0,0,1,86.5,18.5Z" transform="translate(-2.5 -2.5)" style="fill:#ff7272;fill-rule:evenodd;opacity:0.08"/><path d="M86.5,34.5a52,52,0,1,1-52,52A52,52,0,0,1,86.5,34.5Z" transform="translate(-2.5 -2.5)" style="fill:#ff7272;fill-rule:evenodd"/><path d="M90.47,87.16l14.61-14.61a3,3,0,0,0-4.24-4.24L86.23,82.91,71.7,68.38a3,3,0,1,0-4.29,4.29L81.93,87.21,68.31,100.83a3,3,0,0,0,4.24,4.24L86.18,91.45l14.15,14.15a3,3,0,1,0,4.29-4.29Z" transform="translate(-2.5 -2.5)" style="fill:#fff;fill-rule:evenodd"/><path d="M150.5,135.5a6,6,0,1,0,6,6A6,6,0,0,0,150.5,135.5Zm-129-109a5,5,0,1,0,5,5A5,5,0,0,0,21.5,26.5Z" transform="translate(-2.5 -2.5)" style="fill:#ff8939;fill-rule:evenodd"/><path d="M86.5,82.5a4,4,0,1,1-4,4A4,4,0,0,1,86.5,82.5Z" transform="translate(-2.5 -2.5)" style="fill:none;fill-rule:evenodd"/><path d="M156.5,42.5a4,4,0,1,1-4,4A4,4,0,0,1,156.5,42.5Z" transform="translate(-2.5 -2.5)" style="fill:#ff9191;fill-rule:evenodd"/></svg>