<svg xmlns="http://www.w3.org/2000/svg" xmlns:xlink="http://www.w3.org/1999/xlink" width="416" height="278" viewBox="0 0 416 278">
  <defs>
    <linearGradient id="linear-gradient" x1="1" y1="1" x2="0" gradientUnits="objectBoundingBox">
      <stop offset="0" stop-color="#0d3f94"/>
      <stop offset="1" stop-color="#090d5b"/>
    </linearGradient>
    <radialGradient id="radial-gradient" cx="0.5" cy="0.5" r="0.532" gradientTransform="translate(0 0.044) scale(1 0.912)" gradientUnits="objectBoundingBox">
      <stop offset="0" stop-color="#0a1019" stop-opacity="0"/>
      <stop offset="0.535" stop-color="#7187ec" stop-opacity="0"/>
      <stop offset="0.946" stop-color="#4f6cf8" stop-opacity="0.18"/>
      <stop offset="1" stop-color="#2046ff" stop-opacity="0.322"/>
    </radialGradient>
    <radialGradient id="radial-gradient-2" cx="0.5" cy="0.5" r="0.5" gradientUnits="objectBoundingBox">
      <stop offset="0" stop-color="#505bff" stop-opacity="0.6"/>
      <stop offset="1" stop-color="#4e5aff" stop-opacity="0"/>
    </radialGradient>
    <linearGradient id="linear-gradient-2" y1="0.5" x2="1" y2="0.5" gradientUnits="objectBoundingBox">
      <stop offset="0" stop-color="#00cefe"/>
      <stop offset="1" stop-color="#355fff"/>
    </linearGradient>
    <linearGradient id="linear-gradient-3" y1="0.5" x2="1" y2="0.5" gradientUnits="objectBoundingBox">
      <stop offset="0" stop-color="#2542af"/>
      <stop offset="1" stop-color="#153491"/>
    </linearGradient>
    <linearGradient id="linear-gradient-4" y1="0.5" x2="1" y2="0.5" gradientUnits="objectBoundingBox">
      <stop offset="0" stop-color="#345fff"/>
      <stop offset="0.003" stop-color="#01cbfe"/>
      <stop offset="1" stop-color="#0d42ff"/>
    </linearGradient>
    <linearGradient id="linear-gradient-5" y1="0.5" x2="1" y2="0.5" gradientUnits="objectBoundingBox">
      <stop offset="0" stop-color="#02cbfe"/>
      <stop offset="0.497" stop-color="#1d92ff"/>
      <stop offset="1" stop-color="#3068ff"/>
    </linearGradient>
    <linearGradient id="linear-gradient-6" y1="0.5" x2="1" y2="0.5" gradientUnits="objectBoundingBox">
      <stop offset="0" stop-color="#06c2fe"/>
      <stop offset="1" stop-color="#1f309e"/>
      <stop offset="1" stop-color="#cacced"/>
    </linearGradient>
    <radialGradient id="radial-gradient-4" cx="0.5" cy="0.5" r="0.5" gradientUnits="objectBoundingBox">
      <stop offset="0" stop-color="#6ae1ff"/>
      <stop offset="0.711" stop-color="#4da9ff" stop-opacity="0.8"/>
      <stop offset="1" stop-color="#7da0ff" stop-opacity="0"/>
    </radialGradient>
    <linearGradient id="linear-gradient-7" y1="0.5" x2="1" y2="0.5" gradientUnits="objectBoundingBox">
      <stop offset="0" stop-color="#39ffff"/>
      <stop offset="1" stop-color="#2a79ff"/>
    </linearGradient>
    <linearGradient id="linear-gradient-11" x1="-31.913" y1="4.426" x2="16.347" y2="-1.42" gradientUnits="objectBoundingBox">
      <stop offset="0" stop-color="#29e6fb" stop-opacity="0.8"/>
      <stop offset="0.264" stop-color="#2fb1fc" stop-opacity="0.8"/>
      <stop offset="0.598" stop-color="#3676fd" stop-opacity="0.8"/>
      <stop offset="0.854" stop-color="#3a52fe" stop-opacity="0.8"/>
      <stop offset="1" stop-color="#3c45ff" stop-opacity="0.8"/>
    </linearGradient>
    <linearGradient id="linear-gradient-12" x1="0.015" y1="0.824" x2="1.013" y2="0.278" gradientUnits="objectBoundingBox">
      <stop offset="0" stop-color="#1b00ff"/>
      <stop offset="0.528" stop-color="#4c65ff"/>
      <stop offset="1" stop-color="#383cff"/>
    </linearGradient>
    <linearGradient id="linear-gradient-13" x1="0.414" y1="0.989" x2="0.517" y2="0.511" gradientUnits="objectBoundingBox">
      <stop offset="0" stop-color="#d43e5e"/>
      <stop offset="0.054" stop-color="#d64564" stop-opacity="0.933"/>
      <stop offset="0.157" stop-color="#de5875" stop-opacity="0.757"/>
      <stop offset="0.297" stop-color="#ea7791" stop-opacity="0.471"/>
      <stop offset="0.469" stop-color="#fba1b7" stop-opacity="0.078"/>
      <stop offset="0.501" stop-color="#ffaabf" stop-opacity="0"/>
    </linearGradient>
    <linearGradient id="linear-gradient-14" x1="-20.532" y1="3.649" x2="15.609" y2="-1.762" xlink:href="#linear-gradient-11"/>
    <linearGradient id="linear-gradient-15" x1="-11.01" y1="3.256" x2="5.869" y2="-0.785" gradientUnits="objectBoundingBox">
      <stop offset="0" stop-color="#29e6fb" stop-opacity="0.8"/>
      <stop offset="0.195" stop-color="#1fe6fb" stop-opacity="0.604"/>
      <stop offset="0.477" stop-color="#12e7fd" stop-opacity="0.349"/>
      <stop offset="0.715" stop-color="#08e8fe" stop-opacity="0.161"/>
      <stop offset="0.896" stop-color="#03e8fe" stop-opacity="0.043"/>
      <stop offset="1" stop-color="#01e9ff" stop-opacity="0"/>
    </linearGradient>
    <linearGradient id="linear-gradient-16" x1="0.753" y1="0.769" x2="-0.559" y2="-0.626" xlink:href="#linear-gradient-11"/>
    <linearGradient id="linear-gradient-17" x1="1.357" y1="1.197" x2="-0.786" y2="-0.546" xlink:href="#linear-gradient-11"/>
    <linearGradient id="linear-gradient-18" x1="-11.412" y1="3.045" x2="9.349" y2="-1.39" xlink:href="#linear-gradient-15"/>
    <linearGradient id="linear-gradient-19" x1="-1.796" y1="1.351" x2="3.705" y2="-0.688" xlink:href="#linear-gradient-11"/>
    <linearGradient id="linear-gradient-20" x1="0" y1="0.5" x2="1" y2="0.5" xlink:href="#linear-gradient-11"/>
    <linearGradient id="linear-gradient-22" x1="0.015" y1="0.824" x2="1.013" y2="0.278" gradientUnits="objectBoundingBox">
      <stop offset="0" stop-color="#29e6fb" stop-opacity="0.8"/>
      <stop offset="0.089" stop-color="#41e8fb" stop-opacity="0.8"/>
      <stop offset="0.408" stop-color="#91f2fc" stop-opacity="0.8"/>
      <stop offset="0.677" stop-color="#cdf9fe" stop-opacity="0.8"/>
      <stop offset="0.883" stop-color="#f1fdfe" stop-opacity="0.8"/>
      <stop offset="1" stop-color="#fff" stop-opacity="0.8"/>
    </linearGradient>
    <linearGradient id="linear-gradient-23" x1="0.5" y1="1" x2="0.5" gradientUnits="objectBoundingBox">
      <stop offset="0" stop-color="#fff"/>
      <stop offset="0.109" stop-color="#fff" stop-opacity="0.831"/>
      <stop offset="0.313" stop-color="#fff" stop-opacity="0.541"/>
      <stop offset="0.496" stop-color="#fff" stop-opacity="0.31"/>
      <stop offset="0.651" stop-color="#fff" stop-opacity="0.141"/>
      <stop offset="0.771" stop-color="#fff" stop-opacity="0.039"/>
      <stop offset="0.843" stop-color="#fff" stop-opacity="0"/>
    </linearGradient>
    <radialGradient id="radial-gradient-5" cx="0.5" cy="0.5" r="0.5" gradientTransform="translate(0 1) rotate(-90)" gradientUnits="objectBoundingBox">
      <stop offset="0" stop-color="#9ac6ff" stop-opacity="0.051"/>
      <stop offset="0.711" stop-color="#a647dc" stop-opacity="0"/>
      <stop offset="1" stop-color="#985dff" stop-opacity="0.412"/>
    </radialGradient>
    <linearGradient id="linear-gradient-44" x1="0.803" y1="0.136" x2="0.295" y2="0.841" gradientUnits="objectBoundingBox">
      <stop offset="0" stop-color="#1a94ff" stop-opacity="0.58"/>
      <stop offset="0.117" stop-color="#2063ff" stop-opacity="0.51"/>
      <stop offset="1" stop-color="gray" stop-opacity="0"/>
    </linearGradient>
    <radialGradient id="radial-gradient-6" cx="0.5" cy="0.5" r="0.407" gradientTransform="matrix(0.503, -0.864, 0.944, 0.549, -0.224, 0.658)" gradientUnits="objectBoundingBox">
      <stop offset="0" stop-color="#97a8ff" stop-opacity="0.839"/>
      <stop offset="1" stop-color="gray" stop-opacity="0"/>
    </radialGradient>
    <linearGradient id="linear-gradient-45" x1="0.803" y1="0.136" x2="0.295" y2="0.841" gradientUnits="objectBoundingBox">
      <stop offset="0" stop-color="#1a94ff" stop-opacity="0.58"/>
      <stop offset="0.222" stop-color="#4c41e4" stop-opacity="0.569"/>
      <stop offset="1" stop-color="gray" stop-opacity="0"/>
    </linearGradient>
    <radialGradient id="radial-gradient-8" cx="0.5" cy="0.5" r="0.407" gradientTransform="matrix(0.503, -0.864, 0.944, 0.549, -0.224, 0.658)" gradientUnits="objectBoundingBox">
      <stop offset="0" stop-color="#23e8ff" stop-opacity="0.839"/>
      <stop offset="1" stop-color="gray" stop-opacity="0"/>
    </radialGradient>
    <linearGradient id="linear-gradient-47" x1="0.5" x2="0.5" y2="1" gradientUnits="objectBoundingBox">
      <stop offset="0" stop-color="#fff" stop-opacity="0"/>
      <stop offset="0.309" stop-color="#bffbff" stop-opacity="0.169"/>
      <stop offset="1" stop-color="#31f1ff"/>
    </linearGradient>
    <radialGradient id="radial-gradient-9" cx="0.5" cy="0.5" r="0.404" gradientTransform="matrix(0.997, 0.08, -0.094, 1.165, 0.049, -0.123)" gradientUnits="objectBoundingBox">
      <stop offset="0" stop-color="#14f0fe"/>
      <stop offset="0.192" stop-color="#0ef2fe"/>
      <stop offset="0.452" stop-color="#03f6ff" stop-opacity="0.49"/>
      <stop offset="1" stop-color="gray" stop-opacity="0"/>
    </radialGradient>
    <radialGradient id="radial-gradient-15" cx="0.5" cy="0.5" r="0.5" gradientUnits="objectBoundingBox">
      <stop offset="0" stop-color="#fff"/>
      <stop offset="1" stop-color="gray" stop-opacity="0"/>
    </radialGradient>
    <clipPath id="clip-通用软件_1">
      <rect width="416" height="278"/>
    </clipPath>
  </defs>
  <g id="通用软件_1" data-name="通用软件 – 1" clip-path="url(#clip-通用软件_1)">
    <rect width="416" height="278" fill="#fff"/>
    <g id="图层_2" data-name="图层 2" transform="translate(0 -5)">
      <rect id="矩形_371" data-name="矩形 371" width="417" height="278" transform="translate(0 5)" fill="url(#linear-gradient)"/>
    </g>
    <g id="组_9890" data-name="组 9890" transform="translate(5928.505 -8504.846)">
      <g id="组_9883" data-name="组 9883" transform="translate(-5821.96 8541.522)">
        <ellipse id="椭圆_69" data-name="椭圆 69" cx="129" cy="63" rx="129" ry="63" transform="translate(43.455 91.323)" fill="url(#radial-gradient)"/>
        <ellipse id="椭圆_70" data-name="椭圆 70" cx="135" cy="89" rx="135" ry="89" transform="translate(31.455 0.323)" fill="url(#radial-gradient-2)"/>
        <ellipse id="椭圆_68" data-name="椭圆 68" cx="178" cy="106.5" rx="178" ry="106.5" transform="translate(0.455 68.323)" opacity="0.65" fill="url(#radial-gradient-2)"/>
        <g id="组_196" data-name="组 196" transform="translate(92.045 107.979)">
          <path id="路径_411" data-name="路径 411" d="M551.256,922.461a191.335,191.335,0,0,1-61.428-1.754c-19.256-3.862-33.647-10.5-40.521-18.694s-5.41-16.958,4.124-24.682,26-13.481,46.354-16.211a191.349,191.349,0,0,1,61.426,1.754c19.256,3.862,33.647,10.5,40.522,18.694s5.409,16.958-4.124,24.682S571.611,919.731,551.256,922.461Z" transform="translate(-445.036 -859.445)" fill="url(#linear-gradient-2)"/>
        </g>
        <g id="组_9874" data-name="组 9874" transform="translate(109.499 115.866)">
          <path id="路径_411-2" data-name="路径 411" d="M527.928,905.543a159.125,159.125,0,0,1-47.938-1.283c-15.027-2.825-26.257-7.682-31.622-13.675s-4.222-12.406,3.219-18.055,20.287-9.862,36.174-11.859a159.158,159.158,0,0,1,47.935,1.283c15.027,2.826,26.258,7.682,31.622,13.675s4.222,12.405-3.219,18.056S543.813,903.546,527.928,905.543Z" transform="translate(-445.036 -859.445)" fill="url(#linear-gradient-3)"/>
        </g>
        <path id="路径_412" data-name="路径 412" d="M603.493,1133.248c0,.035-.006.069-.009.1-.021.274-.05.548-.089.822,0,.013,0,.026-.005.04-.04.281-.092.562-.151.843-.007.035-.014.071-.022.106q-.089.405-.2.809l-.035.124c-.072.246-.153.492-.239.738-.057.163-.121.326-.185.488-.057.146-.112.291-.173.437-.069.163-.146.326-.222.488-.067.145-.132.289-.2.434s-.159.3-.241.455-.159.3-.246.451-.181.3-.274.453-.181.3-.279.449-.2.293-.3.44-.206.3-.315.453-.219.291-.331.437-.228.3-.349.45-.244.293-.367.44-.248.3-.378.443-.266.292-.4.438-.268.293-.409.438-.3.306-.459.46-.28.279-.426.419-.329.3-.495.457-.318.295-.485.441l-.155.135c-.3.258-.6.516-.915.772s-.63.5-.956.752c-.065.05-.134.1-.2.148q-.458.346-.935.686c-.123.088-.249.176-.375.263q-.416.291-.846.577l-.374.249c-.428.279-.863.557-1.31.829-.043.027-.089.052-.132.079q-.614.374-1.253.738c-.208.119-.418.238-.63.356l-.306.17q-.527.289-1.068.573l-.112.057q-.49.255-.993.506l-.349.173q-.377.186-.762.37l-.506.24c-.241.113-.484.225-.729.337-.168.076-.335.153-.5.229-.259.116-.522.231-.785.345-.159.069-.317.139-.477.207-.3.129-.61.256-.919.384-.125.051-.247.1-.373.154-.141.058-.285.113-.427.17-.353.142-.708.283-1.067.422-.188.073-.38.144-.57.216-.318.12-.636.24-.958.358-.208.076-.418.151-.627.226q-.467.167-.939.332l-.661.227q-.471.159-.948.316c-.26.086-.52.171-.783.255l-.465.148q-.524.165-1.055.326l-.369.113q-.711.214-1.433.421l-.292.082q-.584.166-1.176.328l-.486.132q-.52.14-1.046.276l-.488.127q-.641.164-1.289.323l-.226.056q-.752.183-1.515.359c-.306.071-.616.14-.925.209-.271.061-.54.122-.813.182-.316.069-.636.136-.955.2-.269.057-.536.115-.807.17-.326.067-.655.131-.983.2-.27.053-.538.108-.81.16-.339.066-.682.129-1.025.192-.263.049-.525.1-.79.147-.357.065-.719.127-1.079.19-.255.044-.508.09-.765.133-.383.065-.771.126-1.157.189-.237.038-.471.078-.709.116-.424.066-.853.13-1.281.194l-.614.093q-.952.138-1.916.269c-1.13.152-2.267.29-3.406.422l-.85.1c-.745.083-1.493.156-2.24.23-.574.057-1.148.115-1.724.166-.694.062-1.39.116-2.086.171-.569.045-1.139.091-1.709.131q-1.648.114-3.3.2c-.192.01-.385.018-.578.027-.836.041-1.673.073-2.51.1q-1.382.05-2.766.078c-.522.011-1.044.026-1.566.033-.886.012-1.772.014-2.658.014-.5,0-1,.005-1.5,0-1-.007-2-.027-2.992-.049-.373-.008-.746-.01-1.118-.021q-2.058-.057-4.107-.158c-.3-.015-.606-.037-.909-.053-1.07-.058-2.139-.12-3.2-.2-.487-.034-.971-.077-1.456-.115-.889-.07-1.778-.141-2.663-.224-.536-.05-1.069-.106-1.6-.161q-1.263-.129-2.52-.272-.822-.1-1.641-.2-1.253-.157-2.5-.33c-.535-.075-1.07-.151-1.6-.23-.888-.132-1.769-.274-2.649-.419-.546-.09-1.094-.177-1.637-.271l-.646-.116c-1.1-.2-2.195-.4-3.279-.621q-1.021-.205-2.021-.422l-.627-.138q-.692-.151-1.375-.309l-.672-.157q-.794-.187-1.574-.38l-.514-.127q-1.01-.254-2-.519c-.121-.032-.238-.065-.359-.1q-.908-.246-1.8-.5l-.546-.158c-.688-.2-1.37-.405-2.04-.615q-.718-.224-1.421-.455l-.4-.135q-.5-.167-1-.336l-.505-.176q-.447-.156-.889-.314l-.508-.184c-.247-.09-.491-.181-.735-.273-.267-.1-.533-.2-.8-.3q-.336-.129-.668-.26-.391-.154-.776-.31-.326-.132-.649-.266-.382-.157-.757-.318-.318-.135-.633-.272-.371-.162-.737-.326c-.208-.092-.415-.186-.619-.28-.229-.105-.455-.211-.68-.317-.205-.1-.41-.193-.613-.291-.222-.107-.441-.215-.659-.323-.2-.1-.4-.2-.6-.3-.215-.109-.427-.22-.639-.33-.193-.1-.387-.2-.577-.3-.209-.112-.415-.225-.62-.337-.187-.1-.374-.2-.559-.309-.2-.114-.4-.229-.6-.344-.181-.1-.362-.209-.54-.314-.2-.116-.389-.234-.581-.352-.173-.106-.347-.211-.518-.318-.19-.119-.376-.239-.562-.359-.167-.108-.334-.214-.5-.323-.183-.121-.362-.244-.541-.366-.16-.109-.321-.217-.478-.327-.177-.124-.349-.25-.522-.375-.152-.109-.306-.218-.454-.329-.173-.127-.34-.257-.508-.386-.143-.109-.288-.218-.428-.329-.167-.131-.328-.265-.491-.4-.134-.109-.271-.218-.4-.329-.162-.136-.317-.273-.474-.409-.126-.109-.254-.218-.377-.328-.157-.141-.308-.283-.461-.425-.116-.107-.234-.214-.347-.322-.155-.149-.3-.3-.454-.449-.1-.1-.21-.2-.31-.308-.164-.169-.321-.339-.478-.509-.08-.086-.163-.171-.241-.258q-.349-.386-.675-.776a21.648,21.648,0,0,1-2.255-3.228,16.709,16.709,0,0,1-1.2-2.61q-.116-.327-.216-.655a13.7,13.7,0,0,1-.531-2.624q-.033-.328-.049-.657t-.016-.656h0l-.046,10.177c0,3.5,1.413,7.014,4.267,10.43q.326.391.676.777c.078.086.161.171.241.257.158.17.314.34.478.509.1.1.207.205.31.308.15.15.3.3.454.449.113.108.232.215.347.322.153.142.3.284.461.425.123.11.252.219.377.327.157.137.313.274.474.409.132.11.268.219.4.329.163.132.324.265.491.4.14.11.285.219.428.329.168.129.335.258.508.386.149.11.3.219.454.329.173.125.345.251.522.374.157.11.318.219.478.327.18.122.358.245.541.366.164.109.332.216.5.324.185.119.37.239.559.357.172.108.348.214.523.321.191.117.382.233.577.349.178.106.36.21.541.315.2.115.4.229.6.343.184.1.372.207.56.309.2.113.409.225.618.336.192.1.387.2.581.305.211.109.421.219.636.328.2.1.4.2.6.3.217.107.435.215.655.321.2.1.412.2.619.294.223.105.447.21.673.314.087.04.171.08.258.12.121.055.246.108.367.163q.364.163.732.324l.635.273q.375.159.756.317.323.134.649.266.385.156.776.309c.222.088.444.175.669.261q.4.152.8.3c.139.052.275.106.415.157l.32.115.509.184q.44.158.887.313l.507.176q.5.17,1,.336l.4.135q.691.226,1.4.447l.028.008c.67.209,1.351.413,2.038.614l.546.158q.889.256,1.8.5l.264.074.094.025q.988.266,2,.519c.17.043.343.084.515.127q.781.193,1.575.38c.114.027.225.055.339.082l.332.075q.68.157,1.37.308c.212.046.422.094.634.14q1,.216,2.018.422l.121.025q1.567.313,3.158.6l.647.116c.2.035.4.073.6.107.343.059.694.107,1.038.165.88.145,1.761.287,2.649.42.224.033.445.073.67.106.309.044.623.08.932.123q1.244.174,2.5.331c.3.038.6.083.906.12.243.029.49.051.734.079.837.1,1.677.186,2.52.272.363.037.723.082,1.087.117.171.016.345.027.516.043.885.082,1.773.154,2.663.224.387.03.771.069,1.158.1.1.007.2.011.3.018,1.065.075,2.134.138,3.2.2.275.015.548.036.823.05l.086,0q2.049.1,4.107.158l.109,0c.337.009.675.009,1.013.017.995.022,1.991.043,2.987.049.1,0,.192,0,.289,0,.4,0,.809-.006,1.214-.007.884,0,1.768,0,2.653-.014.163,0,.325,0,.488,0,.36-.006.719-.022,1.079-.03.922-.021,1.844-.045,2.766-.078.25-.009.5-.011.751-.021.588-.024,1.175-.053,1.763-.082l.572-.026q1.421-.075,2.839-.167c.155-.01.309-.025.465-.035.571-.04,1.14-.086,1.709-.131.7-.054,1.392-.109,2.087-.171.576-.052,1.149-.109,1.724-.166.467-.046.937-.086,1.4-.135.28-.03.558-.064.837-.1l.85-.1c1.139-.132,2.275-.27,3.406-.422q.964-.13,1.915-.269c.218-.032.433-.066.65-.1.415-.062.831-.123,1.242-.188.258-.041.512-.084.768-.125.367-.06.735-.118,1.1-.179.27-.045.537-.093.805-.14.347-.061.695-.12,1.039-.182.272-.049.541-.1.811-.151.336-.062.673-.125,1.006-.189.275-.053.547-.108.82-.163.324-.064.649-.128.97-.194.276-.057.549-.116.824-.174.314-.067.629-.132.94-.2.274-.06.544-.121.816-.182.308-.069.617-.138.922-.208l.141-.032q.691-.161,1.373-.327l.236-.058q.647-.159,1.285-.322l.483-.125q.525-.137,1.045-.277l.489-.132q.592-.162,1.177-.328l.29-.082q.723-.207,1.433-.421l.372-.114q.528-.161,1.049-.325l.47-.15.4-.128c.127-.041.25-.084.377-.126q.477-.157.948-.317l.661-.226q.473-.164.938-.332c.21-.075.42-.15.628-.226.323-.118.641-.238.959-.358.189-.072.38-.142.568-.215.363-.14.722-.283,1.079-.426.119-.047.24-.094.358-.142l.057-.024c.13-.053.257-.107.386-.16.3-.126.607-.251.905-.378.162-.069.322-.14.483-.21.262-.114.523-.228.782-.343l.5-.229q.367-.168.73-.337l.506-.24c.117-.056.236-.111.351-.167.137-.067.271-.135.407-.2l.354-.175q.5-.249.985-.5l.118-.061q.542-.284,1.067-.573l.306-.17c.15-.084.3-.167.451-.251.061-.035.118-.07.179-.105q.639-.366,1.257-.74l.128-.076c.447-.274.883-.551,1.311-.831.045-.029.093-.057.138-.087.08-.053.155-.107.235-.16q.43-.286.847-.578c.125-.087.251-.174.374-.262q.478-.341.938-.689c.052-.039.108-.078.16-.117l.036-.029q.489-.374.956-.753c.315-.256.618-.514.915-.772l.155-.135.12-.1c.126-.112.242-.225.365-.337.167-.152.335-.3.5-.457s.284-.279.425-.419.311-.306.459-.46c.03-.031.064-.062.094-.094.109-.114.209-.229.315-.344.135-.146.271-.292.4-.438s.253-.3.378-.443.25-.293.368-.441c.026-.032.055-.064.081-.1.093-.117.177-.234.267-.352.112-.146.225-.292.332-.438s.211-.3.314-.451.2-.294.3-.441c.02-.031.043-.062.063-.093.076-.118.142-.237.215-.355.092-.151.187-.3.274-.453s.164-.3.245-.45.165-.3.241-.456c.016-.032.035-.064.051-.1.055-.112.1-.224.153-.337.076-.163.153-.326.222-.49.061-.145.116-.291.173-.436.064-.162.128-.325.185-.488.014-.039.032-.079.045-.119.07-.206.134-.412.194-.619.012-.042.024-.083.035-.125.076-.27.145-.539.2-.809.008-.035.014-.07.022-.105.021-.1.043-.2.062-.3.034-.18.063-.36.089-.541,0-.014,0-.028.005-.041.039-.273.067-.547.089-.821,0-.034.006-.069.009-.1.014-.2.024-.392.029-.589,0-.1,0-.2,0-.3l.046-10.177C603.525,1132.655,603.513,1132.951,603.493,1133.248Z" transform="translate(-350.516 -992.34)" fill="url(#linear-gradient-4)"/>
        <g id="组_199" data-name="组 199" transform="translate(118.169 111.048)">
          <g id="组_198" data-name="组 198" transform="translate(0)">
            <path id="路径_413" data-name="路径 413" d="M804.016,987.139a138.41,138.41,0,0,1-41.23-1.091c-12.924-2.4-22.583-6.532-27.2-11.629s-3.631-10.549,2.768-15.354,17.448-8.385,31.113-10.084a138.427,138.427,0,0,1,41.229,1.091c12.924,2.4,22.583,6.532,27.2,11.629s3.631,10.549-2.768,15.354S817.679,985.441,804.016,987.139Z" transform="translate(-732.723 -947.938)" fill="url(#linear-gradient-5)"/>
          </g>
          <path id="路径_414" data-name="路径 414" d="M839.6,1065.551c0,.022,0,.043-.006.064-.014.17-.034.341-.06.511,0,.009,0,.017,0,.025-.027.175-.062.35-.1.524-.005.022-.009.044-.015.066-.039.168-.085.335-.136.5-.008.026-.016.052-.024.077-.048.153-.1.306-.16.459-.038.1-.081.2-.124.3s-.075.181-.116.271-.1,1.794-.149,1.9-.088.18-.137.27-.107.189-.162.283-.107.187-.165.28-.122.188-.184.282-.122.186-.187.279-.133.182-.2.273-.138.188-.212.281-.147.182-.222.272-.153.187-.234.28-.164.182-.247.274-.166.184-.254.276-.179.181-.269.272-.18.182-.274.272-.2.191-.308.286-.188.174-.286.26-.221.19-.332.285-.214.183-.325.274l-.1.084c-.2.161-.4.321-.614.48s-.423.314-.641.469l-.134.092q-.307.215-.627.427l-.252.164q-.279.181-.567.358l-.251.155c-.287.174-.579.346-.879.516l-.089.049q-.412.232-.841.459-.21.112-.423.222l-.205.106c-.236.12-.474.239-.717.357l-.075.035q-.329.159-.666.315l-.235.108q-.253.115-.511.23l-.339.149c-.162.07-.325.14-.49.21l-.338.142q-.261.108-.527.214l-.32.129c-.2.08-.41.16-.617.239l-.25.1-.287.105c-.237.088-.475.176-.716.262l-.383.134c-.213.074-.427.149-.643.222-.139.047-.28.093-.421.14q-.313.1-.63.207l-.444.141q-.316.1-.636.2c-.174.053-.349.106-.525.158l-.312.092q-.352.1-.708.2l-.248.07q-.477.133-.962.262l-.2.051q-.392.1-.789.2l-.326.082-.7.172-.327.079q-.43.1-.865.2l-.152.035q-.5.114-1.017.224l-.62.129c-.182.038-.362.076-.546.113-.212.043-.427.084-.641.126l-.542.106c-.219.042-.44.082-.66.122l-.543.1c-.227.041-.458.08-.687.12l-.53.091c-.24.04-.482.079-.724.117-.171.028-.341.056-.513.083-.257.04-.517.079-.777.117l-.476.072c-.285.041-.572.081-.86.121-.138.019-.274.04-.412.058q-.639.086-1.286.167c-.759.095-1.522.181-2.286.263l-.571.06c-.5.052-1,.1-1.5.143-.385.035-.77.071-1.157.1-.466.039-.934.072-1.4.106-.382.028-.764.057-1.147.081q-1.106.071-2.216.126l-.388.017c-.561.025-1.122.045-1.684.064q-.927.031-1.856.048c-.35.008-.7.016-1.051.021-.595.008-1.189.009-1.784.009-.334,0-.669,0-1,0-.67,0-1.339-.017-2.008-.031-.25-.005-.5-.007-.751-.013q-1.381-.037-2.757-.1c-.2-.01-.406-.023-.61-.034-.718-.036-1.436-.074-2.15-.121-.327-.021-.652-.048-.977-.072-.6-.043-1.194-.088-1.787-.139-.36-.031-.718-.066-1.076-.1q-.848-.08-1.691-.169-.552-.059-1.1-.124-.841-.1-1.675-.205c-.359-.047-.718-.094-1.076-.143-.6-.082-1.187-.171-1.778-.261-.366-.056-.734-.109-1.1-.169l-.434-.072c-.738-.123-1.473-.25-2.2-.386q-.685-.129-1.357-.263l-.421-.086q-.464-.1-.923-.193l-.451-.1q-.532-.116-1.057-.237l-.345-.079q-.678-.158-1.342-.323l-.241-.061q-.61-.153-1.206-.312l-.366-.1c-.462-.125-.919-.252-1.369-.382q-.481-.139-.954-.283l-.271-.083q-.338-.1-.672-.21l-.339-.109-.6-.2-.341-.115-.493-.17c-.179-.062-.358-.125-.535-.188l-.448-.162-.521-.193-.436-.165q-.256-.1-.508-.2l-.425-.17q-.249-.1-.494-.2c-.139-.058-.278-.115-.416-.174q-.23-.1-.457-.2c-.138-.06-.275-.12-.411-.181l-.443-.2-.4-.186c-.145-.068-.287-.136-.429-.205s-.26-.125-.387-.188l-.416-.21c-.126-.064-.252-.128-.375-.192s-.269-.143-.4-.214-.243-.13-.362-.2-.261-.146-.39-.219-.233-.131-.348-.2-.252-.149-.377-.224-.224-.133-.334-.2-.243-.152-.363-.228-.216-.135-.321-.2-.234-.155-.351-.233-.205-.136-.3-.2c-.116-.08-.228-.16-.341-.24-.1-.068-.193-.136-.287-.2-.112-.082-.22-.165-.33-.247-.09-.068-.182-.136-.27-.2-.109-.085-.213-.17-.318-.254-.084-.068-.171-.136-.253-.2-.106-.088-.207-.176-.309-.265-.078-.067-.157-.133-.233-.2-.1-.093-.2-.186-.3-.279-.069-.064-.141-.127-.208-.192-.11-.105-.215-.211-.321-.317-.054-.053-.11-.106-.162-.16q-.234-.24-.454-.483a13.519,13.519,0,0,1-1.513-2.008,10.031,10.031,0,0,1-.805-1.624q-.078-.2-.145-.407a8,8,0,0,1-.356-1.633q-.022-.2-.033-.408t-.011-.408h0l-.031,9.09c0,2.177.949,2.771,2.864,4.9q.219.243.453.483c.052.054.109.107.162.161.106.105.211.211.321.317.068.064.139.127.208.191.1.094.2.187.3.28.076.067.155.133.233.2.1.088.2.176.309.264.083.068.169.136.253.2.106.085.21.17.318.255.088.069.18.136.27.2.109.082.217.165.33.247.094.069.191.136.287.2.113.08.225.161.341.24.1.068.2.137.3.2.117.077.232.156.351.233s.214.135.321.2.24.152.363.228.223.134.335.2.248.148.375.222.233.133.351.2.256.146.387.217.242.131.363.2.266.143.4.213.25.129.376.192.275.14.414.209l.39.19c.141.068.283.136.427.2l.4.186c.146.067.292.134.44.2l.416.183c.15.065.3.13.452.2l.173.074.247.1.491.2.426.17.508.2.436.165.521.192.449.163q.265.095.534.188l.278.1.215.072.342.115q.3.1.595.195l.34.11q.333.105.671.209l.272.084q.464.141.937.278l.019.005c.449.13.907.257,1.368.382l.367.1q.6.159,1.206.312l.177.046.064.015q.663.165,1.342.323l.345.079q.524.12,1.057.237l.228.051.224.046c.3.065.611.128.919.192l.426.087q.672.134,1.355.263l.081.015c.7.13,1.409.252,2.12.371l.434.072.4.067c.231.037.466.067.7.1q.885.135,1.778.261c.151.021.3.046.45.066.207.028.418.05.625.077q.835.108,1.676.205c.2.024.4.052.608.075.163.018.329.032.493.049q.843.091,1.691.169c.244.023.485.052.729.073.115.01.231.018.347.027.594.051,1.19.1,1.787.139.26.019.517.043.778.061l.2.011c.715.047,1.432.086,2.15.122.185.009.368.023.553.031l.058,0q1.375.062,2.757.1l.073,0c.226.006.453.006.68.01.668.014,1.336.026,2,.031.065,0,.129,0,.194,0,.272,0,.543,0,.815,0,.594,0,1.187,0,1.78-.009.109,0,.218,0,.327,0,.241,0,.482-.014.724-.019.619-.013,1.238-.027,1.856-.048.168-.006.336-.007.5-.014.395-.014.789-.033,1.183-.051l.384-.016q.954-.046,1.905-.1l.312-.022c.383-.025.765-.054,1.147-.082.467-.034.934-.068,1.4-.106.386-.032.771-.068,1.157-.1.314-.029.629-.053.942-.084.188-.018.375-.04.562-.059l.571-.06q1.146-.123,2.286-.263.647-.081,1.286-.167l.436-.061c.278-.039.558-.077.834-.117.173-.025.343-.052.515-.078.246-.037.493-.073.737-.112l.541-.087c.233-.038.466-.074.7-.113l.545-.094c.225-.039.452-.077.675-.117.185-.033.367-.067.55-.1.218-.04.435-.079.651-.121.186-.035.369-.072.553-.108.211-.041.422-.082.631-.125.183-.037.365-.075.548-.114.206-.043.414-.085.619-.129l.094-.02q.464-.1.921-.2l.158-.037q.434-.1.863-.2l.324-.078q.353-.085.7-.172l.328-.082q.4-.1.79-.2l.194-.051q.485-.129.962-.262l.25-.071.7-.2.315-.093.27-.08.253-.078q.32-.1.636-.2l.444-.141q.317-.1.63-.206l.421-.141c.216-.073.43-.147.644-.223.127-.044.255-.089.381-.134.244-.087.484-.176.724-.265.079-.03.161-.058.24-.088l.038-.014.259-.1c.2-.078.407-.156.607-.235l.324-.13c.176-.071.351-.142.524-.213l.339-.142.49-.21.34-.149.236-.1.273-.125.238-.109q.335-.155.661-.313l.079-.038c.242-.118.48-.236.716-.356l.205-.106c.1-.052.2-.1.3-.157l.12-.065q.429-.227.843-.46l.086-.047c.3-.17.593-.342.88-.517.03-.019.062-.035.092-.054.054-.033.1-.067.157-.1q.289-.179.569-.36c.084-.054.168-.109.251-.163q.322-.212.63-.428l.107-.073.024-.018q.328-.232.642-.468c.211-.159.415-.32.614-.48l.1-.084.08-.065c.085-.07.163-.14.245-.21.111-.095.225-.189.332-.285s.191-.173.285-.26.208-.191.308-.286c.02-.02.043-.039.063-.058.073-.071.14-.143.211-.214.091-.09.182-.181.269-.272s.17-.183.254-.275.168-.183.247-.274l.054-.06c.063-.073.119-.146.179-.219.075-.091.151-.182.223-.273s.141-.187.211-.281.137-.183.2-.274c.013-.019.029-.038.042-.058.051-.074.1-.148.144-.221.062-.094.125-.188.184-.282s.11-.187.164-.28.111-.189.162-.283c.011-.02.023-.04.034-.06.037-.07.068-.14.1-.21.051-.1.1-.2.149-.3s.078-.181.116-.271.086-.2.124-.3c.009-.025.021-.049.031-.074.047-.128.089-.257.13-.385.008-.026.016-.052.024-.077.05-.168.1-.335.136-.5.005-.022.009-.044.014-.065.014-.063.029-.125.042-.188.022-.112.042-.224.06-.337,0-.009,0-.017,0-.026q.039-.255.059-.51c0-.022,0-.043.006-.064.009-.122.016-.244.019-.366q0-.094,0-.187l.031-9.09C839.623,1065.182,839.615,1065.366,839.6,1065.551Z" transform="translate(-731.585 -1046.508)" fill="url(#linear-gradient-6)"/>
          <g id="组_9880" data-name="组 9880" transform="translate(18.869 5.898)">
            <path id="路径_413-2" data-name="路径 413" d="M777.573,972.6a87.069,87.069,0,0,1-25.937-.686c-8.131-1.512-14.207-4.109-17.11-7.316s-2.284-6.636,1.741-9.659,10.977-5.275,19.572-6.344a87.078,87.078,0,0,1,25.936.687c8.131,1.511,14.207,4.109,17.11,7.316s2.284,6.636-1.741,9.659S786.168,971.531,777.573,972.6Z" transform="translate(-732.723 -947.938)" fill="url(#radial-gradient-4)"/>
          </g>
        </g>
        <g id="组_9841" data-name="组 9841" transform="translate(104.086 95.121)" opacity="0.4">
          <g id="组_9832" data-name="组 9832" transform="translate(0 0)">
            <g id="组_9831" data-name="组 9831">
              <path id="路径_14493" data-name="路径 14493" d="M608.8,608.149l-.15,8.208,7.858-4.448.15-8.208Z" transform="translate(-600.952 -599.252)" fill-rule="evenodd" fill="url(#linear-gradient-7)"/>
              <path id="路径_14494" data-name="路径 14494" d="M608.8,608.149l-.15,8.208,7.858-4.448.15-8.208Z" transform="translate(-600.952 -599.252)" fill-rule="evenodd" fill="url(#linear-gradient-7)"/>
              <path id="路径_14495" data-name="路径 14495" d="M561.582,578.872l-7.7-4.37,7.859-4.527,7.7,4.448Z" transform="translate(-553.735 -569.975)" fill-rule="evenodd" fill="url(#linear-gradient-7)"/>
              <path id="路径_14496" data-name="路径 14496" d="M560.644,608.667l-.15,8.208-7.7-4.37.15-8.208Z" transform="translate(-552.797 -599.771)" fill-rule="evenodd" fill="url(#linear-gradient-7)"/>
            </g>
          </g>
        </g>
        <g id="组_9878" data-name="组 9878" transform="translate(123.511 60.005)">
          <g id="组_9875" data-name="组 9875" transform="translate(61.949 6.356) rotate(-49)">
            <path id="路径_14171" data-name="路径 14171" d="M1.813,0l.064,3.419L.064,4.452,0,1.034Z" transform="translate(0 0)" fill="url(#linear-gradient-11)"/>
          </g>
          <g id="组_9876" data-name="组 9876" transform="translate(13.872 52.577) rotate(-49)">
            <g id="组_9629" data-name="组 9629" transform="translate(1.03 6.573)" opacity="0.2">
              <path id="路径_14172" data-name="路径 14172" d="M34.526,19.5c5.061,4.4,4.44,10.251-1.966,13.9-7.282,4.151-19.278,3.89-26.795-.584S-1.943,21.35,5.339,17.2c6.716-3.829,17.445-3.9,24.969-.381L59.807,0,64.17,2.6,62.356,3.63l6.278,3.736-5.2,2.965L57.155,6.6,54.731,7.978l3.84,2.285-4.227,2.41L50.5,10.388ZM9.871,30.475c5.176,3.08,13.436,3.261,18.451.4S33.2,23.2,28.027,20.124s-13.436-3.261-18.449-.4S4.7,27.395,9.871,30.475" transform="translate(0 0)" fill="url(#linear-gradient-12)"/>
            </g>
            <path id="路径_14173" data-name="路径 14173" d="M18.1,29.838l48.246-7.069L64.118,0,.75,10.253,0,18.329Z" transform="translate(0.44 9.599)" opacity="0.12" fill="url(#linear-gradient-13)"/>
            <g id="组_9630" data-name="组 9630" transform="translate(54.731 6.596)">
              <path id="路径_14174" data-name="路径 14174" d="M2.424,0l.065,3.419L.065,4.8,0,1.382Z" transform="translate(0 0)" fill="url(#linear-gradient-14)"/>
            </g>
            <g id="组_9631" data-name="组 9631" transform="translate(63.433 7.367)">
              <path id="路径_14175" data-name="路径 14175" d="M5.2,0l.064,3.419L.064,6.384,0,2.965Z" transform="translate(0 0)" fill="url(#linear-gradient-15)"/>
            </g>
            <g id="组_9632" data-name="组 9632" transform="translate(57.155 6.596)">
              <path id="路径_14176" data-name="路径 14176" d="M6.278,3.737l.065,3.419L.064,3.419,0,0Z" transform="translate(0 0)" fill="url(#linear-gradient-16)"/>
            </g>
            <g id="组_9633" data-name="组 9633" transform="translate(50.504 10.388)">
              <path id="路径_14177" data-name="路径 14177" d="M3.84,2.285,3.9,5.7.064,3.419,0,0Z" transform="translate(0 0)" fill="url(#linear-gradient-17)"/>
            </g>
            <g id="组_9634" data-name="组 9634" transform="translate(54.344 10.263)">
              <path id="路径_14178" data-name="路径 14178" d="M4.227,0l.064,3.419L.064,5.829,0,2.41Z" transform="translate(0 0)" fill="url(#linear-gradient-18)"/>
            </g>
            <g id="组_9635" data-name="组 9635" transform="translate(34.526 10.388)">
              <path id="路径_14179" data-name="路径 14179" d="M15.978,0l.064,3.419L.064,12.528,0,9.109Z" transform="translate(0 0)" fill="url(#linear-gradient-19)"/>
            </g>
            <g id="组_9636" data-name="组 9636" transform="translate(0.001 17.692)">
              <path id="路径_14180" data-name="路径 14180" d="M.08,10.276c0-.057.011-.115.018-.172s.016-.131.027-.2.021-.115.032-.173.027-.127.042-.19.03-.115.047-.172S.283,9.247.3,9.184s.039-.112.06-.168.051-.132.079-.2.048-.11.073-.164.063-.13.1-.194.072-.138.111-.207l.027-.048q.087-.148.187-.294l.037-.055c.067-.1.138-.193.212-.289l.043-.053q.1-.124.207-.247L1.5,7.2q.128-.141.266-.279l.051-.049c.071-.069.144-.137.219-.2.06-.054.121-.107.184-.161s.117-.1.177-.147.132-.1.2-.156.126-.1.191-.142.144-.1.217-.151.135-.092.205-.137.155-.1.234-.146c.1-.06.2-.121.3-.179.14-.08.283-.156.427-.231l.114-.058q.195-.1.4-.192l.052-.025c.149-.068.3-.134.454-.2L5.3,4.7q.2-.08.4-.154l.086-.032q.237-.086.479-.166l.116-.037c.11-.035.22-.068.331-.1s.209-.061.315-.09l.269-.072q.16-.041.323-.08L7.89,3.9c.11-.025.22-.047.331-.07L8.5,3.776c.113-.021.226-.041.34-.06L9.1,3.672c.243-.038.488-.073.735-.1l.106-.011q.322-.037.647-.064l.249-.019q.209-.015.418-.026l.264-.013c.146-.006.292-.01.439-.013l.247,0c.127,0,.254,0,.38,0,.089,0,.178,0,.267,0,.136,0,.271.008.407.013.081,0,.161,0,.242.008.124.006.248.015.372.023.088.006.175.01.263.017.135.01.269.024.4.036l.23.021c.163.017.325.037.488.058l.141.017q.314.042.625.093l.1.018c.178.03.355.061.532.1l.222.046c.135.028.27.055.4.086l.209.05c.148.035.3.071.442.109l.243.066q.2.055.4.114c.113.034.226.068.338.1l.127.04q.253.083.5.173l.095.035q.206.076.409.156l.138.055c.107.044.213.089.319.135.073.032.146.063.219.1.1.046.2.095.306.143.067.032.134.063.2.1.111.055.22.112.329.17.054.028.109.056.162.085q.242.131.476.27c2.6,1.55,3.932,3.54,3.969,5.5L26.095,7.93c-.037-1.958-1.364-3.948-3.969-5.5q-.234-.139-.476-.27c-.054-.029-.109-.056-.162-.085-.109-.057-.218-.115-.329-.17-.066-.033-.133-.063-.2-.1-.1-.049-.2-.1-.307-.144-.072-.032-.145-.063-.218-.095s-.139-.062-.21-.091l-.11-.044-.137-.055q-.2-.081-.41-.157l-.094-.035q-.248-.09-.5-.173L18.846.98,18.628.911,18.507.876q-.2-.059-.4-.114L17.867.7c-.146-.038-.294-.074-.442-.11C17.37.573,17.315.558,17.26.545L17.216.536c-.134-.03-.269-.058-.4-.086C16.737.435,16.664.418,16.59.4c-.177-.034-.354-.066-.533-.1L15.962.291h0Q15.646.239,15.332.2L15.181.179c-.159-.02-.319-.04-.479-.057h-.012C14.618.113,14.546.108,14.473.1c-.134-.013-.269-.026-.4-.036C13.983.058,13.9.054,13.808.048c-.125-.008-.249-.017-.374-.023l-.03,0c-.07,0-.14,0-.21-.007-.136-.005-.272-.01-.408-.013-.089,0-.178,0-.267,0-.127,0-.254,0-.381,0h-.07c-.059,0-.118,0-.177.005-.146,0-.292.007-.438.013l-.264.013q-.21.011-.419.026l-.147.009-.1.01Q10.2.1,9.873.14l-.1.011c-.247.029-.492.064-.735.1l-.069.01L8.771.3c-.114.019-.227.039-.34.06-.092.017-.183.036-.275.055-.111.023-.221.046-.331.07L7.553.545q-.162.039-.323.08L6.961.7Q6.8.742,6.646.788L6.508.827,6.316.889,6.2.926q-.242.079-.479.166l-.087.033q-.2.074-.4.154l-.119.049c-.153.064-.3.129-.454.2l-.053.025q-.2.092-.394.191L4.1,1.8c-.144.075-.287.151-.427.23l-.157.091c-.049.029-.094.059-.141.088-.079.048-.157.1-.233.146s-.138.091-.205.137-.146.1-.217.151-.128.094-.191.142-.135.1-.2.156-.119.1-.177.147S2.03,3.2,1.97,3.25c-.025.022-.052.044-.076.066-.049.046-.1.092-.143.138L1.7,3.5q-.139.138-.266.279l-.059.067q-.108.122-.207.247l-.043.053-.02.025c-.068.087-.131.175-.192.264l-.038.055q-.1.146-.187.294L.66,4.835c-.022.037-.044.074-.064.112s-.031.063-.047.094c-.034.065-.066.13-.1.195S.4,5.345.378,5.4.324,5.531.3,5.6c-.011.03-.025.059-.035.088s-.016.053-.025.08c-.021.063-.04.126-.058.189s-.032.115-.047.172-.029.127-.042.19c-.007.034-.017.069-.023.1s-.006.046-.009.07c-.011.065-.019.131-.027.2S.02,6.8.016,6.857s-.008.132-.01.2C0,7.094,0,7.132,0,7.171s0,.077,0,.115L.065,10.7c0-.077,0-.154.005-.231S.075,10.342.08,10.276Z" transform="translate(5.901 0)" fill="url(#linear-gradient-20)"/>
              <path id="路径_14181" data-name="路径 14181" d="M37.9,1.151c0,.048,0,.1,0,.144s0,.083-.005.124-.006.1-.01.144-.006.082-.01.123-.011.1-.016.145-.01.081-.015.122-.015.1-.023.146-.013.08-.02.12-.019.1-.029.145-.016.08-.025.119-.023.1-.035.146-.019.078-.029.117-.028.1-.042.148-.022.077-.033.115-.033.1-.051.153c-.012.036-.023.072-.036.108-.027.076-.056.153-.086.228l-.013.035q-.053.132-.111.262c-.012.026-.025.052-.037.078-.028.061-.056.121-.086.182-.017.034-.035.067-.052.1-.027.053-.054.105-.082.158l-.053.094c-.033.058-.066.116-.1.174l-.063.1c-.033.054-.067.108-.1.162l-.07.107q-.053.079-.108.158l-.075.106c-.039.053-.078.107-.118.16l-.074.1c-.075.1-.151.191-.231.286l-.031.035q-.106.125-.219.248l-.079.085q-.1.106-.2.21l-.074.075c-.092.092-.186.183-.283.273l-.1.095c-.048.044-.1.088-.145.131l-.115.1-.148.125-.123.1-.151.121-.13.1-.154.117-.137.1-.159.114-.143.1L33.488,8l-.15.1-.168.108-.156.1-.173.105c-.093.056-.187.111-.283.166-.2.115-.41.226-.62.335l-.167.085q-.282.143-.572.278l-.077.036c-.216.1-.437.194-.659.287l-.173.07q-.285.115-.575.224l-.126.048q-.344.125-.7.24l-.17.054c-.158.051-.319.1-.479.146s-.3.089-.458.131q-.195.054-.391.1-.233.06-.469.116c-.132.032-.263.063-.4.092-.159.036-.32.069-.481.1-.133.027-.266.054-.4.08-.164.031-.328.059-.493.087-.147.025-.293.051-.44.074l-.2.03q-.339.05-.681.093l-.114.015q-.39.047-.783.083l-.2.017c-.251.022-.5.042-.756.058l-.029,0c-.27.017-.541.029-.812.039l-.138.005c-.246.008-.493.012-.741.015-.185,0-.37,0-.554,0-.129,0-.257,0-.386,0-.2,0-.4-.011-.594-.019-.116,0-.232-.007-.348-.012-.182-.009-.364-.022-.546-.033-.125-.008-.251-.014-.376-.024-.2-.015-.393-.034-.589-.053-.11-.01-.22-.019-.33-.03-.235-.025-.469-.054-.7-.084l-.211-.025q-.456-.061-.908-.135l-.138-.025c-.261-.044-.522-.09-.78-.14-.107-.021-.212-.045-.319-.066-.2-.041-.395-.081-.59-.125q-.366-.083-.728-.175l-.144-.037q-.377-.1-.748-.2l-.1-.029q-.327-.1-.649-.2l-.184-.059q-.367-.121-.729-.251l-.138-.051q-.3-.11-.594-.227l-.2-.08c-.156-.064-.31-.13-.464-.2-.106-.046-.213-.091-.318-.138-.15-.067-.3-.138-.445-.208-.1-.046-.195-.091-.29-.138-.161-.08-.32-.163-.478-.246-.078-.041-.158-.081-.236-.123q-.351-.191-.691-.392C1.981,5.733.054,2.844,0,0L.064,3.419C.118,6.263,2.046,9.152,5.828,11.4q.339.2.691.392c.078.042.158.082.237.123.158.083.316.166.477.246.1.047.193.092.29.138.148.07.3.141.445.208.1.047.211.092.317.138s.2.09.305.133l.159.064.2.08q.294.117.594.227l.138.051q.361.13.729.251l.184.059c.105.034.21.068.315.1s.222.066.333.1l.1.029q.371.107.748.2l.144.037c.22.056.441.11.663.161l.065.014c.194.044.391.084.587.125.107.022.214.046.322.067.257.05.515.1.774.139l.138.025h.007q.452.074.908.135l.211.025c.234.03.468.059.7.084l.018,0c.1.011.21.018.315.028.2.019.391.038.587.053.126.01.252.016.378.024.181.012.362.024.544.033l.044,0c.1,0,.2.006.3.01.2.007.4.015.593.019.129,0,.258,0,.387,0,.185,0,.369,0,.553,0h.1c.213,0,.426-.008.638-.015l.138-.005c.271-.01.542-.022.812-.039l.029,0q.241-.015.481-.034l.274-.024.2-.018q.393-.037.783-.083L23.9,14.7q.342-.042.681-.093l.2-.03.16-.024c.094-.015.187-.034.28-.05.165-.028.33-.056.493-.087.134-.025.266-.052.4-.079.161-.033.322-.066.481-.1.133-.03.264-.061.4-.092.157-.038.314-.076.469-.116q.2-.051.39-.1.231-.064.459-.131c.066-.02.134-.037.2-.057.093-.029.185-.059.278-.089l.171-.055q.351-.115.695-.24l.127-.048q.29-.108.575-.223l.172-.07q.334-.139.659-.287l.077-.036q.29-.135.572-.278L32,12.322c.21-.109.417-.219.62-.335l.234-.136.048-.029.174-.106.155-.1.169-.109.149-.1.164-.111.142-.1.16-.115.136-.1.154-.117.13-.1.151-.121.123-.1c.05-.042.1-.083.148-.125l.115-.1c.049-.043.1-.087.145-.131l.1-.087.008-.008c.1-.09.191-.181.283-.273l.074-.075q.1-.1.2-.21l.078-.085q.113-.124.22-.25l.029-.034c.08-.095.157-.19.231-.286l.022-.027.052-.07c.04-.053.08-.106.119-.16l.075-.106q.055-.079.108-.158l.071-.107c.035-.054.068-.108.1-.161l.064-.1c.034-.058.067-.116.1-.174.014-.024.029-.049.042-.073l.011-.021c.029-.053.055-.105.082-.158.017-.033.035-.067.052-.1.03-.06.058-.121.086-.182.012-.026.025-.052.037-.078q.058-.13.111-.262l.015-.04c.029-.074.058-.149.084-.223l0-.009c.012-.033.022-.066.033-.1.017-.051.035-.1.05-.152s.022-.076.033-.114.029-.1.043-.148.02-.078.029-.118.025-.1.035-.145.017-.08.025-.12.02-.1.029-.144l0-.025c.006-.031.01-.063.015-.094.008-.049.016-.1.023-.147s.01-.081.015-.122.012-.1.017-.145.007-.083.01-.124.008-.1.01-.143,0-.084.005-.125,0-.1,0-.143c0-.015,0-.03,0-.046q0-.085,0-.169L37.9.936C37.9,1.008,37.9,1.079,37.9,1.151Z" transform="translate(0 7.14)" fill="url(#linear-gradient-20)"/>
            </g>
            <g id="组_9637" data-name="组 9637" transform="translate(0 0)">
              <path id="路径_14182" data-name="路径 14182" d="M34.526,19.5c5.061,4.4,4.44,10.251-1.966,13.9-7.282,4.152-19.278,3.89-26.795-.584S-1.943,21.35,5.339,17.2c6.717-3.829,17.445-3.9,24.969-.381L59.807,0,64.17,2.6,62.356,3.63l6.278,3.737-5.2,2.965L57.155,6.6,54.731,7.978l3.84,2.286-4.227,2.41L50.5,10.388ZM9.871,30.475c5.176,3.08,13.436,3.261,18.451.4S33.2,23.2,28.027,20.124s-13.436-3.261-18.449-.4S4.7,27.395,9.871,30.475" transform="translate(0 0)" fill="url(#linear-gradient-22)"/>
            </g>
          </g>
          <g id="组_9877" data-name="组 9877" transform="translate(52.143 11.905) rotate(-49)">
            <g id="组_9639" data-name="组 9639" transform="translate(0 0)">
              <path id="路径_14183" data-name="路径 14183" d="M7.043,8.578,0,4.36,7.7,0l7.043,4.218Z" transform="translate(0 0)" fill="#73e1ff"/>
            </g>
          </g>
          <path id="路径_14539" data-name="路径 14539" d="M0,7.906c.269.3,4.767,36.79,4.767,36.79l.482,1.972,1.991,2.29L10.113,50.7l3.414,1.214,3.564.4,4.266-.115,3.777-.965,2.428-1.075,1.8-1.568,1.3-2.166.118-2.053L34.557,8.852,17.325,0Z" transform="translate(0 38.911) rotate(-49)" opacity="0.8" fill="url(#linear-gradient-23)"/>
        </g>
        <g id="组_9844" data-name="组 9844" transform="translate(178.191 62.554)">
          <g id="组_9808" data-name="组 9808" transform="translate(0 0)">
            <g id="组_9807" data-name="组 9807" transform="translate(0 0)">
              <path id="路径_14461" data-name="路径 14461" d="M1622.171,653.248l-.073,4.023,3.851-2.18.073-4.023Z" transform="translate(-1618.325 -648.887)" fill-rule="evenodd" fill="url(#linear-gradient-7)"/>
              <path id="路径_14462" data-name="路径 14462" d="M1622.171,653.248l-.073,4.023,3.851-2.18.073-4.023Z" transform="translate(-1618.325 -648.887)" fill-rule="evenodd" fill="url(#linear-gradient-7)"/>
              <path id="路径_14463" data-name="路径 14463" d="M1599.029,638.9l-3.773-2.142,3.852-2.219,3.772,2.18Z" transform="translate(-1595.183 -634.538)" fill-rule="evenodd" fill="url(#linear-gradient-7)"/>
              <path id="路径_14464" data-name="路径 14464" d="M1598.569,653.5l-.073,4.023-3.773-2.141.074-4.023Z" transform="translate(-1594.723 -649.142)" fill-rule="evenodd" fill="url(#linear-gradient-7)"/>
            </g>
          </g>
        </g>
        <g id="组_9839" data-name="组 9839" transform="translate(148.637 101.659)">
          <g id="组_9808-2" data-name="组 9808" transform="translate(0 0)">
            <g id="组_9807-2" data-name="组 9807" transform="translate(0 0)">
              <path id="路径_14461-2" data-name="路径 14461" d="M1622.171,653.248l-.073,4.023,3.851-2.18.073-4.023Z" transform="translate(-1618.325 -648.887)" fill-rule="evenodd" fill="url(#linear-gradient-7)"/>
              <path id="路径_14462-2" data-name="路径 14462" d="M1622.171,653.248l-.073,4.023,3.851-2.18.073-4.023Z" transform="translate(-1618.325 -648.887)" fill-rule="evenodd" fill="url(#linear-gradient-7)"/>
              <path id="路径_14463-2" data-name="路径 14463" d="M1599.029,638.9l-3.773-2.142,3.852-2.219,3.772,2.18Z" transform="translate(-1595.183 -634.538)" fill-rule="evenodd" fill="url(#linear-gradient-7)"/>
              <path id="路径_14464-2" data-name="路径 14464" d="M1598.569,653.5l-.073,4.023-3.773-2.141.074-4.023Z" transform="translate(-1594.723 -649.142)" fill-rule="evenodd" fill="url(#linear-gradient-7)"/>
            </g>
          </g>
        </g>
        <g id="组_9879" data-name="组 9879" transform="translate(144.864 83.561)">
          <g id="组_9808-3" data-name="组 9808" transform="translate(0 0)">
            <g id="组_9807-3" data-name="组 9807" transform="translate(0 0)">
              <path id="路径_14461-3" data-name="路径 14461" d="M1622.151,652.671l-.053,2.958,2.832-1.6.054-2.958Z" transform="translate(-1619.324 -649.464)" fill-rule="evenodd" fill="url(#linear-gradient-7)"/>
              <path id="路径_14462-3" data-name="路径 14462" d="M1622.151,652.671l-.053,2.958,2.832-1.6.054-2.958Z" transform="translate(-1619.324 -649.464)" fill-rule="evenodd" fill="url(#linear-gradient-7)"/>
              <path id="路径_14463-3" data-name="路径 14463" d="M1598.031,637.745l-2.775-1.575,2.833-1.632,2.774,1.6Z" transform="translate(-1595.202 -634.538)" fill-rule="evenodd" fill="url(#linear-gradient-7)"/>
              <path id="路径_14464-3" data-name="路径 14464" d="M1597.551,652.935l-.054,2.959-2.774-1.575.054-2.958Z" transform="translate(-1594.723 -649.729)" fill-rule="evenodd" fill="url(#linear-gradient-7)"/>
            </g>
          </g>
        </g>
        <g id="组_9881" data-name="组 9881" transform="translate(198.64 81.304)">
          <g id="组_9808-4" data-name="组 9808" transform="translate(0 0)">
            <g id="组_9807-4" data-name="组 9807" transform="translate(0 0)">
              <path id="路径_14461-4" data-name="路径 14461" d="M1622.151,652.671l-.053,2.958,2.832-1.6.054-2.958Z" transform="translate(-1619.324 -649.464)" fill-rule="evenodd" fill="url(#linear-gradient-7)"/>
              <path id="路径_14462-4" data-name="路径 14462" d="M1622.151,652.671l-.053,2.958,2.832-1.6.054-2.958Z" transform="translate(-1619.324 -649.464)" fill-rule="evenodd" fill="url(#linear-gradient-7)"/>
              <path id="路径_14463-4" data-name="路径 14463" d="M1598.031,637.745l-2.775-1.575,2.833-1.632,2.774,1.6Z" transform="translate(-1595.202 -634.538)" fill-rule="evenodd" fill="url(#linear-gradient-7)"/>
              <path id="路径_14464-4" data-name="路径 14464" d="M1597.551,652.935l-.054,2.959-2.774-1.575.054-2.958Z" transform="translate(-1594.723 -649.729)" fill-rule="evenodd" fill="url(#linear-gradient-7)"/>
            </g>
          </g>
        </g>
        <g id="组_9882" data-name="组 9882" transform="translate(195.338 115.163)">
          <g id="组_9808-5" data-name="组 9808" transform="translate(0 0)">
            <g id="组_9807-5" data-name="组 9807" transform="translate(0 0)">
              <path id="路径_14461-5" data-name="路径 14461" d="M1622.151,652.671l-.053,2.958,2.832-1.6.054-2.958Z" transform="translate(-1619.324 -649.464)" fill-rule="evenodd" fill="url(#linear-gradient-7)"/>
              <path id="路径_14462-5" data-name="路径 14462" d="M1622.151,652.671l-.053,2.958,2.832-1.6.054-2.958Z" transform="translate(-1619.324 -649.464)" fill-rule="evenodd" fill="url(#linear-gradient-7)"/>
              <path id="路径_14463-5" data-name="路径 14463" d="M1598.031,637.745l-2.775-1.575,2.833-1.632,2.774,1.6Z" transform="translate(-1595.202 -634.538)" fill-rule="evenodd" fill="url(#linear-gradient-7)"/>
              <path id="路径_14464-5" data-name="路径 14464" d="M1597.551,652.935l-.054,2.959-2.774-1.575.054-2.958Z" transform="translate(-1594.723 -649.729)" fill-rule="evenodd" fill="url(#linear-gradient-7)"/>
            </g>
          </g>
        </g>
        <path id="路径_14540" data-name="路径 14540" d="M94.009,0c51.92,0,94.009,46.462,94.009,103.777S0,161.091,0,103.777,42.089,0,94.009,0Z" transform="translate(77.965 41.866)" opacity="0.86" fill="url(#radial-gradient-5)"/>
      </g>
      <g id="组_9884" data-name="组 9884" transform="translate(-5569.018 8591.331)">
        <path id="路径_14541" data-name="路径 14541" d="M12.988,0A12.31,12.31,0,0,1,25.714,12.239a12.938,12.938,0,0,1-12.987,12.5A12.31,12.31,0,0,1,0,12.5,12.938,12.938,0,0,1,12.988,0Z" transform="translate(5.984 2.892) rotate(14)" opacity="0.85" fill="url(#linear-gradient-44)"/>
        <path id="路径_14542" data-name="路径 14542" d="M6.467,0c3.689.072,6.777,4.99,6.9,10.983S10.589,21.779,6.9,21.706.123,16.717,0,10.723,2.778-.071,6.467,0Z" transform="matrix(0.848, -0.53, 0.53, 0.848, 9.331, 7.084)" opacity="0.76" fill="url(#radial-gradient-6)"/>
      </g>
      <g id="组_9885" data-name="组 9885" transform="translate(-5763.469 8621.896)">
        <path id="路径_14543" data-name="路径 14543" d="M8.434,0A7.994,7.994,0,0,1,16.7,7.947a8.4,8.4,0,0,1-8.433,8.116A7.994,7.994,0,0,1,0,8.116,8.4,8.4,0,0,1,8.434,0Z" transform="translate(3.886 1.878) rotate(14)" opacity="0.85" fill="url(#linear-gradient-45)"/>
        <path id="路径_14544" data-name="路径 14544" d="M4.2,0c2.4.047,4.4,3.24,4.478,7.132s-1.8,7.01-4.2,6.963S.08,10.856,0,6.963,1.8-.046,4.2,0Z" transform="matrix(0.848, -0.53, 0.53, 0.848, 6.059, 4.6)" opacity="0.76" fill="url(#radial-gradient-6)"/>
      </g>
      <g id="组_9886" data-name="组 9886" transform="translate(-5742.267 8548.552)">
        <path id="路径_14545" data-name="路径 14545" d="M14.434,0A13.681,13.681,0,0,1,28.578,13.6c-.08,7.591-6.542,13.81-14.433,13.889A13.681,13.681,0,0,1,0,13.89C.081,6.3,6.542.081,14.434,0Z" transform="translate(6.651 3.497) rotate(14)" opacity="0.85" fill="url(#linear-gradient-45)"/>
        <path id="路径_14546" data-name="路径 14546" d="M8.4,0c4.792.094,8.8,6.578,8.961,14.483s-3.6,14.238-8.391,14.144S.162,22.05,0,14.145,3.6-.093,8.4,0Z" transform="matrix(0.848, -0.53, 0.53, 0.848, 6.809, 9.201)" opacity="0.87" fill="url(#radial-gradient-8)"/>
      </g>
      <g id="组_9887" data-name="组 9887" transform="translate(-5587.685 8547.209)">
        <path id="路径_14547" data-name="路径 14547" d="M.905.039,2.694,0,1.789,41.718,0,41.757Z" transform="matrix(0.766, 0.643, -0.643, 0.766, 32.952, 0)" fill="url(#linear-gradient-47)"/>
        <ellipse id="椭圆_73" data-name="椭圆 73" cx="7" cy="5.5" rx="7" ry="5.5" transform="translate(0.18 27.636)" fill="url(#radial-gradient-9)"/>
        <circle id="椭圆_74" data-name="椭圆 74" cx="4" cy="4" r="4" transform="translate(3.18 27.636)" fill="url(#radial-gradient-9)"/>
      </g>
      <g id="组_10429" data-name="组 10429" transform="translate(-5622.685 8522.209)">
        <path id="路径_14547-2" data-name="路径 14547" d="M.905.039,2.694,0,1.789,41.718,0,41.757Z" transform="matrix(0.766, 0.643, -0.643, 0.766, 32.952, 0)" fill="url(#linear-gradient-47)"/>
        <ellipse id="椭圆_73-2" data-name="椭圆 73" cx="7" cy="5.5" rx="7" ry="5.5" transform="translate(0.18 27.636)" fill="url(#radial-gradient-9)"/>
        <circle id="椭圆_74-2" data-name="椭圆 74" cx="4" cy="4" r="4" transform="translate(3.18 27.636)" fill="url(#radial-gradient-9)"/>
      </g>
      <g id="组_9888" data-name="组 9888" transform="translate(-5683.579 8516.979)">
        <path id="路径_14549" data-name="路径 14549" d="M1.319.056,3.925,0,2.606,60.767,0,60.823Z" transform="matrix(0.766, 0.643, -0.643, 0.766, 48.048, 0)" fill="url(#linear-gradient-47)"/>
        <ellipse id="椭圆_73-3" data-name="椭圆 73" cx="9" cy="8" rx="9" ry="8" transform="translate(1.074 39.867)" fill="url(#radial-gradient-9)"/>
        <ellipse id="椭圆_74-3" data-name="椭圆 74" cx="7" cy="6" rx="7" ry="6" transform="translate(5.074 39.867)" fill="url(#radial-gradient-9)"/>
      </g>
      <ellipse id="椭圆_75" data-name="椭圆 75" cx="3" cy="2.5" rx="3" ry="2.5" transform="translate(-5682.505 8604.846)" fill="url(#radial-gradient-15)"/>
      <circle id="椭圆_76" data-name="椭圆 76" cx="2.5" cy="2.5" r="2.5" transform="translate(-5648.505 8591.846)" fill="url(#radial-gradient-15)"/>
      <ellipse id="椭圆_77" data-name="椭圆 77" cx="1" cy="2.5" rx="1" ry="2.5" transform="translate(-5594.505 8620.846)" fill="url(#radial-gradient-15)"/>
      <ellipse id="椭圆_78" data-name="椭圆 78" cx="1.5" cy="1" rx="1.5" ry="1" transform="translate(-5566.505 8625.846)" fill="url(#radial-gradient-15)"/>
      <circle id="椭圆_79" data-name="椭圆 79" cx="2" cy="2" r="2" transform="translate(-5612.505 8581.846)" fill="url(#radial-gradient-15)"/>
      <circle id="椭圆_80" data-name="椭圆 80" cx="2" cy="2" r="2" transform="translate(-5705.505 8582.846)" fill="url(#radial-gradient-15)"/>
      <ellipse id="椭圆_81" data-name="椭圆 81" cx="1" cy="2.5" rx="1" ry="2.5" transform="translate(-5729.505 8620.846)" fill="url(#radial-gradient-15)"/>
    </g>
  </g>
</svg>
