<?xml version="1.0" encoding="UTF-8"?>
<svg width="18px" height="14px" viewBox="0 0 18 14" version="1.1" xmlns="http://www.w3.org/2000/svg" xmlns:xlink="http://www.w3.org/1999/xlink">
    <!-- Generator: Sketch 64 (93537) - https://sketch.com -->
    <title>邮箱</title>
    <desc>Created with Sketch.</desc>
    <defs>
        <polygon id="path-1" points="0.00164133739 0.0258237082 17.9974286 0.0258237082 17.9974286 13.2674498 0.00164133739 13.2674498"></polygon>
    </defs>
    <g id="首页" stroke="none" stroke-width="1" fill="none" fill-rule="evenodd">
        <g id="首页12.6版本二" transform="translate(-1504.000000, -3580.000000)">
            <g id="编组-9" transform="translate(20.000000, 3139.000000)">
                <g id="编组-25" transform="translate(1453.000000, 198.000000)">
                    <g id="编组-18" transform="translate(20.000000, 226.000000)">
                        <g id="编组-22" transform="translate(0.000000, 4.000000)">
                            <g id="邮箱" transform="translate(11.000000, 13.000000)">
                                <g id="编组">
                                    <mask id="mask-2" fill="white">
                                        <use xlink:href="#path-1"></use>
                                    </mask>
                                    <g id="Clip-2"></g>
                                    <path d="M16.0055015,0.0258237082 L1.99192705,0.0258237082 C0.89387234,0.0258237082 0,0.919696049 0,2.01775076 L0,11.2754954 C0,12.3735775 0.89387234,13.2674498 1.99192705,13.2674498 L16.0055015,13.2674498 C17.1035562,13.2674498 17.9974286,12.3735775 17.9974286,11.2754954 L17.9974286,2.01775076 C17.9974286,0.919696049 17.1035562,0.0258237082 16.0055015,0.0258237082 Z M16.8023435,11.2754954 C16.8023435,11.7137325 16.4437112,12.0723374 16.0055015,12.0723374 L1.99192705,12.0723374 C1.55371733,12.0723374 1.19519453,11.7137325 1.19519453,11.2754954 L1.19519453,2.01775076 C1.19519453,1.57954103 1.55371733,1.22101824 1.99192705,1.22101824 L16.0055015,1.22101824 C16.4437112,1.22101824 16.8023435,1.57954103 16.8023435,2.01775076 L16.8023435,11.2754954 Z" id="Fill-1" fill="#FFFFFF" mask="url(#mask-2)"></path>
                                </g>
                                <path d="M14.9622401,3.1906231 L8.99871429,6.95289666 L3.03529787,3.1906231 C2.75640729,3.01379635 2.38784498,3.09840729 2.2111003,3.37732523 C2.0342462,3.65621581 2.1188845,4.02466869 2.39777508,4.2015228 L8.67247112,8.16059271 C8.77207295,8.22279939 8.88171429,8.25269909 8.9912462,8.25269909 L9.01110638,8.25269909 C9.1206383,8.25269909 9.23027964,8.22279939 9.32988146,8.16059271 L15.6045775,4.2015228 C15.8834681,4.02477812 15.9681064,3.65621581 15.7913617,3.37732523 C15.6094742,3.09594529 15.2410486,3.01379635 14.9621307,3.1906231 L14.9622401,3.1906231 Z" id="Fill-3" fill="#FFFFFF"></path>
                            </g>
                        </g>
                    </g>
                </g>
            </g>
        </g>
    </g>
</svg>