<?xml version="1.0" encoding="UTF-8"?>
<svg width="18px" height="19px" viewBox="0 0 18 19" version="1.1" xmlns="http://www.w3.org/2000/svg" xmlns:xlink="http://www.w3.org/1999/xlink">
    <!-- Generator: Sketch 64 (93537) - https://sketch.com -->
    <title>电话</title>
    <desc>Created with Sketch.</desc>
    <g id="首页" stroke="none" stroke-width="1" fill="none" fill-rule="evenodd">
        <g id="首页12.6版本二" transform="translate(-1504.000000, -3509.000000)" fill="#FFFFFF">
            <g id="编组-9" transform="translate(20.000000, 3139.000000)">
                <g id="编组-25" transform="translate(1453.000000, 198.000000)">
                    <g id="编组-20" transform="translate(20.000000, 157.000000)">
                        <g id="编组-23" transform="translate(0.000000, 4.000000)">
                            <path d="M22.027876,27.6842557 C20.2059192,27.1036792 18.2606719,25.8571481 16.2561302,23.7636946 C14.3120508,21.7331891 13.1027135,19.8140254 12.4828469,18.0512433 C12.0794949,16.9054529 11.978305,16.0017815 12.0375995,15.3823641 C12.0398455,15.3565201 12.0429899,15.3307959 12.046853,15.3051615 L12.0550285,15.2249044 C12.0662585,14.7910367 12.3167326,14.1194522 12.5849651,13.8051317 C12.8407997,13.4728132 13.1173275,13.1569655 13.4129313,12.8595948 C13.6485219,12.6229561 13.8754879,12.425248 14.0825393,12.2800664 C14.3912298,12.0633123 14.5895069,12.0086895 14.641105,12.038756 C14.6359542,12.039325 14.6661405,12.0704396 14.7090541,12.1292848 C14.7847593,12.232002 14.8787919,12.3812563 14.9886364,12.5703098 C15.2518379,13.0354118 15.4998564,13.5089589 15.7322727,13.9902022 C16.218577,14.9887448 16.6847272,15.99699 17.1306634,17.0142192 C17.1714808,17.1063053 17.1531234,17.3091343 17.0985007,17.3909187 L15.9715168,19.063711 C15.9359401,19.1186931 15.9086886,19.1785865 15.8907805,19.2416243 C15.7108907,19.862569 16.1856955,20.8352375 17.6596418,22.3372438 C18.5581624,23.2521452 19.3436641,23.8480545 20.0193513,24.1838767 C20.4732234,24.4097646 20.816682,24.4905009 21.0430191,24.48535 C21.150408,24.4807981 21.240847,24.4506119 21.3189779,24.3985346 L22.9852418,23.2741561 C23.071099,23.2163589 23.2825825,23.1938989 23.3813168,23.2337879 L23.5897757,23.3170697 C24.3251167,23.6127933 25.0556363,23.9199864 25.7813944,24.2385294 C25.9500841,24.3131565 26.1120957,24.3856874 26.2668603,24.4562119 C26.7882322,24.6949769 27.2164998,24.9060112 27.5277657,25.0787737 C27.6902565,25.1697817 27.8170508,25.2479426 27.9008117,25.3098124 C27.9351007,25.335327 27.959088,25.3547325 27.970318,25.3659625 C27.9462109,25.3384714 27.928183,25.3060691 27.9176717,25.2709716 L27.9529788,25.3476051 C28.061326,25.5408512 27.5491776,26.2609793 26.7176778,26.9938347 C26.5566244,27.1358719 26.3924866,27.2743753 26.225444,27.4093451 C26.0758303,27.5203874 25.9985079,27.7040205 26.0236632,27.8887317 C26.0488184,28.0733231 26.1723485,28.2296149 26.3462789,28.2966356 C26.5201194,28.3636863 26.7167494,28.3308048 26.8592358,28.2107785 C27.040563,28.0645488 27.2185961,27.9143661 27.393365,27.7604102 C28.6506469,26.6513344 29.3257352,25.7033419 28.8438031,24.8462376 L28.8791102,24.9228413 C28.7344078,24.5241909 28.1057669,24.173605 26.6915942,23.5270559 C26.5332061,23.4540458 26.3670918,23.3798978 26.1948085,23.3037434 C25.3899912,22.9485756 24.5783759,22.6087705 23.7604419,22.2846275 C23.3505615,22.1190822 22.781215,22.1788558 22.4133199,22.4267545 L20.747056,23.551163 L21.0087601,23.4642277 C21.0225655,23.4637785 20.9955237,23.4606042 20.9372773,23.4467987 C20.7769128,23.405053 20.6217889,23.3453693 20.4747507,23.2690052 C19.9073806,22.9868475 19.212288,22.4593964 18.3894726,21.6212184 C17.1485416,20.3572584 16.8245184,19.6929509 16.8726128,19.5262377 C16.861832,19.560856 16.8464094,19.5937375 16.8264949,19.6239238 L17.9463514,17.9618823 C18.1972748,17.5887166 18.2479146,17.0148182 18.0664976,16.6028116 L17.9672842,16.378451 C17.6101399,15.5731545 17.2417956,14.7729189 16.8623111,13.9779241 C16.7897802,13.8271425 16.7192258,13.6804337 16.6497495,13.5393548 C15.9070416,12.028095 15.4874585,11.3043433 15.111358,11.1321498 C14.6579351,10.8648756 14.0988902,11.0202091 13.4952847,11.4434457 C13.2336105,11.6268692 12.9637309,11.8620106 12.6892994,12.1374902 C12.3678516,12.4608247 12.0668574,12.8039239 11.7882034,13.1647816 C11.3844022,13.6370409 11.0501971,14.5345133 11.0333372,15.1988208 L11.0415426,15.1185936 C11.0348644,15.1543799 11.027258,15.2096016 11.0200109,15.2852769 C10.9470008,16.0493967 11.0650507,17.1016037 11.5189228,18.3905992 C12.188411,20.2944602 13.4752803,22.3372438 15.5176148,24.4706163 C17.637631,26.6845453 19.728539,28.0242106 21.7171791,28.6584516 C22.3831336,28.870534 23.008151,28.9926866 23.5852238,29.040751 C23.8640874,29.0600667 24.1068353,28.8517275 24.1298643,28.5730736 C24.1529232,28.2944196 23.9478483,28.0490064 23.6695537,28.0220844 C23.1113473,27.9719236 22.5607175,27.8586653 22.027876,27.6848547 L22.027876,27.6842557 Z" id="电话"></path>
                        </g>
                    </g>
                </g>
            </g>
        </g>
    </g>
</svg>