<svg xmlns="http://www.w3.org/2000/svg" xmlns:xlink="http://www.w3.org/1999/xlink" width="416" height="278" viewBox="0 0 416 278">
  <defs>
    <linearGradient id="linear-gradient" x1="0.079" y1="0.147" x2="1.023" y2="1" gradientUnits="objectBoundingBox">
      <stop offset="0" stop-color="#00ba5c"/>
      <stop offset="1" stop-color="#82d5ce"/>
    </linearGradient>
    <radialGradient id="radial-gradient" cx="0.5" cy="0.474" r="0.625" gradientTransform="translate(1.003 0.945) rotate(179.659)" gradientUnits="objectBoundingBox">
      <stop offset="0" stop-color="#17a8ea"/>
      <stop offset="1" stop-color="#006154" stop-opacity="0"/>
    </radialGradient>
    <linearGradient id="linear-gradient-2" y1="0.5" x2="1" y2="0.5" gradientUnits="objectBoundingBox">
      <stop offset="0" stop-color="#d8f7ff"/>
      <stop offset="1" stop-color="#adfff9"/>
    </linearGradient>
    <linearGradient id="linear-gradient-3" y1="0.5" x2="1" y2="0.5" gradientUnits="objectBoundingBox">
      <stop offset="0" stop-color="#2af3c4"/>
      <stop offset="0.527" stop-color="#b2fffd"/>
      <stop offset="1" stop-color="#2af4c5"/>
    </linearGradient>
    <linearGradient id="linear-gradient-4" y1="0.5" x2="1" y2="0.5" gradientUnits="objectBoundingBox">
      <stop offset="0" stop-color="#f9fffe"/>
      <stop offset="1" stop-color="#abfff9"/>
    </linearGradient>
    <linearGradient id="linear-gradient-5" y1="0.5" x2="1" y2="0.5" gradientUnits="objectBoundingBox">
      <stop offset="0" stop-color="#2ff4c6"/>
      <stop offset="0.527" stop-color="#bafffe"/>
      <stop offset="1" stop-color="#2cf4c6"/>
    </linearGradient>
    <linearGradient id="linear-gradient-6" x1="0.548" y1="0.075" x2="0.44" y2="1.038" gradientUnits="objectBoundingBox">
      <stop offset="0" stop-color="#00e5db" stop-opacity="0"/>
      <stop offset="1" stop-color="#00e6fa"/>
      <stop offset="1" stop-color="#0082ff"/>
    </linearGradient>
    <linearGradient id="linear-gradient-7" x1="0.56" y1="0.075" x2="0.424" y2="1.038" gradientUnits="objectBoundingBox">
      <stop offset="0" stop-color="#00e5db" stop-opacity="0"/>
      <stop offset="1" stop-color="#0ce3b3"/>
    </linearGradient>
    <linearGradient id="linear-gradient-8" y1="0.5" x2="1" y2="0.5" gradientUnits="objectBoundingBox">
      <stop offset="0" stop-color="#4dd9ff"/>
      <stop offset="1" stop-color="#43fff9"/>
    </linearGradient>
    <linearGradient id="linear-gradient-9" y1="0.5" x2="1" y2="0.5" gradientUnits="objectBoundingBox">
      <stop offset="0" stop-color="#f5fffe"/>
      <stop offset="1" stop-color="#47ddfe"/>
    </linearGradient>
    <linearGradient id="linear-gradient-10" x1="4.704" y1="0.5" x2="5.704" y2="0.5" gradientUnits="objectBoundingBox">
      <stop offset="0" stop-color="#fff"/>
      <stop offset="1" stop-color="#fff"/>
    </linearGradient>
    <linearGradient id="linear-gradient-14" x1="-18.473" y1="0.5" x2="-17.473" y2="0.5" gradientUnits="objectBoundingBox">
      <stop offset="0" stop-color="#9efffc"/>
      <stop offset="1" stop-color="#fff"/>
    </linearGradient>
    <linearGradient id="linear-gradient-16" x1="-14.507" y1="0.5" x2="-13.507" y2="0.5" xlink:href="#linear-gradient-14"/>
    <linearGradient id="linear-gradient-18" y1="0.5" x2="1" y2="0.5" gradientUnits="objectBoundingBox">
      <stop offset="0" stop-color="#39ffff"/>
      <stop offset="1" stop-color="#2a79ff"/>
    </linearGradient>
    <linearGradient id="linear-gradient-19" y1="0.5" x2="1" y2="0.5" gradientUnits="objectBoundingBox">
      <stop offset="0" stop-color="#98fbea"/>
      <stop offset="1" stop-color="#05e1ad"/>
    </linearGradient>
    <linearGradient id="linear-gradient-20" y1="0.5" x2="1" y2="0.5" gradientUnits="objectBoundingBox">
      <stop offset="0" stop-color="#9fffef"/>
      <stop offset="1" stop-color="#27f3c3"/>
    </linearGradient>
    <linearGradient id="linear-gradient-21" y1="0.5" x2="1" y2="0.5" gradientUnits="objectBoundingBox">
      <stop offset="0" stop-color="#9fffef"/>
      <stop offset="1" stop-color="#20f2c0"/>
    </linearGradient>
    <linearGradient id="linear-gradient-30" y1="0.5" x2="1" y2="0.5" gradientUnits="objectBoundingBox">
      <stop offset="0" stop-color="#f1fffd"/>
      <stop offset="0.995" stop-color="#32f4c7"/>
      <stop offset="1" stop-color="#2af3c4"/>
    </linearGradient>
    <clipPath id="clip-数据模型_1">
      <rect width="416" height="278"/>
    </clipPath>
  </defs>
  <g id="数据模型_1" data-name="数据模型 – 1" clip-path="url(#clip-数据模型_1)">
    <rect width="416" height="278" fill="#fff"/>
    <g id="图层_2" data-name="图层 2" transform="translate(-0.31 -0.819)">
      <rect id="矩形_371" data-name="矩形 371" width="417" height="279" transform="translate(0.31 -0.181)" fill="url(#linear-gradient)"/>
    </g>
    <g id="组_10405" data-name="组 10405" transform="translate(171.237 150.848)" opacity="0.5">
      <path id="路径_365" data-name="路径 365" d="M717.938,997.263c10.709,5.039,10.765,13.208.126,18.246l-90.919,43.059c-10.639,5.038-27.944,5.039-38.653,0l-91.513-43.058c-10.709-5.039-10.765-13.208-.126-18.246L587.772,954.2c10.639-5.039,27.945-5.039,38.653,0Z" transform="translate(-488.911 -950.425)" fill="url(#radial-gradient)"/>
    </g>
    <text id="_0_1_0_1_0" data-name="0
1
0
1
0" transform="translate(308 40)" fill="#00fdf7" font-size="10" font-family="MicrosoftYaHei, Microsoft YaHei" opacity="0.65"><tspan x="0" y="0">0</tspan><tspan x="0" y="14">1</tspan><tspan x="0" y="28">0</tspan><tspan x="0" y="42">1</tspan><tspan x="0" y="56">0</tspan></text>
    <text id="_0_1_0_1_0-2" data-name="0
1
0
1
0" transform="translate(252 50)" fill="#00fdf7" font-size="8" font-family="MicrosoftYaHei, Microsoft YaHei" opacity="0.65"><tspan x="0" y="0">0</tspan><tspan x="0" y="10">1</tspan><tspan x="0" y="20">0</tspan><tspan x="0" y="30">1</tspan><tspan x="0" y="40">0</tspan></text>
    <text id="_0_1_0_" data-name="0
1
0
" transform="translate(267 37)" fill="#00fdf7" font-size="10" font-family="MicrosoftYaHei, Microsoft YaHei" opacity="0.65"><tspan x="0" y="0">0</tspan><tspan x="0" y="14">1</tspan><tspan x="0" y="28">0</tspan><tspan x="0" y="42"></tspan></text>
    <text id="_0_1_0_1_0-3" data-name="0
1
0
1
0" transform="translate(290 24)" fill="#00fdf7" font-size="10" font-family="MicrosoftYaHei, Microsoft YaHei" opacity="0.65"><tspan x="0" y="0">0</tspan><tspan x="0" y="14">1</tspan><tspan x="0" y="28">0</tspan><tspan x="0" y="42">1</tspan><tspan x="0" y="56">0</tspan></text>
    <g id="组_10428" data-name="组 10428" transform="translate(200.704 -51.71)">
      <g id="组_10421" data-name="组 10421" transform="translate(0 0)">
        <g id="组_10418" data-name="组 10418" transform="translate(0.045 174.968)">
          <path id="路径_3787" data-name="路径 3787" d="M1664.456,1485.512c9.016,4.469,9.063,11.785.1,16.257l-66.13,33c-8.958,4.47-23.667,4.47-32.683,0l-66.567-33c-9.016-4.47-9.064-11.786-.106-16.255l66.13-33c8.962-4.472,23.671-4.472,32.687,0Z" transform="translate(-1492.384 -1449.16)" fill="url(#linear-gradient-2)"/>
        </g>
        <path id="路径_14754" data-name="路径 14754" d="M1671.206,1529.528c-.007.1-.013.2-.025.3s-.024.173-.038.26-.033.2-.055.3-.041.174-.063.261-.052.2-.083.294-.057.173-.089.26-.072.194-.112.291-.073.171-.112.256c-.047.1-.1.2-.149.3-.044.084-.088.167-.135.25-.057.1-.117.2-.18.3-.051.081-.1.161-.155.241-.081.119-.168.238-.257.356-.052.07-.1.139-.157.208-.108.136-.224.27-.343.4-.044.049-.084.1-.129.149-.187.2-.388.4-.6.6-.057.053-.119.106-.178.159-.165.149-.337.3-.516.441-.081.067-.163.133-.248.2-.107.083-.217.165-.329.246s-.211.153-.319.229-.236.16-.357.239-.227.15-.345.223-.254.155-.383.232-.245.145-.371.216-.273.15-.412.224c-.176.094-.35.188-.535.281h0l-66.13,33c-.5.249-1.021.479-1.555.7q-.207.086-.418.168-.735.293-1.5.551c-.056.019-.109.04-.165.058-.538.176-1.092.333-1.651.485-.389.1-.787.2-1.185.29-.3.07-.6.146-.913.21-.417.086-.843.159-1.268.233-.316.055-.628.117-.948.165-.136.021-.275.037-.412.056q-.789.111-1.59.192c-.155.016-.308.034-.464.048q-.937.086-1.882.134l-.355.016c-.418.018-.839.023-1.258.029s-.857.01-1.285.006c-.351,0-.7-.013-1.053-.025q-.595-.02-1.187-.054-.533-.032-1.064-.076-.585-.049-1.167-.112-.518-.057-1.031-.125c-.414-.055-.825-.118-1.233-.184s-.837-.136-1.248-.216c-.1-.021-.209-.039-.313-.061-.59-.12-1.171-.255-1.743-.4-.161-.041-.319-.084-.478-.127q-.712-.191-1.4-.409c-.137-.043-.276-.084-.411-.129-.418-.138-.821-.292-1.225-.445-.2-.075-.4-.143-.594-.222-.579-.236-1.143-.486-1.684-.755l-66.567-33c-4.537-2.25-6.8-5.219-6.794-8.185l-.044,31.117c-.01,2.965,2.256,5.935,6.793,8.185l66.567,33c.541.269,1.1.519,1.685.754.193.079.4.147.595.222.339.129.672.264,1.022.382.066.023.135.041.2.064.136.045.275.085.413.129q.688.218,1.4.409c.16.043.317.087.477.127.1.026.2.056.306.082.473.116.954.22,1.438.319.1.021.208.04.313.061.219.042.438.088.659.128.194.035.394.056.589.088.408.067.818.129,1.232.184.161.021.317.051.478.071.183.022.37.034.554.053q.58.064,1.166.112c.181.015.359.039.54.052s.35.014.525.024c.395.024.789.042,1.186.055.194.006.387.022.582.027.157,0,.314,0,.472,0,.428.005.854,0,1.283-.005.21,0,.42,0,.63,0s.421-.018.631-.027l.353-.016c.533-.026,1.067-.059,1.6-.105.1-.008.19-.021.286-.029.155-.014.309-.031.463-.047q.8-.081,1.593-.193c.137-.018.274-.035.41-.056.069-.01.139-.018.207-.028.251-.039.493-.093.742-.136.425-.074.85-.146,1.267-.233.309-.064.61-.139.915-.211.4-.093.794-.185,1.183-.29.089-.024.182-.042.27-.066q.7-.2,1.382-.419c.055-.018.108-.039.163-.057.515-.171,1.015-.356,1.506-.55.141-.056.28-.112.419-.169.533-.221,1.055-.451,1.553-.7l66.131-33c.094-.047.186-.094.278-.141s.169-.093.257-.139c.138-.074.277-.148.411-.223s.249-.144.37-.216.259-.154.384-.232.231-.148.345-.223.24-.158.356-.239.214-.152.319-.229.223-.164.33-.247c.042-.032.088-.063.128-.1s.078-.068.119-.1q.269-.218.516-.441c.059-.053.121-.106.177-.159.212-.2.412-.4.6-.6l.019-.02c.039-.043.072-.086.109-.129.119-.134.235-.268.343-.4.056-.069.105-.139.157-.208.089-.119.176-.237.257-.357.02-.03.045-.06.064-.09.033-.05.059-.1.091-.151.062-.1.123-.2.18-.3.048-.083.092-.167.136-.25q.079-.152.149-.3c.02-.043.044-.086.063-.129s.032-.085.049-.127c.04-.1.077-.194.112-.292s.061-.173.088-.26.058-.2.084-.294c.013-.051.031-.1.043-.152s.012-.072.02-.109c.021-.1.039-.2.056-.3.014-.086.027-.173.037-.259s.019-.2.025-.3c0-.058.012-.116.014-.174s0-.117,0-.175l.045-31.117C1671.224,1529.3,1671.214,1529.412,1671.206,1529.528Z" transform="translate(-1492.315 -1309.674)" fill="url(#linear-gradient-3)"/>
        <path id="路径_14755" data-name="路径 14755" d="M1668.076,1496.825c-.006.093-.012.186-.023.28s-.022.159-.035.24-.031.186-.05.278-.038.161-.058.241-.049.181-.078.271-.052.16-.081.24-.066.18-.1.269-.068.158-.1.237-.09.187-.138.279c-.039.077-.081.155-.124.231-.053.093-.109.185-.166.277-.047.074-.094.148-.144.222-.075.11-.155.22-.237.329-.048.064-.094.128-.145.192-.1.125-.206.249-.316.373-.041.045-.077.092-.119.136-.172.188-.358.372-.553.555l-.164.146c-.153.138-.311.273-.477.407q-.112.092-.228.183c-.1.076-.2.152-.3.227s-.194.142-.294.212-.218.147-.329.221-.211.137-.319.205-.235.143-.354.214-.226.133-.343.2-.252.139-.38.207c-.163.087-.323.175-.493.259h0l-61.047,30.462c-.461.23-.943.442-1.435.646-.127.053-.256.1-.385.156-.452.179-.915.35-1.39.508-.052.017-.1.036-.152.053-.5.162-1.007.308-1.523.447-.359.1-.727.182-1.095.268-.28.066-.558.135-.843.194-.385.08-.778.147-1.171.214-.292.051-.579.107-.875.152-.126.019-.253.034-.38.052q-.729.1-1.468.177c-.143.015-.286.031-.429.044q-.865.079-1.737.124l-.328.014c-.387.017-.774.022-1.162.028s-.791.009-1.186,0c-.324,0-.648-.011-.972-.022q-.549-.019-1.1-.051-.492-.029-.982-.07-.541-.044-1.077-.1-.479-.052-.952-.115c-.382-.051-.761-.108-1.138-.17s-.772-.125-1.152-.2c-.1-.019-.193-.036-.289-.056q-.816-.167-1.609-.369c-.148-.038-.294-.078-.442-.118q-.656-.176-1.292-.378c-.126-.04-.255-.078-.379-.119-.386-.128-.758-.269-1.131-.411-.182-.069-.37-.132-.548-.2-.535-.218-1.055-.449-1.554-.7l-61.45-30.463c-4.189-2.076-6.281-4.819-6.271-7.556l-.041,12.551c-.009,2.738,2.083,5.479,6.272,7.555l61.45,30.463c.5.248,1.02.479,1.554.7.179.073.367.136.55.205.313.119.62.243.943.352.06.021.125.038.185.058.126.042.254.079.381.12q.635.2,1.291.377c.147.04.292.079.441.117.1.024.187.052.282.075.436.107.88.2,1.327.294l.289.056c.2.04.4.082.608.118.179.032.364.052.544.081.377.062.755.119,1.137.17.148.019.292.047.441.065.169.021.342.031.511.05.358.039.716.074,1.075.1.167.014.332.036.5.048s.323.012.484.022q.547.032,1.095.051c.179.006.358.02.538.024.145,0,.29,0,.435,0,.395,0,.789,0,1.184,0,.194,0,.388,0,.582,0s.388-.017.582-.026l.326-.014c.493-.026.985-.055,1.474-.1.089-.007.176-.019.264-.027.143-.013.285-.029.427-.044q.741-.076,1.471-.178c.126-.017.253-.033.378-.052l.191-.026c.232-.036.455-.086.685-.126.392-.068.784-.134,1.169-.215.285-.059.563-.128.844-.195.367-.085.734-.171,1.093-.267.082-.022.168-.039.249-.061q.649-.18,1.276-.387c.051-.017.1-.035.15-.052.476-.158.938-.329,1.391-.509q.194-.077.386-.156c.491-.2.974-.416,1.434-.646l61.047-30.462.256-.13c.082-.042.157-.086.237-.129.128-.068.257-.137.38-.206s.229-.132.343-.2.238-.143.354-.214.213-.137.318-.206.221-.147.329-.221.2-.141.295-.211.205-.152.3-.228c.039-.03.081-.059.119-.089s.071-.063.109-.094q.248-.2.477-.407c.054-.049.111-.1.164-.147.2-.183.38-.367.553-.554l.018-.017c.036-.04.066-.08.1-.12.11-.123.216-.247.316-.372.051-.063.1-.128.145-.192.082-.109.163-.219.237-.329.018-.028.041-.055.059-.083.03-.046.055-.093.084-.14.058-.092.114-.184.166-.277.044-.076.085-.153.124-.23.048-.094.094-.187.138-.281.018-.039.04-.078.058-.118s.029-.078.045-.117c.037-.089.072-.179.1-.269s.056-.16.081-.24.053-.181.077-.271c.013-.047.03-.093.04-.14s.012-.067.019-.1c.02-.093.036-.186.051-.278s.026-.16.035-.24.018-.187.023-.28c0-.054.012-.107.014-.16s0-.108,0-.162l.041-12.55C1668.092,1496.61,1668.083,1496.718,1668.076,1496.825Z" transform="translate(-1496.059 -1292.832)" fill="#00e6fa"/>
        <g id="组_10419" data-name="组 10419" transform="translate(0.045 142.469)">
          <path id="路径_3790" data-name="路径 3790" d="M1664.456,1427.053c9.016,4.47,9.063,11.785.1,16.257l-66.13,33c-8.958,4.469-23.667,4.469-32.683,0l-66.567-33c-9.016-4.469-9.064-11.786-.106-16.256l66.13-33c8.962-4.472,23.671-4.472,32.687,0Z" transform="translate(-1492.384 -1390.701)" fill="url(#linear-gradient-4)"/>
        </g>
        <path id="路径_14756" data-name="路径 14756" d="M1671.206,1471.07c-.007.1-.013.2-.025.3s-.024.173-.038.259-.033.2-.055.3-.041.174-.063.261-.052.2-.083.293-.057.174-.089.261-.072.194-.112.291-.073.17-.112.256q-.07.152-.149.3c-.044.083-.088.167-.135.25-.057.1-.117.2-.18.3-.051.08-.1.16-.155.241-.081.12-.168.238-.257.356-.052.069-.1.139-.157.208-.108.135-.224.269-.343.4-.044.05-.084.1-.129.148-.187.2-.388.4-.6.6-.057.054-.119.106-.178.16-.165.148-.337.3-.516.441-.081.066-.163.132-.248.2-.107.083-.217.164-.329.246s-.211.153-.319.229-.236.16-.357.239-.227.149-.345.223-.254.155-.383.232-.245.144-.371.216-.273.15-.412.224c-.176.094-.35.189-.535.281h0l-66.13,33c-.5.249-1.021.479-1.555.7-.138.058-.277.113-.418.169-.49.194-.991.379-1.5.55-.056.018-.109.039-.165.058-.538.175-1.092.333-1.651.484-.389.1-.787.2-1.185.29-.3.071-.6.146-.913.21-.417.087-.843.159-1.268.233-.316.055-.628.116-.948.164-.136.02-.275.037-.412.057q-.789.11-1.59.192c-.155.016-.308.033-.464.048q-.937.086-1.882.134l-.355.015c-.418.018-.839.023-1.258.03s-.857.01-1.285,0c-.351,0-.7-.013-1.053-.025q-.595-.021-1.187-.055-.533-.031-1.064-.075-.585-.048-1.167-.112c-.345-.037-.689-.079-1.031-.124q-.621-.083-1.233-.185c-.418-.068-.837-.135-1.248-.216-.1-.02-.209-.039-.313-.06-.59-.12-1.171-.255-1.743-.4-.161-.041-.319-.085-.478-.128q-.712-.191-1.4-.409c-.137-.042-.276-.084-.411-.129-.418-.138-.821-.292-1.225-.445-.2-.075-.4-.143-.594-.222-.579-.236-1.143-.486-1.684-.755l-66.567-33c-4.537-2.248-6.8-5.219-6.794-8.184l-.044,13.6c-.01,2.966,2.256,5.935,6.793,8.185l66.567,33c.541.268,1.1.519,1.685.754.193.079.4.147.595.222.339.129.672.263,1.022.382.066.022.135.04.2.063.136.045.275.086.413.129q.688.218,1.4.409c.16.043.317.087.477.127.1.026.2.057.306.082.473.116.954.22,1.438.319.1.021.208.041.313.06.219.043.438.089.659.128.194.035.394.056.589.088.408.067.818.129,1.232.184.161.021.317.052.478.071.183.022.37.033.554.053q.58.064,1.166.112c.181.015.359.04.54.052s.35.014.525.024c.395.024.789.041,1.186.055.194.007.387.023.582.026.157,0,.314,0,.472,0,.428.005.854,0,1.283,0,.21,0,.42,0,.63,0s.421-.018.631-.027l.353-.015c.533-.027,1.067-.059,1.6-.105.1-.008.19-.02.286-.029.155-.014.309-.032.463-.047q.8-.083,1.593-.193c.137-.019.274-.036.41-.056l.207-.028c.251-.039.493-.093.742-.136.425-.073.85-.146,1.267-.232.309-.064.61-.14.915-.211.4-.093.794-.185,1.183-.29.089-.024.182-.042.27-.066q.7-.2,1.382-.419c.055-.018.108-.038.163-.057.515-.172,1.015-.356,1.506-.551q.211-.083.419-.169c.533-.221,1.055-.451,1.553-.7l66.131-33,.278-.141c.088-.045.169-.093.257-.139.138-.075.277-.149.411-.224s.249-.143.37-.216.259-.153.384-.232.231-.148.345-.223.24-.159.356-.239.214-.152.319-.228.223-.164.33-.247c.042-.033.088-.064.128-.1s.078-.068.119-.1q.269-.219.516-.442c.059-.053.121-.105.177-.159.212-.2.412-.4.6-.6l.019-.019c.039-.043.072-.086.109-.13.119-.134.235-.268.343-.4.056-.069.105-.139.157-.208.089-.118.176-.237.257-.356.02-.03.045-.059.064-.09.033-.05.059-.1.091-.151.062-.1.123-.2.18-.3.048-.083.092-.166.136-.249q.079-.152.149-.3c.02-.043.044-.085.063-.128s.032-.085.049-.127c.04-.1.077-.194.112-.291s.061-.173.088-.26.058-.2.084-.294c.013-.05.031-.1.043-.152.009-.036.012-.073.02-.108.021-.1.039-.2.056-.3s.027-.173.037-.26.019-.2.025-.3c0-.057.012-.115.014-.173s0-.117,0-.176l.045-13.6C1671.224,1470.837,1671.214,1470.953,1671.206,1471.07Z" transform="translate(-1492.315 -1283.715)" fill="url(#linear-gradient-5)"/>
        <path id="路径_14757" data-name="路径 14757" d="M1658.729,1326.622l-47.414,23.738a20.935,20.935,0,0,1-18.436,0l-47.456-23.74-32.446-166.228,80.167-23.882a20.29,20.29,0,0,1,17.867,0l80.165,23.882Z" transform="translate(-1512.621 -1134.439)" opacity="0.38" fill="url(#linear-gradient-6)"/>
        <path id="路径_14758" data-name="路径 14758" d="M1648.166,1331.416l-31,19.466a11.237,11.237,0,0,1-12.056,0l-31.03-19.468-10.815-136.309,42.018-19.584a10.889,10.889,0,0,1,11.683,0l42.019,19.584Z" transform="translate(-1521.667 -1151.928)" opacity="0.6" fill="url(#linear-gradient-7)"/>
        <g id="组_10420" data-name="组 10420" transform="translate(35.99 160.346)">
          <path id="路径_4067" data-name="路径 4067" d="M1650.812,1444.6c5.392,2.673,5.421,7.048.061,9.723l-39.55,19.735c-5.357,2.673-14.155,2.673-19.546,0l-39.811-19.736c-5.392-2.673-5.421-7.048-.064-9.722l39.55-19.735c5.359-2.675,14.157-2.675,19.549,0Z" transform="translate(-1547.903 -1422.859)" fill="url(#linear-gradient-8)"/>
          <g id="组_5421" data-name="组 5421" transform="translate(18.047 8.919)">
            <path id="路径_4068" data-name="路径 4068" d="M1643.962,1453.308c3.573,1.771,3.592,4.67.041,6.442l-26.205,13.076a16.443,16.443,0,0,1-12.951,0l-26.378-13.077c-3.573-1.771-3.592-4.67-.042-6.441l26.2-13.076a16.446,16.446,0,0,1,12.952,0Z" transform="translate(-1575.776 -1438.902)" fill="url(#linear-gradient-9)"/>
          </g>
        </g>
        <path id="路径_14759" data-name="路径 14759" d="M2498.588,1701.618l-18.767-9.375v6.306l18.767,9.375Z" transform="translate(-2421.568 -1431.351)" fill="url(#linear-gradient-10)"/>
        <path id="路径_14764" data-name="路径 14764" d="M2490.13,1697.393l-10.309-5.15v3.464l10.309,5.15Z" transform="translate(-2455.29 -1482.688)" fill="url(#linear-gradient-10)"/>
        <path id="路径_14760" data-name="路径 14760" d="M2473.77,1687.623,2455,1678.25v6.3l18.767,9.378Z" transform="translate(-2419.227 -1428.513)" fill="url(#linear-gradient-10)"/>
        <path id="路径_14763" data-name="路径 14763" d="M2465.311,1683.4,2455,1678.25v3.462l10.308,5.151Z" transform="translate(-2442.818 -1474.822)" fill="url(#linear-gradient-10)"/>
        <path id="路径_14761" data-name="路径 14761" d="M2597.437,1675.954c1.266-.819,2.3-.146,2.3,1.5a5.91,5.91,0,0,1-2.3,4.482c-1.267.819-2.3.148-2.3-1.5A5.943,5.943,0,0,1,2597.437,1675.954Z" transform="translate(-2431.063 -1438.22)" fill="url(#linear-gradient-14)"/>
        <path id="路径_14766" data-name="路径 14766" d="M2596.947,1675.88c1-.645,1.809-.115,1.809,1.178a4.652,4.652,0,0,1-1.813,3.528c-1,.645-1.81.116-1.807-1.178A4.678,4.678,0,0,1,2596.947,1675.88Z" transform="translate(-2472.265 -1452.237)" fill="url(#linear-gradient-14)"/>
        <path id="路径_14762" data-name="路径 14762" d="M2584.7,1684.272c1.263-.819,2.3-.144,2.3,1.5a5.915,5.915,0,0,1-2.3,4.481c-1.265.82-2.3.148-2.3-1.5A5.925,5.925,0,0,1,2584.7,1684.272Z" transform="translate(-2427.425 -1441.029)" fill="url(#linear-gradient-16)"/>
        <path id="路径_14765" data-name="路径 14765" d="M2584.206,1684.2c.994-.645,1.808-.113,1.808,1.179a4.656,4.656,0,0,1-1.813,3.527c-1,.645-1.811.116-1.807-1.178A4.664,4.664,0,0,1,2584.206,1684.2Z" transform="translate(-2466.689 -1457.138)" fill="url(#linear-gradient-16)"/>
        <g id="组_10423" data-name="组 10423" transform="translate(98.917 109.493) rotate(60)">
          <g id="组_9808" data-name="组 9808" transform="translate(0 0)">
            <g id="组_9807" data-name="组 9807" transform="translate(0 0)">
              <path id="路径_14461" data-name="路径 14461" d="M0,13.079l.386,25.66L25.461,25.66,25.075,0Z" transform="translate(25.487 14.733)" fill-rule="evenodd" fill="url(#linear-gradient-18)"/>
              <path id="路径_14462" data-name="路径 14462" d="M0,13.079l.386,25.66L25.461,25.66,25.075,0Z" transform="translate(25.487 14.733)" fill-rule="evenodd" fill="url(#linear-gradient-19)"/>
              <path id="路径_14463" data-name="路径 14463" d="M25.487,27.813,0,13.326,25.068,0,50.561,14.733Z" transform="translate(0 0)" fill-rule="evenodd" fill="url(#linear-gradient-20)"/>
              <path id="路径_14464" data-name="路径 14464" d="M25.485,14.486l.388,25.66L.384,25.659,0,0Z" transform="translate(0.002 13.326)" fill-rule="evenodd" fill="url(#linear-gradient-21)"/>
            </g>
          </g>
        </g>
        <g id="组_10426" data-name="组 10426" transform="matrix(0.485, -0.875, 0.875, 0.485, 35.784, 180.694)">
          <g id="组_9808-2" data-name="组 9808" transform="translate(0 0)">
            <g id="组_9807-2" data-name="组 9807" transform="translate(0 0)">
              <path id="路径_14461-2" data-name="路径 14461" d="M.336,3.692,0,10.13,6.533,6.438,6.869,0Z" transform="translate(6.171 3.286)" fill-rule="evenodd" fill="url(#linear-gradient-18)"/>
              <path id="路径_14462-2" data-name="路径 14462" d="M.336,3.692,0,10.13,6.533,6.438,6.869,0Z" transform="translate(6.171 3.286)" fill-rule="evenodd" fill="url(#linear-gradient-19)"/>
              <path id="路径_14463-2" data-name="路径 14463" d="M6.171,6.978,0,3.754,6.535,0,12.7,3.286Z" transform="translate(0.337 0)" fill-rule="evenodd" fill="url(#linear-gradient-20)"/>
              <path id="路径_14464-2" data-name="路径 14464" d="M6.507,3.224,6.171,9.662,0,6.438.337,0Z" transform="translate(0 3.754)" fill-rule="evenodd" fill="url(#linear-gradient-21)"/>
            </g>
          </g>
        </g>
        <g id="组_10427" data-name="组 10427" transform="matrix(0.966, -0.259, 0.259, 0.966, 119.363, 166.708)">
          <g id="组_9808-3" data-name="组 9808" transform="translate(0 0)">
            <g id="组_9807-3" data-name="组 9807" transform="translate(0 0)">
              <path id="路径_14461-3" data-name="路径 14461" d="M.289,4.534,0,12.637,7.337,8.1,7.626,0Z" transform="translate(7.026 4.248)" fill-rule="evenodd" fill="url(#linear-gradient-18)"/>
              <path id="路径_14462-3" data-name="路径 14462" d="M.289,4.534,0,12.637,7.337,8.1,7.626,0Z" transform="translate(7.026 4.248)" fill-rule="evenodd" fill="url(#linear-gradient-19)"/>
              <path id="路径_14463-3" data-name="路径 14463" d="M7.026,8.783,0,4.612,7.339,0l7.024,4.249Z" transform="translate(0.289 0)" fill-rule="evenodd" fill="url(#linear-gradient-20)"/>
              <path id="路径_14464-3" data-name="路径 14464" d="M7.315,4.171l-.288,8.1L0,8.1.29,0Z" transform="translate(0 4.612)" fill-rule="evenodd" fill="url(#linear-gradient-21)"/>
            </g>
          </g>
        </g>
      </g>
      <g id="组_10425" data-name="组 10425" transform="translate(51.997 56.224)">
        <g id="组_761" data-name="组 761" transform="translate(0 36.749)">
          <path id="路径_1489" data-name="路径 1489" d="M780.409,3503.534c.43.266.734.268.913.014a2.491,2.491,0,0,0,.27-1.345l2.363,1.472v24.931l-2.363-1.477v-20.408l-2.157-1.345v-2.456Z" transform="translate(-779.435 -3502.204)" fill="url(#linear-gradient-30)"/>
        </g>
        <g id="组_762" data-name="组 762" transform="translate(19.801 75.631)">
          <path id="路径_1490" data-name="路径 1490" d="M801.983,3542.751c.426.271.732.274.913.017a2.524,2.524,0,0,0,.267-1.351l2.367,1.477v24.934l-2.367-1.475v-20.411L801,3544.595v-2.449Z" transform="translate(-801.003 -3541.418)" fill="url(#linear-gradient-30)"/>
        </g>
        <g id="组_763" data-name="组 763" transform="translate(33.4 119.247)">
          <path id="路径_1491" data-name="路径 1491" d="M816.792,3586.739c.428.268.733.271.914.014a2.506,2.506,0,0,0,.268-1.347l2.365,1.475v24.931l-2.365-1.474v-20.407l-2.158-1.352v-2.449Z" transform="translate(-815.816 -3585.406)" fill="url(#linear-gradient-30)"/>
        </g>
        <g id="组_764" data-name="组 764" transform="translate(59.412 57.213)">
          <path id="路径_1492" data-name="路径 1492" d="M845.128,3524.175c.428.261.731.267.912.014a2.5,2.5,0,0,0,.269-1.347l2.366,1.472v24.931l-2.366-1.476v-20.4l-2.159-1.343v-2.462Z" transform="translate(-844.149 -3522.843)" fill="url(#linear-gradient-30)"/>
        </g>
        <g id="组_765" data-name="组 765" transform="translate(16.591)">
          <path id="路径_1493" data-name="路径 1493" d="M798.484,3466.467c.429.263.734.274.912.017a2.481,2.481,0,0,0,.27-1.343l2.363,1.475v24.929l-2.363-1.479v-20.407l-2.158-1.345v-2.456Z" transform="translate(-797.507 -3465.141)" fill="url(#linear-gradient-30)"/>
        </g>
        <g id="组_766" data-name="组 766" transform="translate(32.782 46.223)">
          <path id="路径_1494" data-name="路径 1494" d="M823.416,3535.866a4.637,4.637,0,0,1-.322,1.9,1.867,1.867,0,0,1-2.207,1.186,4.731,4.731,0,0,1-1.608-.667,8.085,8.085,0,0,1-1.631-1.355,8.733,8.733,0,0,1-1.31-1.8,10.254,10.254,0,0,1-.872-2.116,8.388,8.388,0,0,1-.323-2.311v-15.822a4.75,4.75,0,0,1,.323-1.9,2.006,2.006,0,0,1,.872-1.013,2.03,2.03,0,0,1,1.31-.171,4.468,4.468,0,0,1,1.631.667,7.5,7.5,0,0,1,1.608,1.351,10.033,10.033,0,0,1,1.323,1.813,9.527,9.527,0,0,1,.884,2.115,8.144,8.144,0,0,1,.322,2.3Zm-5.934-3.727a3.83,3.83,0,0,0,.5,1.948,3.869,3.869,0,0,0,1.3,1.365,1.361,1.361,0,0,0,1.3.251c.335-.16.5-.6.5-1.324v-15.764a3.866,3.866,0,0,0-1.8-3.322,1.34,1.34,0,0,0-1.3-.248c-.335.157-.5.6-.5,1.324Z" transform="translate(-815.142 -3511.759)" fill="url(#linear-gradient-30)"/>
        </g>
        <g id="组_767" data-name="组 767" transform="translate(5.486 98.19)">
          <path id="路径_1495" data-name="路径 1495" d="M793.683,3588.277a4.736,4.736,0,0,1-.324,1.906,2.068,2.068,0,0,1-.884,1.022,2.093,2.093,0,0,1-1.325.163,4.745,4.745,0,0,1-1.6-.671,8.212,8.212,0,0,1-1.633-1.347,9.359,9.359,0,0,1-1.312-1.808,10.091,10.091,0,0,1-.869-2.123,8.253,8.253,0,0,1-.319-2.3v-15.83a4.71,4.71,0,0,1,.319-1.9,1.986,1.986,0,0,1,.869-1.016,2.1,2.1,0,0,1,1.312-.177,4.639,4.639,0,0,1,1.633.671,8,8,0,0,1,1.6,1.351,10.179,10.179,0,0,1,1.325,1.815,9.307,9.307,0,0,1,.884,2.113,8.254,8.254,0,0,1,.324,2.3Zm-5.936-3.732a3.885,3.885,0,0,0,1.8,3.316,1.337,1.337,0,0,0,1.3.25c.337-.164.5-.606.5-1.323v-15.763a3.819,3.819,0,0,0-.5-1.953,3.886,3.886,0,0,0-1.3-1.365,1.348,1.348,0,0,0-1.3-.249c-.337.161-.5.6-.5,1.323Z" transform="translate(-785.411 -3564.169)" fill="url(#linear-gradient-30)"/>
        </g>
        <g id="组_768" data-name="组 768" transform="translate(47.746 99.939)">
          <path id="路径_1496" data-name="路径 1496" d="M839.717,3590.038a4.72,4.72,0,0,1-.325,1.906,2.017,2.017,0,0,1-.885,1.015,1.978,1.978,0,0,1-1.322.17,4.665,4.665,0,0,1-1.607-.675,8.138,8.138,0,0,1-1.634-1.347,8.985,8.985,0,0,1-1.306-1.8,9.991,9.991,0,0,1-.874-2.12,8.358,8.358,0,0,1-.321-2.3v-15.824a4.747,4.747,0,0,1,.321-1.9,2,2,0,0,1,.874-1.015,2.015,2.015,0,0,1,1.306-.167,4.3,4.3,0,0,1,1.634.667,7.712,7.712,0,0,1,1.607,1.346,10.091,10.091,0,0,1,1.322,1.811,9.483,9.483,0,0,1,.885,2.117,8.206,8.206,0,0,1,.325,2.3Zm-5.937-3.733a3.873,3.873,0,0,0,1.8,3.315,1.335,1.335,0,0,0,1.3.251c.334-.159.5-.6.5-1.321v-15.763a3.865,3.865,0,0,0-1.8-3.319,1.373,1.373,0,0,0-1.3-.254c-.337.166-.5.607-.5,1.326Z" transform="translate(-831.442 -3565.933)" fill="url(#linear-gradient-30)"/>
        </g>
      </g>
    </g>
  </g>
</svg>
