<?xml version="1.0" encoding="utf-8"?>
<!-- Generator: Adobe Illustrator 24.0.0, SVG Export Plug-In . SVG Version: 6.00 Build 0)  -->
<svg version="1.1" id="图层_1" xmlns="http://www.w3.org/2000/svg" xmlns:xlink="http://www.w3.org/1999/xlink" x="0px" y="0px"
	 viewBox="0 0 644 400" style="enable-background:new 0 0 644 400;" xml:space="preserve">
<style type="text/css">
	.st0{clip-path:url(#SVGID_2_);}
	.st1{opacity:0.1;}
	.st2{opacity:0.1;fill:url(#SVGID_3_);enable-background:new    ;}
	.st3{fill:url(#SVGID_4_);}
	.st4{fill:url(#SVGID_5_);}
	.st5{fill:#F8FBFF;}
	.st6{fill:#5D50DD;}
	.st7{fill:#4B58D1;}
	.st8{fill:#FF6D75;}
	.st9{opacity:0.4;}
	.st10{opacity:0.4;fill:url(#SVGID_6_);enable-background:new    ;}
	.st11{fill:url(#SVGID_7_);}
	.st12{fill:url(#SVGID_8_);}
	.st13{fill:#FF4852;}
	.st14{fill:#F2F2F2;}
	.st15{fill:#FF8DA5;}
	.st16{fill:url(#SVGID_9_);}
	.st17{opacity:0.4;fill:url(#SVGID_10_);enable-background:new    ;}
	.st18{fill:url(#SVGID_11_);}
	.st19{opacity:0.2;}
	.st20{opacity:0.2;fill:url(#SVGID_12_);enable-background:new    ;}
	.st21{fill:url(#SVGID_13_);}
	.st22{fill:url(#SVGID_14_);}
	.st23{fill:url(#SVGID_15_);}
	.st24{opacity:0.4;fill:url(#SVGID_16_);enable-background:new    ;}
	.st25{fill:url(#SVGID_17_);}
	.st26{fill:#FFFFFF;}
	.st27{fill:url(#SVGID_18_);}
	.st28{fill:url(#SVGID_19_);}
	.st29{opacity:0.2;fill:url(#SVGID_20_);enable-background:new    ;}
	.st30{fill:url(#SVGID_21_);}
	.st31{fill:url(#SVGID_22_);}
	.st32{fill:url(#SVGID_23_);}
	.st33{opacity:0.1;fill:url(#SVGID_24_);enable-background:new    ;}
	.st34{opacity:0.2;fill:url(#SVGID_25_);enable-background:new    ;}
	.st35{fill:#5038FC;}
	.st36{fill:url(#SVGID_26_);}
	.st37{fill:#2D7AEA;}
	.st38{fill:#04D3FF;}
	.st39{fill:url(#SVGID_27_);}
	.st40{fill:url(#SVGID_28_);}
	.st41{fill:#024CF6;}
	.st42{fill:#1F589B;}
	.st43{fill:#0B154C;}
	.st44{fill:url(#SVGID_29_);}
	.st45{fill:url(#SVGID_30_);}
	.st46{fill:url(#SVGID_31_);}
	.st47{fill:#F6F8FB;}
	.st48{fill:none;}
	.st49{fill:#009DFF;}
	.st50{fill:#FFE6C5;}
	.st51{fill:#2B47E1;}
	.st52{fill:url(#SVGID_32_);}
	.st53{fill:url(#SVGID_33_);}
	.st54{opacity:0.2;fill:url(#SVGID_34_);enable-background:new    ;}
	.st55{fill:url(#SVGID_35_);}
	.st56{fill:url(#SVGID_36_);}
	.st57{fill:url(#SVGID_37_);}
	.st58{fill:url(#SVGID_38_);}
	.st59{opacity:0.2;fill:url(#SVGID_39_);enable-background:new    ;}
	.st60{fill:url(#SVGID_40_);}
	.st61{fill:url(#SVGID_41_);}
	.st62{opacity:0.2;fill:url(#SVGID_42_);enable-background:new    ;}
	.st63{fill:url(#SVGID_43_);}
	.st64{fill:url(#SVGID_44_);}
	.st65{fill:url(#SVGID_45_);}
	.st66{fill:#FF8D46;}
	.st67{fill:url(#SVGID_46_);}
	.st68{fill:url(#SVGID_47_);}
	.st69{opacity:0.4;fill:#FFFFFF;enable-background:new    ;}
	.st70{fill:url(#SVGID_48_);}
	.st71{fill:url(#SVGID_49_);}
	.st72{fill:url(#SVGID_50_);}
	.st73{opacity:0.3;}
	.st74{opacity:0.3;fill:#FF8D46;enable-background:new    ;}
	.st75{fill:url(#SVGID_51_);}
	.st76{fill:url(#SVGID_52_);}
	.st77{fill:url(#SVGID_53_);}
	.st78{fill:#204EC5;}
	.st79{fill:url(#SVGID_54_);}
	.st80{opacity:0.6;}
	.st81{opacity:0.6;fill:#FFFFFF;enable-background:new    ;}
	.st82{fill:url(#SVGID_55_);}
	.st83{fill:url(#SVGID_56_);}
	.st84{opacity:0.3;fill:url(#SVGID_57_);enable-background:new    ;}
	.st85{opacity:0.3;fill:url(#SVGID_58_);enable-background:new    ;}
	.st86{opacity:0.3;fill:url(#SVGID_59_);enable-background:new    ;}
	.st87{fill:url(#SVGID_60_);}
</style>
<g>
	<defs>
		<rect id="SVGID_1_" width="644" height="400"/>
	</defs>
	<clipPath id="SVGID_2_">
		<use xlink:href="#SVGID_1_"  style="overflow:visible;"/>
	</clipPath>
	<g class="st0">
		<g class="st1">
			
				<linearGradient id="SVGID_3_" gradientUnits="userSpaceOnUse" x1="141.4374" y1="103.15" x2="559.7126" y2="103.15" gradientTransform="matrix(1 0 0 -1 0 400)">
				<stop  offset="0" style="stop-color:#000000"/>
				<stop  offset="1" style="stop-color:#000000;stop-opacity:0.2"/>
			</linearGradient>
			<path class="st2" d="M553.2,251.2c8.7,5,8.7,13.2,0.1,18.2l-249.5,145c-8.6,5-22.7,5-31.4,0L148,342.5c-8.7-5-8.7-13.2-0.1-18.2
				l249.5-145c8.6-5,22.7-5,31.4,0L553.2,251.2z"/>
		</g>
		
			<linearGradient id="SVGID_4_" gradientUnits="userSpaceOnUse" x1="141.475" y1="98.3" x2="559.875" y2="98.3" gradientTransform="matrix(1 0 0 -1 0 400)">
			<stop  offset="0" style="stop-color:#3FB6FF"/>
			<stop  offset="0.1098" style="stop-color:#3FAFFE"/>
			<stop  offset="0.273" style="stop-color:#409BFC"/>
			<stop  offset="0.4692" style="stop-color:#417AF8"/>
			<stop  offset="0.6912" style="stop-color:#424CF2"/>
			<stop  offset="0.9319" style="stop-color:#4412EB"/>
			<stop  offset="1" style="stop-color:#4400E9"/>
		</linearGradient>
		<path class="st3" d="M559.8,214.5c0,0.1,0,0.3,0,0.4c0,0.1,0,0.2,0,0.3c0,0.1,0,0.2,0,0.3s0,0.2-0.1,0.3c0,0.1,0,0.2-0.1,0.3
			c0,0.1,0,0.2-0.1,0.3c0,0.1-0.1,0.2-0.1,0.3c0,0.1-0.1,0.2-0.1,0.3s-0.1,0.2-0.1,0.3c0,0.1-0.1,0.2-0.1,0.3c0,0.1-0.1,0.2-0.1,0.3
			c-0.1,0.1-0.1,0.2-0.2,0.3c-0.1,0.1-0.1,0.2-0.2,0.4v0.1c-0.1,0.2-0.2,0.3-0.3,0.5c0,0,0,0.1-0.1,0.1c-0.1,0.2-0.2,0.3-0.4,0.5
			l-0.1,0.1c-0.1,0.1-0.2,0.3-0.4,0.4l-0.1,0.1c-0.1,0.2-0.3,0.3-0.5,0.5l-0.1,0.1c-0.1,0.1-0.3,0.2-0.4,0.4
			c-0.1,0.1-0.2,0.2-0.3,0.3c-0.1,0.1-0.2,0.2-0.3,0.3c-0.1,0.1-0.2,0.2-0.3,0.3c-0.1,0.1-0.2,0.2-0.3,0.2c-0.1,0.1-0.2,0.2-0.4,0.3
			c-0.1,0.1-0.2,0.2-0.4,0.2c-0.1,0.1-0.3,0.2-0.4,0.3c-0.2,0.1-0.3,0.2-0.5,0.3l-249.5,145c-0.2,0.1-0.5,0.3-0.7,0.4
			c-0.1,0-0.1,0.1-0.2,0.1c-0.2,0.1-0.4,0.2-0.7,0.3h-0.1c-0.3,0.1-0.5,0.2-0.8,0.4c-0.1,0-0.1,0.1-0.2,0.1
			c-0.2,0.1-0.5,0.2-0.7,0.3c0,0-0.1,0-0.1,0.1c-0.3,0.1-0.5,0.2-0.8,0.3c-0.1,0-0.1,0-0.2,0.1c-0.2,0.1-0.4,0.1-0.6,0.2
			c-0.2,0.1-0.4,0.1-0.5,0.2c-0.2,0-0.3,0.1-0.5,0.1c-0.2,0.1-0.4,0.1-0.6,0.1c-0.2,0-0.3,0.1-0.5,0.1c-0.2,0-0.4,0.1-0.6,0.1
			c-0.2,0-0.3,0.1-0.5,0.1c-0.2,0-0.4,0.1-0.6,0.1c-0.1,0-0.3,0.1-0.4,0.1c-0.4,0.1-0.8,0.1-1.3,0.2c-0.1,0-0.1,0-0.2,0
			c-0.4,0-0.7,0.1-1.1,0.1c-0.1,0-0.3,0-0.4,0c-0.2,0-0.5,0-0.7,0.1c-0.2,0-0.3,0-0.5,0c-0.2,0-0.5,0-0.7,0
			c-4.2,0.2-8.6-0.3-12.4-1.6h-0.1c-0.6-0.2-1.2-0.4-1.8-0.7c-0.1,0-0.2-0.1-0.3-0.1c-0.2-0.1-0.4-0.2-0.6-0.3
			c-0.1,0-0.2-0.1-0.3-0.1c-0.2-0.1-0.4-0.2-0.6-0.3c-0.1,0-0.2-0.1-0.3-0.1c-0.3-0.1-0.6-0.3-0.8-0.5L148,296.7
			c-3-1.7-5-3.8-5.9-6.1c-0.4-1-0.6-2-0.6-3.1v16.8c0,3.3,2.2,6.6,6.6,9.2l124.5,71.9c0.3,0.2,0.6,0.3,0.8,0.5
			c0.1,0,0.2,0.1,0.3,0.1c0.2,0.1,0.4,0.2,0.6,0.3c0.1,0.1,0.2,0.1,0.3,0.1c0.2,0.1,0.4,0.2,0.6,0.3c0.1,0,0.2,0.1,0.3,0.1
			s0.2,0.1,0.2,0.1c0.2,0.1,0.3,0.1,0.5,0.2c0,0,0,0,0.1,0c0.3,0.1,0.6,0.2,0.9,0.3c0.1,0,0.1,0,0.2,0.1c0.3,0.1,0.7,0.2,1,0.3
			c0.2,0.1,0.4,0.1,0.6,0.1c0.2,0,0.3,0.1,0.5,0.1c0.2,0.1,0.4,0.1,0.7,0.2c0.1,0,0.3,0.1,0.4,0.1c0.1,0,0.1,0,0.2,0
			c0.2,0,0.4,0.1,0.7,0.1c0.1,0,0.2,0,0.3,0.1c0.3,0.1,0.6,0.1,0.9,0.1c0.1,0,0.1,0,0.2,0s0.1,0,0.2,0c0.3,0,0.6,0.1,0.9,0.1
			c0.4,0,0.8,0.1,1.2,0.1c0.7,0.1,1.5,0.1,2.2,0.1c0.8,0,1.5,0,2.3,0c0.1,0,0.2,0,0.3,0c0.2,0,0.5,0,0.7,0c0.2,0,0.3,0,0.4,0
			c0.2,0,0.5,0,0.7-0.1c0.1,0,0.2,0,0.3,0c0.1,0,0.1,0,0.2,0c0.4,0,0.7-0.1,1.1-0.1c0.1,0,0.1,0,0.2,0c0.4-0.1,0.8-0.1,1.3-0.2h0.1
			c0.1,0,0.2,0,0.3-0.1c0.2,0,0.4-0.1,0.6-0.1s0.3-0.1,0.5-0.1s0.4-0.1,0.6-0.1c0.2,0,0.3-0.1,0.5-0.1c0.2,0,0.4-0.1,0.6-0.1
			c0.2,0,0.3-0.1,0.5-0.1c0.2-0.1,0.4-0.1,0.5-0.2c0.1,0,0.2,0,0.2-0.1c0.1,0,0.2-0.1,0.3-0.1c0.1,0,0.1,0,0.2-0.1
			c0.3-0.1,0.5-0.2,0.8-0.3c0.1,0,0.1,0,0.2-0.1c0.2-0.1,0.5-0.2,0.7-0.3c0.1,0,0.1-0.1,0.2-0.1c0.3-0.1,0.5-0.2,0.8-0.4h0.1
			c0.2-0.1,0.5-0.2,0.7-0.3c0.1,0,0.1-0.1,0.2-0.1c0.2-0.1,0.5-0.3,0.7-0.4l249.5-145c0.1-0.1,0.2-0.1,0.3-0.2
			c0.1-0.1,0.2-0.1,0.2-0.2c0.1-0.1,0.3-0.2,0.4-0.3c0.1-0.1,0.2-0.2,0.4-0.2c0.1-0.1,0.3-0.2,0.4-0.3c0.1-0.1,0.2-0.2,0.3-0.2
			c0.1-0.1,0.2-0.2,0.3-0.3c0.1-0.1,0.2-0.2,0.3-0.3c0.1-0.1,0.2-0.2,0.3-0.3l0.1-0.1c0.1-0.1,0.2-0.2,0.2-0.2l0.1-0.1
			c0.2-0.2,0.3-0.3,0.5-0.5l0.1-0.1c0.1-0.1,0.2-0.3,0.4-0.4l0.1-0.1c0.1-0.1,0.2-0.3,0.3-0.5c0,0,0-0.1,0.1-0.1
			c0.1-0.2,0.2-0.3,0.3-0.5v-0.1c0-0.1,0.1-0.1,0.1-0.2c0-0.1,0.1-0.1,0.1-0.2c0.1-0.1,0.1-0.2,0.2-0.3c0-0.1,0.1-0.2,0.1-0.3
			c0-0.1,0.1-0.2,0.1-0.3s0-0.1,0.1-0.2v-0.1c0-0.1,0.1-0.2,0.1-0.3c0-0.1,0.1-0.2,0.1-0.3c0-0.1,0.1-0.2,0.1-0.3c0-0.1,0-0.1,0-0.2
			v-0.1c0-0.1,0-0.2,0.1-0.3c0-0.1,0-0.2,0-0.3c0-0.1,0-0.2,0-0.3c0-0.1,0-0.1,0-0.2c0-0.1,0-0.1,0-0.2L559.8,214.5z"/>
		
			<linearGradient id="SVGID_5_" gradientUnits="userSpaceOnUse" x1="419.6445" y1="275.2913" x2="253.4825" y2="-28.6507" gradientTransform="matrix(1 0 0 -1 0 400)">
			<stop  offset="0" style="stop-color:#3FB6FF"/>
			<stop  offset="0.1098" style="stop-color:#3FAFFE"/>
			<stop  offset="0.273" style="stop-color:#409BFC"/>
			<stop  offset="0.4692" style="stop-color:#417AF8"/>
			<stop  offset="0.6912" style="stop-color:#424CF2"/>
			<stop  offset="0.9319" style="stop-color:#4412EB"/>
			<stop  offset="1" style="stop-color:#4400E9"/>
		</linearGradient>
		<path class="st4" d="M553.2,205.4c8.7,5,8.7,13.2,0.1,18.2l-249.5,145c-8.6,5-22.7,5-31.4,0L148,296.7c-8.7-5-8.7-13.2-0.1-18.2
			l249.5-145c8.6-5,22.7-5,31.4,0L553.2,205.4z"/>
		<path class="st5" d="M242.9,317.2c-6.2-3.6-16.1-3.6-22.2,0c-6.1,3.6-6.1,9.3,0.1,12.9c6.2,3.6,16.1,3.6,22.2,0
			C249.1,326.5,249.1,320.7,242.9,317.2z"/>
		<path class="st5" d="M527.2,208.6c5.6,3.2,5.6,8.5,0.1,11.7L320.5,340.5c-5.6,3.2-14.6,3.2-20.2,0l-110.6-63.8
			c-5.6-3.2-5.6-8.5-0.1-11.7l206.8-120.2c5.5-3.2,14.6-3.2,20.2,0L527.2,208.6z"/>
		<path class="st6" d="M149.6,304.5c-1.1-0.7-2-0.1-2,1.2c0,1.3,0.9,2.9,2,3.5c1.1,0.6,2,0.1,2-1.2S150.7,305.2,149.6,304.5z"/>
		<path class="st6" d="M157.8,309.2c-1.1-0.7-2-0.1-2,1.2c0,1.3,0.9,2.9,2,3.5c1.1,0.6,2,0.1,2-1.2
			C159.8,311.4,158.9,309.9,157.8,309.2z"/>
		<path class="st6" d="M165.9,314c-1.1-0.7-2-0.1-2,1.2c0,1.3,0.9,2.9,2,3.5c1.1,0.6,2,0.1,2-1.2S167,314.6,165.9,314z"/>
		<path class="st6" d="M174,318.7c-1.1-0.7-2-0.1-2,1.2c0,1.3,0.9,2.9,2,3.5c1.1,0.6,2,0.1,2-1.2C176.1,320.9,175.2,319.3,174,318.7
			z"/>
		<path class="st6" d="M182.2,323.4c-1.1-0.7-2-0.1-2,1.2c0,1.3,0.9,2.9,2,3.5c1.1,0.6,2,0.1,2-1.2
			C184.2,325.6,183.3,324.1,182.2,323.4z"/>
		<path class="st6" d="M190.3,328.2c-1.1-0.7-2-0.1-2,1.2c0,1.3,0.9,2.9,2,3.5c1.1,0.6,2,0.1,2-1.2
			C192.4,330.4,191.5,328.8,190.3,328.2z"/>
		<path class="st6" d="M225.2,348.9c-1.1-0.7-2-0.1-2,1.2c0,1.3,0.9,2.9,2,3.5c1.1,0.6,2,0.1,2-1.2
			C227.2,351.1,226.3,349.6,225.2,348.9z"/>
		<path class="st6" d="M233.3,353.6c-1.1-0.7-2-0.1-2,1.2c0,1.3,0.9,2.9,2,3.5c1.1,0.6,2,0.1,2-1.2
			C235.4,355.9,234.5,354.3,233.3,353.6z"/>
		<path class="st6" d="M241.5,358.4c-1.1-0.7-2-0.1-2,1.2c0,1.3,0.9,2.9,2,3.5c1.1,0.6,2,0.1,2-1.2
			C243.5,360.6,242.6,359,241.5,358.4z"/>
		<path class="st6" d="M249.6,363.1c-1.1-0.7-2-0.1-2,1.2c0,1.3,0.9,2.9,2,3.5c1.1,0.6,2,0.1,2-1.2
			C251.7,365.3,250.7,363.7,249.6,363.1z"/>
		<path class="st6" d="M257.8,367.8c-1.1-0.7-2-0.1-2,1.2s0.9,2.9,2,3.5c1.1,0.6,2,0.1,2-1.2C259.8,370,258.9,368.5,257.8,367.8z"/>
		<path class="st6" d="M265.9,372.5c-1.1-0.7-2-0.1-2,1.2c0,1.3,0.9,2.9,2,3.5c1.1,0.6,2,0.1,2-1.2
			C267.9,374.8,267,373.2,265.9,372.5z"/>
		<path class="st7" d="M214.3,341.5l-12.3-7.1c-1.3-0.7-2.3-0.1-2.3,1.3c0,1.5,1,3.3,2.3,4l12.3,7.1c1.3,0.7,2.3,0.1,2.3-1.3
			S215.6,342.3,214.3,341.5z"/>
		<path class="st5" d="M490.9,183l-37.7-21.8c-1.5-0.9-1.5-2.3,0-3.2s4-0.9,5.5,0l37.7,21.8c1.5,0.9,1.5,2.3,0,3.2
			C494.9,183.8,492.4,183.8,490.9,183z"/>
		<path class="st8" d="M293.9,236.4c-1.7,1-2.4,2.2-2.4,3.5c2.2,0,4.4-0.4,6-1.4c1.7-1,2.4-2.2,2.4-3.5
			C297.8,235,295.6,235.4,293.9,236.4z"/>
		<g class="st9">
			
				<linearGradient id="SVGID_6_" gradientUnits="userSpaceOnUse" x1="244.3" y1="172.15" x2="397.25" y2="172.15" gradientTransform="matrix(1 0 0 -1 0 400)">
				<stop  offset="0" style="stop-color:#FFCC47"/>
				<stop  offset="0.9836" style="stop-color:#FF8D46"/>
			</linearGradient>
			<path class="st10" d="M245.3,216.1c-1.3,0.7-1.3,1.9,0,2.7l90.9,52.8c1.3,0.7,3.4,0.7,4.6,0l55.5-32c1.3-0.7,1.3-1.9,0-2.7
				l-90.9-52.8c-1.3-0.7-3.4-0.7-4.6,0L245.3,216.1z"/>
		</g>
		
			<linearGradient id="SVGID_7_" gradientUnits="userSpaceOnUse" x1="314.615" y1="227.2934" x2="330.095" y2="118.1584" gradientTransform="matrix(1 0 0 -1 0 400)">
			<stop  offset="0" style="stop-color:#FFCC47"/>
			<stop  offset="0.9836" style="stop-color:#FF8D46"/>
		</linearGradient>
		<path class="st11" d="M245.6,206.5c-1.3,0.7-1.3,1.9,0,2.7l90.9,52.8c1.3,0.7,3.4,0.7,4.6,0l55.5-32c1.3-0.7,1.3-1.9,0-2.7
			l-90.9-52.8c-1.3-0.7-3.4-0.7-4.6,0L245.6,206.5z"/>
		
			<linearGradient id="SVGID_8_" gradientUnits="userSpaceOnUse" x1="325.5439" y1="94.8038" x2="322.4479" y2="152.0827" gradientTransform="matrix(1 0 0 -1 0 400)">
			<stop  offset="3.986380e-02" style="stop-color:#FFEB43"/>
			<stop  offset="1" style="stop-color:#FFBF23"/>
		</linearGradient>
		<path class="st12" d="M397.5,228.6c0,0.5-0.3,1-1,1.4L341,262c-1.3,0.7-3.4,0.7-4.6,0l-90.9-52.8c-0.6-0.4-1-0.9-1-1.3v4.8
			c0,0.5,0.3,1,1,1.3l90.9,52.8c1.3,0.7,3.4,0.7,4.6,0l55.5-32c0.6-0.4,1-0.9,1-1.4V228.6z"/>
		<path class="st13" d="M261.6,205.8c-3.2,1.8-3.2,4.8,0,6.6c1.5,0.9,3.4,1.3,5.4,1.4c-0.1-1.3,0.7-2.5,2.4-3.5s3.9-1.4,6-1.4
			c-0.1-1.1-0.8-2.3-2.3-3.1C269.8,204,264.7,204,261.6,205.8z"/>
		<path class="st14" d="M266.9,213.8c0.1,1.1,0.8,2.3,2.3,3.1c3.1,1.8,8.3,1.8,11.4,0c3.2-1.8,3.2-4.8,0-6.6
			c-1.5-0.9-3.4-1.3-5.4-1.4c0.1,1.3-0.7,2.5-2.4,3.5C271.3,213.3,269.1,213.8,266.9,213.8z"/>
		<path class="st15" d="M219.3,263.3v4.8c0,0.5,0.3,1,1,1.3v-4.8C219.7,264.3,219.3,263.8,219.3,263.3z"/>
		
			<linearGradient id="SVGID_9_" gradientUnits="userSpaceOnUse" x1="219.3" y1="118.55" x2="347.75" y2="118.55" gradientTransform="matrix(1 0 0 -1 0 400)">
			<stop  offset="0" style="stop-color:#F73E69"/>
			<stop  offset="1" style="stop-color:#FF82A3"/>
		</linearGradient>
		<path class="st16" d="M220.3,261.9c-1.3,0.7-1.3,2,0,2.7l91.5,53.2c1.3,0.7,3.4,0.7,4.7,0l30.3-16.8c1.3-0.7,1.3-2,0-2.7
			l-91.5-53.2c-1.3-0.7-3.4-0.7-4.7,0L220.3,261.9z"/>
		<g class="st9">
			
				<linearGradient id="SVGID_10_" gradientUnits="userSpaceOnUse" x1="219.3" y1="108.45" x2="347.75" y2="108.45" gradientTransform="matrix(1 0 0 -1 0 400)">
				<stop  offset="0" style="stop-color:#F73E69"/>
				<stop  offset="1" style="stop-color:#FF82A3"/>
			</linearGradient>
			<path class="st17" d="M220.3,272c-1.3,0.7-1.3,2,0,2.7l91.5,53.2c1.3,0.7,3.4,0.7,4.7,0l30.3-16.8c1.3-0.7,1.3-2,0-2.7
				l-91.5-53.2c-1.3-0.7-3.4-0.7-4.7,0L220.3,272z"/>
		</g>
		<path class="st15" d="M347.8,299.7c0,0.5-0.3,1-1,1.4l-30.3,16.8c-1.3,0.7-3.4,0.7-4.7,0l-91.5-53.2v4.8l91.5,53.2
			c1.3,0.7,3.4,0.7,4.7,0l30.3-16.8c0.7-0.4,1-0.9,1-1.4V299.7z"/>
		
			<linearGradient id="SVGID_11_" gradientUnits="userSpaceOnUse" x1="478.6277" y1="129.471" x2="449.6017" y2="256.408" gradientTransform="matrix(1 0 0 -1 0 400)">
			<stop  offset="0" style="stop-color:#3368F2"/>
			<stop  offset="1" style="stop-color:#23C2FC"/>
		</linearGradient>
		<path class="st18" d="M391.3,209.3c-1.3,0.7-1.3,2,0,2.7l91.5,53.2c1.3,0.7,3.4,0.7,4.7,0l55.9-32.3c1.3-0.7,1.3-2,0-2.7
			L451.8,177c-1.3-0.7-3.4-0.7-4.7,0L391.3,209.3z"/>
		<g class="st19">
			
				<linearGradient id="SVGID_12_" gradientUnits="userSpaceOnUse" x1="478.6288" y1="119.6662" x2="449.6028" y2="246.6032" gradientTransform="matrix(1 0 0 -1 0 400)">
				<stop  offset="0" style="stop-color:#3368F2"/>
				<stop  offset="1" style="stop-color:#23C2FC"/>
			</linearGradient>
			<path class="st20" d="M391.3,219.1c-1.3,0.7-1.3,2,0,2.7l91.5,53.2c1.3,0.7,3.4,0.7,4.7,0l55.9-32.3c1.3-0.7,1.3-2,0-2.7
				l-91.5-53.2c-1.3-0.7-3.4-0.7-4.7,0L391.3,219.1z"/>
		</g>
		
			<linearGradient id="SVGID_13_" gradientUnits="userSpaceOnUse" x1="431.0027" y1="158.407" x2="597.8017" y2="182.401" gradientTransform="matrix(1 0 0 -1 0 400)">
			<stop  offset="0" style="stop-color:#2AA3FF"/>
			<stop  offset="1" style="stop-color:#AAEFFF"/>
		</linearGradient>
		<path class="st21" d="M544.3,231.6c0,0.5-0.3,1-1,1.4l-55.9,32.3c-1.3,0.7-3.4,0.7-4.7,0L391.2,212c-0.6-0.4-1-0.9-1-1.3v4.8
			c0,0.5,0.3,1,1,1.3l91.5,53.2c1.3,0.7,3.4,0.7,4.7,0l55.9-32.3c0.7-0.4,1-0.9,1-1.4V231.6z"/>
		
			<linearGradient id="SVGID_14_" gradientUnits="userSpaceOnUse" x1="404.937" y1="188.0564" x2="421.187" y2="188.0564" gradientTransform="matrix(1 0 0 -1 0 400)">
			<stop  offset="0" style="stop-color:#FFCC47"/>
			<stop  offset="0.9836" style="stop-color:#FF8D46"/>
		</linearGradient>
		<path class="st22" d="M407.4,208.6c-3.2,1.8-3.2,4.8,0,6.7c1.5,0.9,3.4,1.3,5.4,1.4c-0.1-1.3,0.7-2.5,2.4-3.5
			c1.7-1,3.9-1.4,6.1-1.4c-0.1-1.1-0.8-2.3-2.3-3.1C415.7,206.7,410.5,206.7,407.4,208.6z"/>
		
			<linearGradient id="SVGID_15_" gradientUnits="userSpaceOnUse" x1="412.725" y1="185.85" x2="421.192" y2="185.85" gradientTransform="matrix(1 0 0 -1 0 400)">
			<stop  offset="0" style="stop-color:#FFCC47"/>
			<stop  offset="0.9836" style="stop-color:#FF8D46"/>
		</linearGradient>
		<path class="st23" d="M415.1,213.1c-1.7,1-2.5,2.2-2.4,3.5c2.2,0,4.4-0.4,6.1-1.4c1.7-1,2.5-2.2,2.4-3.5
			C419,211.7,416.8,212.1,415.1,213.1z"/>
		<path class="st14" d="M412.8,216.6c0.1,1.1,0.8,2.3,2.3,3.1c3.2,1.8,8.3,1.8,11.5,0c3.2-1.8,3.2-4.8,0-6.7
			c-1.5-0.9-3.5-1.3-5.4-1.4c0.1,1.3-0.7,2.5-2.4,3.5C417.2,216.2,414.9,216.7,412.8,216.6z"/>
		
			<linearGradient id="SVGID_16_" gradientUnits="userSpaceOnUse" x1="371.95" y1="111.55" x2="434.825" y2="111.55" gradientTransform="matrix(1 0 0 -1 0 400)">
			<stop  offset="0" style="stop-color:#F7DA5C"/>
			<stop  offset="1" style="stop-color:#F15DAB"/>
		</linearGradient>
		<path class="st24" d="M381.2,275.6c12.2-7.1,32.3-7.1,44.5,0c12.2,7.1,12.2,18.6,0,25.7c-12.2,7.1-32.3,7.1-44.5,0
			C368.9,294.3,368.9,282.7,381.2,275.6z"/>
		
			<linearGradient id="SVGID_17_" gradientUnits="userSpaceOnUse" x1="377.275" y1="117.45" x2="437.6774" y2="117.45" gradientTransform="matrix(1 0 0 -1 0 400)">
			<stop  offset="0" style="stop-color:#F7DA5C"/>
			<stop  offset="1" style="stop-color:#F15DAB"/>
		</linearGradient>
		<path class="st25" d="M437.7,278.2l-3.4-3.7c-1.4-1.5-3.2-3-5.4-4.3c-11.8-6.8-31-6.8-42.8,0c-2.2,1.3-4.1,2.7-5.4,4.3l-3.4,3.7
			v4.3c0,4.5,2.9,9,8.8,12.4c11.8,6.8,31,6.8,42.8,0c5.9-3.4,8.9-7.9,8.8-12.4V278.2L437.7,278.2z"/>
		<path class="st26" d="M386.1,265.9c11.8-6.8,31-6.8,42.8,0c11.8,6.8,11.8,17.9,0,24.7c-11.8,6.8-31,6.8-42.8,0
			C374.3,283.8,374.3,272.7,386.1,265.9z"/>
		
			<linearGradient id="SVGID_18_" gradientUnits="userSpaceOnUse" x1="396.436" y1="123.3999" x2="422.997" y2="123.3999" gradientTransform="matrix(1 0 0 -1 0 400)">
			<stop  offset="0" style="stop-color:#FFCC47"/>
			<stop  offset="0.9836" style="stop-color:#FF8D46"/>
		</linearGradient>
		<path class="st27" d="M415.9,286.2c0,0-0.6,0-0.8,0l-18-1.6l-0.6-12.3c0-1.5,0.7-3,2.3-4c3.3-2.1,8.8-1.6,12.3,1.1
			c1.8,1.4,2.7,3,2.8,4.6c2.3,0.2,4.6,1,6.3,2.3c3.5,2.7,3.7,6.5,0.4,8.6C419.4,285.7,417.7,286.1,415.9,286.2z"/>
		
			<linearGradient id="SVGID_19_" gradientUnits="userSpaceOnUse" x1="433.325" y1="200.7" x2="465.225" y2="200.7" gradientTransform="matrix(1 0 0 -1 0 400)">
			<stop  offset="0" style="stop-color:#FFCC47"/>
			<stop  offset="0.9836" style="stop-color:#FF8D46"/>
		</linearGradient>
		<path class="st28" d="M460.6,192.8c-6.2-3.6-16.4-3.6-22.6,0c-6.2,3.6-6.2,9.4,0,13c6.2,3.6,16.4,3.6,22.6,0
			C466.8,202.3,466.8,196.4,460.6,192.8z"/>
		<path class="st26" d="M454.9,203.3l-12.1-2.2c-1-0.3-1.5-1.1-1-1.3l9.5-4.5c0.5-0.3,1.7,0.2,2.2,0.8l2.6,6.7
			C456.5,203.4,455.8,203.7,454.9,203.3l-12.1-2.2c-1-0.3-1.5-1.1-1-1.3l9.5-4.5c0.5-0.3,1.7,0.2,2.2,0.8l2.6,6.7
			C456.5,203.4,455.8,203.7,454.9,203.3z"/>
		<path class="st5" d="M470.2,214.6l43.5,25.4l-4.5,2.7l-43.6-25.4L470.2,214.6z"/>
		<path class="st5" d="M460.6,220.1l43.5,25.4l-4.5,2.6l-43.5-25.4L460.6,220.1z"/>
		<path class="st5" d="M451,225.5l26.7,15.8l-4.6,2.7l-26.6-15.9L451,225.5z"/>
		<path class="st5" d="M231.7,261.2l9.4-5.5l10.4,6l-9.4,5.5L231.7,261.2z"/>
		<path class="st5" d="M246.2,268.9l3.5-2l75,43.2l-3.5,2.1L246.2,268.9z"/>
		<path class="st5" d="M251.6,265.8l3.5-2l75,43.2l-3.5,2L251.6,265.8z"/>
		<path class="st5" d="M275.7,260.6l-6.7,3.9l-1.1-0.6l6.8-3.9L275.7,260.6z"/>
		<path class="st5" d="M277.7,263.8c1.2,0.7,1.2,1.4-0.2,2.2l-3,1.7l-1-0.6l2.9-1.7c0.8-0.5,0.9-0.9,0.1-1.4c-0.3-0.2-0.6-0.3-1-0.3
			c-0.5,0-0.9,0.1-1.3,0.3l-2.9,1.7l-1-0.6l4.9-2.8l1,0.6l-0.6,0.3c0.4,0,0.8,0,1.2,0.1C277,263.5,277.4,263.6,277.7,263.8z"/>
		<path class="st5" d="M310.9,282.9c1.2,0.7,1.2,1.4-0.2,2.2l-3,1.7l-1-0.6l2.9-1.7c0.8-0.5,0.9-0.9,0.1-1.4c-0.3-0.2-0.6-0.3-1-0.3
			c-0.5,0-0.9,0.1-1.3,0.3l-2.9,1.7l-1-0.6l4.9-2.8l1,0.6l-0.6,0.3c0.4,0,0.8,0,1.2,0.1C310.2,282.6,310.6,282.8,310.9,282.9z"/>
		<path class="st5" d="M284.7,268l-6.7,1.7l-1-0.6l3-3.8l1.1,0.6l-2.4,2.8l4.9-1.4L284.7,268z"/>
		<path class="st5" d="M280.6,271.3l4.9-2.9l1,0.6l-4.9,2.8L280.6,271.3z"/>
		<path class="st5" d="M290.9,269.7l-1.6,0.9l1.1,0.6l-0.8,0.5l-1.1-0.6l-2.8,1.6c-0.1,0.1-0.2,0.1-0.2,0.2s0.1,0.1,0.2,0.2l0.6,0.4
			l-0.8,0.5l-0.8-0.5c-0.4-0.2-0.6-0.5-0.6-0.7c0-0.2,0.2-0.4,0.6-0.7l2.8-1.6l-0.9-0.5l0.8-0.5l0.9,0.5l1.2-0.7L290.9,269.7z"/>
		<path class="st5" d="M294.6,274.2c0,0.4-0.3,0.7-0.9,1l-3.1,1.8l-0.9-0.5l0.7-0.4c-0.4,0-0.9,0-1.3-0.1c-0.5-0.1-0.9-0.3-1.4-0.5
			c-0.5-0.3-0.8-0.6-0.8-0.9c0-0.3,0.2-0.6,0.6-0.9c0.6-0.4,1.3-0.5,2.1-0.4c0.7,0.1,1.3,0.3,2,0.7l1.1,0.6l0.1-0.1
			c0.7-0.4,0.6-0.8-0.1-1.2c-0.3-0.2-0.7-0.3-1-0.4c-0.4,0-0.7,0-1,0.1l-1-0.6c0.7-0.3,1.3-0.4,2-0.3c0.6,0.1,1.2,0.3,1.9,0.7
			C294.3,273.4,294.7,273.8,294.6,274.2z M291.7,275.3l0.3-0.1l-1-0.6c-0.9-0.5-1.7-0.6-2.3-0.2c-0.2,0.1-0.3,0.2-0.3,0.4
			c0,0.2,0.2,0.3,0.4,0.5c0.4,0.3,0.9,0.4,1.5,0.4C290.8,275.6,291.3,275.5,291.7,275.3z"/>
		<path class="st5" d="M301.4,276.9c-0.2-0.1-0.3-0.2-0.3-0.4s0.1-0.3,0.3-0.4c0.2-0.1,0.4-0.2,0.7-0.2c0.2,0,0.5,0.1,0.7,0.2
			c0.2,0.1,0.3,0.3,0.3,0.4s-0.1,0.3-0.3,0.4c-0.2,0.1-0.4,0.2-0.7,0.2C301.8,277.1,301.6,277,301.4,276.9z"/>
		<path class="st5" d="M299.7,274.8l-1.6,0.9l1.1,0.6l-0.8,0.5l-1.1-0.6l-2.8,1.6c-0.1,0.1-0.2,0.1-0.2,0.2s0.1,0.1,0.2,0.2l0.6,0.4
			l-0.8,0.5l-0.8-0.5c-0.4-0.2-0.6-0.5-0.6-0.7c0-0.2,0.2-0.4,0.6-0.7l2.8-1.6l-0.9-0.5l0.8-0.5l0.9,0.5l1.2-0.7L299.7,274.8z"/>
		<path class="st5" d="M295.4,279.8l4.9-2.8l1,0.5l-4.9,2.9L295.4,279.8z"/>
		<path class="st5" d="M306.1,281c0,0.5-0.4,1-1.2,1.4c-0.7,0.4-1.6,0.7-2.5,0.7c-1,0-1.8-0.2-2.5-0.6s-1.1-0.9-1-1.5
			c0-0.5,0.4-1,1.2-1.4c0.7-0.4,1.6-0.7,2.5-0.7c0.9,0,1.8,0.2,2.5,0.6C305.7,280,306.1,280.5,306.1,281z M302.3,282.4
			c0.5-0.1,1.1-0.2,1.5-0.5c0.5-0.3,0.8-0.6,0.9-0.9c0.1-0.4-0.1-0.7-0.5-0.9c-0.5-0.3-1-0.4-1.6-0.3c-0.5,0-1,0.2-1.5,0.5
			c-0.5,0.3-0.8,0.6-0.9,0.9c-0.1,0.4,0.1,0.7,0.5,0.9C301.1,282.3,301.7,282.4,302.3,282.4z"/>
		<path class="st5" d="M286.6,268.4c-0.2-0.1-0.3-0.2-0.3-0.4s0.1-0.3,0.3-0.4c0.2-0.1,0.4-0.2,0.7-0.2c0.2,0,0.5,0.1,0.7,0.2
			c0.2,0.1,0.3,0.3,0.3,0.4s-0.1,0.3-0.3,0.4c-0.2,0.1-0.4,0.2-0.7,0.2C287,268.5,286.8,268.5,286.6,268.4z"/>
		
			<linearGradient id="SVGID_20_" gradientUnits="userSpaceOnUse" x1="363.7" y1="220.7" x2="413.175" y2="220.7" gradientTransform="matrix(1 0 0 -1 0 400)">
			<stop  offset="0" style="stop-color:#F7DA5C"/>
			<stop  offset="1" style="stop-color:#F15DAB"/>
		</linearGradient>
		<path class="st29" d="M371,169.2c9.6-5.6,25.4-5.6,35,0c9.6,5.6,9.6,14.6,0,20.2c-9.6,5.6-25.4,5.6-35,0
			C361.3,183.8,361.3,174.8,371,169.2z"/>
		
			<linearGradient id="SVGID_21_" gradientUnits="userSpaceOnUse" x1="368.275" y1="228.65" x2="416.175" y2="228.65" gradientTransform="matrix(1 0 0 -1 0 400)">
			<stop  offset="0" style="stop-color:#F7DA5C"/>
			<stop  offset="1" style="stop-color:#F15DAB"/>
		</linearGradient>
		<path class="st30" d="M416.2,167.9l-2.7-2.9c-1.1-1.2-2.5-2.4-4.3-3.4c-9.3-5.4-24.6-5.4-33.9,0c-1.8,1-3.2,2.2-4.3,3.4l-2.7,2.9
			v3.4c0,3.6,2.3,7.1,7,9.8c9.3,5.4,24.6,5.4,33.9,0c4.7-2.7,7-6.3,7-9.8V167.9z"/>
		<path class="st26" d="M375.3,158.1c9.3-5.4,24.6-5.4,33.9,0c9.3,5.4,9.3,14.2,0,19.6c-9.3,5.4-24.6,5.4-33.9,0
			C366,172.3,366,163.5,375.3,158.1z"/>
		
			<linearGradient id="SVGID_22_" gradientUnits="userSpaceOnUse" x1="382.174" y1="232.15" x2="405.595" y2="232.15" gradientTransform="matrix(1 0 0 -1 0 400)">
			<stop  offset="0" style="stop-color:#FFCC47"/>
			<stop  offset="0.9836" style="stop-color:#FF8D46"/>
		</linearGradient>
		<path class="st31" d="M392.5,173.4c-1.7,0.8-4.5,0.6-6.1-0.3c-1.7-0.9-1.6-2.3,0.1-3.1c0.3-0.1,0.7-0.2,1.1-0.3l-1.1-3.5
			c-1.1-0.1-2.2-0.3-3-0.8c-1.7-0.9-1.6-2.3,0.1-3.1c1.7-0.8,4.5-0.6,6.1,0.3c0.8,0.5,1.2,1.1,1.2,1.6l6.5,1
			c0.2-0.2,0.5-0.4,0.8-0.6c1.7-0.8,4.5-0.6,6.1,0.3c1.7,0.9,1.6,2.3-0.1,3.1c-1.7,0.8-4.5,0.6-6.1-0.3c-0.8-0.5-1.2-1-1.2-1.5
			l-6.6-1c-0.2,0.2-0.4,0.3-0.8,0.5c-0.3,0.2-0.7,0.3-1.2,0.3l1.1,3.4c1.1,0.1,2.2,0.3,3,0.8C394.2,171.3,394.2,172.7,392.5,173.4z"
			/>
		<path class="st26" d="M314.7,203.1l3-1.3l55.7,31.5l-3,1.4L314.7,203.1z"/>
		<path class="st26" d="M307.6,207.4l3-1.4l55.7,31.5l-3,1.4L307.6,207.4z"/>
		<path class="st26" d="M300.2,211.3l3-1.4l55.7,31.5l-3,1.4L300.2,211.3z"/>
		
			<linearGradient id="SVGID_23_" gradientUnits="userSpaceOnUse" x1="282.49" y1="205.55" x2="307.164" y2="205.55" gradientTransform="matrix(1 0 0 -1 0 400)">
			<stop  offset="0" style="stop-color:#F73E69"/>
			<stop  offset="1" style="stop-color:#FF82A3"/>
		</linearGradient>
		<path class="st32" d="M303.5,188.2c4.8,3.5,4.9,9.1,0.1,12.5c-4.8,3.5-12.6,3.5-17.4,0c-4.8-3.5-4.9-9.1-0.1-12.5
			C290.9,184.7,298.7,184.7,303.5,188.2z"/>
		<path class="st26" d="M301.6,192.9c0-1.7-1.9-3-4.2-3c-2.3,0-4.2,1.3-4.2,3c0,1.7,1.9,3,4.2,3
			C299.8,195.9,301.6,194.5,301.6,192.9z"/>
		<path class="st26" d="M293.9,194.1c-2.7-1.9-7.1-1.9-9.8,0c-0.6,0.5-1.1,1-1.4,1.5c0.4,1.8,1.5,3.6,3.5,5c1.1,0.8,2.4,1.4,3.8,1.8
			c1.4-0.1,2.8-0.6,3.9-1.4C296.6,199.2,296.6,196.1,293.9,194.1z"/>
		<g class="st1">
			<g class="st1">
				
					<linearGradient id="SVGID_24_" gradientUnits="userSpaceOnUse" x1="566.2349" y1="106.077" x2="580.212" y2="148.006" gradientTransform="matrix(1 0 0 -1 0 400)">
					<stop  offset="0" style="stop-color:#000000"/>
					<stop  offset="1" style="stop-color:#000000;stop-opacity:0.2"/>
				</linearGradient>
				<path class="st33" d="M568.6,254.3l-56.4,32.5l56.3,32.6L625,287L568.6,254.3z"/>
			</g>
		</g>
		<g class="st19">
			<g class="st19">
				
					<linearGradient id="SVGID_25_" gradientUnits="userSpaceOnUse" x1="208.4969" y1="176.3896" x2="189.6129" y2="247.7286" gradientTransform="matrix(1 0 0 -1 0 400)">
					<stop  offset="0" style="stop-color:#000000"/>
					<stop  offset="1" style="stop-color:#000000;stop-opacity:0.2"/>
				</linearGradient>
				<path class="st34" d="M202.1,170.7l-49.6,28.6L202,228l49.7-28.6L202.1,170.7z"/>
			</g>
		</g>
		<path class="st35" d="M486.2,150.1v3.4c0,0.8,0.5,1.5,1.5,2.1c2,1.2,5.3,1.2,7.4,0c1-0.6,1.5-1.3,1.5-2.1v-3.4H486.2z"/>
		
			<linearGradient id="SVGID_26_" gradientUnits="userSpaceOnUse" x1="486.135" y1="249.8375" x2="496.535" y2="249.8375" gradientTransform="matrix(1 0 0 -1 0 400)">
			<stop  offset="0" style="stop-color:#3FB6FF"/>
			<stop  offset="0.1098" style="stop-color:#3FAFFE"/>
			<stop  offset="0.273" style="stop-color:#409BFC"/>
			<stop  offset="0.4692" style="stop-color:#417AF8"/>
			<stop  offset="0.6912" style="stop-color:#424CF2"/>
			<stop  offset="0.9319" style="stop-color:#4412EB"/>
			<stop  offset="1" style="stop-color:#4400E9"/>
		</linearGradient>
		<path class="st36" d="M495,152.3c2-1.2,2-3.1,0-4.2c-2-1.2-5.3-1.2-7.4,0c-2,1.2-2,3.1,0,4.2C489.7,153.4,493,153.4,495,152.3z"/>
		<path class="st26" d="M490,166.3c-0.3,0-0.6-0.1-0.9-0.2c-0.6-0.4-0.9-1.1-0.9-2h0.8c0,0.6,0.2,1.1,0.6,1.3
			c0.4,0.2,0.9,0.2,1.4-0.2c0.6-0.4,1.2-1,1.7-1.8c0.5-0.8,0.7-1.6,0.7-2.3c0-0.6-0.2-1.1-0.6-1.3c-0.4-0.2-0.9-0.2-1.4,0.2
			l-0.6,0.3v-5.9h0.8v4.6c0.6-0.2,1.2-0.2,1.6,0.1c0.6,0.4,0.9,1.1,0.9,2c0,0.9-0.3,1.8-0.8,2.7c-0.5,0.9-1.2,1.6-2,2.1
			C490.8,166.1,490.4,166.3,490,166.3z"/>
		<path class="st26" d="M490.7,117.9l-0.1,32.3l0.8,0l0.1-32.3L490.7,117.9z"/>
		<path class="st37" d="M620.5,41.3l-18.4,6.2v4.4l18.4,10.7L639,51.9v-4.3L620.5,41.3z"/>
		<path class="st38" d="M620.5,36.9l-18.4,10.6l18.4,10.7L639,47.6L620.5,36.9z"/>
		<path class="st37" d="M620.6,33.8L602.1,40v4.4l18.4,10.7L639,44.4V40L620.6,33.8z"/>
		<path class="st38" d="M620.6,29.4L602.1,40l18.4,10.7L639,40L620.6,29.4z"/>
		<path class="st37" d="M620.6,26.3l-18.5,6.2v4.4l18.4,10.6L639,36.9v-4.4L620.6,26.3z"/>
		<path class="st38" d="M620.6,21.9l-18.5,10.6l18.4,10.6L639,32.5L620.6,21.9z"/>
		<path class="st37" d="M620.6,18.7L602.1,25v4.4L620.5,40L639,29.4V25L620.6,18.7z"/>
		<path class="st38" d="M620.6,14.4L602.1,25l18.4,10.6L639,25L620.6,14.4z"/>
		<path class="st37" d="M620.6,11.2l-18.5,6.3v4.4l18.4,10.6L639,21.9v-4.4L620.6,11.2z"/>
		<path class="st38" d="M620.6,6.8l-18.5,10.7l18.5,10.6L639,17.5L620.6,6.8z"/>
		
			<linearGradient id="SVGID_27_" gradientUnits="userSpaceOnUse" x1="532.375" y1="116.95" x2="609.575" y2="116.95" gradientTransform="matrix(1 0 0 -1 0 400)">
			<stop  offset="0" style="stop-color:#FFCC47"/>
			<stop  offset="0.9836" style="stop-color:#FF8D46"/>
		</linearGradient>
		<path class="st39" d="M571.1,260.8L532.4,278v5l38.5,22.3l38.7-22.1v-5L571.1,260.8z"/>
		<path class="st26" d="M571.1,255.8L532.4,278l38.6,22.4l38.6-22.2L571.1,255.8z"/>
		
			<linearGradient id="SVGID_28_" gradientUnits="userSpaceOnUse" x1="546.175" y1="123.6" x2="595.79" y2="123.6" gradientTransform="matrix(1 0 0 -1 0 400)">
			<stop  offset="0" style="stop-color:#FFCC47"/>
			<stop  offset="0.9836" style="stop-color:#FF8D46"/>
		</linearGradient>
		<path class="st40" d="M571.1,262.1l-24.8,1.1l-0.1,13.2l24.8,14.3l24.8-14.2l0.1-13.2L571.1,262.1z"/>
		<path class="st26" d="M571.1,249l-24.8,14.2l24.7,14.4l24.9-14.3L571.1,249z"/>
		<path class="st41" d="M556.4,146.4l-0.2,116.5l2.3,0l0.2-116.5L556.4,146.4z"/>
		<path class="st41" d="M571.5,270.3l-1.2,0.4l-1.1-0.4l0.2-130.2l2.3-0.4L571.5,270.3z"/>
		<path class="st42" d="M569.5,245.8l-12,7.4l1.2,2l12-7.4L569.5,245.8z"/>
		<path class="st42" d="M571,245.8l-1.2,2l12,7.4l1.2-2L571,245.8z"/>
		<path class="st42" d="M569.7,153.3l-12,7.4l1.2,2l12-7.4L569.7,153.3z"/>
		<path class="st42" d="M571.3,140l-1.2,2l12,7.4l1.2-2L571.3,140z"/>
		<path class="st42" d="M569.6,166.5l-12,7.4l1.2,2l12-7.4L569.6,166.5z"/>
		<path class="st42" d="M569.6,179.7l-12,7.4l1.2,2l12-7.4L569.6,179.7z"/>
		<path class="st42" d="M569.6,192.9l-12,7.4l1.2,2l12-7.4L569.6,192.9z"/>
		<path class="st42" d="M569.7,206.1l-12,7.4l1.2,2l12-7.4L569.7,206.1z"/>
		<path class="st42" d="M569.6,219.4l-12,7.4l1.2,2l12-7.4L569.6,219.4z"/>
		<path class="st42" d="M569.5,232.6l-12,7.4l1.2,2l12-7.4L569.5,232.6z"/>
		<path class="st42" d="M571.2,153.3l-1.2,2l12,7.4l1.2-2L571.2,153.3z"/>
		<path class="st42" d="M571.1,166.4l-1.2,2l12,7.4l1.2-2L571.1,166.4z"/>
		<path class="st42" d="M571.1,179.6l-1.2,2l12,7.4l1.2-2L571.1,179.6z"/>
		<path class="st42" d="M571,192.9l-1.2,2l12,7.4l1.2-2L571,192.9z"/>
		<path class="st42" d="M571.1,206.2l-1.2,2l12,7.4l1.2-2L571.1,206.2z"/>
		<path class="st42" d="M571.1,219.4l-1.2,2l12,7.4l1.2-2L571.1,219.4z"/>
		<path class="st42" d="M571,232.5l-1.2,2l12,7.4l1.2-2L571,232.5z"/>
		<path class="st42" d="M571.3,87.1l-1.2,2l12,7.4l1.2-2L571.3,87.1z"/>
		<path class="st42" d="M569.8,87.2l-12,7.4l1.2,2l12-7.4L569.8,87.2z"/>
		<path class="st42" d="M569.8,100.4l-12,7.4l1.2,2l12-7.4L569.8,100.4z"/>
		<path class="st42" d="M569.8,113.6l-12,7.4l1.2,2l12-7.4L569.8,113.6z"/>
		<path class="st42" d="M569.7,126.8l-12,7.4l1.2,2l12-7.4L569.7,126.8z"/>
		<path class="st42" d="M569.7,140l-12,7.4l1.2,2l12-7.4L569.7,140z"/>
		<path class="st42" d="M571.3,100.4l-1.2,2l12,7.4l1.2-2L571.3,100.4z"/>
		<path class="st42" d="M571.2,113.6l-1.2,2l12,7.4l1.2-2L571.2,113.6z"/>
		<path class="st42" d="M571.2,126.8l-1.2,2l12,7.4l1.2-2L571.2,126.8z"/>
		<path class="st42" d="M583.4,34.9l0,14.9l2.3,0l0-14.9L583.4,34.9z"/>
		<path class="st42" d="M609.6,50.2l-12.9-7.4l1.2-1.9l12.8,7.3L609.6,50.2z"/>
		<path class="st42" d="M596.8,27.8l0,14.9l2.3,0l0-14.9L596.8,27.8z"/>
		<path class="st42" d="M596.2,57.2l-12.9-7.3l1.2-2l12.8,7.4L596.2,57.2z"/>
		<path class="st42" d="M582.1,83.3l-26.2-16.1l1.3-1.9l26.1,16.1L582.1,83.3z"/>
		<path class="st42" d="M478.8,110.5l-1.2,2l11.2,6.5l1.2-2L478.8,110.5z"/>
		<path class="st42" d="M490.1,104.5l-1.2,2l11.2,6.5l1.2-2L490.1,104.5z"/>
		<path class="st42" d="M501.5,98.4l-1.2,2l11.2,6.5l1.2-2L501.5,98.4z"/>
		<path class="st42" d="M512.7,91.3l-1.2,2l11.2,6.5l1.2-2L512.7,91.3z"/>
		<path class="st42" d="M524,84.4l-1.2,2l11.2,6.5l1.2-2L524,84.4z"/>
		<path class="st42" d="M535.4,78.2l-1.2,2l11.2,6.5l1.2-2L535.4,78.2z"/>
		<path class="st42" d="M546.6,70.9l-1.2,2l11.2,6.5l1.2-2L546.6,70.9z"/>
		<path class="st42" d="M477.7,97.7l0,12.5l2.3,0l0-12.5L477.7,97.7z"/>
		<path class="st42" d="M488.9,91.4l0,12.5l2.3,0l0-12.5L488.9,91.4z"/>
		<path class="st42" d="M500.2,84l0,12.5l2.3,0l0-12.5L500.2,84z"/>
		<path class="st42" d="M511.6,77.1l0,14.2l2.3,0l0-14.2L511.6,77.1z"/>
		<path class="st42" d="M522.9,71.2l0,12.5l2.3,0l0-12.5L522.9,71.2z"/>
		<path class="st42" d="M534.3,64.2l0,12.5l2.3,0l0-12.5L534.3,64.2z"/>
		<path class="st42" d="M545.5,57.9l0,12.5l2.3,0l0-12.5L545.5,57.9z"/>
		<path class="st42" d="M555,50.8l0,14.1l2.3,0l0-14.1L555,50.8z"/>
		<path class="st42" d="M568.6,44.1l0,13.8l2.3,0l0-13.8L568.6,44.1z"/>
		<path class="st42" d="M570.3,57.8l-1.1,2l12.7,7.2l1.1-2L570.3,57.8z"/>
		<path class="st37" d="M456.8,123.5l-1.2,1.9l12,7.7l1.2-1.9L456.8,123.5z"/>
		<path class="st37" d="M523.6,69.2l-1.2,1.9l12.4,7.9l1.2-1.9L523.6,69.2z"/>
		<path class="st37" d="M455.6,125.4v-3.8l9.9-19.7l138-79.4l2.3,1.3l-138.5,79.7l-9,17.7l19.9-11.5l1.2,1.9l-20.1,11.7L455.6,125.4
			z"/>
		<path class="st37" d="M467.1,132.4V130l10.5-19.8l139.1-80l2.5,1.3l-139.8,80.3l-9.4,17.8l143.7-83l2.3,1.3l-145.1,83.8l-2.4,1.4
			C467.8,133.5,467.1,133.1,467.1,132.4z"/>
		<path class="st37" d="M545.5,72.2l0,14.9l2.3,0l0-14.9L545.5,72.2z"/>
		<path class="st37" d="M595.6,43.1l0,14.1l2.3,0l0-14.1L595.6,43.1z"/>
		<path class="st37" d="M477.6,110.6l0,14.9l2.3,0l0-14.9L477.6,110.6z"/>
		<path class="st37" d="M488.9,104.9l0,14.9l2.3,0l0-14.9L488.9,104.9z"/>
		<path class="st37" d="M500.3,97.6l0,14.9l2.3,0l0-14.9L500.3,97.6z"/>
		<path class="st37" d="M511.6,91.2l0,14.9l2.3,0l0-14.9L511.6,91.2z"/>
		<path class="st37" d="M522.9,85.1l0,14.9l2.3,0l0-14.9L522.9,85.1z"/>
		<path class="st37" d="M534.2,78.6l0,14.9l2.3,0l0-14.9L534.2,78.6z"/>
		<path class="st37" d="M611.5,50.8l-2.4-0.6V35.3h2.3L611.5,50.8z"/>
		<path class="st37" d="M467,101.7l-1.2,1.9l12.4,7.9l1.2-1.9L467,101.7z"/>
		<path class="st37" d="M478.3,95.5l-1.2,1.9l12.4,7.9l1.2-1.9L478.3,95.5z"/>
		<path class="st37" d="M489.6,89.3l-1.2,1.9l12.4,7.9l1.2-1.9L489.6,89.3z"/>
		<path class="st37" d="M500.9,82.3l-1.2,1.9l12.4,7.9l1.2-1.9L500.9,82.3z"/>
		<path class="st37" d="M511.7,75.5l-1.2,1.9l12.4,7.9l1.2-1.9L511.7,75.5z"/>
		<path class="st37" d="M534.8,62.3l-1.2,1.9l12.4,7.9l1.2-1.9L534.8,62.3z"/>
		<path class="st37" d="M546.1,56.8l-1.2,1.9l12.4,7.9l1.2-1.9L546.1,56.8z"/>
		<path class="st37" d="M558.7,49.1l-1.2,1.9l12.4,7.9l1.2-1.9L558.7,49.1z"/>
		<path class="st37" d="M582.7,52l-13.2-8.7l1.2-1.9l13.2,8.7L582.7,52z"/>
		<path class="st37" d="M583.9,33.8l-1.2,1.9l12.4,7.9l1.2-1.9L583.9,33.8z"/>
		<path class="st37" d="M598.1,26.7l-1.2,1.9l12.4,7.9l1.2-1.9L598.1,26.7z"/>
		<path class="st37" d="M556.4,146.4l-0.2,116.5l2.3,0l0.2-116.5L556.4,146.4z"/>
		<path class="st37" d="M584.6,132.2l0.1-81.7h-2.3l-0.2,133.1l-0.2,79.3l2.3,0.1l0.2-79.4v-1.1L584.6,132.2z"/>
		<path class="st37" d="M571.9,58.1l-2.3,0.3l-0.3,132.2l-0.1,79.7l1.1,0.4l1.2-0.4l0.2-130.6L571.9,58.1z"/>
		<path class="st37" d="M558.2,94l-1.1,2l12.7,7.2l1.1-2L558.2,94z"/>
		<path class="st37" d="M558.1,186.5l-1.1,2l12.7,7.2l1.1-2L558.1,186.5z"/>
		<path class="st37" d="M558,212.9l-1.1,2l12.7,7.2l1.1-2L558,212.9z"/>
		<path class="st37" d="M582.7,186.6l-12.7,7.1l1.1,2l12.7-7.1L582.7,186.6z"/>
		<path class="st37" d="M582.7,213l-12.8,7.1l1.1,2l12.8-7.1L582.7,213z"/>
		<path class="st37" d="M557.9,226.1l-1.1,2l12.7,7.2l1.1-2L557.9,226.1z"/>
		<path class="st37" d="M557.9,239.4l-1.1,2l12.7,7.2l1.1-2L557.9,239.4z"/>
		<path class="st37" d="M558,252.6l-1.1,2l12.7,7.2l1.1-2L558,252.6z"/>
		<path class="st37" d="M582.6,226.2l-12.8,7.1l1.1,2l12.8-7.1L582.6,226.2z"/>
		<path class="st37" d="M582.6,239.4l-12.8,7.1l1.1,2l12.8-7.1L582.6,239.4z"/>
		<path class="st37" d="M582.6,252.7l-12.7,7.1l1.1,2l12.7-7.1L582.6,252.7z"/>
		<path class="st37" d="M558.1,107.2l-1.1,2l12.7,7.2l1.1-2L558.1,107.2z"/>
		<path class="st37" d="M558.2,120.3l-1.1,2l12.7,7.2l1.1-2L558.2,120.3z"/>
		<path class="st37" d="M558.2,133.6l-1.1,2l12.7,7.2l1.1-2L558.2,133.6z"/>
		<path class="st37" d="M582.8,107.2l-12.7,7.1l1.1,2l12.7-7.1L582.8,107.2z"/>
		<path class="st37" d="M582.8,120.5l-12.8,7.1l1.1,2l12.8-7.1L582.8,120.5z"/>
		<path class="st37" d="M582.8,133.7l-12.8,7.1l1.1,2l12.8-7.1L582.8,133.7z"/>
		<path class="st37" d="M582.7,199.8l-12.8,7.1l1.1,2l12.8-7.1L582.7,199.8z"/>
		<path class="st37" d="M558.1,160l-1.1,2l12.7,7.2l1.1-2L558.1,160z"/>
		<path class="st37" d="M558.1,173.2l-1.1,2l12.7,7.2l1.1-2L558.1,173.2z"/>
		<path class="st37" d="M582.7,160.1l-12.7,7.1l1.1,2l12.7-7.1L582.7,160.1z"/>
		<path class="st37" d="M582.7,173.3l-12.7,7.1l1.1,2l12.7-7.1L582.7,173.3z"/>
		<path class="st37" d="M558.1,146.8l-1.1,2l12.7,7.2l1.1-2L558.1,146.8z"/>
		<path class="st37" d="M582.8,146.9L570,154l1.1,2l12.8-7.1L582.8,146.9z"/>
		<path class="st37" d="M558.2,80.8l-1.1,2l12.7,7.2l1.1-2L558.2,80.8z"/>
		<path class="st37" d="M582.9,94l-12.7,7.1l1.1,2L584,96L582.9,94z"/>
		<path class="st37" d="M582.9,80.8l-12.8,7.1l1.1,2l12.8-7.1L582.9,80.8z"/>
		<path class="st37" d="M558,199.8l-1.1,2l12.7,7.2l1.1-2L558,199.8z"/>
		<path class="st37" d="M556.6,65.5l-0.2,118.1l2.3,0l0.2-118.1L556.6,65.5z"/>
		<path class="st43" d="M286.2,155.3c0.3,0,0.6-0.1,0.9-0.2c0.6-0.4,1-1.1,1-2h-0.8c0,0.7-0.2,1.1-0.6,1.3c-0.4,0.2-0.9,0.2-1.5-0.2
			c-0.6-0.4-1.2-1-1.7-1.8c-0.5-0.8-0.7-1.6-0.7-2.4c0-0.7,0.2-1.1,0.6-1.3s0.9-0.2,1.5,0.2l0.6,0.3v-5.9h-0.8v4.7
			c-0.6-0.2-1.2-0.2-1.6,0.1c-0.6,0.4-1,1.1-1,2c0,0.9,0.3,1.8,0.8,2.8c0.5,0.9,1.2,1.7,2,2.1C285.4,155.2,285.8,155.3,286.2,155.3z
			"/>
		<path class="st43" d="M290.1,139.1v3.5c0,0.8-0.5,1.6-1.5,2.1c-2,1.2-5.4,1.2-7.4,0c-1-0.6-1.5-1.4-1.5-2.1v-3.5H290.1z"/>
		
			<linearGradient id="SVGID_29_" gradientUnits="userSpaceOnUse" x1="279.583" y1="260.95" x2="290.094" y2="260.95" gradientTransform="matrix(1 0 0 -1 0 400)">
			<stop  offset="0" style="stop-color:#3FB6FF"/>
			<stop  offset="0.1098" style="stop-color:#3FAFFE"/>
			<stop  offset="0.273" style="stop-color:#409BFC"/>
			<stop  offset="0.4692" style="stop-color:#417AF8"/>
			<stop  offset="0.6912" style="stop-color:#424CF2"/>
			<stop  offset="0.9319" style="stop-color:#4412EB"/>
			<stop  offset="1" style="stop-color:#4400E9"/>
		</linearGradient>
		<path class="st44" d="M281.1,141.2c-2.1-1.2-2.1-3.1,0-4.3c2.1-1.2,5.4-1.2,7.4,0c2,1.2,2,3.1,0,4.3S283.2,142.4,281.1,141.2z"/>
		<path class="st43" d="M285.5,106.4h-0.8V139h0.8V106.4z"/>
		<path class="st37" d="M163.9,39.6l21.2,7.1v5.1L163.9,64l-21.2-12.2v-5.1L163.9,39.6z"/>
		<path class="st38" d="M163.9,34.5l21.2,12.2L163.9,59l-21.2-12.3L163.9,34.5z"/>
		<path class="st37" d="M163.9,30.9l21.2,7.2v5.1l-21.2,12.2l-21.2-12.2v-5.1L163.9,30.9z"/>
		<path class="st38" d="M163.9,25.9l21.2,12.2l-21.2,12.3l-21.2-12.3L163.9,25.9z"/>
		<path class="st37" d="M163.9,22.3l21.2,7.2v5l-21.2,12.3l-21.2-12.3v-5L163.9,22.3z"/>
		<path class="st38" d="M163.9,17.3l21.2,12.2l-21.2,12.2l-21.2-12.2L163.9,17.3z"/>
		<path class="st37" d="M163.9,13.7l21.2,7.2v5l-21.2,12.3l-21.2-12.3v-5L163.9,13.7z"/>
		<path class="st38" d="M163.9,8.6l21.2,12.3l-21.2,12.2l-21.2-12.2L163.9,8.6z"/>
		<path class="st37" d="M163.9,5.1l21.2,7.1v5.1l-21.2,12.2l-21.2-12.2v-5.1L163.9,5.1z"/>
		<path class="st38" d="M163.9,0l21.2,12.2l-21.2,12.3l-21.2-12.3L163.9,0z"/>
		<path class="st42" d="M193.6,40.3l-11.4,6.6l1.1,2l11.4-6.6L193.6,40.3z"/>
		<path class="st42" d="M203.2,45.3l-11.4,6.6l1.1,2l11.4-6.6L203.2,45.3z"/>
		<path class="st42" d="M307.9,105.9l-11.4,6.6l1.1,2l11.4-6.6L307.9,105.9z"/>
		<path class="st42" d="M296.5,99.8l-11.4,6.6l1.1,2l11.4-6.6L296.5,99.8z"/>
		<path class="st42" d="M285,93.8l-11.4,6.6l1.1,2l11.4-6.6L285,93.8z"/>
		<path class="st42" d="M273.6,86.5l-11.4,6.6l1.1,2l11.4-6.6L273.6,86.5z"/>
		<path class="st42" d="M262.2,79.5l-11.4,6.6l1.2,2l11.4-6.6L262.2,79.5z"/>
		<path class="st42" d="M250.8,73.1l-11.4,6.6l1.1,2l11.4-6.6L250.8,73.1z"/>
		<path class="st42" d="M239.4,65.9l-11.4,6.6l1.1,2l11.4-6.6L239.4,65.9z"/>
		<path class="st42" d="M205.3,74l-1.2,2l12.2,7.5l1.2-2L205.3,74z"/>
		<path class="st42" d="M205.4,87.4l-1.2,2l12.2,7.5l1.2-2L205.4,87.4z"/>
		<path class="st42" d="M205.3,100.7l-1.2,2l12.2,7.5l1.2-2L205.3,100.7z"/>
		<path class="st42" d="M205.3,114.1l-1.2,2l12.2,7.5l1.2-2L205.3,114.1z"/>
		<path class="st42" d="M205.4,127.5l-1.2,2l12.2,7.5l1.2-2L205.4,127.5z"/>
		<path class="st42" d="M205.3,140.8l-1.2,2l12.2,7.5l1.2-2L205.3,140.8z"/>
		<path class="st42" d="M205.3,154.2l-1.2,2l12.2,7.5l1.2-2L205.3,154.2z"/>
		<path class="st42" d="M203.9,60.6l-12.2,7.5l1.2,2l12.2-7.5L203.9,60.6z"/>
		<path class="st42" d="M203.9,74l-12.2,7.5l1.2,2l12.2-7.5L203.9,74z"/>
		<path class="st42" d="M203.9,87.3l-12.2,7.5l1.2,2l12.2-7.5L203.9,87.3z"/>
		<path class="st42" d="M203.9,100.7l-12.2,7.5l1.2,2l12.2-7.5L203.9,100.7z"/>
		<path class="st42" d="M203.9,114.1l-12.2,7.5l1.2,2l12.2-7.5L203.9,114.1z"/>
		<path class="st42" d="M203.9,127.4l-12.2,7.5l1.2,2l12.2-7.5L203.9,127.4z"/>
		<path class="st42" d="M203.9,140.8l-12.2,7.5l1.2,2l12.2-7.5L203.9,140.8z"/>
		<path class="st42" d="M203.9,154.2l-12.2,7.5l1.2,2l12.2-7.5L203.9,154.2z"/>
		
			<linearGradient id="SVGID_30_" gradientUnits="userSpaceOnUse" x1="164.775" y1="208.1" x2="242.875" y2="208.1" gradientTransform="matrix(1 0 0 -1 0 400)">
			<stop  offset="0" style="stop-color:#FFCC47"/>
			<stop  offset="0.9836" style="stop-color:#FF8D46"/>
		</linearGradient>
		<path class="st45" d="M203.8,169.4l39.1,17.5v5l-39,22.5l-39.1-22.5v-5L203.8,169.4z"/>
		<path class="st26" d="M203.8,164.3l39.1,22.6l-39,22.5l-39.1-22.5L203.8,164.3z"/>
		
			<linearGradient id="SVGID_31_" gradientUnits="userSpaceOnUse" x1="178.775" y1="214.8" x2="228.875" y2="214.8" gradientTransform="matrix(1 0 0 -1 0 400)">
			<stop  offset="0" style="stop-color:#FFCC47"/>
			<stop  offset="0.9836" style="stop-color:#FF8D46"/>
		</linearGradient>
		<path class="st46" d="M203.8,170.7l25.1,1.2v13.3l-25.1,14.5l-25-14.5v-13.3L203.8,170.7z"/>
		<path class="st47" d="M203.8,157.4l25.1,14.5l-25.1,14.5l-25-14.5L203.8,157.4z"/>
		<path class="st37" d="M218.8,53.7h-2.3v117.8h2.3V53.7z"/>
		<path class="st37" d="M192.7,39.3h-2.3v132.2h2.3V39.3z"/>
		<path class="st37" d="M203.4,179l1.1,0.4l1.2-0.4V47.4l-2.3-0.4V179z"/>
		<path class="st37" d="M217,66.7L204.1,74l1.1,2l12.9-7.2L217,66.7z"/>
		<path class="st37" d="M217.1,80.1l-12.9,7.2l1.1,2l12.9-7.2L217.1,80.1z"/>
		<path class="st37" d="M217.1,93.5l-12.9,7.2l1.1,2l12.9-7.2L217.1,93.5z"/>
		<path class="st37" d="M217,106.8l-12.9,7.2l1.1,2l12.9-7.2L217,106.8z"/>
		<path class="st37" d="M217.1,120.2l-12.9,7.2l1.1,2l12.9-7.2L217.1,120.2z"/>
		<path class="st37" d="M217.1,133.6l-12.9,7.2l1.1,2l12.9-7.2L217.1,133.6z"/>
		<path class="st37" d="M217.1,146.9l-12.9,7.2l1.1,2l12.9-7.2L217.1,146.9z"/>
		<path class="st37" d="M217.1,160.3l-12.9,7.2l1.1,2l12.9-7.2L217.1,160.3z"/>
		<path class="st37" d="M192.1,66.8l-1.1,2l12.9,7.2l1.1-2L192.1,66.8z"/>
		<path class="st37" d="M192.2,80.1l-1.1,2l12.9,7.2l1.1-2L192.2,80.1z"/>
		<path class="st37" d="M192.1,93.5l-1.1,2l12.9,7.2l1.1-2L192.1,93.5z"/>
		<path class="st37" d="M192.1,106.9l-1.1,2l12.9,7.2l1.1-2L192.1,106.9z"/>
		<path class="st37" d="M192.2,120.2l-1.1,2l12.9,7.2l1.1-2L192.2,120.2z"/>
		<path class="st37" d="M192.1,133.6l-1.1,2l12.9,7.2l1.1-2L192.1,133.6z"/>
		<path class="st37" d="M192.1,147l-1.1,2l12.9,7.2l1.1-2L192.1,147z"/>
		<path class="st37" d="M192.2,160.3l-1.1,2l12.9,7.2l1.1-2L192.2,160.3z"/>
		<rect x="226.8" y="86.5" class="st48" width="5" height="14"/>
		<rect x="226.8" y="73.5" class="st48" width="14" height="26"/>
		<path class="st49" d="M231,95.1c-0.2,0.1-0.5,0-0.5-0.3v-2.6c0-1.1-0.7-2.1-1.7-2.4v-8.1c0-0.1,0.1-0.2,0.2-0.3l6.5-4
			c0.6-0.4,1.5,0.1,1.5,0.8v6.7c1,0.3,1.7,1.3,1.7,2.4V90c0,0.3-0.2,0.6-0.5,0.8L231,95.1z"/>
		<rect x="212.8" y="72.5" class="st48" width="15" height="28"/>
		<path class="st50" d="M237.8,74.3l-13.4-7.4l-10.8,6.3l13.7,7.7L237.8,74.3z"/>
		<path class="st49" d="M225.3,82.6v8c0,0,2.2,0.6,2,3.6V95c0,0.5-0.5,0.8-0.9,0.5l-5-3c-0.3-0.2-0.5-0.5-0.5-0.8l-0.3-3.1
			c-0.1-1-0.6-1.9-1.5-2.4l-4.1-2.4c-0.3-0.1-0.4-0.4-0.4-0.7v-6.5c0-0.2,0.2-0.4,0.4-0.3l9.8,5.5C225.1,82.1,225.3,82.3,225.3,82.6
			z"/>
		<path class="st51" d="M231.7,79.7l3.7-2.3c0.5-0.3,1-0.1,1.3,0.3l-7.9,10v-4.3L231.7,79.7z"/>
		<path class="st51" d="M236.8,78.3v1.9l-7.7,9.7c-0.1-0.1-0.2-0.1-0.4-0.2v-1.4L236.8,78.3z"/>
		<path class="st51" d="M216.5,77.2l2.2,1.2l-4.1,1.7V78L216.5,77.2z"/>
		<path class="st51" d="M214.6,80.6l4.6-1.8l1.1,0.6l-5.7,2.3V80.6z"/>
		<path class="st42" d="M309.1,93h-2.3v12.7h2.3V93z"/>
		<path class="st42" d="M297.7,86.7h-2.3v12.7h2.3V86.7z"/>
		<path class="st42" d="M286.2,79.2h-2.3v12.7h2.3V79.2z"/>
		<path class="st42" d="M274.8,72.1h-2.3v14.4h2.3V72.1z"/>
		<path class="st42" d="M263.4,66.1h-2.3v12.7h2.3V66.1z"/>
		<path class="st42" d="M251.9,59h-2.3v12.7h2.3V59z"/>
		<path class="st42" d="M240.5,52.7h-2.3v12.7h2.3V52.7z"/>
		<path class="st42" d="M229.1,46.3h-2.3V59h2.3V46.3z"/>
		<path class="st42" d="M218.8,39.5h-2.3v14h2.3V39.5z"/>
		<path class="st42" d="M205.8,32.9h-2.3v12.7h2.3V32.9z"/>
		<path class="st42" d="M195.2,25.7h-2.3v13.8h2.3V25.7z"/>
		<path class="st37" d="M217.1,53.4l-12.9,7.2l1.1,2l12.9-7.2L217.1,53.4z"/>
		<path class="st37" d="M331.4,121.1v-3.9l-10-19.9L182,16.8l-2.3,1.3l139.9,80.8l9,18l-20.1-11.8l-1.1,2.1l20.2,11.8L331.4,121.1z"
			/>
		<path class="st37" d="M319.8,128.2v-2.5l-10.6-20.1l-140.5-81l-2.5,1.3l141.3,81.5l9.5,18L171.8,41.2l-2.3,1.3l146.5,85l2.5,1.4
			C319.1,129.3,319.8,128.9,319.8,128.2z"/>
		<path class="st37" d="M309.1,106.2h-2.3v15h2.3V106.2z"/>
		<path class="st37" d="M297.7,100.4h-2.3v15h2.3V100.4z"/>
		<path class="st37" d="M286.2,93h-2.3v15h2.3V93z"/>
		<path class="st37" d="M274.8,86.4h-2.3v15h2.3V86.4z"/>
		<path class="st37" d="M263.4,80.3h-2.3v15h2.3V80.3z"/>
		<path class="st37" d="M251.9,73.7h-2.3v15h2.3V73.7z"/>
		<path class="st37" d="M240.5,67.1h-2.3v15h2.3V67.1z"/>
		<path class="st37" d="M229.1,60.6h-2.3v15h2.3V60.6z"/>
		<path class="st37" d="M183.4,33.5h-2.3v15h2.3V33.5z"/>
		<path class="st37" d="M169.5,42.6L172,42V26.9h-2.4L169.5,42.6z"/>
		<path class="st37" d="M319.9,97.1l-12.5,8l1.2,1.9l12.5-8L319.9,97.1z"/>
		<path class="st37" d="M330.2,119.2L318,127l1.2,1.9l12.2-7.8L330.2,119.2z"/>
		<path class="st37" d="M308.4,90.9l-12.5,8l1.2,1.9l12.5-8L308.4,90.9z"/>
		<path class="st37" d="M297,84.6l-12.5,8l1.2,1.9l12.5-8L297,84.6z"/>
		<path class="st37" d="M285.5,77.5l-12.5,8l1.2,1.9l12.5-8L285.5,77.5z"/>
		<path class="st37" d="M274.7,70.6l-12.5,8l1.2,1.9l12.5-8L274.7,70.6z"/>
		<path class="st37" d="M262.7,64.2l-12.5,8l1.2,1.9l12.5-8L262.7,64.2z"/>
		<path class="st37" d="M251.3,57.2l-12.5,8l1.2,1.9l12.5-8L251.3,57.2z"/>
		<path class="st37" d="M239.9,51.5l-12.5,8l1.2,1.9l12.5-8L239.9,51.5z"/>
		<path class="st37" d="M229.6,44.7l-12.5,8l1.2,1.9l12.5-8L229.6,44.7z"/>
		<path class="st37" d="M217.1,37.9l-12.5,8l1.2,1.9l12.5-8L217.1,37.9z"/>
		<path class="st37" d="M205.3,31.1l-12.5,8L194,41l12.5-8L205.3,31.1z"/>
		<path class="st37" d="M194.2,24.6l-12.5,8l1.2,1.9l12.5-8L194.2,24.6z"/>
		<path class="st37" d="M183.2,18.5l-12.5,8l1.2,1.9l12.5-8L183.2,18.5z"/>
		<path class="st43" d="M296.6,160.5l0.2,0.1l0.2,0.1V160l-12.9-6.7l1,1.3L296.6,160.5z"/>
		
			<linearGradient id="SVGID_32_" gradientUnits="userSpaceOnUse" x1="267.406" y1="228.1423" x2="305.046" y2="228.1423" gradientTransform="matrix(1 0 0 -1 0 400)">
			<stop  offset="0" style="stop-color:#2AA3FF"/>
			<stop  offset="1" style="stop-color:#AAEFFF"/>
		</linearGradient>
		<path class="st52" d="M305.1,169.9c0-0.5-0.7-0.9-1.5-0.9h-3.2c-0.5,0-1.4,0.6-1.5,0.4c-0.2-0.3-0.1-0.6,0.2-0.8l2.2-1.3
			c0.6-0.3-3.1-0.2-3.7-0.5h1.4l2.2-1.3c0.3-0.2,0.4-0.3,0.4-0.5v-2.3h-3.3l-0.7-0.4c-0.6-0.3-1.5-0.3-2.1,0l-0.7,0.4h-4.6V161
			c0-0.5-0.7-0.9-1.5-0.9h-5.1c-0.8,0-1.5,0.4-1.5,0.9v1.7h-4.7l-0.7-0.4c-0.6-0.3-1.5-0.3-2.1,0l-0.7,0.4h-3.4v2.3
			c0,0.2,0.1,0.5,0.4,0.6l2.3,1.3h1.1v0.3c-0.6,0.3-3.9-0.1-3.4,0.3l2.3,1.3c0.4,0.2,0.5,0.5,0.3,0.8c-0.1,0.2-1-0.4-1.5-0.4h-3.2
			c-0.8,0-1.5,0.4-1.5,0.9v4.3c0,0.5,0.7,0.9,1.5,0.8h1.9v3.6c0,0.1,0,0.1,0,0.2c0,0.2,0.2,0.4,0.4,0.5l3.6,2.1
			c0.4,0.2,0.8,0.3,1.3,0.2c0.3,0,0.6-0.1,0.8-0.2l2.2-1.3c0.4-0.2,0.9-0.3,1.3-0.2c0.3,0.1,0.7,0.2,1,0.2c0.5,0.1,0.8,0.4,0.8,0.7
			v1.8c0,0.5,0.7,0.9,1.5,0.8h5.1c0.8,0,1.5-0.4,1.5-0.9v-1.8c0-0.3,0.3-0.6,0.8-0.7c0.3-0.1,0.6-0.1,0.9-0.2c0.5-0.1,1-0.1,1.4,0.1
			l2.2,1.3c0.2,0.1,0.5,0.2,0.8,0.2c0.5,0,0.9,0,1.3-0.2l3.6-2.1c0.2-0.1,0.4-0.3,0.4-0.5v-0.1V175h1.8c0.8,0,1.5-0.4,1.5-0.9
			L305.1,169.9z M293.4,173.5c-0.9,2.6-5.6,4.1-9.8,3.2c-3.2-0.7-5.2-2.7-4.5-4.7c0.9-2.6,5.6-4.1,9.8-3.2
			C292.1,169.6,294.1,171.6,293.4,173.5z"/>
		
			<linearGradient id="SVGID_33_" gradientUnits="userSpaceOnUse" x1="267.407" y1="231.3923" x2="305.046" y2="231.3923" gradientTransform="matrix(1 0 0 -1 0 400)">
			<stop  offset="0" style="stop-color:#3368F2"/>
			<stop  offset="1" style="stop-color:#23C2FC"/>
		</linearGradient>
		<path class="st53" d="M299.6,171h4c0.8,0,1.5-0.4,1.5-0.9v-3c0-0.5-0.7-0.9-1.5-0.8h-3.2c-0.5,0-1-0.2-1.2-0.5
			c-0.1-0.2-0.2-0.3-0.4-0.5c-0.2-0.3-0.1-0.6,0.2-0.8l2.2-1.3c0.6-0.3,0.6-0.9,0-1.2l-3.6-2.1c-0.6-0.3-1.5-0.3-2.1,0l-2.2,1.3
			c-0.4,0.2-0.9,0.3-1.3,0.1c-0.3-0.1-0.7-0.2-1-0.2c-0.5-0.1-0.8-0.4-0.8-0.7v-1.8c0-0.5-0.7-0.9-1.5-0.9h-5.1
			c-0.8,0-1.5,0.4-1.5,0.9v1.8c0,0.3-0.3,0.6-0.8,0.7c-0.3,0.1-0.6,0.1-0.9,0.2c-0.5,0.1-1,0.1-1.4-0.1l-2.2-1.3
			c-0.6-0.3-1.5-0.3-2.1,0l-3.6,2.1c-0.6,0.3-0.6,0.9,0,1.2l2.3,1.3c0.4,0.2,0.5,0.5,0.3,0.8c-0.1,0.2-0.3,0.4-0.4,0.6
			c-0.2,0.3-0.6,0.4-1.1,0.4H269c-0.8,0-1.5,0.4-1.5,0.9v3c0,0.5,0.7,0.9,1.5,0.8h3.2c0.5,0,1,0.2,1.2,0.5c0.1,0.2,0.2,0.3,0.4,0.5
			c0.2,0.3,0.1,0.6-0.2,0.8l-2.2,1.3c-0.6,0.3-0.6,0.9,0,1.2l3.6,2.1c0.6,0.3,1.5,0.3,2.1,0l2.2-1.3c0.4-0.2,0.9-0.3,1.3-0.1
			c0.3,0.1,0.7,0.2,1,0.2c0.5,0.1,0.8,0.4,0.8,0.7v1.8c0,0.5,0.7,0.9,1.5,0.8h5.1c0.8,0,1.5-0.4,1.5-0.9v-1.8c0-0.3,0.3-0.6,0.8-0.7
			c0.3-0.1,0.6-0.1,0.9-0.2c0.5-0.1,1-0.1,1.4,0.1l2.2,1.3c0.6,0.3,1.5,0.3,2.1,0l3.6-2.1c0.6-0.3,0.6-0.9,0-1.2l-2.3-1.3
			c-0.4-0.2-0.5-0.5-0.3-0.8C299.2,171.6,299.5,171,299.6,171z M279.1,167.9c0.9-2.6,5.6-4.1,9.8-3.2c3.2,0.7,5.2,2.7,4.5,4.7
			c-0.9,2.6-5.6,4.1-9.8,3.2C280.4,171.9,278.4,169.9,279.1,167.9z"/>
		<path class="st43" d="M274.3,181.1l0.7,0.4v-9l10.6-18l-0.6-0.4l-10.7,18.2V181.1z"/>
		
			<linearGradient id="SVGID_34_" gradientUnits="userSpaceOnUse" x1="420.976" y1="35.5564" x2="614.676" y2="35.5564" gradientTransform="matrix(1 0 0 -1 0 400)">
			<stop  offset="0" style="stop-color:#000000"/>
			<stop  offset="1" style="stop-color:#000000;stop-opacity:0.2"/>
		</linearGradient>
		<path class="st54" d="M510.7,309.6c3.2-1.9,8.5-1.9,11.7-0.1l89.9,51.9c3.2,1.9,3.2,4.9,0,6.8l-88.6,51.1c-3.2,1.9-8.5,1.9-11.7,0
			l-88.6-51.1c-3.2-1.9-3.2-4.9,0-6.8L510.7,309.6z"/>
		
			<linearGradient id="SVGID_35_" gradientUnits="userSpaceOnUse" x1="420.976" y1="48.2564" x2="614.676" y2="48.2564" gradientTransform="matrix(1 0 0 -1 0 400)">
			<stop  offset="0" style="stop-color:#3FB6FF"/>
			<stop  offset="0.1098" style="stop-color:#3FAFFE"/>
			<stop  offset="0.273" style="stop-color:#409BFC"/>
			<stop  offset="0.4692" style="stop-color:#417AF8"/>
			<stop  offset="0.6912" style="stop-color:#424CF2"/>
			<stop  offset="0.9319" style="stop-color:#4412EB"/>
			<stop  offset="1" style="stop-color:#4400E9"/>
		</linearGradient>
		<path class="st55" d="M510.7,296.9c3.2-1.9,8.5-1.9,11.7-0.1l89.9,51.9c3.2,1.9,3.2,4.9,0,6.8l-88.6,51.1c-3.2,1.9-8.5,1.9-11.7,0
			l-88.6-51.1c-3.2-1.9-3.2-4.9,0-6.8L510.7,296.9z"/>
		
			<linearGradient id="SVGID_36_" gradientUnits="userSpaceOnUse" x1="545.4576" y1="84.012" x2="508.7386" y2="36.016" gradientTransform="matrix(1 0 0 -1 0 400)">
			<stop  offset="0" style="stop-color:#3FB6FF"/>
			<stop  offset="0.1098" style="stop-color:#3FAFFE"/>
			<stop  offset="0.273" style="stop-color:#409BFC"/>
			<stop  offset="0.4692" style="stop-color:#417AF8"/>
			<stop  offset="0.6912" style="stop-color:#424CF2"/>
			<stop  offset="0.9319" style="stop-color:#4412EB"/>
			<stop  offset="1" style="stop-color:#4400E9"/>
		</linearGradient>
		<path class="st56" d="M612.3,352.1l-88.6,51.1c-3.2,1.9-8.5,1.9-11.7,0l-88.6-51.1c-0.9-0.5-1.5-1.1-1.9-1.7
			c-1.1,1.7-0.5,3.7,1.9,5.1l88.6,51.1c3.2,1.9,8.5,1.9,11.7,0l88.6-51.1c2.4-1.4,3-3.4,1.9-5.1C613.7,351,613.1,351.6,612.3,352.1z
			"/>
		<path class="st41" d="M553.1,356c0-1-1.4-1.8-3.2-1.8h-6.8c-1.1,0-3,1.2-3.3,0.8c-0.5-0.6-0.3-1.3,0.5-1.7l4.8-2.8
			c1.2-0.7-6.6-0.4-7.9-1.1l0.1-6c-1.2-0.7-3.3-0.7-4.5,0l-4.8,2.8c-0.8,0.4-1.9,0.6-2.9,0.3c-0.7-0.2-1.4-0.3-2.1-0.5
			c-1-0.2-1.7-0.8-1.7-1.4v-3.9c0-1-1.4-1.8-3.2-1.8H507c-1.8,0-3.2,0.8-3.2,1.8v3.9c0,0.6-0.7,1.2-1.8,1.4c-0.7,0.1-1.3,0.3-2,0.5
			c-1,0.3-2.2,0.2-3-0.3l-4.8-2.8c-1.2-0.7-3.3-0.7-4.5,0l-0.6,6.5c-1.2,0.7-8.5-0.1-7.2,0.6l4.9,2.8c0.8,0.4,1,1.1,0.6,1.7
			c-0.3,0.4-2.2-0.8-3.3-0.8h-6.9c-1.8,0-3.2,0.8-3.2,1.8v9.3c0,1,1.4,1.8,3.2,1.8h4l-0.1,7.7c0,0.1,0,0.3,0,0.4
			c0.1,0.4,0.4,0.8,0.9,1.1l7.8,4.5c0.8,0.4,1.8,0.6,2.8,0.5h0.1c0.6-0.1,1.2-0.2,1.7-0.5l4.8-2.8c0.8-0.4,1.9-0.6,2.9-0.3
			c0.7,0.2,1.4,0.3,2.1,0.5c1,0.2,1.7,0.8,1.7,1.4v3.9c0,1,1.4,1.8,3.2,1.8h11.1c1.8,0,3.2-0.8,3.2-1.8v-3.9c0-0.6,0.7-1.2,1.8-1.4
			c0.6-0.1,1.3-0.3,1.9-0.4c1-0.3,2.2-0.2,3,0.3l4.8,2.8c0.5,0.3,1,0.4,1.6,0.5v0.1h0.1c1,0.1,2,0,2.8-0.5l7.8-4.5
			c0.5-0.3,0.8-0.7,0.9-1.1v-0.2v-0.1l-0.1-7.8h3.9c1.8,0,3.2-0.8,3.2-1.8V356z M528,363.7c-1.8,5.6-12,8.8-21.1,6.8
			c-6.9-1.5-11.1-5.8-9.8-10c1.8-5.6,12-8.8,21.1-6.8C525.2,355.3,529.4,359.6,528,363.7z"/>
		<path class="st41" d="M546.1,345.4v-5h-7.2l-1.6-0.9c-1.2-0.7-3.3-0.7-4.5,0l-1.6,0.9h-9.9v-3.6c0-1-1.4-1.8-3.2-1.8H507
			c-1.8,0-3.2,0.8-3.2,1.8v3.6h-10l-1.5-0.9c-1.2-0.7-3.3-0.7-4.5,0l-1.5,0.9h-7.2v4.9c0,0.5,0.3,1,0.9,1.3l4.9,2.8l55.4-0.1
			l4.8-2.8C545.7,346.3,546,345.8,546.1,345.4z"/>
		<path class="st38" d="M541.2,358.3h8.7c1.8,0,3.2-0.8,3.2-1.8v-6.4c0-1-1.4-1.8-3.2-1.8h-6.8c-1.1,0-2.1-0.4-2.5-1
			c-0.2-0.4-0.5-0.7-0.8-1.1c-0.5-0.6-0.3-1.3,0.5-1.7l4.8-2.8c1.2-0.7,1.2-1.9,0-2.6l-7.8-4.5c-1.2-0.7-3.3-0.7-4.5,0l-4.8,2.8
			c-0.8,0.4-1.9,0.6-2.9,0.3c-0.7-0.2-1.4-0.3-2.1-0.5c-1-0.2-1.7-0.8-1.7-1.4v-3.9c0-1-1.4-1.8-3.2-1.8H507c-1.8,0-3.2,0.8-3.2,1.8
			v3.9c0,0.6-0.7,1.2-1.8,1.4c-0.7,0.1-1.3,0.3-2,0.5c-1,0.3-2.2,0.2-3-0.3l-4.8-2.8c-1.2-0.7-3.3-0.7-4.5,0l-7.8,4.5
			c-1.2,0.7-1.2,1.9,0,2.6l4.9,2.8c0.8,0.4,1,1.1,0.6,1.7c-0.3,0.4-0.6,0.8-0.8,1.2c-0.4,0.6-1.4,1-2.4,1h-6.9
			c-1.8,0-3.2,0.8-3.2,1.8v6.4c0,1,1.4,1.8,3.2,1.8h6.8c1.1,0,2.1,0.4,2.5,1c0.2,0.4,0.5,0.7,0.8,1.1c0.5,0.6,0.3,1.3-0.5,1.7
			l-4.8,2.8c-1.2,0.7-1.2,1.9,0,2.6l7.8,4.5c1.2,0.7,3.3,0.7,4.5,0l4.8-2.8c0.8-0.4,1.9-0.6,2.9-0.3c0.7,0.2,1.4,0.3,2.1,0.5
			c1,0.2,1.7,0.8,1.7,1.4v3.9c0,1,1.4,1.8,3.2,1.8h11.1c1.8,0,3.2-0.8,3.2-1.8v-3.9c0-0.6,0.7-1.2,1.8-1.4c0.6-0.1,1.3-0.3,1.9-0.5
			c1-0.3,2.2-0.2,3,0.3l4.8,2.8c1.2,0.7,3.3,0.7,4.5,0l7.8-4.5c1.2-0.7,1.2-1.9,0-2.6l-4.8-2.8c-0.8-0.4-1-1.1-0.6-1.7
			C540.5,359.5,541.2,358.4,541.2,358.3z M497.2,351.7c1.8-5.6,12-8.8,21.1-6.8c6.9,1.5,11.1,5.8,9.8,10c-1.8,5.6-12,8.8-21.1,6.8
			C500.1,360.2,495.8,355.9,497.2,351.7z"/>
		
			<radialGradient id="SVGID_37_" cx="-618.1381" cy="400.0018" r="0.9988" gradientTransform="matrix(33.773 0 0 -17.4674 21399.8008 7323.2417)" gradientUnits="userSpaceOnUse">
			<stop  offset="0" style="stop-color:#3BAAD9"/>
			<stop  offset="6.021331e-02" style="stop-color:#50B3DD"/>
			<stop  offset="0.2562" style="stop-color:#8DCEE9"/>
			<stop  offset="0.4353" style="stop-color:#BEE3F2"/>
			<stop  offset="0.5917" style="stop-color:#E2F2F9"/>
			<stop  offset="0.7193" style="stop-color:#F7FCFD"/>
			<stop  offset="0.8023" style="stop-color:#FFFFFF"/>
		</radialGradient>
		<path class="st57" d="M499.8,322.6c13-7.5,34.3-7.5,47.3,0s13,19.8,0,27.3s-34.3,7.5-47.3,0C486.8,342.4,486.8,330.1,499.8,322.6z
			"/>
		<path class="st41" d="M555.7,324.9c0-0.7-1-1.2-2.2-1.2h-4.6c-0.8,0-2,0.8-2.2,0.6c-0.3-0.4-0.2-0.9,0.3-1.2l3.3-1.9
			c0.8-0.5-4.5-0.3-5.4-0.7v-4.1c-0.8-0.5-2.2-0.5-3.1,0l-3.3,1.9c-0.5,0.3-1.3,0.4-2,0.2c-0.5-0.1-1-0.2-1.4-0.3
			c-0.7-0.2-1.1-0.5-1.1-1v-2.7c0-0.7-1-1.2-2.2-1.2h-7.5c-1.2,0-2.2,0.6-2.2,1.2v2.7c0,0.4-0.5,0.8-1.2,1c-0.5,0.1-0.9,0.2-1.3,0.3
			c-0.7,0.2-1.5,0.1-2.1-0.2l-3.3-1.9c-0.8-0.5-2.2-0.5-3.1,0l-0.4,4.4c-0.8,0.5-5.7-0.1-4.9,0.4l3.3,1.9c0.5,0.3,0.7,0.7,0.4,1.1
			c-0.2,0.3-1.5-0.5-2.2-0.5h-4.7c-1.2,0-2.2,0.6-2.2,1.2v6.3c0,0.7,1,1.2,2.2,1.2h2.7l-0.1,5.2c0,0.1,0,0.2,0,0.3
			c0,0.3,0.2,0.5,0.6,0.8l5.3,3.1c0.5,0.3,1.2,0.4,1.9,0.3c0.4,0,0.8-0.1,1.1-0.3l3.3-1.9c0.5-0.3,1.3-0.4,2-0.2
			c0.5,0.1,1,0.2,1.4,0.3c0.7,0.2,1.1,0.5,1.1,1v2.7c0,0.7,1,1.2,2.2,1.2h7.5c1.2,0,2.2-0.6,2.2-1.2V341c0-0.4,0.5-0.8,1.2-1
			c0.4-0.1,0.9-0.2,1.3-0.3c0.7-0.2,1.5-0.1,2.1,0.2l3.3,1.9c0.3,0.2,0.7,0.3,1.1,0.3h0.1c0.7,0.1,1.4,0,1.9-0.3l5.3-3.1
			c0.3-0.2,0.5-0.5,0.6-0.7v-0.1c0,0,0,0,0-0.1l-0.1-5.3h2.7c1.2,0,2.2-0.6,2.2-1.2L555.7,324.9z M538.7,330.2
			c-1.2,3.8-8.1,6-14.3,4.6c-4.7-1-7.6-4-6.6-6.8c1.2-3.8,8.1-6,14.3-4.6C536.8,324.4,539.7,327.3,538.7,330.2z"/>
		<path class="st41" d="M551,317.7v-3.4h-4.9l-1.1-0.6c-0.8-0.5-2.2-0.5-3.1,0l-1.1,0.6h-6.7v-2.5c0-0.7-1-1.2-2.2-1.2h-7.5
			c-1.2,0-2.2,0.6-2.2,1.2v2.5h-6.8l-1-0.6c-0.8-0.5-2.2-0.5-3.1,0l-1,0.6h-4.9v3.3c0,0.3,0.2,0.7,0.6,0.9l3.3,1.9H547l3.3-1.9
			C550.7,318.3,550.9,318,551,317.7z"/>
		<path class="st38" d="M547.7,326.5h5.9c1.2,0,2.2-0.6,2.2-1.2V321c0-0.7-1-1.2-2.2-1.2H549c-0.8,0-1.4-0.3-1.7-0.7
			c-0.2-0.2-0.3-0.5-0.5-0.7c-0.3-0.4-0.2-0.9,0.3-1.2l3.3-1.9c0.8-0.5,0.8-1.3,0-1.8l-5.3-3.1c-0.8-0.5-2.2-0.5-3.1,0l-3.3,1.9
			c-0.5,0.3-1.3,0.4-2,0.2c-0.5-0.1-1-0.2-1.4-0.3c-0.7-0.2-1.1-0.5-1.1-1v-2.7c0-0.7-1-1.2-2.2-1.2h-7.5c-1.2,0-2.2,0.6-2.2,1.2
			v2.7c0,0.4-0.5,0.8-1.2,1c-0.5,0.1-0.9,0.2-1.3,0.3c-0.7,0.2-1.5,0.1-2.1-0.2l-3.3-1.9c-0.8-0.5-2.2-0.5-3.1,0l-5.3,3.1
			c-0.8,0.5-0.8,1.3,0,1.8l3.3,1.9c0.5,0.3,0.7,0.7,0.4,1.1c-0.2,0.3-0.4,0.6-0.6,0.8c-0.3,0.4-0.9,0.7-1.7,0.7h-4.7
			c-1.2,0-2.2,0.6-2.2,1.2v4.3c0,0.7,1,1.2,2.2,1.2h4.6c0.8,0,1.4,0.3,1.7,0.7c0.2,0.2,0.3,0.5,0.5,0.7c0.3,0.4,0.2,0.9-0.3,1.2
			l-3.3,1.9c-0.8,0.5-0.8,1.3,0,1.8l5.3,3.1c0.8,0.5,2.2,0.5,3.1,0l3.3-1.9c0.5-0.3,1.3-0.4,2-0.2c0.5,0.1,1,0.2,1.4,0.3
			c0.7,0.2,1.1,0.5,1.1,1v2.7c0,0.7,1,1.2,2.2,1.2h7.5c1.2,0,2.2-0.6,2.2-1.2v-2.7c0-0.4,0.5-0.8,1.2-1c0.4-0.1,0.9-0.2,1.3-0.3
			c0.7-0.2,1.5-0.1,2.1,0.2l3.3,1.9c0.8,0.5,2.2,0.5,3.1,0l5.3-3.1c0.8-0.5,0.8-1.3,0-1.8l-3.3-1.9c-0.5-0.3-0.7-0.7-0.4-1.1
			C547.2,327.3,547.7,326.6,547.7,326.5z M517.8,322c1.2-3.8,8.1-6,14.3-4.6c4.7,1,7.6,4,6.6,6.8c-1.2,3.8-8.1,6-14.3,4.6
			C519.7,327.8,516.9,324.9,517.8,322z"/>
		<path class="st15" d="M482.1,179.1l4.8-2.8c0.6,5.4,3.4,9.7,7.4,12c2.2,1.3,4.1,1.6,6,1.3l-4.8,2.8c-1.9,0.3-3.8-0.1-6-1.3
			C485.5,188.8,482.7,184.5,482.1,179.1z"/>
		<path class="st15" d="M482.1,179.1l4.8-2.8c0,0.1,0,0.3,0,0.4l-4.8,2.8C482.2,179.4,482.1,179.3,482.1,179.1z"/>
		<path class="st15" d="M482.2,179.5l4.8-2.8c0,0.2,0,0.4,0.1,0.5l-4.8,2.8C482.2,179.9,482.2,179.7,482.2,179.5z"/>
		<path class="st15" d="M482.2,180.1l4.8-2.8c0,0.2,0.1,0.3,0.1,0.5l-4.8,2.8C482.3,180.4,482.3,180.3,482.2,180.1z"/>
		<path class="st15" d="M482.3,180.6l4.8-2.8c0,0.2,0.1,0.3,0.1,0.5l-4.8,2.8C482.4,180.9,482.4,180.8,482.3,180.6z"/>
		<path class="st15" d="M482.4,181.1l4.8-2.8c0,0.2,0.1,0.3,0.1,0.5l-4.8,2.8C482.5,181.4,482.5,181.3,482.4,181.1z"/>
		<path class="st15" d="M482.5,181.6l4.8-2.8c0,0.2,0.1,0.3,0.1,0.5l-4.8,2.8C482.6,181.9,482.6,181.7,482.5,181.6z"/>
		<path class="st15" d="M482.7,182l4.8-2.8c0,0.1,0.1,0.3,0.1,0.4l-4.8,2.8C482.7,182.3,482.7,182.2,482.7,182z"/>
		<path class="st15" d="M482.8,182.5l4.8-2.8c0,0.1,0.1,0.3,0.1,0.4l-4.8,2.8C482.9,182.7,482.8,182.6,482.8,182.5z"/>
		<path class="st15" d="M482.9,182.9l4.8-2.8c0,0.1,0.1,0.3,0.1,0.4l-4.8,2.8C483,183.1,483,183,482.9,182.9z"/>
		<path class="st15" d="M483.1,183.2l4.8-2.8c0,0.1,0.1,0.2,0.1,0.4l-4.8,2.8C483.1,183.5,483.1,183.4,483.1,183.2z"/>
		<path class="st15" d="M483.2,183.6l4.8-2.8c0,0.1,0.1,0.2,0.1,0.3l-4.8,2.8C483.3,183.8,483.2,183.7,483.2,183.6z"/>
		<path class="st15" d="M483.3,183.9l4.8-2.8c0,0.1,0.1,0.2,0.1,0.3l-4.8,2.8C483.4,184.2,483.4,184.1,483.3,183.9z"/>
		<path class="st15" d="M483.5,184.3l4.8-2.8c0,0.1,0.1,0.2,0.2,0.3l-4.8,2.8C483.6,184.5,483.5,184.4,483.5,184.3z"/>
		<path class="st15" d="M483.6,184.6l4.8-2.8c0.1,0.1,0.1,0.2,0.2,0.3l-4.8,2.8C483.7,184.8,483.7,184.7,483.6,184.6z"/>
		<path class="st15" d="M483.8,184.9l4.8-2.8c0.1,0.1,0.1,0.3,0.2,0.4l-4.8,2.8C483.9,185.2,483.8,185.1,483.8,184.9z"/>
		<path class="st15" d="M484,185.3l4.8-2.8c0.1,0.2,0.2,0.4,0.3,0.6l-4.8,2.8C484.2,185.8,484.1,185.6,484,185.3z"/>
		<path class="st15" d="M484.3,185.9l4.8-2.8c0.1,0.2,0.3,0.5,0.4,0.7l-4.8,2.8C484.6,186.4,484.5,186.2,484.3,185.9z"/>
		<path class="st15" d="M484.8,186.6l4.8-2.8c0.1,0.2,0.3,0.4,0.4,0.6l-4.8,2.8C485,187,484.9,186.8,484.8,186.6z"/>
		<path class="st15" d="M485.2,187.2l4.8-2.8c0.1,0.1,0.2,0.3,0.3,0.4l-4.8,2.8C485.3,187.5,485.3,187.3,485.2,187.2z"/>
		<path class="st15" d="M485.4,187.6l4.8-2.8c0.1,0.1,0.2,0.2,0.3,0.3l-4.8,2.8C485.6,187.8,485.5,187.7,485.4,187.6z"/>
		<path class="st15" d="M485.7,187.9l4.8-2.8c0.1,0.1,0.2,0.2,0.3,0.3l-4.8,2.8C485.9,188.1,485.8,188,485.7,187.9z"/>
		<path class="st15" d="M486,188.2l4.8-2.8c0.1,0.1,0.2,0.2,0.3,0.3l-4.8,2.8C486.1,188.4,486,188.3,486,188.2z"/>
		<path class="st15" d="M486.2,188.5l4.8-2.8c0.1,0.1,0.2,0.2,0.3,0.3l-4.8,2.8C486.4,188.7,486.3,188.6,486.2,188.5z"/>
		<path class="st15" d="M486.5,188.8l4.8-2.8c0.1,0.1,0.2,0.2,0.3,0.3l-4.8,2.8C486.7,189,486.6,188.9,486.5,188.8z"/>
		<path class="st15" d="M486.8,189.1l4.8-2.8c0.1,0.1,0.2,0.2,0.3,0.3l-4.8,2.8C487,189.3,486.9,189.2,486.8,189.1z"/>
		<path class="st15" d="M487.1,189.4l4.8-2.8c0.1,0.1,0.2,0.2,0.3,0.3l-4.8,2.8C487.4,189.6,487.3,189.5,487.1,189.4z"/>
		<path class="st15" d="M487.5,189.7l4.8-2.8c0.1,0.1,0.2,0.2,0.4,0.3l-4.8,2.8C487.7,189.9,487.6,189.8,487.5,189.7z"/>
		<path class="st15" d="M487.9,190l4.8-2.8c0.1,0.1,0.2,0.2,0.4,0.3l-4.8,2.8C488.1,190.2,488,190.1,487.9,190z"/>
		<path class="st15" d="M488.2,190.3l4.8-2.8c0.1,0.1,0.3,0.2,0.4,0.3l-4.8,2.8C488.5,190.5,488.4,190.4,488.2,190.3z"/>
		<path class="st15" d="M488.6,190.6l4.8-2.8c0.1,0.1,0.3,0.2,0.4,0.3l-4.8,2.8C488.9,190.7,488.7,190.6,488.6,190.6z"/>
		<path class="st15" d="M489,190.8l4.8-2.8c0.1,0.1,0.3,0.2,0.4,0.3l-4.8,2.8C489.3,191,489.1,190.9,489,190.8z"/>
		<path class="st15" d="M489.4,191.1l4.8-2.8c0,0,0.1,0,0.1,0.1c0.1,0.1,0.2,0.1,0.3,0.2l-4.8,2.8
			C489.7,191.3,489.6,191.2,489.4,191.1C489.5,191.1,489.5,191.1,489.4,191.1z"/>
		<path class="st15" d="M489.9,191.3l4.8-2.8c0.1,0.1,0.3,0.1,0.4,0.2l-4.8,2.8C490.1,191.5,490,191.4,489.9,191.3z"/>
		<path class="st15" d="M490.3,191.5l4.8-2.8c0.1,0.1,0.3,0.1,0.4,0.2l-4.8,2.8C490.6,191.7,490.4,191.6,490.3,191.5z"/>
		<path class="st15" d="M490.7,191.7l4.8-2.8c0.1,0.1,0.3,0.1,0.4,0.2l-4.8,2.8C491,191.8,490.8,191.8,490.7,191.7z"/>
		<path class="st15" d="M491.1,191.9l4.8-2.8c0.1,0.1,0.3,0.1,0.4,0.2l-4.8,2.8C491.4,192,491.2,192,491.1,191.9z"/>
		<path class="st15" d="M491.5,192l4.8-2.8c0.1,0,0.3,0.1,0.4,0.1l-4.8,2.8C491.8,192.1,491.6,192.1,491.5,192z"/>
		<path class="st15" d="M491.9,192.2l4.8-2.8c0.1,0,0.3,0.1,0.4,0.1l-4.8,2.8C492.2,192.3,492,192.2,491.9,192.2z"/>
		<path class="st15" d="M492.3,192.3l4.8-2.8c0.1,0,0.3,0.1,0.4,0.1l-4.8,2.8C492.6,192.4,492.5,192.3,492.3,192.3z"/>
		<path class="st15" d="M492.8,192.4l4.8-2.8c0.2,0,0.3,0.1,0.5,0.1l-4.8,2.8C493.1,192.5,492.9,192.4,492.8,192.4z"/>
		<path class="st15" d="M493.2,192.5l4.8-2.8c0.2,0,0.3,0,0.5,0.1l-4.8,2.8C493.6,192.5,493.4,192.5,493.2,192.5z"/>
		<path class="st15" d="M493.8,192.5l4.8-2.8c0.2,0,0.4,0,0.6,0l-4.8,2.8C494.2,192.6,494,192.5,493.8,192.5z"/>
		<path class="st15" d="M494.4,192.6l4.8-2.8c0.2,0,0.5,0,0.7,0l-4.8,2.8C494.9,192.5,494.6,192.5,494.4,192.6z"/>
		<path class="st15" d="M495.1,192.5l4.8-2.8c0.2,0,0.3,0,0.5-0.1l-4.8,2.8C495.4,192.5,495.2,192.5,495.1,192.5z"/>
		<path class="st15" d="M495.6,192.5l4.8-2.8l2.3,6.3l-4.8,2.8L495.6,192.5z"/>
		<path class="st15" d="M484,169.9l4.8-2.8c-1,0.6-1.7,1.8-2,3.9l-4.8,2.8C482.3,171.7,483,170.5,484,169.9z"/>
		<path class="st15" d="M484,169.9l4.8-2.8c-0.4,0.2-0.8,0.6-1.1,1.1l-4.8,2.8C483.2,170.5,483.6,170.1,484,169.9z"/>
		<path class="st15" d="M482.9,171l4.8-2.8c-0.1,0.2-0.2,0.3-0.3,0.5l-4.8,2.8C482.7,171.3,482.8,171.1,482.9,171z"/>
		<path class="st15" d="M482.7,171.4l4.8-2.8c-0.1,0.1-0.1,0.3-0.2,0.5l-4.8,2.8C482.5,171.7,482.6,171.6,482.7,171.4z"/>
		<path class="st15" d="M482.5,171.9l4.8-2.8c-0.1,0.1-0.1,0.3-0.1,0.5l-4.8,2.8C482.4,172.2,482.4,172,482.5,171.9z"/>
		<path class="st15" d="M482.3,172.4l4.8-2.8c0,0.1-0.1,0.3-0.1,0.5l-4.8,2.8C482.2,172.7,482.3,172.5,482.3,172.4z"/>
		<path class="st15" d="M482.2,172.8l4.8-2.8c0,0.2-0.1,0.3-0.1,0.5l-4.8,2.8C482.1,173.1,482.2,173,482.2,172.8z"/>
		<path class="st15" d="M482.1,173.3l4.8-2.8c0,0.1,0,0.3-0.1,0.5l-4.8,2.8C482.1,173.6,482.1,173.4,482.1,173.3z"/>
		<path class="st15" d="M482,173.8l4.9-2.8l10.9,6.3l-4.8,2.8L482,173.8z"/>
		<path class="st15" d="M503.8,182.8c0-0.1,0-0.2,0-0.3c0-0.3,0-0.6,0-0.9c0,0,0,0,0-0.1s0-0.1,0-0.2c0-0.2,0-0.4,0-0.6v-0.1
			c0-0.1,0-0.1,0-0.2c0-0.2,0-0.3,0-0.5c0-0.1,0-0.1,0-0.2c0-0.1,0-0.1,0-0.2c0-0.2,0-0.3-0.1-0.5c0-0.1,0-0.1,0-0.2
			c0-0.1,0-0.1,0-0.2c0-0.1,0-0.3-0.1-0.4c0-0.1,0-0.2,0-0.2v-0.1c0-0.1,0-0.3-0.1-0.4c0-0.1,0-0.2,0-0.2v-0.1
			c0-0.1-0.1-0.3-0.1-0.4c0-0.1,0-0.2-0.1-0.3v-0.1c0-0.1-0.1-0.2-0.1-0.4c0-0.1,0-0.2-0.1-0.3v-0.1c0-0.1-0.1-0.2-0.1-0.3
			c0-0.1,0-0.2-0.1-0.2c0-0.1,0-0.1-0.1-0.2c0-0.1-0.1-0.2-0.1-0.3c0-0.1,0-0.1-0.1-0.2c0-0.1,0-0.2-0.1-0.2c0-0.1-0.1-0.2-0.1-0.3
			v-0.1c0-0.1-0.1-0.2-0.1-0.4c0-0.1,0-0.1-0.1-0.2c0,0,0,0,0-0.1c-0.1-0.2-0.1-0.4-0.2-0.6v-0.1c-0.1-0.1-0.1-0.3-0.2-0.4
			c0-0.1,0-0.1-0.1-0.2c0-0.1-0.1-0.1-0.1-0.2c0-0.1,0-0.1-0.1-0.2c-0.1-0.1-0.1-0.2-0.2-0.4c0,0,0-0.1-0.1-0.1
			c-0.1-0.2-0.2-0.3-0.2-0.5c0,0,0,0,0-0.1c0-0.1-0.1-0.2-0.1-0.3c-0.1-0.1-0.1-0.2-0.2-0.3c0,0,0,0,0-0.1c-0.2-0.3-0.3-0.6-0.5-0.8
			c-0.1-0.2-0.2-0.4-0.3-0.5l-0.1-0.1c-0.1-0.1-0.1-0.2-0.2-0.3c0,0,0-0.1-0.1-0.1c-0.2-0.3-0.4-0.5-0.6-0.8
			c-0.1-0.2-0.3-0.3-0.4-0.5l-0.1-0.1c-0.1-0.1-0.2-0.2-0.2-0.3l-0.1-0.1c0-0.1-0.1-0.1-0.1-0.2c0-0.1-0.1-0.1-0.1-0.2
			c-0.1-0.1-0.1-0.2-0.2-0.2l-0.1-0.1c0,0,0,0-0.1-0.1c-0.1-0.1-0.3-0.3-0.4-0.4c0,0,0,0-0.1-0.1c-0.1-0.1-0.2-0.2-0.4-0.4
			c0,0-0.1,0-0.1-0.1c-0.1-0.1-0.1-0.1-0.2-0.2s-0.1-0.1-0.2-0.2l-0.1-0.1c-0.1-0.1-0.1-0.1-0.2-0.2c-0.1,0-0.1-0.1-0.2-0.1
			c-0.1-0.1-0.1-0.1-0.2-0.2c-0.1-0.1-0.1-0.1-0.2-0.2l-0.1-0.1c-0.1-0.1-0.2-0.1-0.3-0.2c-0.1-0.1-0.1-0.1-0.2-0.2c0,0,0,0-0.1,0
			c-0.1-0.1-0.3-0.2-0.4-0.3l-0.1-0.1c-0.2-0.1-0.4-0.3-0.6-0.4c-0.1,0-0.1-0.1-0.2-0.1c-0.1-0.1-0.3-0.2-0.4-0.2l-0.1-0.1
			c-0.1-0.1-0.2-0.1-0.4-0.2c0,0-0.1,0-0.1-0.1c-0.1,0-0.1-0.1-0.2-0.1l-0.1-0.1c-0.1,0-0.2-0.1-0.2-0.1c-0.1,0-0.1-0.1-0.2-0.1
			c0,0,0,0-0.1,0c-0.2-0.1-0.3-0.1-0.5-0.2c-0.2-0.1-0.3-0.1-0.5-0.2c0,0,0,0-0.1,0s-0.1,0-0.2-0.1c-0.1,0-0.2-0.1-0.2-0.1h-0.1
			c-0.1,0-0.1,0-0.2-0.1c-0.1,0-0.1,0-0.2,0s-0.1,0-0.2,0s-0.1,0-0.2,0h-0.1c-0.1,0-0.1,0-0.2,0s-0.2,0-0.2,0h-0.1
			c-0.1,0-0.1,0-0.2,0s-0.2,0-0.3,0h-0.1c-0.1,0-0.1,0-0.2,0c-0.1,0-0.2,0-0.3,0h-0.1c-0.1,0-0.2,0-0.3,0s-0.2,0-0.3,0h-0.1h-0.1
			c-0.1,0-0.3,0-0.4,0.1h-0.1c-0.1,0-0.2,0.1-0.4,0.1c-0.1,0-0.1,0-0.2,0.1c-0.1,0-0.2,0-0.2,0.1H485c0,0,0,0-0.1,0
			c-0.1,0.1-0.3,0.1-0.4,0.2c0,0,0,0-0.1,0c-0.1,0.1-0.3,0.1-0.4,0.2l-4.8,2.8c0.1-0.1,0.3-0.1,0.4-0.2c0,0,0,0,0.1,0
			c0.1-0.1,0.3-0.1,0.4-0.2c0,0,0,0,0.1,0s0.2-0.1,0.3-0.1c0.1,0,0.1,0,0.2-0.1c0.1,0,0.2-0.1,0.4-0.1h0.1c0.1,0,0.3-0.1,0.4-0.1
			h0.1c0.1,0,0.3,0,0.4,0c0.1,0,0.3,0,0.4,0c0.1,0,0.2,0,0.3,0s0.2,0,0.2,0c0.1,0,0.2,0,0.3,0s0.2,0,0.3,0c0.1,0,0.2,0,0.2,0
			c0.1,0,0.2,0,0.3,0.1c0.1,0,0.1,0,0.2,0s0.2,0.1,0.3,0.1c0.1,0,0.1,0,0.2,0.1c0.1,0,0.2,0.1,0.4,0.1c0.1,0,0.1,0,0.2,0.1
			c0.2,0.1,0.3,0.1,0.5,0.2c0.2,0.1,0.4,0.1,0.5,0.2c0.1,0,0.1,0.1,0.2,0.1c0.1,0.1,0.2,0.1,0.4,0.2c0.1,0,0.1,0.1,0.2,0.1
			c0.2,0.1,0.3,0.2,0.5,0.3c0.2,0.1,0.4,0.2,0.5,0.3c0.1,0,0.1,0.1,0.2,0.1c0.2,0.1,0.4,0.3,0.6,0.4l0.1,0.1
			c0.2,0.1,0.3,0.2,0.5,0.3c0.1,0.1,0.1,0.1,0.2,0.2c0.1,0.1,0.3,0.2,0.4,0.3s0.1,0.1,0.2,0.2c0.1,0.1,0.2,0.2,0.3,0.3
			s0.1,0.1,0.2,0.2c0.1,0.1,0.2,0.2,0.3,0.3s0.1,0.1,0.2,0.2c0.1,0.1,0.3,0.3,0.4,0.4c0,0,0,0,0.1,0.1c0.2,0.2,0.3,0.3,0.5,0.5
			l0.1,0.1c0.1,0.1,0.2,0.3,0.4,0.4c0,0.1,0.1,0.1,0.1,0.2c0.1,0.1,0.2,0.3,0.3,0.4l0.1,0.1c0.1,0.2,0.3,0.4,0.4,0.6
			c0.2,0.3,0.4,0.5,0.6,0.8c0.1,0.1,0.2,0.3,0.3,0.4l0.1,0.1c0.1,0.2,0.2,0.4,0.4,0.6c0.2,0.3,0.3,0.6,0.5,0.8
			c0.1,0.1,0.1,0.2,0.2,0.4c0,0.1,0.1,0.2,0.1,0.3c0.1,0.2,0.2,0.4,0.3,0.6c0,0,0,0.1,0.1,0.1c0.1,0.2,0.2,0.4,0.2,0.5
			c0,0.1,0.1,0.1,0.1,0.2c0.1,0.2,0.2,0.4,0.2,0.5v0.1c0.1,0.2,0.2,0.4,0.2,0.7c0,0.1,0,0.1,0.1,0.2c0.1,0.2,0.1,0.3,0.2,0.5
			c0,0.1,0.1,0.2,0.1,0.3c0,0.1,0.1,0.3,0.1,0.4s0.1,0.2,0.1,0.3c0,0.1,0.1,0.3,0.1,0.4c0,0.1,0.1,0.2,0.1,0.3s0.1,0.3,0.1,0.4
			c0,0.1,0.1,0.2,0.1,0.4c0,0.1,0.1,0.3,0.1,0.4c0,0.1,0.1,0.3,0.1,0.4c0,0.1,0,0.3,0.1,0.4c0,0.1,0,0.3,0.1,0.4
			c0,0.1,0,0.2,0.1,0.4c0,0.1,0,0.3,0.1,0.4c0,0.1,0,0.2,0,0.4c0,0.2,0,0.3,0.1,0.5c0,0.1,0,0.2,0,0.4s0,0.3,0,0.5
			c0,0.1,0,0.2,0,0.3c0,0.2,0,0.4,0,0.6c0,0.1,0,0.2,0,0.3c0,0.3,0,0.6,0,0.9v0.1c0,0.1,0,0.2,0,0.3c0,0,0,0,0,0.1
			c0,0.1,0,0.2,0,0.4c0,0,0,0,0,0.1c0,0.1,0,0.2,0,0.4c0,0.1,0,0.2,0,0.4v0.1c0,0.1,0,0.2,0,0.3c0,0.1,0,0.2,0,0.3v0.1
			c0,0.1,0,0.1,0,0.2c0,0,0,0,0,0.1s0,0.1,0,0.2c0,0.1,0,0.1,0,0.2c0,0.1,0,0.1,0,0.1c0,0.1,0,0.1,0,0.2v0.1l4.8-2.8c0,0,0,0,0-0.1
			c0-0.1,0-0.1,0-0.2v-0.1c0-0.1,0-0.1,0-0.2c0-0.1,0-0.1,0-0.2c0,0,0,0,0-0.1c0-0.1,0-0.1,0-0.2c0-0.1,0-0.2,0-0.3
			c0-0.1,0-0.2,0-0.3c0-0.1,0-0.2,0-0.4c0-0.1,0-0.2,0-0.4C503.8,183.1,503.8,183,503.8,182.8C503.8,182.8,503.8,182.9,503.8,182.8z
			"/>
		<path class="st26" d="M499,185.2c0,1.5-0.2,2.9-0.3,3.5l-16.5-9.5c0.6,5.4,3.4,9.7,7.4,12c2.2,1.3,4.1,1.6,6,1.3l2.4,6.3
			c-2.6,0.6-6-0.1-9.4-2c-7.5-4.3-13.3-13.7-13.3-23.8c0-10,6.1-12.7,12.5-9C495.2,168.2,499,176.7,499,185.2z M482,173.8l10.9,6.3
			c0-4.2-1.6-7.8-5.1-9.8C485.1,168.7,482.6,169.5,482,173.8z"/>
		
			<linearGradient id="SVGID_38_" gradientUnits="userSpaceOnUse" x1="475.275" y1="219.2871" x2="498.975" y2="219.2871" gradientTransform="matrix(1 0 0 -1 0 400)">
			<stop  offset="0" style="stop-color:#F73E69"/>
			<stop  offset="1" style="stop-color:#FF82A3"/>
		</linearGradient>
		<path class="st58" d="M499,185.2c0,1.5-0.2,2.9-0.3,3.5l-16.5-9.5c0.6,5.4,3.4,9.7,7.4,12c2.2,1.3,4.1,1.6,6,1.3l2.4,6.3
			c-2.6,0.6-6-0.1-9.4-2c-7.5-4.3-13.3-13.7-13.3-23.8c0-10,6.1-12.7,12.5-9C495.2,168.2,499,176.7,499,185.2z M482,173.8l10.9,6.3
			c0-4.2-1.6-7.8-5.1-9.8C485.1,168.7,482.6,169.5,482,173.8z"/>
		
			<linearGradient id="SVGID_39_" gradientUnits="userSpaceOnUse" x1="372.525" y1="-4.45" x2="434.883" y2="-4.45" gradientTransform="matrix(1 0 0 -1 0 400)">
			<stop  offset="0" style="stop-color:#000000"/>
			<stop  offset="1" style="stop-color:#000000;stop-opacity:0.2"/>
		</linearGradient>
		<path class="st59" d="M407.7,387.4c-2.1-1.2-5.7-1.2-7.8,0l-25.7,14.7c-2.2,1.2-2.2,3.2,0,4.5l25.8,14.9c2.1,1.2,5.7,1.2,7.8,0
			l25.6-14.8c2.1-1.2,2.1-3.3,0-4.5L407.7,387.4z"/>
		
			<linearGradient id="SVGID_40_" gradientUnits="userSpaceOnUse" x1="412.0961" y1="8.3404" x2="390.8561" y2="-7.2356" gradientTransform="matrix(1 0 0 -1 0 400)">
			<stop  offset="0" style="stop-color:#3FB6FF"/>
			<stop  offset="0.1098" style="stop-color:#3FAFFE"/>
			<stop  offset="0.273" style="stop-color:#409BFC"/>
			<stop  offset="0.4692" style="stop-color:#417AF8"/>
			<stop  offset="0.6912" style="stop-color:#424CF2"/>
			<stop  offset="0.9319" style="stop-color:#4412EB"/>
			<stop  offset="1" style="stop-color:#4400E9"/>
		</linearGradient>
		<path class="st60" d="M431,396.1c-0.4-0.6-0.8-1.2-1.2-1.8l-19.5-7.6l-0.9-0.5c-1.9-1.1-4.9-1.1-6.8,0l-1,0.5l-25.2,8.9l-0.1,2.6
			c0,1.1,0.6,2,1.5,2.6l22.4,13.1c1.9,1.1,4.9,1.1,6.8,0l23-13.1c0.6-0.4,1-1,1-1.7V396.1z"/>
		
			<linearGradient id="SVGID_41_" gradientUnits="userSpaceOnUse" x1="376.345" y1="4.3" x2="430.995" y2="4.3" gradientTransform="matrix(1 0 0 -1 0 400)">
			<stop  offset="0" style="stop-color:#3FB6FF"/>
			<stop  offset="0.1098" style="stop-color:#3FAFFE"/>
			<stop  offset="0.273" style="stop-color:#409BFC"/>
			<stop  offset="0.4692" style="stop-color:#417AF8"/>
			<stop  offset="0.6912" style="stop-color:#424CF2"/>
			<stop  offset="0.9319" style="stop-color:#4412EB"/>
			<stop  offset="1" style="stop-color:#4400E9"/>
		</linearGradient>
		<path class="st61" d="M407.2,380.8c-1.9-1.1-5-1.1-6.8,0l-22.5,12.9c-1.9,1.1-1.9,2.8,0,3.9l22.6,13c1.9,1.1,5,1.1,6.8,0
			l22.4-12.9c1.9-1.1,1.9-2.9,0-3.9L407.2,380.8z"/>
		<path class="st26" d="M395.9,403.7l-3.5-11.8c-0.4-1.3,0.4-2.7,1.7-3.1c1.3-0.4,2.7,0.4,3.1,1.7l2.1,7.1l19.2-5
			c1.3-0.3,2.7,0.5,3.1,1.8c0.4,1.4-0.5,2.7-1.8,3.1L395.9,403.7z"/>
		<g class="st19">
			
				<linearGradient id="SVGID_42_" gradientUnits="userSpaceOnUse" x1="-5" y1="165.75" x2="165.175" y2="165.75" gradientTransform="matrix(1 0 0 -1 0 400)">
				<stop  offset="0" style="stop-color:#000000"/>
				<stop  offset="1" style="stop-color:#000000;stop-opacity:0.2"/>
			</linearGradient>
			<path class="st62" d="M160.4,257.6l-49.3,28.7c-3,1.7-6.7,1.8-9.7,0L-0.1,227.7c-6.5-3.7-6.5-13,0-16.8l49.3-28.7
				c3-1.7,6.7-1.8,9.7,0l101.5,58.6C166.8,244.6,166.8,253.9,160.4,257.6z"/>
		</g>
		
			<linearGradient id="SVGID_43_" gradientUnits="userSpaceOnUse" x1="11.9303" y1="223.85" x2="56.1858" y2="223.85" gradientTransform="matrix(1 0 0 -1 0 400)">
			<stop  offset="0" style="stop-color:#FFCC47"/>
			<stop  offset="0.9836" style="stop-color:#FF8D46"/>
		</linearGradient>
		<path class="st63" d="M52.8,158.2l3.4,6.6l-3.5,5.6l-4.5,13L12,194.1v-12.2L52.8,158.2z"/>
		
			<linearGradient id="SVGID_44_" gradientUnits="userSpaceOnUse" x1="52.6748" y1="218.45" x2="124.575" y2="218.45" gradientTransform="matrix(1 0 0 -1 0 400)">
			<stop  offset="0" style="stop-color:#FFCC47"/>
			<stop  offset="0.9836" style="stop-color:#FF8D46"/>
		</linearGradient>
		<path class="st64" d="M124.6,192.6l-0.1,19.3l-53.4-21.8l-18.4-19.7l0.1-19.2L124.6,192.6z"/>
		
			<linearGradient id="SVGID_45_" gradientUnits="userSpaceOnUse" x1="51.875" y1="227.95" x2="124.575" y2="227.95" gradientTransform="matrix(1 0 0 -1 0 400)">
			<stop  offset="0" style="stop-color:#FFCC47"/>
			<stop  offset="0.9836" style="stop-color:#FF8D46"/>
		</linearGradient>
		<path class="st65" d="M124.6,192.6l-0.9,0.4l-71.8-41.5l0.9-0.4L124.6,192.6z"/>
		<path class="st66" d="M123.7,194.6V193l-71.8-41.5v1.7L123.7,194.6z"/>
		<path class="st66" d="M52.7,158.2l0.9,0.6l-40.8,23.7l-0.9-0.6L52.7,158.2z"/>
		
			<linearGradient id="SVGID_46_" gradientUnits="userSpaceOnUse" x1="12.7754" y1="228.9" x2="53.5754" y2="228.9" gradientTransform="matrix(1 0 0 -1 0 400)">
			<stop  offset="0" style="stop-color:#FFCC47"/>
			<stop  offset="0.9836" style="stop-color:#FF8D46"/>
		</linearGradient>
		<path class="st67" d="M53.6,159.7v-0.9l-40.8,23.7v0.9L53.6,159.7z"/>
		
			<linearGradient id="SVGID_47_" gradientUnits="userSpaceOnUse" x1="93.1232" y1="142.269" x2="107.623" y2="142.269" gradientTransform="matrix(1 0 0 -1 0 400)">
			<stop  offset="0" style="stop-color:#3FB6FF"/>
			<stop  offset="0.1098" style="stop-color:#3FAFFE"/>
			<stop  offset="0.273" style="stop-color:#409BFC"/>
			<stop  offset="0.4692" style="stop-color:#417AF8"/>
			<stop  offset="0.6912" style="stop-color:#424CF2"/>
			<stop  offset="0.9319" style="stop-color:#4412EB"/>
			<stop  offset="1" style="stop-color:#4400E9"/>
		</linearGradient>
		<path class="st68" d="M100.4,249.4c4,2.3,7.2,7.9,7.2,12.5s-3.3,6.5-7.3,4.1c-4-2.3-7.2-7.9-7.2-12.5
			C93.2,249,96.4,247.1,100.4,249.4z"/>
		<g class="st9">
			<path class="st69" d="M102.5,261.4c1.2-0.7,1.2-2.9,0-5c-1.2-2.1-3.1-3.2-4.3-2.5c-1.2,0.7-1.2,2.9,0,5
				C99.4,261,101.3,262.1,102.5,261.4z"/>
		</g>
		<path class="st43" d="M114.5,257.6c0-0.1,0-0.2,0-0.4c0-0.1,0-0.1,0-0.2c0,0,0,0,0-0.1v-0.1c0-0.1,0-0.2,0-0.4
			c0-0.1,0-0.2-0.1-0.4c0-0.1,0-0.2-0.1-0.3c0-0.1,0-0.3-0.1-0.4v-0.1v-0.1c0-0.1,0-0.1,0-0.2c0-0.1-0.1-0.3-0.1-0.4
			s-0.1-0.2-0.1-0.3c0,0,0,0,0-0.1c0-0.1-0.1-0.3-0.1-0.4c0-0.1-0.1-0.2-0.1-0.4c0,0,0,0,0-0.1c0,0,0,0,0-0.1c0-0.1-0.1-0.2-0.1-0.2
			c0-0.1-0.1-0.2-0.1-0.4c0-0.1-0.1-0.2-0.1-0.3c-0.1-0.1-0.1-0.2-0.2-0.4c-0.1-0.1-0.1-0.3-0.2-0.4c0,0,0,0,0-0.1v-0.1
			c-0.1-0.1-0.1-0.2-0.2-0.3c-0.1-0.1-0.1-0.2-0.2-0.4c0-0.1-0.1-0.1-0.1-0.2c0,0,0,0,0-0.1c-0.1-0.1-0.1-0.2-0.2-0.3
			c-0.1-0.2-0.2-0.3-0.3-0.5c0,0,0,0,0-0.1c-0.1-0.2-0.3-0.4-0.5-0.7c-0.1-0.1-0.2-0.3-0.3-0.4c-0.1-0.1-0.2-0.2-0.3-0.3
			c-0.1-0.1-0.2-0.2-0.3-0.3c-0.1-0.1-0.2-0.2-0.3-0.3c0,0,0,0-0.1-0.1c-0.1-0.1-0.1-0.1-0.2-0.2c-0.1-0.1-0.2-0.2-0.3-0.3l-0.1-0.1
			c0,0,0,0-0.1-0.1c-0.1,0-0.1-0.1-0.2-0.1c-0.1-0.1-0.2-0.2-0.3-0.3L109,246c0,0,0,0-0.1-0.1l-0.1-0.1c-0.1-0.1-0.2-0.2-0.3-0.2
			c-0.1-0.1-0.2-0.1-0.2-0.2c-0.1-0.1-0.2-0.1-0.3-0.2c-0.1-0.1-0.2-0.1-0.3-0.2c0,0,0,0-0.1,0c-0.1,0-0.2-0.1-0.2-0.1
			c-0.1-0.1-0.2-0.1-0.3-0.2c-0.1,0-0.1-0.1-0.2-0.1c0,0,0,0-0.1,0s-0.2-0.1-0.3-0.1s-0.2-0.1-0.3-0.1c-0.1,0-0.1,0-0.2-0.1
			c-0.1,0-0.2-0.1-0.3-0.1h-0.1c0,0,0,0-0.1,0h-0.1c-0.1,0-0.2,0-0.3-0.1c-0.1,0-0.1,0-0.2,0c0,0,0,0-0.1,0c0,0,0,0-0.1,0
			c-0.1,0-0.2,0-0.3,0h-0.1h-0.1h-0.1c-0.1,0-0.3,0-0.4,0.1h-0.1c-0.1,0-0.3,0.1-0.4,0.1c-0.2,0.1-0.4,0.2-0.6,0.3l-6.8,4
			c0.2-0.1,0.4-0.2,0.6-0.3c0.1-0.1,0.3-0.1,0.4-0.1h0.1c0.2,0,0.4-0.1,0.5-0.1h0.1c0.2,0,0.4,0,0.6,0c0,0,0,0,0.1,0
			c0.2,0,0.4,0,0.6,0.1c0,0,0,0,0.1,0c0.2,0,0.4,0.1,0.6,0.2c0.2,0.1,0.5,0.2,0.7,0.3c0.2,0.1,0.5,0.2,0.7,0.4
			c0.2,0.1,0.5,0.3,0.7,0.5c0.2,0.2,0.4,0.3,0.7,0.5c0,0,0,0,0.1,0.1c0.2,0.2,0.4,0.4,0.6,0.5c0,0,0,0,0.1,0.1
			c0.2,0.2,0.4,0.4,0.6,0.6c0,0,0,0,0,0.1c0.2,0.2,0.4,0.5,0.6,0.7c0.2,0.2,0.4,0.5,0.6,0.8c0.2,0.2,0.3,0.5,0.5,0.7
			c0.1,0.2,0.2,0.3,0.3,0.5c0.1,0.1,0.2,0.3,0.2,0.4c0,0.1,0.1,0.1,0.1,0.2c0.1,0.2,0.2,0.4,0.4,0.7v0.1c0.1,0.3,0.3,0.6,0.4,0.8
			c0.1,0.3,0.2,0.6,0.3,0.8c0,0,0,0,0,0.1c0.1,0.3,0.2,0.6,0.3,0.9c0,0,0,0,0,0.1c0.1,0.3,0.2,0.6,0.2,0.8v0.1
			c0.1,0.3,0.1,0.6,0.2,0.9c0,0.3,0.1,0.6,0.1,0.9c0,0,0,0,0,0.1c0,0.3,0,0.6,0,0.8c0,0.3,0,0.5,0,0.8c0,0,0,0,0,0.1
			c0,0.2-0.1,0.5-0.1,0.7v0.1c0,0.2-0.1,0.4-0.2,0.6v0.1c-0.1,0.2-0.1,0.4-0.2,0.5c0,0,0,0,0,0.1c-0.1,0.2-0.2,0.4-0.3,0.5
			c0,0,0,0,0,0.1c-0.1,0.1-0.2,0.3-0.3,0.4l-0.1,0.1c-0.1,0.1-0.2,0.2-0.3,0.3l-0.1,0.1c-0.1,0.1-0.3,0.2-0.4,0.3l6.8-4
			c0.1-0.1,0.3-0.2,0.4-0.3l0.1-0.1c0.1-0.1,0.2-0.2,0.3-0.3l0.1-0.1c0.1-0.1,0.2-0.2,0.3-0.4c0,0,0,0,0-0.1
			c0.1-0.2,0.2-0.3,0.3-0.5c0,0,0,0,0-0.1c0.1-0.1,0.1-0.2,0.1-0.3s0-0.1,0.1-0.2v-0.1v-0.1c0-0.1,0.1-0.2,0.1-0.4v-0.1v-0.1v-0.1
			c0-0.1,0-0.2,0.1-0.3c0-0.1,0-0.1,0-0.2c0,0,0,0,0-0.1v-0.1c0-0.1,0-0.2,0-0.3s0-0.2,0-0.4C114.5,257.9,114.5,257.8,114.5,257.6z"
			/>
		
			<linearGradient id="SVGID_48_" gradientUnits="userSpaceOnUse" x1="22.6184" y1="185.278" x2="37.1184" y2="185.278" gradientTransform="matrix(1 0 0 -1 0 400)">
			<stop  offset="0" style="stop-color:#3FB6FF"/>
			<stop  offset="0.1098" style="stop-color:#3FAFFE"/>
			<stop  offset="0.273" style="stop-color:#409BFC"/>
			<stop  offset="0.4692" style="stop-color:#417AF8"/>
			<stop  offset="0.6912" style="stop-color:#424CF2"/>
			<stop  offset="0.9319" style="stop-color:#4412EB"/>
			<stop  offset="1" style="stop-color:#4400E9"/>
		</linearGradient>
		<path class="st70" d="M29.9,206.4c4,2.3,7.2,7.9,7.2,12.5c0,4.6-3.3,6.5-7.3,4.1c-4-2.3-7.2-7.9-7.2-12.5
			C22.7,205.9,25.9,204.1,29.9,206.4z"/>
		<g class="st9">
			<path class="st69" d="M32,218.4c1.2-0.7,1.2-2.9,0-5c-1.2-2.1-3.1-3.2-4.3-2.5c-1.2,0.7-1.2,2.9,0,5
				C28.9,218,30.8,219.1,32,218.4z"/>
		</g>
		<path class="st43" d="M44,214.6c0-0.1,0-0.2,0-0.4c0-0.1,0-0.1,0-0.2c0,0,0,0,0-0.1v-0.1c0-0.1,0-0.2,0-0.4c0-0.1,0-0.2-0.1-0.4
			c0-0.1,0-0.2-0.1-0.3c0-0.1,0-0.3-0.1-0.4v-0.1v-0.1c0-0.1,0-0.1,0-0.2c0-0.1-0.1-0.3-0.1-0.4s-0.1-0.2-0.1-0.3c0,0,0,0,0-0.1
			c0-0.1-0.1-0.3-0.1-0.4c0-0.1-0.1-0.2-0.1-0.4c0,0,0,0,0-0.1c0,0,0,0,0-0.1c0-0.1-0.1-0.2-0.1-0.2c0-0.1-0.1-0.2-0.1-0.4
			c0-0.1-0.1-0.2-0.1-0.3c-0.1-0.1-0.1-0.2-0.2-0.4c-0.1-0.1-0.1-0.3-0.2-0.4c0,0,0,0,0-0.1v-0.1c-0.1-0.1-0.1-0.2-0.2-0.3
			c-0.1-0.1-0.1-0.2-0.2-0.4c0-0.1-0.1-0.1-0.1-0.2c0,0,0,0,0-0.1c-0.1-0.1-0.1-0.2-0.2-0.3c-0.1-0.2-0.2-0.3-0.3-0.5c0,0,0,0,0-0.1
			c-0.1-0.2-0.3-0.4-0.5-0.7c-0.1-0.1-0.2-0.3-0.3-0.4c-0.1-0.1-0.2-0.2-0.3-0.3c-0.1-0.1-0.2-0.2-0.3-0.3c-0.1-0.1-0.2-0.2-0.3-0.3
			c0,0,0,0-0.1-0.1c-0.1-0.1-0.1-0.1-0.2-0.2c-0.1-0.1-0.2-0.2-0.3-0.3l-0.1-0.1c0,0,0,0-0.1-0.1c-0.1,0-0.1-0.1-0.2-0.1
			c-0.1-0.1-0.2-0.2-0.3-0.3l-0.1-0.1c0,0,0,0-0.1-0.1l-0.1-0.1c-0.1-0.1-0.2-0.2-0.3-0.2c-0.1-0.1-0.2-0.1-0.2-0.2
			c-0.1-0.1-0.2-0.1-0.3-0.2c-0.1-0.1-0.2-0.1-0.3-0.2c0,0,0,0-0.1,0c-0.1,0-0.2-0.1-0.2-0.1c-0.1-0.1-0.2-0.1-0.3-0.2
			c-0.1,0-0.1-0.1-0.2-0.1c0,0,0,0-0.1,0c-0.1,0-0.2-0.1-0.3-0.1c-0.1,0-0.2-0.1-0.3-0.1s-0.1,0-0.2-0.1c-0.1,0-0.2-0.1-0.3-0.1
			h-0.1c0,0,0,0-0.1,0h-0.1c-0.1,0-0.2,0-0.3-0.1c-0.1,0-0.1,0-0.2,0c0,0,0,0-0.1,0c0,0,0,0-0.1,0s-0.2,0-0.3,0h-0.1h-0.1h-0.1
			c-0.1,0-0.3,0-0.4,0.1h-0.1c-0.1,0-0.3,0.1-0.4,0.1c-0.2,0.1-0.4,0.2-0.6,0.3l-6.8,4c0.2-0.1,0.4-0.2,0.6-0.3
			c0.1-0.1,0.3-0.1,0.4-0.1h0.1c0.2,0,0.4-0.1,0.5-0.1H27c0.2,0,0.4,0,0.6,0c0,0,0,0,0.1,0c0.2,0,0.4,0,0.6,0.1c0,0,0,0,0.1,0
			c0.2,0,0.4,0.1,0.6,0.2c0.2,0.1,0.5,0.2,0.7,0.3c0.2,0.1,0.5,0.2,0.7,0.4c0.2,0.1,0.5,0.3,0.7,0.5c0.2,0.2,0.4,0.3,0.7,0.5
			c0,0,0,0,0.1,0.1c0.2,0.2,0.4,0.4,0.6,0.5c0,0,0,0,0.1,0.1c0.2,0.2,0.4,0.4,0.6,0.6c0,0,0,0,0,0.1c0.2,0.2,0.4,0.5,0.6,0.7
			c0.2,0.2,0.4,0.5,0.6,0.8c0.2,0.2,0.3,0.5,0.5,0.7c0.1,0.2,0.2,0.3,0.3,0.5c0.1,0.1,0.2,0.3,0.2,0.4c0,0.1,0.1,0.1,0.1,0.2
			c0.1,0.2,0.2,0.4,0.4,0.7v0.1c0.1,0.3,0.3,0.6,0.4,0.8c0.1,0.3,0.2,0.6,0.3,0.8c0,0,0,0,0,0.1c0.1,0.3,0.2,0.6,0.3,0.9
			c0,0,0,0,0,0.1c0.1,0.3,0.2,0.6,0.2,0.8v0.1c0.1,0.3,0.1,0.6,0.2,0.9c0,0.3,0.1,0.6,0.1,0.9c0,0,0,0,0,0.1c0,0.3,0,0.6,0,0.8
			c0,0.3,0,0.5,0,0.8c0,0,0,0,0,0.1c0,0.2-0.1,0.5-0.1,0.7v0.1c0,0.2-0.1,0.4-0.2,0.6v0.1c-0.1,0.2-0.1,0.4-0.2,0.5c0,0,0,0,0,0.1
			c-0.1,0.2-0.2,0.4-0.3,0.5c0,0,0,0,0,0.1c-0.1,0.1-0.2,0.3-0.3,0.4l-0.1,0.1c-0.1,0.1-0.2,0.2-0.3,0.3l-0.1,0.1
			c-0.1,0.1-0.3,0.2-0.4,0.3l6.8-4c0.1-0.1,0.3-0.2,0.4-0.3l0.1-0.1c0.1-0.1,0.2-0.2,0.3-0.3l0.1-0.1c0.1-0.1,0.2-0.2,0.3-0.4
			c0,0,0,0,0-0.1c0.1-0.2,0.2-0.3,0.3-0.5c0,0,0,0,0-0.1c0.1-0.1,0.1-0.2,0.1-0.3s0-0.1,0.1-0.2v-0.1v-0.1c0-0.1,0.1-0.2,0.1-0.4
			v-0.1v-0.1v-0.1c0-0.1,0-0.2,0.1-0.3c0-0.1,0-0.1,0-0.2c0,0,0,0,0-0.1v-0.1c0-0.1,0-0.2,0-0.3c0-0.1,0-0.2,0-0.4
			C44,214.8,44,214.7,44,214.6z"/>
		
			<linearGradient id="SVGID_49_" gradientUnits="userSpaceOnUse" x1="11.9756" y1="197" x2="124.476" y2="197" gradientTransform="matrix(1 0 0 -1 0 400)">
			<stop  offset="0" style="stop-color:#FFCC47"/>
			<stop  offset="0.9836" style="stop-color:#FF8D46"/>
		</linearGradient>
		<path class="st71" d="M124.5,211.9l-40.7,23.7L12,194.1l40.7-23.7L124.5,211.9z"/>
		
			<linearGradient id="SVGID_50_" gradientUnits="userSpaceOnUse" x1="11.875" y1="194.75" x2="83.775" y2="194.75" gradientTransform="matrix(1 0 0 -1 0 400)">
			<stop  offset="0" style="stop-color:#FFCC47"/>
			<stop  offset="0.9836" style="stop-color:#FF8D46"/>
		</linearGradient>
		<path class="st72" d="M83.8,216.3l-0.1,19.3l-71.8-41.5l0.1-19.2L83.8,216.3z"/>
		<g class="st73">
			<g class="st73">
				<path class="st74" d="M78.5,213.3v19.2l-0.6-0.3l0.1-19.3L78.5,213.3z"/>
				<path class="st74" d="M73.6,210.4v19.3l-0.6-0.3l0.1-19.3L73.6,210.4z"/>
				<path class="st74" d="M68.7,207.6v19.3l-0.6-0.4l0.1-19.2L68.7,207.6z"/>
				<path class="st74" d="M63.8,204.8V224l-0.6-0.3l0.1-19.2L63.8,204.8z"/>
				<path class="st74" d="M58.9,202v19.2l-0.6-0.3l0.1-19.3L58.9,202z"/>
				<path class="st74" d="M54,199.1v19.3l-0.6-0.3l0.1-19.3L54,199.1z"/>
				<path class="st74" d="M49.1,196.3v19.3l-0.6-0.4l0.1-19.2L49.1,196.3z"/>
				<path class="st74" d="M44.2,193.5v19.2l-0.6-0.3l0.1-19.2L44.2,193.5z"/>
				<path class="st74" d="M39.3,190.7v19.2l-0.6-0.3l0.1-19.3L39.3,190.7z"/>
				<path class="st74" d="M34.4,187.8v19.3l-0.6-0.3l0.1-19.3L34.4,187.8z"/>
				<path class="st74" d="M29.5,185l-0.1,19.3l-0.5-0.4l0.1-19.2L29.5,185z"/>
				<path class="st74" d="M24.6,182.2l-0.1,19.2l-0.5-0.3l0.1-19.2L24.6,182.2z"/>
				<path class="st74" d="M19.7,179.4l-0.1,19.2l-0.5-0.3l0.1-19.3L19.7,179.4z"/>
				<path class="st74" d="M14.8,176.5l-0.1,19.3l-0.5-0.3v-19.3L14.8,176.5z"/>
			</g>
		</g>
		
			<linearGradient id="SVGID_51_" gradientUnits="userSpaceOnUse" x1="11.0752" y1="204.2" x2="83.7752" y2="204.2" gradientTransform="matrix(1 0 0 -1 0 400)">
			<stop  offset="0" style="stop-color:#FFCC47"/>
			<stop  offset="0.9836" style="stop-color:#FF8D46"/>
		</linearGradient>
		<path class="st75" d="M83.8,216.3l-0.9,0.4l-71.8-41.4l0.9-0.4L83.8,216.3z"/>
		<path class="st66" d="M82.9,218.4v-1.7l-71.8-41.4v1.6L82.9,218.4z"/>
		
			<linearGradient id="SVGID_52_" gradientUnits="userSpaceOnUse" x1="83.7302" y1="191.05" x2="124.586" y2="191.05" gradientTransform="matrix(1 0 0 -1 0 400)">
			<stop  offset="0" style="stop-color:#FFCC47"/>
			<stop  offset="0.9836" style="stop-color:#FF8D46"/>
		</linearGradient>
		<path class="st76" d="M124.6,182.3l-0.1,29.6l-40.7,23.7V206L124.6,182.3z"/>
		<path class="st66" d="M124.6,182.3l-0.8-0.1L83,205.9l0.8,0.1L124.6,182.3z"/>
		<path class="st66" d="M83,205.9l-0.1,29.5l0.9,0.2V206L83,205.9z"/>
		
			<linearGradient id="SVGID_53_" gradientUnits="userSpaceOnUse" x1="89.9756" y1="195.55" x2="150.5531" y2="195.55" gradientTransform="matrix(1 0 0 -1 0 400)">
			<stop  offset="0" style="stop-color:#3FB6FF"/>
			<stop  offset="0.1098" style="stop-color:#3FAFFE"/>
			<stop  offset="0.273" style="stop-color:#409BFC"/>
			<stop  offset="0.4692" style="stop-color:#417AF8"/>
			<stop  offset="0.6912" style="stop-color:#424CF2"/>
			<stop  offset="0.9319" style="stop-color:#4412EB"/>
			<stop  offset="1" style="stop-color:#4400E9"/>
		</linearGradient>
		<path class="st77" d="M150.5,200.4L113.4,222L90,208.4l37.1-21.5L150.5,200.4z"/>
		<path class="st78" d="M134.5,224.1v4.7l-5.2,3v-4.7L134.5,224.1z"/>
		
			<linearGradient id="SVGID_54_" gradientUnits="userSpaceOnUse" x1="113.275" y1="172.1" x2="150.475" y2="172.1" gradientTransform="matrix(1 0 0 -1 0 400)">
			<stop  offset="0" style="stop-color:#3FB6FF"/>
			<stop  offset="0.1098" style="stop-color:#3FAFFE"/>
			<stop  offset="0.273" style="stop-color:#409BFC"/>
			<stop  offset="0.4692" style="stop-color:#417AF8"/>
			<stop  offset="0.6912" style="stop-color:#424CF2"/>
			<stop  offset="0.9319" style="stop-color:#4412EB"/>
			<stop  offset="1" style="stop-color:#4400E9"/>
		</linearGradient>
		<path class="st79" d="M150.5,200.4l-0.1,33.5l-17.3,19l-19.8,2.5l0.1-33.4L150.5,200.4z"/>
		<g class="st80">
			<path class="st81" d="M130.5,214.3v5l-13.6,7.8l0.1-4.9L130.5,214.3z"/>
		</g>
		<g class="st80">
			<path class="st81" d="M147.2,204.9v5l-13.5,7.8v-4.9L147.2,204.9z"/>
		</g>
		
			<linearGradient id="SVGID_55_" gradientUnits="userSpaceOnUse" x1="113.402" y1="172.5" x2="166.614" y2="172.5" gradientTransform="matrix(1 0 0 -1 0 400)">
			<stop  offset="0" style="stop-color:#3FB6FF"/>
			<stop  offset="0.1098" style="stop-color:#3FAFFE"/>
			<stop  offset="0.273" style="stop-color:#409BFC"/>
			<stop  offset="0.4692" style="stop-color:#417AF8"/>
			<stop  offset="0.6912" style="stop-color:#424CF2"/>
			<stop  offset="0.9319" style="stop-color:#4412EB"/>
			<stop  offset="1" style="stop-color:#4400E9"/>
		</linearGradient>
		<path class="st82" d="M165.6,225.5l-34.4,20l-17.7-14.4l37.1-21.6l15.3,12.4C167,222.9,166.9,224.7,165.6,225.5z"/>
		
			<linearGradient id="SVGID_56_" gradientUnits="userSpaceOnUse" x1="131.029" y1="155.2" x2="168.229" y2="155.2" gradientTransform="matrix(1 0 0 -1 0 400)">
			<stop  offset="0" style="stop-color:#3FB6FF"/>
			<stop  offset="0.1098" style="stop-color:#3FAFFE"/>
			<stop  offset="0.273" style="stop-color:#409BFC"/>
			<stop  offset="0.4692" style="stop-color:#417AF8"/>
			<stop  offset="0.6912" style="stop-color:#424CF2"/>
			<stop  offset="0.9319" style="stop-color:#4412EB"/>
			<stop  offset="1" style="stop-color:#4400E9"/>
		</linearGradient>
		<path class="st83" d="M168.2,227.5l-0.1,15.5c0,0.7-0.4,1.4-1,1.7L134,263.9c-1.4,0.8-3-0.2-3-1.8l0.1-15.5c0-0.7,0.4-1.4,1-1.7
			l33.1-19.2C166.5,224.9,168.2,225.9,168.2,227.5z"/>
		<g class="st73">
			<g class="st73">
				
					<linearGradient id="SVGID_57_" gradientUnits="userSpaceOnUse" x1="140.416" y1="161.25" x2="160.616" y2="161.25" gradientTransform="matrix(1 0 0 -1 0 400)">
					<stop  offset="0" style="stop-color:#3FB6FF"/>
					<stop  offset="0.1098" style="stop-color:#3FAFFE"/>
					<stop  offset="0.273" style="stop-color:#409BFC"/>
					<stop  offset="0.4692" style="stop-color:#417AF8"/>
					<stop  offset="0.6912" style="stop-color:#424CF2"/>
					<stop  offset="0.9319" style="stop-color:#4412EB"/>
					<stop  offset="1" style="stop-color:#4400E9"/>
				</linearGradient>
				<path class="st84" d="M160.6,232.1v1.6l-20.2,11.7l0.1-1.6L160.6,232.1z"/>
			</g>
			<g class="st73">
				
					<linearGradient id="SVGID_58_" gradientUnits="userSpaceOnUse" x1="140.416" y1="157.05" x2="160.616" y2="157.05" gradientTransform="matrix(1 0 0 -1 0 400)">
					<stop  offset="0" style="stop-color:#3FB6FF"/>
					<stop  offset="0.1098" style="stop-color:#3FAFFE"/>
					<stop  offset="0.273" style="stop-color:#409BFC"/>
					<stop  offset="0.4692" style="stop-color:#417AF8"/>
					<stop  offset="0.6912" style="stop-color:#424CF2"/>
					<stop  offset="0.9319" style="stop-color:#4412EB"/>
					<stop  offset="1" style="stop-color:#4400E9"/>
				</linearGradient>
				<path class="st85" d="M160.6,236.3v1.6l-20.2,11.7l0.1-1.6L160.6,236.3z"/>
			</g>
			<g class="st73">
				
					<linearGradient id="SVGID_59_" gradientUnits="userSpaceOnUse" x1="140.416" y1="152.85" x2="160.616" y2="152.85" gradientTransform="matrix(1 0 0 -1 0 400)">
					<stop  offset="0" style="stop-color:#3FB6FF"/>
					<stop  offset="0.1098" style="stop-color:#3FAFFE"/>
					<stop  offset="0.273" style="stop-color:#409BFC"/>
					<stop  offset="0.4692" style="stop-color:#417AF8"/>
					<stop  offset="0.6912" style="stop-color:#424CF2"/>
					<stop  offset="0.9319" style="stop-color:#4412EB"/>
					<stop  offset="1" style="stop-color:#4400E9"/>
				</linearGradient>
				<path class="st86" d="M160.6,240.5v1.6l-20.2,11.7l0.1-1.6L160.6,240.5z"/>
			</g>
		</g>
		
			<linearGradient id="SVGID_60_" gradientUnits="userSpaceOnUse" x1="89.8288" y1="163.9276" x2="131.093" y2="163.9276" gradientTransform="matrix(1 0 0 -1 0 400)">
			<stop  offset="0" style="stop-color:#3FB6FF"/>
			<stop  offset="0.1098" style="stop-color:#3FAFFE"/>
			<stop  offset="0.273" style="stop-color:#409BFC"/>
			<stop  offset="0.4692" style="stop-color:#417AF8"/>
			<stop  offset="0.6912" style="stop-color:#424CF2"/>
			<stop  offset="0.9319" style="stop-color:#4412EB"/>
			<stop  offset="1" style="stop-color:#4400E9"/>
		</linearGradient>
		<path class="st87" d="M113.4,222L90,208.4l-0.1,31.9c0,1,0.5,1.9,1.4,2.4l22.1,12.8l13.7,7.9c1.8,1,4.1-0.3,4.1-2.3l0.1-10.5
			c0-3.1-1.4-6.1-3.8-8l-13.9-11.3"/>
		<g class="st80">
			<path class="st81" d="M99.4,216.7l-0.1,8.4l-7.2-4l0.1-8.4L99.4,216.7z"/>
		</g>
		<g class="st80">
			<path class="st81" d="M109,221.8v8.4l-7.2-4.1v-8.4L109,221.8z"/>
		</g>
	</g>
</g>
</svg>
